<svg id="svg" version="1.1" xmlns="http://www.w3.org/2000/svg" xmlns:xlink="http://www.w3.org/1999/xlink" width="400" height="462.03208556149735" viewBox="0, 0, 400,462.03208556149735"><g id="svgg"><path id="path0" d="M191.800 51.840 C 188.171 52.644,184.309 54.170,181.800 55.793 C 180.700 56.504,179.021 57.573,178.068 58.168 C 172.942 61.371,166.174 70.762,168.183 71.887 C 170.049 72.931,178.992 81.708,181.659 85.112 C 182.396 86.054,183.654 87.615,184.453 88.582 C 185.252 89.548,186.769 91.748,187.824 93.470 C 188.879 95.191,189.986 96.891,190.284 97.246 C 190.876 97.952,193.232 102.694,195.030 106.800 C 195.656 108.230,196.288 109.490,196.435 109.600 C 196.778 109.857,199.600 118.589,199.600 119.393 C 199.600 121.139,200.705 119.619,201.493 116.786 C 201.985 115.022,202.820 112.638,203.351 111.489 C 203.881 110.340,205.088 107.610,206.035 105.422 C 207.862 101.198,213.425 91.702,215.355 89.511 C 215.991 88.790,216.965 87.480,217.520 86.600 C 218.703 84.726,228.627 74.590,231.100 72.730 C 233.184 71.162,233.191 70.904,231.233 67.609 C 224.016 55.461,206.709 48.540,191.800 51.840 M113.603 147.300 C 113.607 233.972,113.638 235.037,116.398 243.800 C 120.072 255.466,120.936 257.630,124.621 264.400 C 128.487 271.502,136.082 281.021,142.000 286.181 C 143.210 287.237,144.732 288.562,145.383 289.127 C 147.026 290.554,152.472 294.447,153.200 294.715 C 153.530 294.837,154.310 295.356,154.933 295.870 C 155.556 296.384,158.166 297.812,160.733 299.044 C 163.300 300.276,166.210 301.700,167.200 302.208 C 169.752 303.518,178.035 305.852,183.530 306.810 C 186.098 307.257,188.968 307.798,189.906 308.012 C 193.604 308.854,193.200 313.446,193.200 270.600 L 193.200 232.800 200.200 232.800 L 207.200 232.800 207.200 270.600 L 207.200 308.400 208.272 308.400 C 208.861 308.400,209.896 308.234,210.572 308.031 C 211.247 307.827,214.077 307.276,216.860 306.805 C 222.237 305.894,230.476 303.619,232.800 302.403 C 233.570 301.999,236.270 300.695,238.800 299.504 C 242.783 297.629,252.628 291.504,253.800 290.172 C 254.020 289.922,255.370 288.767,256.800 287.604 C 262.253 283.171,270.429 273.572,274.044 267.356 C 274.798 266.060,275.739 264.460,276.135 263.800 C 277.742 261.121,280.366 255.166,281.598 251.400 C 282.318 249.200,283.041 247.220,283.205 247.000 C 283.587 246.489,285.028 240.298,285.882 235.503 C 286.477 232.161,286.555 223.868,286.682 150.500 L 286.822 69.200 285.509 69.200 C 279.832 69.200,265.961 71.886,261.800 73.791 C 260.700 74.295,258.540 75.183,257.000 75.765 C 248.223 79.083,237.250 86.825,229.326 95.289 C 223.496 101.515,220.019 106.462,216.105 114.097 C 213.135 119.890,211.499 124.314,209.977 130.670 C 209.512 132.611,208.969 134.560,208.770 135.000 C 208.133 136.410,207.200 145.099,207.200 149.620 L 207.200 154.000 200.200 154.000 L 193.200 154.000 193.199 149.700 C 193.197 143.561,191.768 132.635,190.804 131.400 C 190.633 131.180,190.362 130.370,190.202 129.600 C 186.733 112.848,170.718 91.005,155.333 82.041 C 154.050 81.293,152.280 80.194,151.400 79.598 C 149.689 78.441,143.640 75.646,141.000 74.794 C 140.120 74.509,138.770 73.957,138.000 73.565 C 134.801 71.939,120.307 69.200,114.902 69.200 L 113.600 69.200 113.603 147.300 " stroke="none" fill="#a42434" fill-rule="evenodd"></path><path id="path1" d="M29.325 333.114 C 27.022 334.578,28.698 339.037,31.600 339.169 C 33.813 339.269,35.531 335.245,34.042 333.451 C 33.475 332.767,30.234 332.536,29.325 333.114 M80.200 341.700 C 79.926 342.480,79.614 350.246,79.294 364.239 C 78.970 378.372,78.991 378.268,76.473 378.478 C 75.455 378.563,74.966 378.814,74.874 379.300 C 74.752 379.946,75.303 380.000,82.000 380.000 C 88.697 380.000,89.248 379.946,89.126 379.300 C 89.030 378.793,88.537 378.567,87.340 378.479 C 84.350 378.261,84.304 378.103,83.914 366.890 C 83.725 361.450,83.622 356.282,83.685 355.405 L 83.800 353.809 86.800 356.962 C 103.382 374.392,111.247 381.686,112.311 380.622 C 112.461 380.472,112.714 372.512,112.873 362.933 C 113.197 343.417,113.145 343.752,115.893 343.525 C 116.911 343.440,117.400 343.205,117.400 342.800 C 117.400 342.293,116.296 342.183,110.300 342.091 C 103.404 341.985,103.200 342.005,103.200 342.791 C 103.200 343.483,103.460 343.600,104.991 343.600 C 107.952 343.600,108.111 344.111,108.274 354.134 C 108.349 358.790,108.464 364.051,108.530 365.824 L 108.649 369.048 102.424 362.775 C 99.001 359.325,92.876 353.059,88.814 348.851 C 81.753 341.537,80.594 340.575,80.200 341.700 M198.828 341.947 C 198.608 342.359,198.035 343.754,197.555 345.047 C 197.074 346.341,196.559 347.490,196.409 347.600 C 196.260 347.710,195.003 350.770,193.616 354.400 C 192.229 358.030,190.597 362.080,189.990 363.400 C 189.079 365.382,187.202 370.122,185.161 375.600 C 184.439 377.535,182.419 378.462,178.960 378.444 C 174.247 378.419,174.619 379.866,174.487 361.028 C 174.363 343.316,174.326 343.608,176.729 343.594 C 178.109 343.586,178.841 343.113,178.450 342.481 C 177.953 341.676,162.200 341.986,162.200 342.800 C 162.200 343.218,162.775 343.466,164.098 343.618 C 166.964 343.948,166.984 343.998,167.127 351.426 L 167.254 358.015 157.927 357.907 L 148.600 357.800 148.468 355.400 C 148.038 347.577,148.968 343.600,151.229 343.600 C 152.133 343.600,152.400 343.418,152.400 342.800 C 152.400 342.027,152.133 342.000,144.371 342.000 C 136.940 342.000,136.351 342.052,136.475 342.700 C 136.551 343.102,137.032 343.448,137.604 343.512 C 141.702 343.973,141.600 343.533,141.600 360.757 C 141.600 369.923,141.455 375.243,141.200 375.400 C 140.980 375.536,140.800 376.065,140.800 376.575 C 140.800 377.729,140.148 378.290,138.603 378.465 C 137.851 378.550,137.358 378.860,137.274 379.300 C 137.151 379.948,137.749 380.000,145.371 380.000 C 153.333 380.000,153.600 379.974,153.600 379.200 C 153.600 378.519,153.333 378.400,151.809 378.400 C 149.071 378.400,148.918 377.952,148.583 368.900 L 148.298 361.200 157.779 361.200 L 167.260 361.200 167.130 369.140 C 166.986 377.956,166.895 378.276,164.473 378.478 C 163.455 378.563,162.966 378.814,162.874 379.300 C 162.750 379.957,163.684 380.000,178.000 380.000 C 192.316 380.000,193.250 379.957,193.125 379.300 C 193.033 378.817,192.498 378.538,191.396 378.400 L 189.800 378.200 189.880 376.461 C 189.923 375.504,190.245 374.285,190.595 373.752 C 190.945 373.218,191.630 371.661,192.118 370.291 L 193.005 367.800 198.603 367.696 L 204.200 367.591 206.122 372.868 C 207.786 377.436,207.960 378.190,207.422 378.492 C 205.327 379.664,206.747 380.000,213.800 380.000 C 220.533 380.000,220.800 379.970,220.800 379.200 C 220.800 378.538,220.533 378.400,219.255 378.400 C 218.103 378.400,217.427 378.119,216.603 377.300 C 214.916 375.623,214.628 375.068,211.986 368.400 C 210.635 364.990,209.388 362.020,209.214 361.800 C 209.040 361.580,207.790 358.455,206.436 354.856 C 205.081 351.257,203.621 347.657,203.191 346.856 C 202.761 346.055,202.025 344.455,201.555 343.300 C 200.645 341.060,199.584 340.534,198.828 341.947 M339.461 346.063 C 339.318 348.737,339.187 355.982,339.171 362.163 C 339.131 377.660,339.070 378.003,336.298 378.374 C 335.122 378.531,334.570 378.812,334.476 379.300 C 334.352 379.946,334.902 380.000,341.600 380.000 C 348.298 380.000,348.848 379.946,348.724 379.300 C 348.630 378.811,348.075 378.531,346.880 378.371 C 343.906 377.973,343.885 377.909,343.511 368.107 C 343.328 363.318,343.228 358.140,343.289 356.600 L 343.400 353.800 346.400 356.945 C 362.704 374.036,370.882 381.652,371.869 380.664 C 371.997 380.536,372.240 372.592,372.409 363.010 C 372.754 343.467,372.733 343.600,375.409 343.600 C 376.539 343.600,376.800 343.448,376.800 342.791 C 376.800 342.005,376.596 341.984,369.900 342.091 C 364.082 342.183,363.000 342.294,363.000 342.800 C 363.000 343.220,363.511 343.437,364.706 343.523 C 367.635 343.735,367.670 343.883,367.909 357.247 L 368.118 368.881 358.937 359.541 C 353.887 354.403,347.785 348.176,345.377 345.702 C 339.752 339.921,339.792 339.919,339.461 346.063 M23.600 342.800 C 23.600 343.439,23.867 343.600,24.924 343.600 C 27.932 343.600,27.800 342.807,27.800 360.907 C 27.800 378.751,27.871 378.261,25.273 378.478 C 24.255 378.563,23.766 378.814,23.674 379.300 C 23.551 379.949,24.160 380.000,32.000 380.000 C 39.840 380.000,40.449 379.949,40.325 379.300 C 40.225 378.775,39.671 378.548,38.106 378.390 C 34.808 378.058,35.000 379.130,35.000 361.042 C 35.000 343.089,34.922 343.600,37.649 343.600 C 38.933 343.600,39.200 343.462,39.200 342.800 C 39.200 342.027,38.933 342.000,31.400 342.000 C 23.867 342.000,23.600 342.027,23.600 342.800 M43.600 342.769 C 43.600 343.469,43.847 343.600,45.171 343.600 C 48.350 343.600,48.610 345.306,48.316 364.202 C 48.100 378.016,48.032 378.400,45.786 378.400 C 44.667 378.400,44.400 378.554,44.400 379.200 C 44.400 380.465,61.750 380.641,65.200 379.411 C 74.474 376.103,75.133 363.916,66.285 359.358 L 64.370 358.371 65.885 356.486 C 66.718 355.449,67.538 354.497,67.707 354.372 C 69.425 353.097,69.074 347.519,67.146 345.450 C 66.736 345.009,66.400 344.536,66.400 344.398 C 66.400 344.260,65.635 343.709,64.700 343.174 C 62.197 341.740,43.600 341.383,43.600 342.769 M222.000 342.800 C 222.000 343.444,222.267 343.600,223.371 343.600 C 226.277 343.600,226.691 346.706,226.258 365.274 C 225.965 377.822,225.858 378.400,223.810 378.400 C 222.707 378.400,222.400 378.560,222.400 379.137 C 222.400 379.904,243.937 380.833,246.544 380.178 C 248.164 379.772,249.405 371.600,247.847 371.600 C 247.477 371.600,247.077 371.915,246.958 372.300 C 245.735 376.253,244.559 376.922,239.161 376.736 C 235.695 376.616,235.111 376.490,234.310 375.689 L 233.400 374.778 233.400 359.807 C 233.400 342.932,233.264 343.640,236.500 343.613 C 237.729 343.602,238.000 343.456,238.000 342.800 C 238.000 342.027,237.733 342.000,230.000 342.000 C 222.267 342.000,222.000 342.027,222.000 342.800 M250.400 342.767 C 250.400 343.486,250.643 343.600,252.177 343.600 C 255.281 343.600,255.200 343.136,255.200 361.000 C 255.200 378.212,255.174 378.400,252.826 378.400 C 251.711 378.400,250.463 379.347,251.081 379.724 C 252.128 380.363,273.929 380.453,276.600 379.829 C 285.209 377.818,290.381 372.195,291.613 363.506 C 292.671 356.048,288.988 347.517,283.700 345.179 C 282.985 344.863,282.400 344.476,282.400 344.318 C 282.400 344.161,281.185 343.631,279.700 343.140 C 275.565 341.774,250.400 341.454,250.400 342.767 M293.674 342.700 C 293.759 343.148,294.237 343.439,295.003 343.510 C 298.704 343.849,298.496 343.055,298.805 358.000 C 299.104 372.447,299.189 372.881,302.426 376.514 C 307.425 382.123,319.588 382.384,325.536 377.010 C 329.214 373.687,330.000 369.903,330.000 355.512 C 330.000 344.057,330.071 343.742,332.703 343.524 C 333.751 343.437,334.233 343.190,334.328 342.691 C 334.453 342.030,333.975 341.989,327.331 342.091 C 321.308 342.183,320.200 342.293,320.200 342.800 C 320.200 343.204,320.758 343.474,321.908 343.628 C 324.651 343.994,324.586 343.732,324.726 355.119 C 324.855 365.699,324.479 370.712,323.401 372.798 C 320.551 378.310,313.352 379.249,309.087 374.664 C 306.140 371.496,306.000 370.686,306.000 356.756 C 306.000 343.531,305.986 343.600,308.629 343.600 C 309.733 343.600,310.000 343.444,310.000 342.800 C 310.000 342.026,309.733 342.000,301.771 342.000 C 294.149 342.000,293.551 342.052,293.674 342.700 M58.079 345.200 C 60.074 345.200,62.800 349.219,62.800 352.159 C 62.800 356.199,57.639 359.879,55.280 357.520 C 53.480 355.720,55.170 343.114,56.980 344.838 C 57.189 345.037,57.683 345.200,58.079 345.200 M273.854 346.604 C 285.265 350.890,288.312 366.181,279.417 374.514 C 275.370 378.305,263.516 378.651,262.747 375.000 C 262.069 371.779,262.380 345.665,263.100 345.449 C 264.870 344.917,271.164 345.593,273.854 346.604 M200.849 359.018 L 202.729 364.400 198.564 364.400 C 196.274 364.400,194.400 364.338,194.400 364.263 C 194.400 363.836,196.048 359.444,196.938 357.497 C 197.511 356.245,198.096 354.758,198.238 354.192 C 198.603 352.736,198.748 353.003,200.849 359.018 M60.275 361.578 C 67.540 364.876,67.196 377.257,59.840 377.257 C 55.532 377.257,55.279 376.701,54.945 366.500 L 54.759 360.800 56.679 360.809 C 57.736 360.814,59.354 361.160,60.275 361.578 M102.480 385.280 C 101.382 386.378,102.280 388.800,103.786 388.800 C 104.987 388.800,106.000 387.817,106.000 386.651 C 106.000 385.471,105.275 384.800,104.000 384.800 C 103.428 384.800,102.744 385.016,102.480 385.280 M252.686 385.048 C 252.131 385.602,252.377 388.416,253.001 388.656 C 254.603 389.271,255.650 388.453,255.522 386.687 C 255.402 385.026,253.694 384.039,252.686 385.048 M369.079 385.513 C 368.204 386.479,368.223 387.043,369.160 388.050 C 370.213 389.180,371.678 388.903,372.177 387.479 C 372.920 385.356,370.571 383.864,369.079 385.513 M31.214 385.974 C 30.509 387.290,31.368 388.880,32.700 388.727 C 33.628 388.620,33.820 388.387,33.930 387.242 C 34.119 385.264,32.099 384.321,31.214 385.974 M36.958 385.766 C 36.383 387.265,36.968 388.600,38.200 388.600 C 39.272 388.600,39.414 388.455,39.530 387.242 C 39.701 385.444,37.554 384.212,36.958 385.766 M63.139 389.700 C 63.106 389.755,62.971 394.114,62.839 399.386 L 62.600 408.972 61.287 409.347 C 58.858 410.043,60.105 410.596,64.333 410.698 C 68.509 410.799,70.284 409.957,67.195 409.339 C 65.705 409.041,65.657 408.835,65.513 402.137 L 65.400 396.873 72.200 403.845 C 81.446 413.325,81.190 413.448,81.197 399.533 C 81.200 391.875,81.301 391.200,82.443 391.200 C 82.859 391.200,83.200 390.930,83.200 390.600 C 83.200 390.109,82.511 390.000,79.400 390.000 C 76.289 390.000,75.600 390.109,75.600 390.600 C 75.600 390.975,75.979 391.200,76.613 391.200 C 77.908 391.200,77.890 391.122,78.170 398.138 L 78.406 404.076 71.360 396.838 C 65.386 390.701,63.517 389.079,63.139 389.700 M163.500 389.904 C 158.268 390.001,157.200 390.120,157.200 390.610 C 157.200 390.953,157.576 391.203,158.100 391.206 C 159.999 391.219,160.023 391.339,159.908 400.224 L 159.800 408.590 158.700 409.117 C 156.174 410.327,157.329 410.683,163.985 410.744 C 171.254 410.811,171.200 410.836,171.200 407.426 C 171.200 405.240,170.631 405.073,169.818 407.019 L 169.225 408.439 166.712 408.319 L 164.200 408.200 164.085 404.500 L 163.970 400.800 165.611 400.800 C 167.665 400.800,168.800 401.387,168.800 402.447 C 168.800 404.298,169.817 402.788,170.065 400.568 C 170.341 398.107,169.970 397.070,169.120 397.920 C 168.856 398.184,167.596 398.400,166.320 398.400 L 164.000 398.400 164.000 395.200 L 164.000 392.000 165.500 392.005 C 167.915 392.014,168.717 392.387,169.180 393.715 C 169.441 394.462,169.752 394.802,169.969 394.575 C 170.483 394.038,170.685 389.878,170.200 389.828 C 169.980 389.806,166.965 389.840,163.500 389.904 M224.530 390.184 C 220.499 391.937,221.011 397.954,225.494 401.521 C 229.408 404.634,230.256 406.520,228.469 408.138 C 226.460 409.956,222.800 408.282,222.800 405.546 C 222.800 404.916,222.595 404.400,222.344 404.400 C 220.586 404.400,220.129 409.566,221.819 410.336 C 223.544 411.122,228.793 410.923,230.281 410.016 C 234.045 407.721,233.505 401.655,229.244 398.379 C 225.737 395.683,225.200 395.104,225.200 394.021 C 225.200 390.765,230.270 390.925,230.866 394.200 C 231.216 396.126,232.200 395.008,232.318 392.551 C 232.427 390.289,232.366 390.084,231.518 389.857 C 229.901 389.424,225.841 389.614,224.530 390.184 M273.801 390.000 C 272.571 392.004,273.561 395.045,274.851 393.226 C 275.259 392.652,276.095 392.382,278.100 392.180 L 280.800 391.907 280.800 399.303 C 280.800 408.125,280.665 409.047,279.328 409.382 C 278.786 409.518,278.416 409.848,278.505 410.115 C 278.791 410.976,287.685 410.942,287.522 410.081 C 287.448 409.689,286.950 409.348,286.351 409.279 C 285.051 409.127,284.800 407.313,284.800 398.090 L 284.800 391.897 287.300 392.169 C 289.772 392.439,290.800 393.068,290.800 394.310 C 290.800 396.136,291.817 394.184,291.916 392.168 L 292.033 389.800 282.978 389.800 C 277.998 389.800,273.868 389.890,273.801 390.000 M313.100 389.899 C 307.870 390.000,306.800 390.120,306.800 390.610 C 306.800 390.959,307.176 391.200,307.720 391.200 C 309.488 391.200,309.600 391.714,309.595 399.780 C 309.588 408.451,309.499 409.038,308.134 409.381 C 307.589 409.518,307.216 409.848,307.305 410.115 C 307.566 410.900,320.341 411.019,320.640 410.239 C 321.102 409.037,321.004 405.886,320.500 405.709 C 320.225 405.612,320.000 405.818,320.000 406.167 C 320.000 406.515,319.841 406.800,319.647 406.800 C 319.452 406.800,319.199 407.160,319.084 407.600 C 318.910 408.266,318.538 408.400,316.870 408.400 C 313.605 408.400,313.600 408.394,313.600 404.357 L 313.600 400.800 315.300 400.806 C 317.153 400.813,317.588 401.014,318.215 402.154 C 318.960 403.509,319.398 402.854,319.518 400.204 C 319.627 397.807,319.262 396.930,318.600 398.000 C 318.464 398.220,317.283 398.400,315.976 398.400 L 313.600 398.400 313.600 395.200 L 313.600 392.000 315.226 392.000 C 317.044 392.000,318.400 392.570,318.400 393.334 C 318.400 394.357,319.296 394.820,319.853 394.086 C 320.544 393.176,320.583 389.567,319.900 389.689 C 319.625 389.738,316.565 389.833,313.100 389.899 M341.400 390.161 C 337.234 392.000,337.381 397.100,341.719 401.152 C 342.807 402.168,344.215 403.481,344.848 404.069 C 347.032 406.096,345.870 408.800,342.816 408.800 C 340.923 408.800,339.800 407.789,339.415 405.740 C 338.928 403.144,337.820 404.145,337.682 407.307 C 337.536 410.623,338.032 410.937,343.074 410.733 C 350.884 410.416,351.890 402.222,344.705 397.452 C 341.723 395.473,340.972 393.828,342.400 392.400 C 344.028 390.772,347.600 392.133,347.600 394.382 C 347.600 394.842,347.862 395.200,348.200 395.200 C 349.317 395.200,349.034 390.156,347.900 389.852 C 346.341 389.434,342.649 389.610,341.400 390.161 M23.600 390.600 C 23.600 390.971,23.976 391.200,24.586 391.200 C 26.135 391.200,26.400 392.292,26.402 398.674 C 26.406 408.906,27.719 410.800,34.807 410.800 C 39.538 410.800,42.012 409.123,42.608 405.514 C 42.763 404.571,43.045 403.608,43.234 403.373 C 43.423 403.138,43.627 400.348,43.689 397.173 C 43.798 391.529,43.820 391.397,44.700 391.272 C 45.195 391.202,45.600 390.887,45.600 390.572 C 45.600 390.114,44.802 390.000,41.600 390.000 C 37.683 390.000,35.596 390.916,38.700 391.273 L 39.800 391.400 39.800 398.933 L 39.800 406.467 38.494 407.633 C 36.120 409.753,32.666 408.939,31.206 405.918 C 30.502 404.461,30.400 403.446,30.400 397.915 L 30.400 391.580 31.600 391.340 C 34.673 390.725,32.833 390.000,28.200 390.000 C 24.378 390.000,23.600 390.101,23.600 390.600 M99.600 390.572 C 99.600 390.887,100.003 391.202,100.495 391.272 C 102.646 391.580,102.667 408.845,100.517 409.385 C 99.981 409.520,99.616 409.848,99.705 410.115 C 99.991 410.976,108.886 410.942,108.721 410.081 C 108.650 409.706,108.144 409.337,107.596 409.260 C 106.067 409.044,106.013 408.739,106.006 400.333 C 106.000 391.860,106.089 391.200,107.243 391.200 C 107.659 391.200,108.000 390.930,108.000 390.600 C 108.000 390.105,107.267 390.000,103.800 390.000 C 100.424 390.000,99.600 390.112,99.600 390.572 M121.200 390.600 C 121.200 390.966,121.573 391.200,122.156 391.200 C 123.778 391.200,124.624 392.416,126.609 397.600 C 127.662 400.350,128.645 402.690,128.792 402.800 C 128.939 402.910,129.736 404.755,130.561 406.900 C 132.428 411.751,133.010 411.942,134.821 408.300 C 136.041 405.845,141.200 393.801,141.200 393.407 C 141.200 392.843,143.040 391.200,143.672 391.200 C 144.072 391.200,144.400 390.930,144.400 390.600 C 144.400 390.111,143.733 390.000,140.800 390.000 C 137.867 390.000,137.200 390.111,137.200 390.600 C 137.200 390.933,137.556 391.200,138.000 391.200 C 138.440 391.200,138.800 391.288,138.800 391.395 C 138.800 391.875,135.470 400.398,134.596 402.156 L 133.623 404.112 133.201 402.956 C 132.968 402.320,132.617 401.350,132.420 400.800 C 130.056 394.203,129.420 392.544,129.135 392.220 C 128.545 391.551,128.773 391.200,129.800 391.200 C 130.422 391.200,130.800 390.973,130.800 390.600 C 130.800 390.100,130.000 390.000,126.000 390.000 C 122.000 390.000,121.200 390.100,121.200 390.600 M187.200 390.573 C 187.200 390.899,187.668 391.202,188.284 391.273 C 189.735 391.443,189.912 392.240,189.960 398.841 C 190.020 406.951,189.728 409.081,188.518 409.385 C 187.982 409.519,187.616 409.848,187.704 410.115 C 187.987 410.965,196.488 410.955,196.325 410.104 C 196.254 409.736,195.747 409.330,195.198 409.201 C 194.246 408.977,194.195 408.814,194.083 405.655 L 193.967 402.344 195.066 402.472 C 195.832 402.561,196.561 403.146,197.467 404.400 C 201.920 410.561,202.256 410.793,206.729 410.798 C 209.222 410.800,209.594 409.709,207.303 409.115 C 204.510 408.391,199.217 401.148,200.626 399.978 C 203.478 397.611,202.952 391.891,199.761 390.558 C 197.819 389.747,187.200 389.760,187.200 390.573 M249.600 390.572 C 249.600 390.887,250.005 391.202,250.500 391.272 C 251.398 391.400,251.400 391.419,251.508 400.107 L 251.616 408.814 250.608 409.197 C 248.034 410.175,249.457 410.749,254.267 410.674 C 259.146 410.597,260.632 410.018,257.719 409.329 L 256.200 408.970 256.200 400.185 L 256.200 391.400 257.100 391.272 C 257.595 391.202,258.000 390.887,258.000 390.572 C 258.000 390.112,257.176 390.000,253.800 390.000 C 250.424 390.000,249.600 390.112,249.600 390.572 M366.000 390.600 C 366.000 390.930,366.354 391.200,366.786 391.200 C 368.157 391.200,368.400 392.485,368.400 399.724 C 368.400 408.108,368.257 409.049,366.928 409.382 C 366.386 409.518,366.016 409.848,366.105 410.115 C 366.316 410.750,375.056 410.957,375.440 410.335 C 375.767 409.807,374.880 409.214,373.750 409.206 C 372.568 409.198,372.400 408.019,372.400 399.724 C 372.400 392.485,372.643 391.200,374.014 391.200 C 374.446 391.200,374.800 390.930,374.800 390.600 C 374.800 390.103,374.044 390.000,370.400 390.000 C 366.756 390.000,366.000 390.103,366.000 390.600 M197.429 392.924 C 200.039 395.169,198.764 400.400,195.606 400.400 L 194.000 400.400 194.000 396.200 L 194.000 392.000 195.178 392.000 C 195.831 392.000,196.833 392.411,197.429 392.924 " stroke="none" fill="#ffffff" fill-rule="evenodd"></path><path id="path2" d="" stroke="none" fill="#a8204c" fill-rule="evenodd"></path><path id="path3" d="" stroke="none" fill="#a8204c" fill-rule="evenodd"></path><path id="path4" d="" stroke="none" fill="#a8204c" fill-rule="evenodd"></path></g></svg>