<svg id="svg" version="1.1" xmlns="http://www.w3.org/2000/svg" xmlns:xlink="http://www.w3.org/1999/xlink" width="400" height="400" viewBox="0, 0, 400,400"><g id="svgg"><path id="path0" d="M197.600 20.482 C 196.347 21.022,194.400 21.237,194.400 20.835 C 194.400 20.669,194.130 20.533,193.800 20.533 C 193.470 20.533,193.200 20.663,193.200 20.821 C 193.200 20.980,192.660 21.188,192.000 21.285 C 191.340 21.382,190.800 21.291,190.800 21.082 C 190.800 20.873,190.538 20.920,190.218 21.185 C 189.897 21.451,189.460 21.560,189.245 21.428 C 189.031 21.295,188.742 21.370,188.604 21.593 C 188.466 21.817,187.834 22.000,187.200 22.000 C 186.566 22.000,185.941 22.172,185.811 22.383 C 185.681 22.593,185.333 22.673,185.039 22.560 C 184.744 22.446,184.253 22.604,183.948 22.909 C 183.643 23.214,183.182 23.394,182.924 23.308 C 182.665 23.222,182.269 23.498,182.042 23.922 C 181.768 24.433,181.286 24.655,180.613 24.582 C 179.971 24.511,179.694 24.628,179.861 24.898 C 180.031 25.174,179.818 25.246,179.263 25.100 C 178.688 24.950,178.400 25.059,178.400 25.425 C 178.400 25.748,178.154 25.880,177.803 25.746 C 177.463 25.615,177.101 25.792,176.961 26.156 C 176.827 26.508,176.597 26.722,176.451 26.631 C 176.028 26.370,173.354 27.730,172.108 28.841 C 171.481 29.399,170.751 29.784,170.484 29.695 C 170.198 29.599,169.997 29.916,169.994 30.467 C 169.989 31.216,169.911 31.282,169.600 30.800 C 169.281 30.306,169.211 30.300,169.206 30.767 C 169.203 31.078,169.081 31.214,168.935 31.068 C 168.789 30.922,168.336 31.351,167.929 32.021 C 167.521 32.691,167.010 33.130,166.794 32.996 C 166.577 32.862,166.400 32.943,166.400 33.176 C 166.400 33.409,166.119 33.600,165.776 33.600 C 165.429 33.600,165.272 33.793,165.422 34.036 C 165.570 34.275,165.041 35.085,164.246 35.835 C 163.451 36.585,162.800 37.110,162.800 37.002 C 162.800 36.894,162.350 37.197,161.800 37.675 C 161.250 38.153,160.800 38.812,160.800 39.139 C 160.800 39.466,160.689 39.622,160.552 39.486 C 160.213 39.146,159.200 40.212,159.200 40.909 C 159.200 41.221,158.844 41.798,158.409 42.191 C 157.975 42.585,157.698 43.036,157.796 43.193 C 157.893 43.350,157.619 43.859,157.186 44.323 C 156.754 44.787,156.400 45.354,156.400 45.583 C 156.400 45.812,156.253 46.000,156.073 46.000 C 155.356 46.000,155.836 48.259,156.752 49.200 C 157.288 49.750,157.597 49.975,157.439 49.700 C 157.282 49.425,157.314 49.200,157.510 49.200 C 157.960 49.200,160.002 51.464,159.766 51.701 C 159.670 51.796,160.299 52.194,161.164 52.584 C 162.134 53.021,162.825 53.643,162.966 54.206 C 163.103 54.753,163.679 55.289,164.398 55.539 C 165.059 55.770,165.600 56.234,165.600 56.572 C 165.600 57.269,168.316 60.218,168.650 59.884 C 169.110 59.424,170.296 60.911,170.092 61.692 C 169.917 62.359,170.025 62.446,170.741 62.219 C 171.348 62.026,171.600 62.115,171.600 62.521 C 171.600 62.838,172.309 63.785,173.176 64.626 C 174.042 65.467,174.662 66.300,174.552 66.477 C 174.442 66.655,174.543 66.800,174.776 66.800 C 175.009 66.800,175.200 67.070,175.200 67.400 C 175.200 67.730,175.470 68.000,175.800 68.000 C 176.130 68.000,176.355 68.217,176.300 68.482 C 176.245 68.747,176.470 68.972,176.800 68.982 C 177.130 68.992,177.458 69.408,177.529 69.906 C 177.599 70.404,177.822 70.710,178.024 70.585 C 178.226 70.460,178.289 70.624,178.164 70.949 C 178.029 71.300,178.278 71.721,178.780 71.989 C 179.243 72.237,179.528 72.592,179.414 72.778 C 179.299 72.964,179.485 73.224,179.828 73.355 C 180.170 73.487,180.360 73.741,180.250 73.920 C 180.139 74.099,180.668 74.761,181.424 75.392 C 182.181 76.023,182.800 76.759,182.800 77.027 C 182.800 77.295,183.070 77.618,183.400 77.745 C 183.730 77.871,184.000 78.242,184.000 78.569 C 184.000 79.526,184.886 81.194,185.268 80.958 C 185.462 80.838,185.594 80.889,185.563 81.070 C 185.414 81.927,185.656 82.400,186.243 82.400 C 186.620 82.400,186.799 82.625,186.677 82.943 C 186.418 83.617,187.746 85.719,188.168 85.303 C 188.337 85.136,188.438 85.270,188.391 85.600 C 188.216 86.825,188.414 87.597,188.877 87.500 C 189.142 87.444,189.365 87.845,189.377 88.400 C 189.391 88.981,189.868 89.798,190.517 90.350 C 191.131 90.872,191.552 91.381,191.453 91.481 C 191.353 91.580,191.695 92.619,192.212 93.788 C 192.729 94.958,193.033 96.033,192.888 96.178 C 192.743 96.324,192.963 96.312,193.378 96.153 C 193.855 95.970,194.038 96.015,193.877 96.276 C 193.606 96.713,194.419 98.792,194.863 98.797 C 195.007 98.799,195.031 99.160,194.916 99.600 C 194.801 100.040,194.888 100.400,195.111 100.400 C 195.333 100.400,195.614 100.661,195.737 100.980 C 195.894 101.390,195.767 101.486,195.300 101.306 C 194.779 101.106,194.825 101.311,195.521 102.288 C 196.004 102.968,196.400 103.712,196.400 103.942 C 196.400 104.172,196.693 104.524,197.051 104.725 C 197.476 104.963,197.552 105.183,197.269 105.357 C 196.692 105.714,197.154 106.868,197.742 106.539 C 198.083 106.348,198.085 106.408,197.747 106.774 C 197.408 107.142,197.440 107.557,197.871 108.422 C 198.188 109.059,198.476 109.944,198.509 110.390 C 198.543 110.835,198.723 111.200,198.909 111.200 C 199.095 111.200,199.144 111.368,199.017 111.572 C 198.891 111.777,198.970 112.058,199.193 112.196 C 199.417 112.334,199.600 112.761,199.600 113.144 C 199.600 113.527,199.809 114.049,200.065 114.305 C 200.629 114.869,201.600 113.256,201.600 111.754 C 201.600 111.229,201.801 110.800,202.047 110.800 C 202.296 110.800,202.401 110.447,202.284 109.999 C 202.162 109.532,202.238 109.300,202.468 109.442 C 202.708 109.590,202.785 109.200,202.666 108.443 C 202.531 107.591,202.633 107.200,202.988 107.200 C 203.612 107.200,204.079 105.696,203.556 105.373 C 203.353 105.247,203.292 104.974,203.421 104.766 C 203.550 104.557,203.823 104.491,204.028 104.617 C 204.232 104.744,204.400 104.380,204.400 103.810 C 204.400 103.239,204.697 102.319,205.060 101.765 C 205.423 101.211,205.755 100.272,205.797 99.679 C 205.937 97.730,205.996 97.550,206.405 97.803 C 206.630 97.942,206.918 97.508,207.055 96.827 C 207.190 96.152,207.452 95.600,207.637 95.600 C 207.823 95.600,207.882 95.359,207.769 95.064 C 207.656 94.769,207.840 94.299,208.177 94.019 C 208.515 93.739,208.704 93.368,208.598 93.196 C 208.336 92.774,209.312 90.950,210.258 90.094 C 210.680 89.712,210.999 89.000,210.967 88.510 C 210.936 88.021,211.067 87.718,211.258 87.836 C 211.658 88.083,212.405 86.367,212.113 85.873 C 212.006 85.693,212.312 85.443,212.792 85.318 C 213.402 85.158,213.606 84.866,213.470 84.345 C 213.363 83.935,213.438 83.600,213.637 83.600 C 213.837 83.600,214.000 83.330,214.000 83.000 C 214.000 82.670,214.161 82.400,214.358 82.400 C 214.555 82.400,215.077 81.671,215.518 80.780 C 215.959 79.889,216.470 79.180,216.654 79.204 C 216.838 79.229,217.133 78.691,217.309 78.010 C 217.486 77.329,217.785 76.867,217.973 76.983 C 218.162 77.100,218.423 76.917,218.554 76.577 C 218.710 76.170,218.621 76.044,218.295 76.210 C 218.023 76.348,218.197 76.110,218.683 75.680 C 219.169 75.251,219.444 74.777,219.295 74.629 C 219.146 74.480,219.334 74.476,219.712 74.622 C 220.196 74.807,220.400 74.684,220.400 74.206 C 220.400 73.381,221.793 71.526,222.147 71.880 C 222.286 72.019,222.400 71.743,222.400 71.267 C 222.400 70.790,222.591 70.400,222.824 70.400 C 223.057 70.400,223.156 70.253,223.045 70.073 C 222.934 69.894,223.379 69.431,224.033 69.044 C 224.687 68.658,225.179 68.130,225.127 67.871 C 224.971 67.097,226.005 65.556,226.482 65.851 C 226.731 66.005,226.812 65.942,226.666 65.707 C 226.525 65.478,226.659 65.083,226.966 64.829 C 227.384 64.482,227.560 64.481,227.675 64.826 C 227.759 65.078,228.178 64.636,228.605 63.842 C 229.032 63.049,229.611 62.400,229.891 62.400 C 230.171 62.400,230.379 62.265,230.353 62.100 C 230.213 61.214,230.504 60.735,231.444 60.307 C 232.790 59.694,235.396 57.136,235.277 56.545 C 235.227 56.295,235.646 55.975,236.209 55.833 C 236.772 55.692,237.132 55.414,237.010 55.216 C 236.887 55.017,237.116 54.617,237.520 54.327 C 237.923 54.037,238.380 53.459,238.536 53.043 C 238.691 52.626,238.936 52.403,239.080 52.546 C 239.223 52.690,239.759 52.414,240.270 51.934 C 240.782 51.454,241.201 51.227,241.201 51.430 C 241.202 51.634,241.570 51.199,242.018 50.463 C 242.554 49.584,243.039 49.206,243.437 49.359 C 243.770 49.486,243.951 49.445,243.841 49.267 C 243.575 48.836,245.051 47.590,245.420 47.933 C 245.579 48.080,245.466 47.750,245.170 47.200 C 244.874 46.650,244.678 45.972,244.735 45.694 C 244.792 45.416,244.424 45.035,243.919 44.848 C 243.414 44.661,243.023 44.349,243.052 44.154 C 243.151 43.481,242.418 42.000,241.986 42.000 C 241.748 42.000,241.651 41.842,241.770 41.648 C 242.028 41.231,237.937 36.800,237.295 36.800 C 237.053 36.800,236.739 36.437,236.598 35.994 C 236.457 35.551,236.175 35.292,235.971 35.418 C 235.767 35.544,235.600 35.356,235.600 35.000 C 235.600 34.644,235.420 34.464,235.200 34.600 C 234.980 34.736,234.800 34.672,234.800 34.457 C 234.800 34.242,235.025 33.976,235.300 33.865 C 235.618 33.736,235.564 33.652,235.149 33.632 C 234.791 33.614,234.276 33.332,234.004 33.004 C 233.732 32.677,233.319 32.526,233.087 32.670 C 232.821 32.834,232.761 32.678,232.925 32.250 C 233.177 31.596,231.796 30.663,231.142 31.045 C 231.000 31.128,230.781 30.926,230.654 30.598 C 230.528 30.269,230.043 30.000,229.575 30.000 C 229.063 30.000,228.642 29.684,228.517 29.204 C 228.403 28.767,228.168 28.496,227.996 28.602 C 227.825 28.708,227.581 28.526,227.454 28.198 C 227.328 27.869,226.949 27.600,226.613 27.600 C 226.276 27.600,226.000 27.420,226.000 27.200 C 226.000 26.980,225.576 26.800,225.058 26.800 C 224.541 26.800,223.680 26.395,223.146 25.900 C 221.908 24.753,221.663 24.660,220.166 24.776 C 219.707 24.811,219.100 24.561,218.817 24.220 C 218.534 23.879,218.048 23.600,217.738 23.600 C 217.429 23.600,217.069 23.325,216.940 22.988 C 216.795 22.609,216.426 22.465,215.973 22.609 C 215.570 22.737,214.665 22.544,213.963 22.181 C 213.260 21.817,212.081 21.520,211.344 21.520 C 210.606 21.520,210.087 21.383,210.190 21.216 C 210.293 21.049,209.909 20.964,209.337 21.027 C 208.765 21.090,207.900 20.990,207.415 20.806 C 206.930 20.621,206.284 20.624,205.980 20.812 C 205.647 21.018,205.191 20.964,204.837 20.677 C 204.368 20.298,204.312 20.308,204.563 20.727 C 204.968 21.399,203.633 21.220,202.871 20.500 C 202.233 19.896,198.986 19.884,197.600 20.482 M201.300 20.682 C 200.805 20.778,199.995 20.778,199.500 20.682 C 199.005 20.587,199.410 20.509,200.400 20.509 C 201.390 20.509,201.795 20.587,201.300 20.682 M80.400 152.573 C 80.400 211.438,80.265 259.600,80.100 259.600 C 79.935 259.600,79.800 260.500,79.800 261.600 C 79.800 262.700,79.923 263.600,80.074 263.600 C 80.224 263.600,80.259 264.088,80.151 264.683 C 80.043 265.279,80.181 266.191,80.459 266.709 C 80.794 267.336,80.826 267.744,80.554 267.926 C 80.107 268.226,80.127 269.794,80.591 270.900 C 80.753 271.285,80.782 271.870,80.655 272.200 C 80.529 272.530,80.612 272.800,80.840 272.800 C 81.101 272.800,81.171 273.548,81.029 274.822 C 80.905 275.935,80.960 276.748,81.152 276.630 C 81.343 276.512,81.451 277.177,81.392 278.108 C 81.325 279.172,81.507 280.051,81.882 280.475 C 82.210 280.846,82.370 281.326,82.237 281.541 C 82.104 281.756,82.221 282.023,82.498 282.134 C 82.872 282.285,82.860 282.345,82.451 282.368 C 82.009 282.394,81.999 282.516,82.400 283.000 C 82.801 283.484,82.792 283.601,82.349 283.606 C 82.018 283.610,81.959 283.729,82.200 283.906 C 82.420 284.068,82.632 284.380,82.670 284.600 C 82.709 284.820,82.875 285.345,83.038 285.766 C 83.266 286.351,83.202 286.461,82.768 286.235 C 82.456 286.072,82.625 286.313,83.144 286.770 C 83.723 287.279,83.878 287.602,83.544 287.606 C 83.122 287.611,83.135 287.699,83.600 288.000 C 84.071 288.305,84.082 288.389,83.651 288.394 C 83.237 288.398,83.212 288.532,83.548 288.937 C 83.793 289.232,83.900 289.566,83.787 289.680 C 83.673 289.793,83.855 290.114,84.190 290.392 C 84.526 290.670,84.800 291.315,84.800 291.825 C 84.800 292.335,84.962 292.853,85.160 292.975 C 85.358 293.098,85.461 293.841,85.388 294.627 C 85.295 295.623,85.483 296.283,86.008 296.808 C 86.423 297.223,86.690 297.932,86.603 298.385 C 86.403 299.423,87.388 301.833,88.128 302.117 C 88.436 302.235,88.804 303.067,88.948 303.966 C 89.092 304.865,89.432 305.603,89.705 305.606 C 90.069 305.611,90.059 305.702,89.666 305.950 C 89.237 306.223,89.256 306.336,89.766 306.532 C 90.115 306.665,90.400 307.051,90.400 307.387 C 90.400 307.724,90.574 308.000,90.787 308.000 C 91.001 308.000,91.071 308.270,90.945 308.600 C 90.818 308.930,90.914 309.200,91.157 309.200 C 91.401 309.200,91.600 309.650,91.600 310.200 C 91.600 310.750,91.792 311.200,92.027 311.200 C 92.272 311.200,92.346 311.541,92.200 312.000 C 92.015 312.583,92.128 312.800,92.616 312.800 C 93.015 312.800,93.202 313.019,93.078 313.342 C 92.963 313.640,93.293 314.340,93.811 314.899 C 94.329 315.457,94.643 316.023,94.510 316.157 C 94.376 316.291,94.477 316.400,94.733 316.400 C 94.990 316.400,95.200 316.732,95.200 317.139 C 95.200 317.545,95.571 318.305,96.024 318.827 C 96.482 319.355,96.761 320.107,96.653 320.520 C 96.513 321.053,96.625 321.199,97.050 321.036 C 97.375 320.911,97.543 320.968,97.423 321.163 C 97.010 321.831,101.127 327.600,102.018 327.600 C 102.308 327.600,102.420 327.986,102.304 328.588 C 102.201 329.131,102.270 329.481,102.458 329.364 C 102.646 329.248,102.800 329.322,102.800 329.530 C 102.800 329.737,103.120 329.990,103.510 330.092 C 103.901 330.195,104.252 330.692,104.290 331.199 C 104.328 331.705,104.953 332.705,105.680 333.422 C 106.406 334.138,106.910 334.817,106.800 334.930 C 106.460 335.279,108.491 337.191,108.920 336.926 C 109.150 336.784,109.200 336.876,109.036 337.141 C 108.768 337.575,109.628 338.800,110.200 338.800 C 110.684 338.800,111.562 339.904,111.293 340.174 C 111.145 340.321,111.334 340.324,111.712 340.178 C 112.253 339.971,112.400 340.135,112.400 340.945 C 112.400 341.700,112.562 341.913,113.005 341.743 C 113.411 341.587,113.538 341.695,113.393 342.075 C 113.274 342.385,113.660 343.079,114.253 343.619 C 114.845 344.159,115.179 344.330,114.996 344.000 C 114.783 343.617,114.977 343.676,115.531 344.162 C 116.498 345.010,116.662 345.380,115.900 344.994 C 115.625 344.855,115.742 345.018,116.159 345.358 C 116.576 345.697,117.062 345.885,117.239 345.776 C 117.415 345.667,117.763 345.958,118.012 346.423 C 118.261 346.888,118.562 347.172,118.680 347.053 C 119.013 346.720,120.000 347.865,120.000 348.584 C 120.000 348.937,120.315 349.340,120.700 349.481 C 121.085 349.621,121.830 350.156,122.355 350.668 C 122.880 351.181,123.555 351.600,123.855 351.600 C 124.155 351.600,124.355 351.817,124.300 352.082 C 124.245 352.347,124.427 352.572,124.705 352.582 C 124.983 352.592,125.845 353.292,126.619 354.137 C 127.496 355.094,128.254 355.588,128.626 355.445 C 129.005 355.300,129.382 355.562,129.654 356.159 C 129.966 356.843,130.311 357.044,130.905 356.888 C 131.593 356.709,131.689 356.818,131.495 357.560 C 131.303 358.291,131.362 358.363,131.831 357.974 C 132.238 357.636,132.400 357.630,132.400 357.951 C 132.400 358.198,132.569 358.400,132.775 358.400 C 132.982 358.400,133.747 358.953,134.475 359.629 C 136.099 361.134,137.791 362.065,138.213 361.684 C 138.387 361.528,138.410 361.606,138.266 361.858 C 138.122 362.110,138.274 362.419,138.602 362.546 C 138.931 362.672,139.200 362.560,139.200 362.298 C 139.200 362.036,139.451 362.181,139.759 362.619 C 140.066 363.058,141.142 363.829,142.149 364.332 C 143.157 364.835,144.088 365.419,144.219 365.630 C 144.349 365.841,144.612 365.916,144.803 365.798 C 144.994 365.680,145.336 365.902,145.563 366.292 C 145.790 366.681,145.981 366.791,145.988 366.535 C 145.997 366.188,146.294 366.181,147.160 366.507 C 147.935 366.800,148.244 367.141,148.092 367.538 C 147.940 367.932,148.027 368.031,148.350 367.831 C 148.617 367.666,149.095 367.747,149.412 368.010 C 149.730 368.274,150.259 368.386,150.589 368.260 C 150.943 368.124,151.358 368.347,151.603 368.806 C 151.831 369.232,152.419 369.795,152.909 370.056 C 153.726 370.491,153.753 370.474,153.232 369.843 C 152.742 369.249,152.742 369.172,153.232 369.277 C 153.545 369.345,154.037 369.718,154.327 370.107 C 154.617 370.495,155.022 370.710,155.227 370.583 C 155.432 370.456,155.600 370.564,155.600 370.823 C 155.600 371.096,155.935 371.206,156.400 371.084 C 156.840 370.969,157.200 371.049,157.200 371.261 C 157.200 371.473,157.365 371.545,157.566 371.421 C 157.767 371.297,157.992 371.375,158.066 371.594 C 158.140 371.814,158.695 372.034,159.300 372.084 C 159.905 372.134,160.400 372.315,160.400 372.487 C 160.400 372.659,160.831 372.800,161.357 372.800 C 161.884 372.800,162.422 373.081,162.554 373.425 C 162.686 373.769,162.961 373.948,163.164 373.822 C 163.367 373.697,164.043 373.801,164.666 374.054 C 166.120 374.643,167.086 374.821,168.700 374.795 C 169.415 374.784,170.000 374.973,170.000 375.214 C 170.000 375.481,170.335 375.547,170.850 375.384 C 171.422 375.203,171.611 375.259,171.426 375.557 C 171.194 375.933,172.105 376.213,172.539 375.900 C 172.615 375.845,172.930 376.003,173.239 376.252 C 173.547 376.500,174.340 376.663,175.000 376.613 C 175.660 376.563,176.546 376.810,176.969 377.161 C 177.507 377.609,177.639 377.633,177.409 377.242 C 177.144 376.790,177.303 376.746,178.240 377.008 C 178.878 377.187,179.850 377.319,180.400 377.302 C 180.950 377.285,181.619 377.452,181.887 377.674 C 182.323 378.034,183.985 378.262,187.871 378.495 C 188.569 378.537,189.043 378.730,188.923 378.924 C 188.803 379.118,189.000 379.215,189.361 379.138 C 190.025 378.998,190.412 275.538,189.754 273.825 C 189.621 273.479,189.722 273.200,189.981 273.200 C 190.237 273.200,190.331 273.388,190.188 273.619 C 190.010 273.908,193.199 274.001,200.465 273.919 L 211.000 273.800 210.896 326.000 C 210.791 379.002,210.801 379.629,211.734 378.855 C 212.022 378.615,213.111 378.492,214.153 378.581 C 215.482 378.695,216.108 378.584,216.252 378.210 C 216.459 377.670,217.895 377.641,218.734 378.159 C 219.028 378.341,219.107 378.223,218.955 377.828 C 218.681 377.114,221.571 377.088,222.094 377.800 C 222.262 378.029,222.390 377.920,222.394 377.543 C 222.402 376.709,223.540 376.252,224.215 376.813 C 224.575 377.111,224.807 377.113,224.990 376.816 C 225.134 376.584,225.674 376.470,226.192 376.564 C 226.709 376.658,227.252 376.614,227.399 376.467 C 227.546 376.320,227.787 376.190,227.933 376.177 C 228.960 376.090,230.800 375.482,230.800 375.230 C 230.800 375.061,231.475 374.916,232.300 374.907 C 233.125 374.899,234.340 374.663,235.000 374.384 C 236.340 373.816,236.612 373.748,237.900 373.661 C 238.438 373.624,238.800 373.339,238.800 372.951 C 238.800 372.462,238.929 372.409,239.324 372.737 C 239.714 373.060,240.012 372.979,240.494 372.415 C 240.881 371.963,241.452 371.741,241.915 371.862 C 242.393 371.987,242.783 371.822,242.932 371.432 C 243.066 371.085,243.590 370.800,244.098 370.800 C 244.606 370.800,245.398 370.536,245.858 370.214 C 246.319 369.892,246.804 369.737,246.937 369.870 C 247.069 370.003,247.813 369.627,248.589 369.035 C 249.365 368.444,250.000 368.133,250.000 368.345 C 250.000 368.577,250.476 368.551,251.200 368.278 C 251.860 368.028,252.400 367.605,252.400 367.336 C 252.400 367.067,252.608 366.719,252.862 366.562 C 253.175 366.368,253.215 366.457,252.985 366.838 C 252.696 367.319,252.746 367.320,253.330 366.845 C 253.707 366.540,254.416 366.263,254.907 366.229 C 255.398 366.195,255.755 365.950,255.700 365.684 C 255.645 365.418,255.924 365.200,256.320 365.200 C 256.716 365.200,257.282 364.975,257.579 364.700 C 257.999 364.310,258.056 364.309,257.838 364.695 C 257.650 365.028,257.763 365.112,258.179 364.953 C 258.521 364.822,258.800 364.464,258.800 364.157 C 258.800 363.664,259.576 363.397,260.530 363.563 C 260.711 363.594,260.738 363.423,260.589 363.183 C 260.437 362.936,260.684 362.651,261.160 362.526 C 261.622 362.406,262.000 362.148,262.000 361.953 C 262.000 361.759,262.135 361.631,262.300 361.669 C 263.052 361.842,266.040 360.272,265.544 359.965 C 264.885 359.558,266.108 359.002,266.950 359.326 C 267.289 359.455,267.481 359.283,267.450 358.878 C 267.423 358.516,267.640 358.215,267.932 358.210 C 268.225 358.204,268.693 357.888,268.972 357.506 C 269.251 357.125,269.579 356.912,269.701 357.034 C 270.038 357.371,271.600 356.277,271.600 355.704 C 271.600 355.427,271.960 355.200,272.400 355.200 C 272.844 355.200,273.200 354.933,273.200 354.600 C 273.200 354.270,273.350 354.045,273.533 354.100 C 273.716 354.155,274.640 353.525,275.585 352.700 C 276.531 351.875,277.551 351.200,277.852 351.200 C 278.153 351.200,278.400 350.829,278.400 350.376 C 278.400 349.923,278.575 349.661,278.789 349.793 C 279.003 349.926,279.498 349.639,279.889 349.157 C 281.329 347.380,282.038 346.777,282.415 347.009 C 282.627 347.140,282.800 346.866,282.800 346.400 C 282.800 345.934,282.980 345.664,283.201 345.800 C 283.421 345.937,284.141 345.457,284.801 344.735 C 285.460 344.013,286.000 343.565,286.000 343.739 C 286.000 343.914,286.255 343.802,286.566 343.491 C 286.877 343.180,287.102 342.582,287.066 342.163 C 287.030 341.743,287.221 341.444,287.491 341.497 C 287.761 341.550,288.261 341.055,288.602 340.397 C 288.942 339.739,289.465 339.200,289.763 339.200 C 290.061 339.200,290.814 338.525,291.436 337.700 C 292.058 336.875,292.709 336.140,292.883 336.067 C 293.058 335.993,293.200 335.623,293.200 335.243 C 293.200 334.864,293.899 334.028,294.753 333.386 C 295.606 332.743,296.217 331.989,296.110 331.709 C 296.002 331.429,296.124 331.200,296.381 331.200 C 296.637 331.200,296.736 331.020,296.600 330.799 C 296.463 330.579,296.813 330.223,297.376 330.009 C 297.939 329.795,298.400 329.373,298.400 329.071 C 298.400 328.769,298.776 328.090,299.235 327.561 C 299.695 327.033,300.363 326.105,300.721 325.500 C 301.080 324.895,301.514 324.400,301.686 324.400 C 301.859 324.400,302.000 324.203,302.000 323.962 C 302.000 323.721,302.371 323.002,302.825 322.364 C 303.279 321.727,303.539 321.024,303.402 320.803 C 303.265 320.581,303.338 320.400,303.564 320.400 C 303.790 320.400,303.867 320.119,303.735 319.776 C 303.576 319.359,303.779 319.078,304.348 318.929 C 304.817 318.807,305.200 318.473,305.200 318.187 C 305.200 317.901,305.425 317.576,305.700 317.465 C 306.090 317.308,306.086 317.256,305.684 317.232 C 305.143 317.198,305.267 316.982,306.825 315.246 C 307.169 314.863,307.370 314.311,307.273 314.019 C 307.157 313.671,307.273 313.598,307.610 313.806 C 307.926 314.002,308.025 313.964,307.867 313.708 C 307.490 313.098,308.402 310.754,308.897 311.060 C 309.167 311.227,309.242 310.930,309.107 310.228 C 308.972 309.517,309.090 309.064,309.447 308.927 C 309.749 308.811,309.896 308.555,309.774 308.358 C 309.652 308.161,309.853 308.000,310.219 308.000 C 310.641 308.000,310.803 307.784,310.660 307.413 C 310.536 307.090,310.614 306.715,310.834 306.579 C 311.053 306.444,311.123 305.988,310.989 305.566 C 310.805 304.985,310.940 304.800,311.547 304.800 C 312.189 304.800,312.310 304.596,312.160 303.768 C 312.028 303.040,312.113 302.823,312.448 303.030 C 312.752 303.218,312.818 303.152,312.630 302.849 C 312.469 302.587,312.720 301.723,313.189 300.928 C 313.658 300.134,314.006 299.104,313.961 298.642 C 313.863 297.608,314.374 296.337,314.787 296.592 C 314.953 296.695,315.059 296.379,315.022 295.890 C 314.984 295.400,315.121 294.775,315.326 294.500 C 315.530 294.225,315.564 294.000,315.400 294.000 C 315.236 294.000,315.319 293.739,315.584 293.419 C 315.849 293.100,315.949 292.470,315.806 292.019 C 315.645 291.511,315.724 291.200,316.016 291.200 C 316.283 291.200,316.379 290.923,316.238 290.555 C 316.067 290.109,316.164 289.977,316.555 290.128 C 316.971 290.287,317.120 289.996,317.120 289.021 C 317.120 288.293,317.303 287.355,317.526 286.938 C 317.802 286.422,317.799 285.942,317.516 285.435 C 317.213 284.894,317.222 284.767,317.549 284.969 C 317.824 285.138,318.020 284.925,318.050 284.424 C 318.121 283.256,318.170 283.067,318.557 282.455 C 318.772 282.116,318.716 281.795,318.409 281.605 C 318.034 281.374,318.029 281.230,318.385 281.010 C 318.643 280.850,318.758 280.467,318.640 280.160 C 318.522 279.852,318.599 279.600,318.813 279.600 C 319.026 279.600,319.200 278.981,319.200 278.224 C 319.200 277.467,319.399 276.724,319.643 276.574 C 319.954 276.381,319.933 276.205,319.568 275.980 C 319.146 275.720,319.148 275.545,319.575 275.030 C 320.008 274.509,320.003 274.399,319.549 274.394 C 319.089 274.389,319.088 274.332,319.542 274.044 C 319.915 273.808,320.040 273.076,319.942 271.701 C 319.850 270.401,319.984 269.529,320.326 269.210 C 320.759 268.807,320.739 268.596,320.216 268.017 C 319.706 267.454,319.681 267.231,320.090 266.892 C 320.396 266.638,320.579 265.653,320.549 264.434 C 320.521 263.315,320.656 262.400,320.849 262.400 C 321.042 262.400,321.200 262.209,321.200 261.976 C 321.200 261.743,321.020 261.664,320.800 261.800 C 320.511 261.979,320.040 49.587,320.321 45.994 C 320.351 45.615,315.402 46.032,315.267 46.419 C 315.193 46.629,314.868 46.800,314.543 46.800 C 314.218 46.800,314.054 46.636,314.178 46.435 C 314.415 46.052,313.386 46.081,312.999 46.468 C 312.875 46.591,312.240 46.630,311.587 46.554 C 310.934 46.478,310.400 46.604,310.400 46.835 C 310.400 47.066,310.056 47.145,309.632 47.010 C 308.030 46.502,307.208 46.464,306.947 46.886 C 306.773 47.167,306.864 47.208,307.200 47.000 C 307.536 46.793,307.627 46.833,307.454 47.113 C 307.306 47.353,306.873 47.556,306.492 47.564 C 305.076 47.595,303.784 47.834,303.255 48.163 C 302.922 48.371,302.594 48.314,302.411 48.018 C 302.192 47.664,302.044 47.709,301.862 48.184 C 301.658 48.715,301.456 48.751,300.758 48.377 C 300.241 48.101,300.004 48.083,300.158 48.332 C 300.542 48.954,299.836 49.224,297.721 49.267 C 296.467 49.292,295.642 49.527,295.318 49.953 C 294.982 50.394,294.821 50.437,294.813 50.086 C 294.803 49.694,294.607 49.675,293.992 50.004 C 293.547 50.242,293.007 50.328,292.792 50.195 C 292.576 50.062,292.400 50.173,292.400 50.443 C 292.400 50.713,292.289 50.822,292.152 50.686 C 292.016 50.550,291.659 50.684,291.358 50.984 C 291.058 51.285,290.359 51.481,289.806 51.420 C 289.253 51.360,288.800 51.446,288.800 51.612 C 288.800 51.962,286.837 52.569,286.100 52.448 C 285.825 52.402,285.600 52.625,285.600 52.943 C 285.600 53.339,285.215 53.494,284.374 53.435 C 283.510 53.376,283.024 53.581,282.731 54.129 C 282.462 54.632,282.217 54.751,282.040 54.465 C 281.695 53.906,278.800 55.140,278.800 55.846 C 278.800 56.118,278.475 56.240,278.047 56.128 C 277.589 56.009,276.963 56.287,276.447 56.841 C 275.981 57.342,275.600 57.553,275.600 57.311 C 275.600 56.587,274.281 57.007,273.957 57.834 C 273.790 58.258,273.644 58.355,273.628 58.051 C 273.607 57.638,273.468 57.612,273.063 57.948 C 272.768 58.193,272.369 58.260,272.176 58.097 C 271.984 57.933,272.090 58.149,272.413 58.575 C 272.945 59.277,272.933 59.325,272.291 59.084 C 271.840 58.915,271.289 59.111,270.777 59.623 C 270.334 60.066,269.753 60.384,269.486 60.330 C 268.755 60.183,267.144 61.185,267.412 61.620 C 267.542 61.829,267.426 62.000,267.155 62.000 C 266.884 62.000,266.334 62.298,265.931 62.662 C 265.516 63.038,265.200 63.130,265.200 62.875 C 265.200 62.627,264.931 62.528,264.602 62.654 C 264.274 62.781,264.084 63.013,264.182 63.171 C 264.279 63.328,263.985 63.778,263.528 64.169 C 262.850 64.749,262.634 64.781,262.355 64.340 C 262.089 63.921,262.011 63.957,262.006 64.500 C 262.002 64.935,261.692 65.200,261.187 65.200 C 260.741 65.200,260.272 65.469,260.146 65.798 C 260.019 66.126,259.755 66.296,259.558 66.174 C 259.361 66.052,259.200 66.323,259.200 66.776 C 259.200 67.338,258.941 67.600,258.387 67.600 C 257.941 67.600,257.471 67.870,257.345 68.200 C 257.218 68.530,256.946 68.800,256.741 68.800 C 256.272 68.800,254.012 70.373,253.160 71.293 C 252.807 71.674,252.412 71.878,252.281 71.748 C 252.150 71.617,251.675 72.115,251.225 72.855 C 250.775 73.595,250.315 74.155,250.204 74.100 C 249.678 73.842,249.210 74.049,249.300 74.500 C 249.355 74.775,249.199 74.963,248.953 74.918 C 248.707 74.872,247.807 75.568,246.953 76.464 C 246.099 77.360,244.815 78.708,244.100 79.460 C 243.385 80.212,242.798 80.956,242.796 81.113 C 242.794 81.271,242.254 81.825,241.596 82.345 C 240.938 82.865,240.400 83.540,240.400 83.845 C 240.400 84.150,240.245 84.400,240.056 84.400 C 239.556 84.400,236.688 87.179,236.173 88.162 C 235.932 88.623,235.524 88.955,235.267 88.900 C 235.010 88.845,234.800 89.145,234.800 89.567 C 234.800 90.678,234.370 91.629,233.978 91.386 C 233.587 91.145,232.572 92.805,232.748 93.400 C 232.813 93.620,232.746 93.680,232.600 93.533 C 232.155 93.088,230.853 94.473,231.103 95.124 C 231.249 95.503,231.170 95.629,230.895 95.459 C 230.623 95.291,230.406 95.610,230.327 96.293 C 230.233 97.116,230.010 97.367,229.460 97.273 C 228.962 97.188,228.818 97.306,229.021 97.634 C 229.197 97.920,229.017 98.345,228.585 98.661 C 228.179 98.957,228.048 99.200,228.293 99.200 C 228.538 99.200,228.195 99.744,227.530 100.409 C 226.825 101.114,226.416 101.864,226.548 102.209 C 226.685 102.565,226.541 102.800,226.187 102.800 C 225.864 102.800,225.621 102.935,225.647 103.100 C 225.849 104.377,225.542 105.263,224.974 105.045 C 224.484 104.858,224.406 104.990,224.617 105.653 C 224.791 106.202,224.737 106.408,224.463 106.239 C 224.032 105.973,222.949 107.519,223.129 108.142 C 223.184 108.330,223.043 108.707,222.818 108.979 C 222.592 109.251,222.525 109.592,222.670 109.737 C 222.815 109.882,222.639 110.000,222.279 110.000 C 221.862 110.000,221.709 110.217,221.855 110.600 C 221.983 110.932,221.867 111.200,221.596 111.200 C 221.310 111.200,221.190 111.520,221.308 111.970 C 221.441 112.478,221.339 112.675,221.007 112.547 C 220.507 112.356,220.016 113.523,220.005 114.929 C 220.002 115.329,219.746 115.911,219.436 116.222 C 219.125 116.532,218.966 117.149,219.082 117.593 C 219.206 118.064,219.098 118.400,218.823 118.400 C 218.564 118.400,218.455 118.565,218.579 118.766 C 218.703 118.967,218.625 119.192,218.406 119.266 C 218.186 119.340,217.967 119.882,217.919 120.472 C 217.870 121.061,217.643 121.511,217.415 121.472 C 217.187 121.432,217.045 121.625,217.100 121.900 C 217.155 122.175,217.018 122.400,216.797 122.400 C 216.547 122.400,216.569 122.682,216.856 123.141 C 217.236 123.749,217.158 124.042,216.418 124.782 C 215.745 125.455,215.574 125.972,215.745 126.826 C 215.871 127.455,215.787 128.084,215.560 128.225 C 215.332 128.366,215.245 128.740,215.366 129.056 C 215.487 129.372,215.306 129.738,214.964 129.869 C 214.537 130.033,214.415 130.406,214.578 131.054 C 214.722 131.629,214.639 132.000,214.365 132.000 C 214.117 132.000,214.016 132.264,214.140 132.587 C 214.264 132.910,214.174 133.293,213.940 133.437 C 213.657 133.612,213.697 133.815,214.057 134.044 C 214.457 134.297,214.468 134.389,214.100 134.394 C 213.825 134.397,213.600 134.760,213.600 135.200 C 213.600 135.640,213.437 136.000,213.237 136.000 C 213.038 136.000,212.966 136.350,213.078 136.777 C 213.190 137.205,213.007 138.105,212.671 138.777 C 212.336 139.450,212.196 140.000,212.361 140.000 C 212.812 140.000,212.357 142.554,211.845 142.900 C 211.535 143.109,211.582 143.322,212.000 143.600 C 212.430 143.887,212.470 144.085,212.141 144.300 C 211.571 144.672,211.317 146.427,211.736 147.100 C 211.934 147.419,211.823 147.600,211.428 147.600 C 211.012 147.600,210.836 147.928,210.892 148.600 C 210.937 149.150,211.087 149.600,211.224 149.600 C 211.361 149.600,211.341 150.455,211.181 151.500 C 211.020 152.545,210.961 153.523,211.050 153.672 C 211.140 153.822,211.037 154.054,210.822 154.187 C 210.569 154.343,210.567 154.787,210.815 155.440 C 211.065 156.098,211.060 156.714,210.800 157.200 C 210.323 158.091,210.267 160.000,210.718 160.000 C 210.893 160.000,210.938 160.855,210.818 161.900 L 210.600 163.800 200.120 163.882 C 192.088 163.944,189.682 163.851,189.822 163.482 C 190.230 162.402,190.211 154.302,189.799 154.144 C 189.566 154.055,189.422 153.184,189.479 152.209 C 189.536 151.234,189.410 150.330,189.200 150.200 C 188.965 150.055,189.006 149.660,189.304 149.181 C 189.686 148.571,189.687 148.231,189.311 147.629 C 188.934 147.026,188.935 146.814,189.314 146.659 C 189.678 146.511,189.662 146.364,189.249 146.075 C 188.946 145.863,188.799 145.526,188.922 145.326 C 189.046 145.126,188.989 144.706,188.796 144.394 C 188.580 144.044,188.629 143.601,188.923 143.239 C 189.316 142.754,189.276 142.697,188.695 142.914 C 188.097 143.139,188.029 143.013,188.246 142.089 C 188.387 141.490,188.501 140.910,188.499 140.800 C 188.475 139.601,188.341 139.189,188.035 139.378 C 187.834 139.502,187.720 139.153,187.780 138.602 C 187.840 138.051,187.773 137.600,187.630 137.600 C 187.487 137.600,187.335 137.285,187.291 136.900 C 187.210 136.182,186.921 134.757,186.785 134.400 C 186.742 134.290,186.744 133.860,186.788 133.445 C 186.833 133.030,186.684 132.576,186.459 132.436 C 186.233 132.297,185.960 131.695,185.852 131.098 C 185.744 130.501,185.542 129.830,185.404 129.607 C 185.266 129.383,185.365 129.200,185.625 129.200 C 185.960 129.200,185.938 129.008,185.553 128.544 C 185.254 128.183,184.982 127.365,184.950 126.726 C 184.918 126.087,184.579 125.219,184.197 124.797 C 183.807 124.366,183.612 123.744,183.753 123.379 C 183.892 123.016,183.656 122.240,183.219 121.626 C 182.601 120.759,182.537 120.415,182.917 120.004 C 183.303 119.587,183.263 119.530,182.720 119.721 C 182.262 119.882,182.107 119.788,182.243 119.431 C 182.355 119.141,182.195 118.652,181.887 118.345 C 181.321 117.778,180.760 115.975,180.754 114.700 C 180.752 114.315,180.581 114.000,180.375 114.000 C 180.169 114.000,180.000 113.640,180.000 113.200 C 180.000 112.760,179.820 112.400,179.600 112.400 C 179.380 112.400,179.229 112.265,179.264 112.100 C 179.298 111.935,179.191 111.440,179.025 111.000 C 178.859 110.560,178.652 109.964,178.564 109.675 C 178.475 109.380,178.185 109.276,177.903 109.439 C 177.626 109.598,177.535 109.579,177.701 109.397 C 177.866 109.214,177.686 108.704,177.301 108.264 C 176.802 107.694,176.773 107.562,177.200 107.808 C 177.712 108.103,177.722 108.057,177.266 107.494 C 176.967 107.126,176.869 106.607,177.042 106.318 C 177.287 105.910,177.229 105.900,176.769 106.273 C 176.293 106.657,176.059 106.528,175.515 105.582 C 175.092 104.844,174.996 104.326,175.253 104.167 C 175.488 104.022,175.309 103.672,174.829 103.336 C 174.373 103.016,174.000 102.424,174.000 102.020 C 174.000 101.616,173.719 101.178,173.375 101.046 C 173.031 100.914,172.854 100.637,172.981 100.430 C 173.109 100.224,173.027 99.940,172.800 99.800 C 172.573 99.660,172.479 99.396,172.591 99.214 C 172.704 99.033,172.526 98.781,172.198 98.654 C 171.869 98.528,171.600 98.155,171.600 97.825 C 171.600 97.437,171.372 97.313,170.954 97.473 C 170.459 97.663,170.363 97.542,170.545 96.961 C 170.675 96.542,170.589 95.930,170.353 95.600 C 170.001 95.107,169.969 95.135,170.171 95.757 C 170.376 96.385,170.319 96.431,169.833 96.027 C 169.511 95.760,169.346 95.286,169.465 94.974 C 169.585 94.662,169.394 94.296,169.042 94.161 C 168.689 94.025,168.400 93.579,168.400 93.170 C 168.400 92.670,168.201 92.501,167.795 92.657 C 167.363 92.823,167.261 92.706,167.438 92.245 C 167.598 91.829,167.473 91.600,167.086 91.600 C 166.756 91.600,166.365 91.113,166.215 90.518 C 166.066 89.923,165.596 89.193,165.172 88.895 C 164.747 88.598,164.400 88.100,164.400 87.790 C 164.400 87.446,164.159 87.317,163.784 87.462 C 163.391 87.612,163.210 87.498,163.284 87.149 C 163.348 86.847,163.196 86.638,162.947 86.684 C 162.698 86.731,162.518 86.551,162.547 86.284 C 162.576 86.018,162.420 85.742,162.200 85.671 C 161.486 85.442,160.400 84.289,160.400 83.761 C 160.400 83.477,160.041 82.994,159.603 82.687 C 159.164 82.380,158.924 82.009,159.069 81.864 C 159.214 81.719,159.117 81.600,158.852 81.600 C 158.425 81.600,154.800 78.171,154.800 77.768 C 154.800 77.347,153.361 76.000,152.911 76.000 C 152.630 76.000,152.400 75.809,152.400 75.576 C 152.400 75.343,152.252 75.244,152.071 75.356 C 151.701 75.585,150.684 74.516,150.287 73.482 C 150.143 73.107,149.762 72.800,149.440 72.800 C 149.117 72.800,148.736 72.427,148.591 71.971 C 148.432 71.470,148.103 71.228,147.760 71.360 C 147.448 71.480,146.971 71.223,146.700 70.789 C 146.429 70.355,145.975 70.000,145.691 70.000 C 145.407 70.000,145.071 69.730,144.945 69.400 C 144.818 69.070,144.384 68.800,143.981 68.800 C 143.084 68.800,142.605 68.145,143.298 67.866 C 143.574 67.754,143.335 67.649,142.768 67.632 C 142.088 67.611,141.547 67.249,141.186 66.574 C 140.870 65.984,140.160 65.452,139.518 65.324 C 138.903 65.201,138.400 64.932,138.400 64.726 C 138.400 64.521,138.263 64.437,138.096 64.541 C 137.566 64.868,136.300 63.686,136.622 63.165 C 136.815 62.853,136.757 62.779,136.462 62.962 C 136.208 63.119,136.000 63.057,136.000 62.824 C 136.000 62.591,135.809 62.400,135.576 62.400 C 135.343 62.400,135.263 62.578,135.397 62.795 C 135.537 63.022,135.377 63.089,135.021 62.953 C 134.679 62.822,134.400 62.554,134.400 62.357 C 134.400 62.161,134.085 61.997,133.700 61.994 C 133.164 61.989,133.125 61.909,133.534 61.650 C 133.967 61.375,133.953 61.267,133.459 61.078 C 133.125 60.950,132.764 61.060,132.657 61.322 C 132.551 61.585,132.449 61.485,132.432 61.100 C 132.411 60.641,132.077 60.400,131.462 60.400 C 130.946 60.400,130.209 60.052,129.824 59.627 C 129.440 59.202,128.888 58.945,128.599 59.056 C 128.300 59.171,127.955 58.887,127.800 58.400 C 127.629 57.862,127.310 57.626,126.943 57.766 C 126.616 57.892,126.466 57.817,126.603 57.595 C 126.744 57.367,126.320 57.200,125.600 57.200 C 124.863 57.200,124.455 57.035,124.602 56.797 C 124.870 56.363,123.209 55.571,122.682 55.881 C 122.508 55.985,122.103 55.851,121.782 55.585 C 121.462 55.320,121.200 55.248,121.200 55.427 C 121.200 55.606,120.956 55.419,120.658 55.011 C 120.338 54.574,119.857 54.369,119.483 54.513 C 119.127 54.649,118.366 54.374,117.740 53.882 C 117.130 53.401,116.317 53.061,115.934 53.126 C 115.552 53.191,114.743 52.919,114.137 52.522 C 113.531 52.125,112.982 51.845,112.918 51.900 C 112.591 52.177,111.984 51.950,112.185 51.625 C 112.316 51.412,111.961 51.333,111.358 51.442 C 110.741 51.554,110.028 51.388,109.648 51.044 C 109.290 50.719,108.547 50.392,107.998 50.317 C 107.449 50.241,106.775 50.039,106.500 49.866 C 106.217 49.689,106.000 49.737,106.000 49.976 C 106.000 50.209,105.820 50.400,105.600 50.400 C 105.380 50.400,105.200 50.149,105.200 49.843 C 105.200 49.536,104.975 49.203,104.700 49.102 C 103.932 48.819,103.161 49.213,103.478 49.727 C 103.634 49.979,103.250 49.783,102.624 49.291 C 101.753 48.605,101.360 48.501,100.943 48.847 C 100.605 49.128,100.400 49.145,100.400 48.892 C 100.400 48.668,100.121 48.378,99.779 48.247 C 99.378 48.093,99.258 48.171,99.441 48.466 C 99.632 48.775,99.544 48.812,99.169 48.581 C 98.647 48.258,97.783 48.059,96.400 47.942 C 96.070 47.914,95.575 47.713,95.300 47.496 C 95.025 47.280,94.800 47.236,94.800 47.400 C 94.800 47.564,94.575 47.532,94.300 47.328 C 93.504 46.740,91.200 46.668,91.200 47.232 C 91.200 47.559,90.955 47.502,90.468 47.061 C 90.065 46.697,89.615 46.519,89.468 46.666 C 89.320 46.813,89.200 46.739,89.200 46.502 C 89.200 46.016,88.479 46.048,87.638 46.573 C 87.280 46.796,87.168 46.776,87.328 46.517 C 87.488 46.257,86.574 46.100,84.794 46.083 C 83.262 46.069,81.647 45.942,81.204 45.801 L 80.400 45.546 80.400 152.573 " stroke="none" fill="#a42434" fill-rule="evenodd"></path><path id="path1" d="M191.700 20.544 C 190.445 21.166,190.578 21.494,192.000 21.285 C 192.660 21.188,193.200 20.980,193.200 20.821 C 193.200 20.663,193.470 20.533,193.800 20.533 C 194.130 20.533,194.400 20.669,194.400 20.835 C 194.400 21.237,196.347 21.022,197.600 20.482 C 198.428 20.125,198.083 20.055,195.600 20.074 C 193.950 20.088,192.195 20.299,191.700 20.544 M202.854 20.520 C 203.484 21.194,204.923 21.328,204.532 20.676 C 204.312 20.310,204.383 20.310,204.837 20.677 C 205.191 20.964,205.647 21.018,205.980 20.812 C 206.292 20.620,206.965 20.635,207.522 20.846 C 208.602 21.257,209.029 21.093,208.616 20.427 C 208.468 20.186,207.048 20.000,205.361 20.000 C 202.923 20.000,202.458 20.096,202.854 20.520 M199.500 20.682 C 199.995 20.778,200.805 20.778,201.300 20.682 C 201.795 20.587,201.390 20.509,200.400 20.509 C 199.410 20.509,199.005 20.587,199.500 20.682 M187.700 21.089 C 186.985 21.178,186.400 21.419,186.400 21.625 C 186.400 22.118,188.284 22.111,188.589 21.617 C 188.719 21.407,189.072 21.329,189.372 21.445 C 189.673 21.560,190.038 21.462,190.183 21.227 C 190.450 20.796,190.182 20.781,187.700 21.089 M209.559 21.165 C 209.866 21.360,210.695 21.520,211.401 21.520 C 212.107 21.520,213.242 21.808,213.923 22.160 C 215.345 22.896,216.000 22.971,216.000 22.400 C 216.000 22.180,215.655 22.000,215.233 22.000 C 214.812 22.000,214.407 21.826,214.333 21.614 C 214.260 21.401,213.030 21.133,211.600 21.018 C 210.013 20.891,209.218 20.948,209.559 21.165 M183.700 22.282 C 182.809 22.454,182.568 22.835,183.048 23.314 C 183.184 23.450,183.567 23.290,183.899 22.958 C 184.231 22.626,184.744 22.446,185.039 22.560 C 185.333 22.673,185.681 22.593,185.811 22.383 C 186.049 21.997,185.354 21.964,183.700 22.282 M216.800 22.810 C 216.800 23.035,217.233 23.384,217.761 23.585 C 218.290 23.786,218.840 24.142,218.985 24.375 C 219.401 25.049,220.800 24.877,220.800 24.153 C 220.800 23.703,220.556 23.570,219.999 23.716 C 219.559 23.831,219.300 23.762,219.423 23.563 C 219.546 23.363,219.277 23.200,218.824 23.200 C 218.371 23.200,218.000 23.020,218.000 22.800 C 218.000 22.580,217.730 22.400,217.400 22.400 C 217.070 22.400,216.800 22.584,216.800 22.810 M180.271 23.481 C 179.869 23.585,179.621 23.879,179.718 24.135 C 179.829 24.427,179.360 24.629,178.455 24.678 C 177.663 24.721,176.951 24.946,176.874 25.178 C 176.797 25.410,176.491 25.600,176.195 25.600 C 175.899 25.600,175.419 25.827,175.129 26.105 C 174.838 26.382,174.150 26.831,173.600 27.102 C 172.354 27.715,171.189 28.459,170.524 29.064 C 170.244 29.320,169.802 29.599,169.543 29.686 C 169.189 29.804,169.184 30.036,169.524 30.621 C 169.953 31.362,169.976 31.354,169.988 30.467 C 169.995 29.918,170.199 29.600,170.484 29.695 C 170.751 29.784,171.481 29.399,172.108 28.841 C 173.354 27.730,176.028 26.370,176.451 26.631 C 176.597 26.722,176.827 26.508,176.961 26.156 C 177.101 25.792,177.463 25.615,177.803 25.746 C 178.162 25.883,178.400 25.745,178.400 25.400 C 178.400 25.051,178.638 24.916,179.005 25.057 C 179.338 25.185,179.870 25.074,180.188 24.810 C 180.505 24.547,180.944 24.442,181.162 24.577 C 181.381 24.712,181.755 24.457,181.994 24.011 C 182.452 23.156,182.030 23.026,180.271 23.481 M221.380 24.768 C 221.545 25.035,221.763 25.170,221.865 25.069 C 221.966 24.967,222.515 25.315,223.083 25.842 C 223.652 26.369,224.541 26.800,225.058 26.800 C 225.576 26.800,226.000 26.980,226.000 27.200 C 226.000 27.420,226.276 27.600,226.613 27.600 C 226.949 27.600,227.328 27.869,227.454 28.198 C 227.581 28.526,227.825 28.708,227.996 28.602 C 228.168 28.496,228.403 28.767,228.517 29.204 C 228.642 29.684,229.063 30.000,229.575 30.000 C 230.043 30.000,230.514 30.231,230.622 30.514 C 230.731 30.796,231.310 31.058,231.910 31.095 L 233.000 31.162 232.009 30.481 C 231.463 30.107,230.716 29.503,230.348 29.139 C 229.980 28.776,229.301 28.359,228.839 28.213 C 228.378 28.066,228.000 27.778,228.000 27.573 C 228.000 27.368,227.795 27.200,227.544 27.200 C 227.294 27.200,226.218 26.665,225.155 26.010 C 222.966 24.663,220.894 23.982,221.380 24.768 M166.352 32.300 C 161.701 36.489,157.356 41.450,156.409 43.653 C 155.892 44.857,155.097 46.129,154.665 46.445 C 154.103 46.856,154.553 48.491,155.357 48.959 C 155.774 49.202,156.610 49.850,157.217 50.400 C 158.825 51.859,160.114 52.800,160.505 52.800 C 160.693 52.800,160.745 52.965,160.621 53.166 C 160.497 53.367,160.581 53.594,160.807 53.669 C 161.034 53.745,162.652 55.234,164.402 56.977 C 166.153 58.721,167.697 60.037,167.833 59.900 C 167.969 59.764,167.523 59.107,166.841 58.440 C 166.158 57.773,165.600 56.942,165.600 56.593 C 165.600 56.244,165.059 55.770,164.398 55.539 C 163.679 55.289,163.103 54.753,162.966 54.206 C 162.825 53.643,162.134 53.021,161.164 52.584 C 160.299 52.194,159.670 51.796,159.766 51.701 C 160.002 51.464,157.960 49.200,157.510 49.200 C 157.314 49.200,157.282 49.425,157.439 49.700 C 157.597 49.975,157.288 49.750,156.752 49.200 C 155.836 48.259,155.356 46.000,156.073 46.000 C 156.253 46.000,156.400 45.812,156.400 45.583 C 156.400 45.354,156.754 44.787,157.186 44.323 C 157.619 43.859,157.893 43.350,157.796 43.193 C 157.698 43.036,157.975 42.585,158.409 42.191 C 158.844 41.798,159.200 41.221,159.200 40.909 C 159.200 40.212,160.213 39.146,160.552 39.486 C 160.689 39.622,160.800 39.466,160.800 39.139 C 160.800 38.812,161.250 38.153,161.800 37.675 C 162.350 37.197,162.800 36.894,162.800 37.002 C 162.800 37.110,163.451 36.585,164.246 35.835 C 165.041 35.085,165.570 34.275,165.422 34.036 C 165.272 33.793,165.429 33.600,165.776 33.600 C 166.119 33.600,166.400 33.409,166.400 33.176 C 166.400 32.943,166.577 32.862,166.794 32.996 C 167.010 33.130,167.521 32.691,167.929 32.021 C 168.336 31.351,168.789 30.922,168.935 31.068 C 169.081 31.214,169.200 31.123,169.200 30.867 C 169.200 30.019,168.487 30.377,166.352 32.300 M233.053 31.881 C 232.668 32.265,232.751 32.877,233.155 32.628 C 233.350 32.507,233.732 32.677,234.004 33.004 C 234.276 33.332,234.791 33.614,235.149 33.632 C 235.564 33.652,235.618 33.736,235.300 33.865 C 235.025 33.976,234.800 34.242,234.800 34.457 C 234.800 34.672,234.980 34.736,235.200 34.600 C 235.420 34.464,235.600 34.644,235.600 35.000 C 235.600 35.356,235.767 35.544,235.971 35.418 C 236.175 35.292,236.457 35.551,236.598 35.994 C 236.739 36.437,237.112 36.800,237.427 36.800 C 237.742 36.800,238.000 36.999,238.000 37.243 C 238.000 37.486,238.279 37.578,238.621 37.447 C 238.962 37.316,239.150 37.358,239.038 37.539 C 238.925 37.721,239.538 38.648,240.400 39.600 C 241.262 40.552,241.873 41.481,241.760 41.665 C 241.646 41.849,241.748 42.000,241.986 42.000 C 242.349 42.000,243.266 43.738,243.252 44.400 C 243.250 44.510,243.616 44.736,244.066 44.903 C 244.565 45.087,244.796 45.433,244.659 45.790 C 244.536 46.111,244.607 46.481,244.817 46.611 C 245.409 46.977,245.274 47.545,244.420 48.275 C 243.992 48.642,243.720 49.070,243.816 49.226 C 243.913 49.382,243.706 49.485,243.356 49.455 C 242.603 49.390,241.380 51.017,241.928 51.355 C 242.134 51.483,242.967 50.960,243.780 50.193 C 244.592 49.427,245.440 48.800,245.664 48.800 C 246.187 48.800,245.745 45.450,245.198 45.267 C 244.979 45.193,244.800 44.961,244.800 44.750 C 244.800 44.410,243.704 42.701,242.600 41.322 C 242.380 41.047,241.660 40.096,241.000 39.208 C 239.382 37.032,235.677 33.200,235.192 33.200 C 234.976 33.200,234.800 33.026,234.800 32.814 C 234.800 32.311,233.380 31.553,233.053 31.881 M79.200 155.946 C 79.200 229.582,79.334 266.800,79.600 266.800 C 79.820 266.800,80.000 267.070,80.000 267.400 C 80.000 267.730,80.180 268.000,80.400 268.000 C 80.934 268.000,80.913 266.917,80.373 266.583 C 80.138 266.438,80.028 265.707,80.129 264.960 C 80.230 264.212,80.197 263.600,80.056 263.600 C 79.915 263.600,79.800 262.700,79.800 261.600 C 79.800 260.500,79.935 259.600,80.100 259.600 C 80.265 259.600,80.400 211.438,80.400 152.573 L 80.400 45.546 81.204 45.801 C 81.647 45.942,83.262 46.069,84.794 46.083 C 86.574 46.100,87.488 46.257,87.328 46.517 C 87.168 46.776,87.280 46.796,87.638 46.573 C 88.479 46.048,89.200 46.016,89.200 46.502 C 89.200 46.739,89.320 46.813,89.468 46.666 C 89.615 46.519,90.065 46.697,90.468 47.061 C 90.955 47.502,91.200 47.559,91.200 47.232 C 91.200 46.668,93.504 46.740,94.300 47.328 C 94.575 47.532,94.800 47.564,94.800 47.400 C 94.800 47.236,95.025 47.280,95.300 47.496 C 95.575 47.713,96.070 47.914,96.400 47.942 C 97.831 48.063,98.801 48.268,99.031 48.498 C 99.167 48.634,99.531 48.648,99.839 48.530 C 100.148 48.411,100.400 48.536,100.400 48.806 C 100.400 49.175,100.536 49.185,100.943 48.847 C 101.360 48.501,101.753 48.605,102.624 49.291 C 103.250 49.783,103.639 49.986,103.488 49.743 C 103.316 49.465,103.584 49.300,104.207 49.300 C 104.783 49.300,105.200 49.531,105.200 49.850 C 105.200 50.153,105.380 50.400,105.600 50.400 C 105.820 50.400,106.000 50.209,106.000 49.976 C 106.000 49.737,106.217 49.689,106.500 49.866 C 106.775 50.039,107.449 50.241,107.998 50.317 C 108.547 50.392,109.294 50.724,109.659 51.053 C 110.023 51.383,110.564 51.603,110.861 51.543 C 111.157 51.482,111.805 51.656,112.300 51.930 C 113.070 52.356,113.200 52.333,113.200 51.771 C 113.200 51.365,112.981 51.198,112.626 51.335 C 112.310 51.456,111.986 51.357,111.905 51.114 C 111.824 50.872,111.369 50.614,110.895 50.542 C 110.420 50.469,108.943 50.033,107.613 49.573 C 106.282 49.112,104.970 48.817,104.697 48.916 C 104.424 49.015,103.930 48.874,103.600 48.604 C 102.947 48.068,99.618 47.378,94.600 46.739 C 92.840 46.515,91.113 46.183,90.762 46.001 C 90.411 45.820,87.666 45.541,84.662 45.382 L 79.200 45.092 79.200 155.946 M313.200 45.636 C 311.770 45.777,310.061 46.064,309.403 46.274 L 308.206 46.656 309.189 46.913 C 309.729 47.054,310.271 47.008,310.394 46.810 C 310.516 46.612,311.112 46.505,311.718 46.571 C 312.324 46.638,312.913 46.540,313.028 46.354 C 313.143 46.168,313.594 46.238,314.031 46.508 C 314.646 46.889,314.892 46.892,315.123 46.520 C 315.408 46.064,320.355 45.562,320.321 45.994 C 320.040 49.587,320.511 261.979,320.800 261.800 C 321.065 261.636,321.200 225.072,321.200 153.405 L 321.200 45.257 318.500 45.318 C 317.015 45.352,314.630 45.495,313.200 45.636 M304.478 46.701 C 303.433 46.790,302.667 47.081,302.529 47.441 C 302.233 48.212,302.606 48.568,303.273 48.152 C 303.782 47.835,305.076 47.597,306.473 47.563 C 306.844 47.554,307.329 47.327,307.551 47.059 C 308.002 46.516,307.422 46.448,304.478 46.701 M299.235 47.891 C 298.489 48.032,298.398 48.154,298.835 48.430 C 299.196 48.659,299.228 48.790,298.924 48.794 C 298.662 48.797,298.349 48.641,298.228 48.446 C 298.107 48.250,297.336 48.331,296.505 48.628 C 295.677 48.923,294.505 49.173,293.900 49.182 C 293.197 49.194,292.800 49.416,292.800 49.800 C 292.800 50.510,292.993 50.539,294.026 49.986 C 294.604 49.677,294.803 49.702,294.813 50.086 C 294.821 50.437,294.982 50.394,295.318 49.953 C 295.642 49.527,296.467 49.292,297.721 49.267 C 299.836 49.224,300.542 48.954,300.158 48.332 C 299.990 48.060,300.174 48.065,300.699 48.346 C 301.478 48.763,302.000 48.597,302.000 47.933 C 302.000 47.590,300.922 47.573,299.235 47.891 M290.400 50.396 C 290.070 50.607,288.855 50.993,287.700 51.254 C 286.545 51.514,285.600 51.879,285.600 52.064 C 285.600 52.249,285.184 52.400,284.676 52.400 C 284.169 52.400,283.404 52.664,282.976 52.987 C 282.549 53.310,281.885 53.580,281.500 53.587 C 281.115 53.594,280.800 53.774,280.800 53.987 C 280.800 54.201,280.530 54.271,280.200 54.145 C 279.870 54.018,279.600 54.114,279.600 54.357 C 279.600 54.601,279.348 54.800,279.040 54.800 C 278.340 54.800,274.052 56.773,274.600 56.843 C 274.820 56.872,275.135 56.873,275.300 56.847 C 275.465 56.821,275.600 57.014,275.600 57.275 C 275.600 57.537,275.981 57.342,276.447 56.841 C 276.963 56.287,277.589 56.009,278.047 56.128 C 278.475 56.240,278.800 56.118,278.800 55.846 C 278.800 55.140,281.695 53.906,282.040 54.465 C 282.217 54.751,282.462 54.632,282.731 54.129 C 283.024 53.581,283.510 53.376,284.374 53.435 C 285.215 53.494,285.600 53.339,285.600 52.943 C 285.600 52.625,285.825 52.402,286.100 52.448 C 286.837 52.569,288.800 51.962,288.800 51.612 C 288.800 51.446,289.253 51.360,289.806 51.420 C 290.359 51.481,291.058 51.285,291.358 50.984 C 291.659 50.684,292.016 50.550,292.152 50.686 C 292.289 50.822,292.400 50.723,292.400 50.467 C 292.400 49.905,291.232 49.863,290.400 50.396 M240.200 52.000 C 239.811 52.430,239.336 52.684,239.144 52.565 C 238.952 52.446,238.672 52.676,238.524 53.075 C 238.375 53.474,237.923 54.037,237.520 54.327 C 237.116 54.617,236.887 55.017,237.010 55.216 C 237.132 55.414,236.772 55.692,236.209 55.833 C 235.646 55.975,235.227 56.295,235.277 56.545 C 235.394 57.125,232.613 59.878,231.580 60.206 C 230.670 60.495,229.828 61.846,230.355 62.172 C 230.756 62.420,238.800 54.645,238.800 54.008 C 238.800 53.784,238.939 53.645,239.108 53.700 C 239.618 53.866,241.715 51.718,241.296 51.459 C 241.082 51.327,240.589 51.570,240.200 52.000 M113.600 51.932 C 113.600 52.437,115.448 53.318,116.061 53.106 C 116.357 53.003,117.100 53.335,117.711 53.843 C 118.367 54.388,119.087 54.665,119.469 54.518 C 119.859 54.369,120.331 54.564,120.658 55.011 C 120.956 55.419,121.200 55.606,121.200 55.427 C 121.200 55.248,121.425 55.272,121.700 55.480 C 122.364 55.982,124.000 56.050,124.000 55.575 C 124.000 55.369,123.705 55.200,123.344 55.200 C 122.983 55.200,121.948 54.856,121.044 54.437 C 117.702 52.885,116.464 52.400,115.840 52.400 C 115.488 52.400,115.200 52.220,115.200 52.000 C 115.200 51.780,114.840 51.600,114.400 51.600 C 113.960 51.600,113.600 51.750,113.600 51.932 M124.533 56.600 C 124.533 56.982,124.909 57.195,125.567 57.187 C 126.562 57.175,126.571 57.153,125.824 56.587 C 124.840 55.843,124.533 55.846,124.533 56.600 M272.498 57.466 C 272.221 57.577,272.085 57.813,272.194 57.990 C 272.303 58.167,271.760 58.431,270.985 58.576 C 270.211 58.722,269.674 58.997,269.792 59.188 C 269.910 59.379,269.465 59.654,268.803 59.799 C 268.142 59.945,267.600 60.208,267.600 60.385 C 267.600 60.562,267.285 60.807,266.900 60.929 C 266.051 61.198,264.026 62.414,263.284 63.100 C 262.986 63.375,262.505 63.600,262.214 63.600 C 261.923 63.600,261.582 63.870,261.455 64.200 C 261.329 64.530,260.949 64.800,260.613 64.800 C 260.276 64.800,260.000 64.977,260.000 65.192 C 260.000 65.408,259.550 65.698,259.000 65.836 C 257.924 66.106,257.691 66.614,258.500 66.926 C 258.775 67.032,258.640 67.102,258.200 67.083 C 257.317 67.043,255.200 68.287,255.200 68.846 C 255.200 69.041,254.966 69.200,254.681 69.200 C 254.395 69.200,253.540 69.824,252.781 70.587 C 252.021 71.350,251.267 71.980,251.105 71.987 C 250.664 72.006,249.200 73.328,249.200 73.706 C 249.200 74.442,250.648 73.724,251.322 72.655 C 251.718 72.025,252.150 71.617,252.281 71.748 C 252.412 71.878,252.807 71.674,253.160 71.293 C 254.012 70.373,256.272 68.800,256.741 68.800 C 256.946 68.800,257.218 68.530,257.345 68.200 C 257.471 67.870,257.941 67.600,258.387 67.600 C 258.941 67.600,259.200 67.338,259.200 66.776 C 259.200 66.323,259.361 66.052,259.558 66.174 C 259.755 66.296,260.019 66.126,260.146 65.798 C 260.272 65.469,260.741 65.200,261.187 65.200 C 261.692 65.200,262.002 64.935,262.006 64.500 C 262.011 63.957,262.089 63.921,262.355 64.340 C 262.634 64.781,262.850 64.749,263.528 64.169 C 263.985 63.778,264.279 63.328,264.182 63.171 C 264.084 63.013,264.274 62.781,264.602 62.654 C 264.931 62.528,265.200 62.627,265.200 62.875 C 265.200 63.130,265.516 63.038,265.931 62.662 C 266.334 62.298,266.884 62.000,267.155 62.000 C 267.426 62.000,267.542 61.829,267.412 61.620 C 267.144 61.185,268.755 60.183,269.486 60.330 C 269.753 60.384,270.334 60.066,270.777 59.623 C 271.272 59.128,271.842 58.918,272.257 59.077 C 272.679 59.239,272.833 59.178,272.670 58.913 C 272.526 58.681,272.659 58.283,272.966 58.029 C 273.391 57.676,273.571 57.689,273.730 58.083 C 273.861 58.412,273.948 58.345,273.968 57.900 C 273.999 57.213,273.494 57.064,272.498 57.466 M127.606 57.900 C 127.619 58.538,128.330 59.291,128.702 59.061 C 128.917 58.928,129.415 59.175,129.809 59.609 C 130.202 60.044,130.946 60.400,131.462 60.400 C 132.077 60.400,132.411 60.641,132.432 61.100 C 132.449 61.485,132.551 61.585,132.657 61.322 C 132.764 61.060,133.125 60.950,133.459 61.078 C 133.953 61.267,133.967 61.375,133.534 61.650 C 133.125 61.909,133.164 61.989,133.700 61.994 C 134.085 61.997,134.400 62.161,134.400 62.357 C 134.400 62.554,134.679 62.822,135.021 62.953 C 135.377 63.089,135.537 63.022,135.397 62.795 C 135.263 62.578,135.343 62.400,135.576 62.400 C 135.809 62.400,136.000 62.573,136.000 62.784 C 136.000 63.362,137.671 64.803,138.061 64.563 C 138.247 64.447,138.400 64.521,138.400 64.726 C 138.400 64.932,138.903 65.201,139.518 65.324 C 140.160 65.452,140.870 65.984,141.186 66.574 C 141.547 67.249,142.088 67.611,142.768 67.632 C 143.335 67.649,143.574 67.754,143.298 67.866 C 142.605 68.145,143.084 68.800,143.981 68.800 C 144.384 68.800,144.818 69.070,144.945 69.400 C 145.071 69.730,145.407 70.000,145.691 70.000 C 145.975 70.000,146.429 70.355,146.700 70.789 C 146.999 71.267,147.439 71.483,147.817 71.338 C 148.581 71.045,147.516 69.881,146.063 69.420 C 145.582 69.267,145.292 68.975,145.418 68.771 C 145.544 68.567,145.481 68.400,145.278 68.400 C 145.075 68.400,144.299 67.863,143.554 67.206 C 142.809 66.550,142.093 66.010,141.961 66.006 C 141.830 66.003,141.300 65.634,140.785 65.187 C 140.269 64.739,139.611 64.464,139.323 64.574 C 139.036 64.685,138.800 64.552,138.800 64.279 C 138.800 64.006,137.990 63.341,137.000 62.800 C 136.010 62.259,135.200 61.713,135.200 61.585 C 135.200 61.344,132.035 59.834,131.485 59.812 C 131.312 59.806,131.042 59.606,130.885 59.369 C 130.382 58.607,127.595 57.359,127.606 57.900 M168.449 60.140 C 168.157 60.493,168.784 61.403,170.723 63.439 C 172.195 64.986,173.940 66.928,174.600 67.755 C 175.260 68.582,176.070 69.588,176.400 69.992 C 177.070 70.811,177.844 71.897,178.399 72.797 C 178.676 73.246,178.880 73.280,179.226 72.934 C 179.572 72.588,179.470 72.359,178.812 72.006 C 178.286 71.725,178.028 71.304,178.164 70.949 C 178.289 70.624,178.226 70.460,178.024 70.585 C 177.822 70.710,177.599 70.404,177.529 69.906 C 177.458 69.408,177.130 68.992,176.800 68.982 C 176.470 68.972,176.245 68.747,176.300 68.482 C 176.355 68.217,176.130 68.000,175.800 68.000 C 175.470 68.000,175.200 67.730,175.200 67.400 C 175.200 67.070,175.009 66.800,174.776 66.800 C 174.543 66.800,174.442 66.655,174.552 66.477 C 174.662 66.300,174.042 65.467,173.176 64.626 C 172.309 63.785,171.600 62.838,171.600 62.521 C 171.600 62.115,171.348 62.026,170.741 62.219 C 170.025 62.446,169.917 62.359,170.092 61.692 C 170.363 60.655,169.051 59.416,168.449 60.140 M228.719 63.603 C 228.344 64.261,228.138 64.800,228.262 64.800 C 228.603 64.800,230.385 63.043,230.393 62.700 C 230.411 61.943,229.332 62.524,228.719 63.603 M226.868 64.918 C 226.614 65.224,226.540 65.621,226.703 65.801 C 226.867 65.981,226.784 66.004,226.520 65.853 C 226.006 65.558,224.965 67.066,225.127 67.871 C 225.179 68.130,224.687 68.658,224.033 69.044 C 223.379 69.431,222.934 69.894,223.045 70.073 C 223.156 70.253,223.057 70.400,222.824 70.400 C 222.591 70.400,222.400 70.790,222.400 71.267 C 222.400 71.743,222.286 72.019,222.147 71.880 C 221.793 71.526,220.400 73.381,220.400 74.206 C 220.400 74.684,220.196 74.807,219.712 74.622 C 219.334 74.476,219.146 74.480,219.295 74.629 C 219.444 74.777,219.169 75.251,218.683 75.680 C 218.197 76.110,218.023 76.348,218.295 76.210 C 218.621 76.044,218.710 76.170,218.554 76.577 C 218.423 76.917,218.162 77.100,217.973 76.983 C 217.785 76.867,217.486 77.329,217.309 78.010 C 217.133 78.691,216.838 79.229,216.654 79.204 C 216.470 79.180,215.959 79.889,215.518 80.780 C 215.077 81.671,214.555 82.400,214.358 82.400 C 214.161 82.400,214.000 82.670,214.000 83.000 C 214.000 83.330,213.837 83.600,213.637 83.600 C 213.438 83.600,213.363 83.935,213.470 84.345 C 213.606 84.866,213.402 85.158,212.792 85.318 C 212.312 85.443,212.006 85.693,212.113 85.873 C 212.393 86.347,211.666 88.088,211.286 87.853 C 211.110 87.745,210.940 88.003,210.908 88.428 C 210.814 89.675,211.912 89.312,212.200 88.000 C 212.345 87.340,212.608 86.800,212.785 86.800 C 212.962 86.800,213.207 86.485,213.329 86.100 C 213.578 85.314,214.790 83.256,215.400 82.583 C 215.620 82.340,216.156 81.479,216.591 80.671 C 217.026 79.862,217.521 79.200,217.691 79.200 C 217.861 79.200,218.000 78.930,218.000 78.600 C 218.000 78.270,218.315 77.670,218.700 77.266 C 219.085 76.862,219.670 76.125,220.000 75.629 C 220.330 75.132,220.870 74.399,221.200 74.000 C 221.530 73.601,222.070 72.870,222.400 72.375 C 222.730 71.880,223.315 71.193,223.700 70.849 C 224.085 70.504,224.400 70.073,224.400 69.891 C 224.400 69.709,225.047 68.894,225.839 68.080 C 227.613 66.255,228.034 65.501,227.637 64.860 C 227.396 64.470,227.229 64.483,226.868 64.918 M148.655 72.200 C 148.782 72.530,149.142 72.800,149.455 72.800 C 149.769 72.800,150.143 73.107,150.287 73.482 C 150.684 74.516,151.701 75.585,152.071 75.356 C 152.252 75.244,152.400 75.343,152.400 75.576 C 152.400 75.809,152.676 76.000,153.013 76.000 C 153.349 76.000,153.729 76.270,153.855 76.600 C 153.982 76.930,154.328 77.200,154.624 77.200 C 154.920 77.200,154.292 76.330,153.228 75.266 C 149.997 72.035,148.105 70.767,148.655 72.200 M179.200 73.383 C 179.200 73.733,180.936 76.171,181.300 76.333 C 181.465 76.407,181.600 76.630,181.600 76.830 C 181.600 77.030,182.230 78.018,183.000 79.027 C 183.770 80.036,184.400 81.117,184.400 81.431 C 184.400 81.744,184.568 82.000,184.773 82.000 C 184.978 82.000,185.272 82.397,185.426 82.881 C 185.580 83.366,185.907 83.990,186.153 84.267 C 187.337 85.604,187.586 86.006,187.827 86.966 C 187.970 87.535,188.247 88.000,188.443 88.000 C 188.640 88.000,188.800 88.270,188.800 88.600 C 188.800 88.930,188.979 89.200,189.197 89.200 C 189.416 89.200,189.526 88.795,189.443 88.300 C 189.359 87.805,189.090 87.445,188.845 87.500 C 188.410 87.598,188.220 86.801,188.391 85.600 C 188.438 85.270,188.337 85.136,188.168 85.303 C 187.746 85.719,186.418 83.617,186.677 82.943 C 186.799 82.625,186.620 82.400,186.243 82.400 C 185.656 82.400,185.414 81.927,185.563 81.070 C 185.594 80.889,185.462 80.838,185.268 80.958 C 184.886 81.194,184.000 79.526,184.000 78.569 C 184.000 78.242,183.730 77.871,183.400 77.745 C 183.070 77.618,182.800 77.304,182.800 77.046 C 182.800 76.789,182.215 76.065,181.500 75.437 C 180.785 74.810,180.200 74.110,180.200 73.882 C 180.200 73.653,179.975 73.392,179.700 73.300 C 179.425 73.208,179.200 73.246,179.200 73.383 M247.700 74.964 C 246.458 76.274,246.564 76.761,247.832 75.570 C 248.400 75.036,248.940 74.645,249.032 74.700 C 249.125 74.755,249.213 74.670,249.230 74.510 C 249.298 73.851,248.542 74.075,247.700 74.964 M245.033 77.611 C 244.392 78.265,243.697 78.800,243.491 78.800 C 243.284 78.800,243.217 79.068,243.343 79.395 C 243.468 79.723,243.443 79.971,243.286 79.948 C 242.559 79.840,242.000 80.035,242.000 80.398 C 242.000 80.617,240.920 81.849,239.600 83.137 C 238.280 84.424,237.200 85.620,237.200 85.793 C 237.200 85.966,236.771 86.506,236.247 86.991 C 235.723 87.477,234.799 88.622,234.194 89.537 C 233.589 90.452,232.938 91.200,232.747 91.200 C 232.556 91.200,232.400 91.393,232.400 91.629 C 232.400 91.864,232.130 92.327,231.800 92.657 C 231.112 93.345,231.014 94.000,231.600 94.000 C 231.820 94.000,232.000 93.809,232.000 93.576 C 232.000 93.343,232.184 93.267,232.410 93.406 C 232.635 93.545,232.777 93.511,232.725 93.330 C 232.568 92.784,233.614 91.162,233.978 91.386 C 234.370 91.629,234.800 90.678,234.800 89.567 C 234.800 89.145,235.010 88.845,235.267 88.900 C 235.524 88.955,235.932 88.623,236.173 88.162 C 236.688 87.179,239.556 84.400,240.056 84.400 C 240.245 84.400,240.400 84.150,240.400 83.845 C 240.400 83.540,240.938 82.865,241.596 82.345 C 242.254 81.825,242.794 81.284,242.796 81.142 C 242.798 81.000,243.610 80.026,244.600 78.978 C 245.590 77.930,246.400 76.921,246.400 76.736 C 246.400 76.249,246.320 76.300,245.033 77.611 M154.800 77.763 C 154.800 78.170,158.422 81.600,158.852 81.600 C 159.117 81.600,159.214 81.719,159.069 81.864 C 158.924 82.009,159.164 82.380,159.603 82.687 C 160.041 82.994,160.400 83.477,160.400 83.761 C 160.400 84.275,161.853 85.800,162.342 85.800 C 162.484 85.800,162.576 86.018,162.547 86.284 C 162.518 86.551,162.698 86.731,162.947 86.684 C 163.196 86.638,163.355 86.825,163.300 87.100 C 163.245 87.375,163.380 87.600,163.600 87.600 C 164.818 87.600,163.530 85.674,159.772 81.874 C 156.111 78.174,154.800 77.089,154.800 77.763 M164.400 87.677 C 164.400 88.050,164.747 88.598,165.172 88.895 C 165.596 89.193,166.066 89.923,166.215 90.518 C 166.365 91.113,166.756 91.600,167.086 91.600 C 167.473 91.600,167.598 91.829,167.438 92.245 C 167.261 92.706,167.363 92.823,167.795 92.657 C 168.201 92.501,168.400 92.670,168.400 93.170 C 168.400 93.579,168.689 94.025,169.042 94.161 C 169.394 94.296,169.585 94.662,169.465 94.974 C 169.214 95.630,170.121 96.538,170.586 96.097 C 170.759 95.933,170.766 96.232,170.604 96.761 C 170.362 97.544,170.427 97.675,170.954 97.473 C 171.372 97.313,171.600 97.437,171.600 97.825 C 171.600 98.155,171.869 98.528,172.198 98.654 C 172.526 98.781,172.704 99.033,172.591 99.214 C 172.479 99.396,172.573 99.660,172.800 99.800 C 173.027 99.940,173.109 100.224,172.981 100.430 C 172.854 100.637,173.031 100.914,173.375 101.046 C 173.719 101.178,174.000 101.616,174.000 102.020 C 174.000 102.424,174.373 103.016,174.829 103.336 C 175.309 103.672,175.488 104.022,175.253 104.167 C 174.996 104.326,175.091 104.842,175.513 105.577 C 175.879 106.215,176.282 106.673,176.409 106.594 C 176.536 106.516,176.869 106.819,177.149 107.268 C 177.568 107.938,177.565 108.028,177.130 107.773 C 176.838 107.602,176.915 107.823,177.301 108.264 C 177.686 108.704,177.866 109.214,177.701 109.397 C 177.535 109.579,177.626 109.598,177.903 109.439 C 178.199 109.268,178.487 109.406,178.603 109.775 C 178.711 110.119,178.919 110.715,179.064 111.100 C 179.208 111.485,179.298 111.935,179.264 112.100 C 179.229 112.265,179.380 112.400,179.600 112.400 C 179.820 112.400,180.000 112.760,180.000 113.200 C 180.000 113.640,180.180 114.000,180.400 114.000 C 180.999 114.000,180.888 113.361,180.000 111.704 C 179.560 110.884,179.200 109.984,179.200 109.706 C 179.200 109.428,179.034 109.200,178.832 109.200 C 178.629 109.200,178.348 108.675,178.207 108.033 C 178.066 107.392,177.681 106.763,177.350 106.636 C 177.020 106.509,176.833 106.269,176.935 106.103 C 177.038 105.936,176.689 105.080,176.160 104.200 C 175.632 103.320,175.002 102.105,174.760 101.500 C 174.519 100.895,174.171 100.400,173.988 100.400 C 173.804 100.400,173.528 99.995,173.373 99.500 C 173.219 99.005,172.981 98.510,172.846 98.400 C 172.346 97.994,170.800 95.620,170.800 95.259 C 170.800 95.054,170.530 94.782,170.200 94.655 C 169.870 94.529,169.600 94.232,169.600 93.996 C 169.600 93.759,169.417 93.349,169.193 93.083 C 168.265 91.983,167.364 90.823,166.800 90.000 C 165.380 87.930,164.401 86.982,164.400 87.677 M189.200 90.024 C 189.200 90.257,189.360 90.348,189.556 90.227 C 189.752 90.106,190.030 90.635,190.174 91.404 C 190.318 92.172,190.594 92.800,190.786 92.800 C 190.979 92.800,191.255 93.340,191.400 94.000 C 191.545 94.660,191.815 95.200,192.000 95.200 C 192.185 95.200,192.455 95.740,192.600 96.400 C 192.745 97.060,193.027 97.600,193.227 97.600 C 193.427 97.600,193.703 98.300,193.839 99.156 C 194.016 100.258,194.362 100.836,195.025 101.139 C 195.792 101.488,195.921 101.460,195.738 100.983 C 195.615 100.662,195.333 100.400,195.111 100.400 C 194.888 100.400,194.801 100.040,194.916 99.600 C 195.031 99.160,195.007 98.799,194.863 98.797 C 194.458 98.792,193.595 96.732,193.835 96.344 C 193.952 96.155,193.850 96.000,193.609 96.000 C 193.213 96.000,191.635 92.888,191.439 91.719 C 191.246 90.562,189.200 89.013,189.200 90.024 M210.000 90.303 C 209.127 91.282,208.374 92.834,208.598 93.196 C 208.704 93.368,208.515 93.739,208.177 94.019 C 207.840 94.299,207.656 94.769,207.769 95.064 C 207.882 95.359,207.823 95.600,207.637 95.600 C 207.452 95.600,207.190 96.152,207.055 96.827 C 206.918 97.508,206.630 97.942,206.405 97.803 C 205.996 97.550,205.937 97.730,205.797 99.679 C 205.755 100.272,205.423 101.211,205.060 101.765 C 204.697 102.319,204.400 103.228,204.400 103.786 C 204.400 104.344,204.199 104.755,203.953 104.700 C 203.364 104.568,203.180 105.744,203.681 106.446 C 203.993 106.884,204.031 106.859,203.862 106.329 C 203.744 105.960,203.902 105.447,204.213 105.189 C 204.524 104.931,204.894 104.108,205.034 103.360 C 205.174 102.612,205.447 102.000,205.640 102.000 C 205.833 102.000,206.106 101.280,206.246 100.400 C 206.387 99.520,206.645 98.800,206.819 98.800 C 206.994 98.800,207.255 98.260,207.400 97.600 C 207.545 96.940,207.829 96.400,208.032 96.400 C 208.234 96.400,208.400 96.195,208.400 95.944 C 208.400 95.449,210.050 91.927,210.435 91.600 C 210.795 91.294,211.161 89.598,210.863 89.615 C 210.718 89.624,210.330 89.933,210.000 90.303 M229.046 96.508 C 228.251 97.662,227.600 98.830,227.600 99.103 C 227.600 99.377,227.420 99.600,227.200 99.600 C 226.980 99.600,226.800 99.811,226.800 100.069 C 226.800 100.326,226.555 100.821,226.257 101.169 C 225.402 102.162,222.722 107.255,222.939 107.473 C 223.047 107.580,223.339 107.288,223.588 106.823 C 223.837 106.358,224.230 106.095,224.463 106.239 C 224.737 106.408,224.791 106.202,224.617 105.653 C 224.406 104.990,224.484 104.858,224.974 105.045 C 225.542 105.263,225.849 104.377,225.647 103.100 C 225.621 102.935,225.881 102.800,226.224 102.800 C 226.567 102.800,226.737 102.621,226.602 102.403 C 226.307 101.926,226.923 100.714,227.436 100.764 C 227.636 100.784,227.800 100.613,227.800 100.385 C 227.800 100.157,228.070 99.800,228.400 99.592 C 228.906 99.272,228.909 99.211,228.424 99.206 C 227.999 99.202,228.042 99.058,228.585 98.661 C 229.017 98.345,229.197 97.920,229.021 97.634 C 228.818 97.306,228.962 97.188,229.460 97.273 C 230.010 97.367,230.233 97.116,230.327 96.293 C 230.397 95.684,230.622 95.290,230.827 95.417 C 231.032 95.544,231.200 95.467,231.200 95.247 C 231.200 94.125,230.340 94.628,229.046 96.508 M195.200 102.724 C 195.200 103.206,195.364 103.600,195.565 103.600 C 195.766 103.600,196.049 104.306,196.195 105.169 C 196.460 106.738,197.332 107.557,197.849 106.721 C 198.005 106.467,197.943 106.388,197.704 106.536 C 197.473 106.679,197.183 106.532,197.059 106.211 C 196.936 105.889,197.030 105.505,197.269 105.357 C 197.552 105.183,197.476 104.963,197.051 104.725 C 196.693 104.524,196.394 104.144,196.387 103.880 C 196.360 102.859,195.200 101.729,195.200 102.724 M202.533 107.800 C 202.533 108.130,202.773 108.400,203.067 108.400 C 203.360 108.400,203.600 108.130,203.600 107.800 C 203.600 107.470,203.360 107.200,203.067 107.200 C 202.773 107.200,202.533 107.470,202.533 107.800 M197.341 108.133 C 197.484 108.536,197.600 109.191,197.600 109.590 C 197.600 109.988,197.857 110.413,198.171 110.533 C 198.815 110.781,198.260 108.566,197.487 107.800 C 197.215 107.531,197.167 107.641,197.341 108.133 M222.077 108.430 C 222.155 108.666,222.391 108.860,222.600 108.860 C 222.809 108.860,223.045 108.666,223.123 108.430 C 223.202 108.194,222.967 108.000,222.600 108.000 C 222.233 108.000,221.998 108.194,222.077 108.430 M220.800 110.767 C 220.800 110.969,220.700 111.396,220.577 111.716 C 220.454 112.035,220.614 112.397,220.932 112.518 C 221.346 112.677,221.453 112.522,221.308 111.970 C 221.197 111.547,221.308 111.200,221.553 111.200 C 221.799 111.200,222.000 111.020,222.000 110.800 C 222.000 110.580,221.730 110.400,221.400 110.400 C 221.070 110.400,220.800 110.565,220.800 110.767 M201.600 111.400 C 201.600 111.730,201.780 112.000,202.000 112.000 C 202.220 112.000,202.400 111.730,202.400 111.400 C 202.400 111.070,202.220 110.800,202.000 110.800 C 201.780 110.800,201.600 111.070,201.600 111.400 M198.687 112.700 C 198.818 113.525,199.076 114.260,199.262 114.333 C 199.448 114.407,199.600 114.902,199.600 115.433 C 199.600 117.117,201.048 116.689,201.335 114.921 C 201.602 113.278,201.301 112.529,200.935 113.926 C 200.658 114.988,199.600 114.393,199.600 113.175 C 199.600 112.775,199.417 112.334,199.193 112.196 C 198.970 112.058,198.891 111.777,199.017 111.572 C 199.144 111.368,199.068 111.200,198.849 111.200 C 198.613 111.200,198.547 111.812,198.687 112.700 M219.067 115.193 C 218.480 116.509,218.000 117.844,218.000 118.159 C 218.000 118.475,217.842 118.793,217.649 118.867 C 217.017 119.106,216.702 121.467,217.301 121.467 C 217.596 121.467,217.875 121.002,217.922 120.433 C 217.969 119.865,218.186 119.340,218.406 119.266 C 218.625 119.192,218.703 118.967,218.579 118.766 C 218.455 118.565,218.564 118.400,218.823 118.400 C 219.098 118.400,219.206 118.064,219.082 117.593 C 218.966 117.149,219.140 116.517,219.468 116.189 C 219.796 115.861,219.984 115.369,219.886 115.096 C 219.788 114.823,219.878 114.270,220.086 113.866 C 220.295 113.462,220.391 113.057,220.300 112.966 C 220.209 112.876,219.654 113.878,219.067 115.193 M180.650 114.719 C 180.542 114.895,180.618 115.300,180.820 115.619 C 181.022 115.939,181.191 116.528,181.194 116.929 C 181.197 117.329,181.480 117.937,181.823 118.280 C 182.166 118.623,182.355 119.141,182.243 119.431 C 182.113 119.771,182.252 119.878,182.632 119.732 C 183.298 119.477,183.164 118.747,181.966 116.100 C 181.177 114.357,180.993 114.164,180.650 114.719 M182.699 120.235 C 182.409 120.524,183.241 122.000,183.694 122.000 C 183.859 122.000,183.935 121.605,183.861 121.121 C 183.724 120.223,183.149 119.784,182.699 120.235 M183.841 123.129 C 183.621 123.783,183.730 124.280,184.210 124.811 C 184.585 125.225,184.918 126.087,184.950 126.726 C 184.982 127.365,185.254 128.183,185.553 128.544 C 185.938 129.008,185.960 129.200,185.625 129.200 C 185.365 129.200,185.266 129.383,185.404 129.607 C 185.542 129.830,185.744 130.501,185.852 131.098 C 185.960 131.695,186.233 132.297,186.459 132.436 C 186.684 132.576,186.833 133.030,186.788 133.445 C 186.744 133.860,186.742 134.290,186.785 134.400 C 186.921 134.757,187.210 136.182,187.291 136.900 C 187.335 137.285,187.487 137.600,187.630 137.600 C 187.773 137.600,187.840 138.051,187.780 138.602 C 187.720 139.153,187.836 139.501,188.040 139.375 C 188.254 139.243,188.347 139.984,188.262 141.139 C 188.143 142.747,188.225 143.089,188.690 142.910 C 189.297 142.677,189.069 138.268,188.405 137.400 C 188.236 137.180,187.974 135.968,187.821 134.706 C 187.669 133.445,187.398 132.322,187.219 132.212 C 187.040 132.101,186.770 131.018,186.618 129.805 C 186.466 128.592,186.192 127.600,186.009 127.600 C 185.825 127.600,185.551 126.700,185.400 125.600 C 185.249 124.500,184.975 123.600,184.792 123.600 C 184.609 123.600,184.390 123.285,184.306 122.900 C 184.182 122.326,184.098 122.367,183.841 123.129 M215.239 125.444 C 214.740 127.105,214.437 128.571,214.567 128.700 C 214.696 128.829,214.552 129.220,214.248 129.568 C 213.943 129.915,213.506 131.190,213.276 132.400 C 213.047 133.610,212.657 135.398,212.411 136.373 C 211.808 138.761,212.044 140.312,212.752 138.612 C 213.024 137.958,213.163 137.103,213.061 136.712 C 212.959 136.320,213.038 136.000,213.237 136.000 C 213.437 136.000,213.600 135.640,213.600 135.200 C 213.600 134.760,213.825 134.397,214.100 134.394 C 214.468 134.389,214.457 134.297,214.057 134.044 C 213.697 133.815,213.657 133.612,213.940 133.437 C 214.174 133.293,214.264 132.910,214.140 132.587 C 214.016 132.264,214.117 132.000,214.365 132.000 C 214.639 132.000,214.722 131.629,214.578 131.054 C 214.415 130.406,214.537 130.033,214.964 129.869 C 215.306 129.738,215.487 129.372,215.366 129.056 C 215.245 128.740,215.332 128.366,215.560 128.225 C 215.787 128.084,215.871 127.455,215.745 126.826 C 215.578 125.988,215.741 125.459,216.358 124.842 C 217.336 123.864,217.400 123.464,216.673 122.861 C 216.254 122.513,215.960 123.044,215.239 125.444 M211.767 140.527 C 211.528 140.800,211.323 141.288,211.311 141.612 C 211.298 141.935,211.154 143.415,210.989 144.900 C 210.724 147.290,210.767 147.600,211.368 147.600 C 211.811 147.600,211.939 147.426,211.736 147.100 C 211.317 146.427,211.571 144.672,212.141 144.300 C 212.470 144.085,212.430 143.887,212.000 143.600 C 211.582 143.322,211.535 143.109,211.845 142.900 C 212.308 142.588,212.836 139.989,212.431 140.015 C 212.304 140.024,212.005 140.254,211.767 140.527 M188.675 143.459 C 188.539 143.594,188.595 144.018,188.800 144.400 C 189.005 144.782,189.048 145.218,188.898 145.369 C 188.747 145.520,188.888 145.827,189.212 146.052 C 189.643 146.352,189.670 146.514,189.314 146.659 C 188.935 146.814,188.934 147.026,189.311 147.629 C 189.687 148.231,189.686 148.571,189.304 149.181 C 189.006 149.660,188.965 150.055,189.200 150.200 C 189.410 150.330,189.536 151.238,189.479 152.218 C 189.421 153.198,189.526 154.000,189.711 154.000 C 189.896 154.000,189.919 154.208,189.762 154.462 C 189.577 154.760,189.653 154.814,189.975 154.616 C 190.354 154.381,190.404 153.203,190.185 149.701 C 189.921 145.471,189.286 142.847,188.675 143.459 M210.687 149.900 C 210.281 150.661,210.358 154.473,210.775 154.216 C 211.016 154.067,211.140 153.822,211.050 153.672 C 210.961 153.523,211.020 152.545,211.181 151.500 C 211.435 149.847,211.172 148.992,210.687 149.900 M210.438 156.200 C 210.427 157.420,210.516 157.642,210.812 157.135 C 211.057 156.716,211.062 156.125,210.826 155.535 C 210.498 154.717,210.449 154.801,210.438 156.200 M190.114 157.800 C 190.117 158.900,190.195 159.303,190.287 158.695 C 190.379 158.086,190.377 157.186,190.282 156.695 C 190.187 156.203,190.111 156.700,190.114 157.800 M210.400 161.800 L 210.400 163.600 200.423 163.600 L 190.446 163.600 190.317 161.900 L 190.188 160.200 189.993 162.082 L 189.797 163.963 200.199 163.882 L 210.600 163.800 210.818 161.900 C 210.938 160.855,210.893 160.000,210.718 160.000 C 210.543 160.000,210.400 160.810,210.400 161.800 M320.532 264.369 C 320.541 265.453,320.333 266.599,320.069 266.916 C 319.693 267.369,319.709 267.593,320.144 267.953 C 320.590 268.324,320.746 268.170,320.949 267.156 C 321.313 265.335,321.257 262.400,320.858 262.400 C 320.669 262.400,320.523 263.286,320.532 264.369 M320.200 269.279 C 319.754 269.768,319.908 273.600,320.373 273.600 C 320.536 273.600,320.708 272.520,320.755 271.200 C 320.847 268.659,320.827 268.590,320.200 269.279 M80.000 272.000 C 80.000 272.906,80.135 273.563,80.300 273.461 C 80.465 273.358,80.540 274.223,80.466 275.382 C 80.370 276.900,80.487 277.548,80.884 277.700 C 81.226 277.832,81.458 277.621,81.494 277.147 C 81.526 276.727,81.383 276.487,81.178 276.614 C 80.954 276.752,80.895 276.032,81.029 274.822 C 81.156 273.682,81.092 272.800,80.883 272.800 C 80.678 272.800,80.593 272.371,80.693 271.847 C 80.793 271.323,80.678 270.772,80.438 270.623 C 80.148 270.444,80.000 270.909,80.000 272.000 M189.901 311.100 C 189.956 331.945,190.049 355.660,190.107 363.800 C 190.165 371.940,190.252 354.885,190.301 325.900 C 190.349 296.915,190.256 273.200,190.094 273.200 C 189.932 273.200,189.845 290.255,189.901 311.100 M210.400 326.321 L 210.400 379.041 212.587 379.104 C 213.789 379.138,214.865 379.019,214.977 378.838 C 215.089 378.657,214.193 378.536,212.987 378.568 L 210.794 378.628 210.897 326.114 C 210.954 297.231,210.865 273.600,210.700 273.600 C 210.535 273.600,210.400 297.324,210.400 326.321 M319.467 276.667 C 319.320 276.813,319.200 277.533,319.200 278.267 C 319.200 279.000,319.009 279.600,318.776 279.600 C 318.543 279.600,318.469 279.788,318.611 280.018 C 318.753 280.247,318.651 280.697,318.385 281.018 C 318.120 281.338,318.059 281.597,318.251 281.594 C 319.121 281.579,319.496 280.835,319.711 278.700 C 319.947 276.348,319.930 276.203,319.467 276.667 M81.325 280.533 C 81.476 280.936,81.600 281.791,81.600 282.433 C 81.600 283.243,81.799 283.600,82.249 283.600 C 82.760 283.600,82.799 283.481,82.432 283.039 C 82.075 282.608,82.087 282.430,82.483 282.270 C 82.857 282.120,82.866 282.054,82.513 282.032 C 82.244 282.014,82.118 281.759,82.231 281.464 C 82.344 281.169,82.125 280.674,81.743 280.364 C 81.127 279.862,81.081 279.881,81.325 280.533 M318.350 282.600 C 318.322 282.710,318.255 282.980,318.200 283.200 C 318.145 283.420,318.078 283.971,318.050 284.424 C 318.020 284.925,317.824 285.138,317.549 284.969 C 317.229 284.771,317.211 284.891,317.488 285.386 C 317.751 285.855,317.714 286.557,317.376 287.540 C 317.101 288.342,316.993 289.178,317.138 289.399 C 317.282 289.620,317.461 289.260,317.535 288.600 C 317.610 287.940,317.811 287.220,317.982 287.000 C 318.354 286.522,318.920 282.400,318.614 282.400 C 318.496 282.400,318.378 282.490,318.350 282.600 M82.627 286.782 C 82.876 289.172,83.035 289.600,83.673 289.600 C 83.941 289.600,83.914 289.378,83.600 289.000 C 83.199 288.516,83.208 288.399,83.651 288.394 C 84.082 288.389,84.071 288.305,83.600 288.000 C 83.067 287.655,83.067 287.610,83.600 287.594 C 84.069 287.580,84.045 287.485,83.492 287.163 C 83.102 286.936,82.887 286.583,83.013 286.379 C 83.140 286.174,83.053 285.690,82.821 285.303 C 82.506 284.778,82.457 285.152,82.627 286.782 M83.776 291.801 C 83.938 292.900,84.236 293.860,84.436 293.933 C 84.636 294.007,84.800 294.412,84.800 294.833 C 84.800 295.255,84.935 295.600,85.100 295.600 C 85.265 295.600,85.400 295.075,85.400 294.433 C 85.400 293.792,85.265 293.132,85.100 292.967 C 84.935 292.802,84.800 292.269,84.800 291.782 C 84.800 291.296,84.503 290.651,84.140 290.350 C 83.535 289.848,83.505 289.972,83.776 291.801 M316.255 290.600 C 316.382 290.930,316.274 291.200,316.016 291.200 C 315.724 291.200,315.645 291.511,315.806 292.019 C 315.949 292.470,315.849 293.100,315.584 293.419 C 315.319 293.739,315.236 294.000,315.400 294.000 C 315.564 294.000,315.497 294.242,315.252 294.537 C 314.822 295.055,315.017 295.600,315.632 295.600 C 315.796 295.600,316.056 294.835,316.210 293.900 C 316.364 292.965,316.670 291.977,316.890 291.705 C 317.343 291.144,317.031 290.000,316.425 290.000 C 316.205 290.000,316.129 290.270,316.255 290.600 M85.200 296.576 C 85.200 296.893,85.380 297.264,85.600 297.400 C 85.820 297.536,86.000 298.027,86.000 298.490 C 86.000 298.954,86.125 299.208,86.278 299.055 C 86.847 298.487,86.715 297.515,85.969 296.769 C 85.389 296.189,85.200 296.141,85.200 296.576 M314.334 296.900 C 314.063 297.395,313.886 298.179,313.941 298.642 C 313.997 299.104,313.658 300.134,313.189 300.928 C 312.720 301.723,312.469 302.587,312.630 302.849 C 312.809 303.138,312.753 303.218,312.486 303.053 C 312.222 302.890,312.071 303.087,312.106 303.547 C 312.194 304.717,313.116 304.100,313.422 302.667 C 313.571 301.970,313.831 301.220,314.000 301.000 C 314.487 300.367,315.342 296.000,314.979 296.000 C 314.896 296.000,314.606 296.405,314.334 296.900 M86.406 300.300 C 86.403 300.795,86.580 301.200,86.800 301.200 C 87.301 301.200,87.301 300.776,86.800 300.000 C 86.486 299.515,86.411 299.572,86.406 300.300 M87.200 302.229 C 87.200 302.648,87.417 302.802,87.800 302.655 C 88.521 302.379,88.613 303.034,87.900 303.367 C 87.500 303.553,87.500 303.647,87.900 303.833 C 88.175 303.962,88.406 304.367,88.414 304.733 C 88.421 305.100,88.775 306.120,89.200 307.000 C 89.625 307.880,89.979 308.825,89.986 309.100 C 89.994 309.375,90.180 309.600,90.400 309.600 C 90.620 309.600,90.800 309.926,90.800 310.324 C 90.800 311.468,91.800 312.647,92.210 311.984 C 92.411 311.659,92.356 311.385,92.071 311.290 C 91.812 311.204,91.600 310.698,91.600 310.167 C 91.600 309.635,91.401 309.200,91.157 309.200 C 90.914 309.200,90.818 308.930,90.945 308.600 C 91.071 308.270,91.022 308.000,90.834 308.000 C 90.647 308.000,90.394 307.622,90.274 307.160 C 90.153 306.697,89.862 306.438,89.627 306.583 C 89.392 306.728,89.200 306.672,89.200 306.457 C 89.200 306.242,89.425 305.976,89.700 305.865 C 90.092 305.707,90.093 305.656,89.705 305.632 C 89.432 305.614,89.093 304.873,88.951 303.985 C 88.686 302.329,87.200 300.838,87.200 302.229 M310.989 305.566 C 311.123 305.988,311.053 306.444,310.834 306.579 C 310.614 306.715,310.536 307.090,310.660 307.413 C 310.803 307.784,310.641 308.000,310.219 308.000 C 309.853 308.000,309.652 308.161,309.774 308.358 C 309.896 308.555,309.749 308.811,309.447 308.927 C 309.090 309.064,308.972 309.517,309.107 310.228 C 309.242 310.930,309.167 311.227,308.897 311.060 C 308.402 310.754,307.490 313.098,307.867 313.708 C 308.025 313.964,307.926 314.002,307.610 313.806 C 307.273 313.598,307.157 313.671,307.273 314.019 C 307.370 314.311,307.169 314.863,306.825 315.246 C 305.293 316.953,305.211 317.119,305.788 317.340 C 306.091 317.456,306.594 317.158,306.905 316.676 C 307.839 315.230,311.199 308.094,311.213 307.527 C 311.220 307.237,311.490 306.651,311.813 306.224 C 312.612 305.166,312.551 304.800,311.573 304.800 C 310.940 304.800,310.803 304.980,310.989 305.566 M92.000 312.988 C 92.000 313.444,93.710 316.400,93.974 316.400 C 94.732 316.400,94.670 315.824,93.811 314.899 C 93.293 314.340,92.963 313.640,93.078 313.342 C 93.199 313.025,93.019 312.800,92.643 312.800 C 92.289 312.800,92.000 312.884,92.000 312.988 M94.588 317.496 C 94.740 318.099,95.003 318.684,95.174 318.796 C 95.344 318.908,95.704 319.675,95.973 320.500 C 96.242 321.325,96.628 322.000,96.831 322.000 C 97.034 322.000,97.200 322.276,97.200 322.613 C 97.200 322.949,97.454 323.322,97.764 323.441 C 98.074 323.561,98.430 324.064,98.554 324.560 C 98.679 325.056,99.221 325.938,99.759 326.518 C 100.298 327.099,100.854 327.940,100.996 328.387 C 101.138 328.834,101.522 329.200,101.851 329.200 C 102.179 329.200,102.333 329.385,102.193 329.612 C 101.949 330.007,103.507 331.979,104.075 331.993 C 104.699 332.009,104.163 330.263,103.490 330.087 C 103.079 329.980,102.659 329.393,102.530 328.748 C 102.403 328.117,102.130 327.600,101.921 327.600 C 101.112 327.600,97.043 321.777,97.423 321.163 C 97.543 320.968,97.375 320.911,97.050 321.036 C 96.625 321.199,96.513 321.053,96.653 320.520 C 96.761 320.107,96.482 319.355,96.024 318.827 C 95.571 318.305,95.200 317.545,95.200 317.139 C 95.200 316.732,95.000 316.400,94.757 316.400 C 94.473 316.400,94.412 316.795,94.588 317.496 M305.200 318.153 C 305.200 318.458,304.817 318.807,304.348 318.929 C 303.779 319.078,303.576 319.359,303.735 319.776 C 303.867 320.119,303.790 320.400,303.564 320.400 C 303.338 320.400,303.265 320.581,303.402 320.803 C 303.539 321.024,303.267 321.744,302.798 322.403 C 302.329 323.061,302.072 323.600,302.226 323.600 C 302.674 323.600,303.778 322.186,304.621 320.530 C 305.049 319.689,305.535 318.940,305.700 318.867 C 306.147 318.668,306.063 317.600,305.600 317.600 C 305.380 317.600,305.200 317.849,305.200 318.153 M301.769 324.322 C 301.545 324.475,300.926 325.230,300.394 326.000 C 299.862 326.770,299.195 327.638,298.913 327.929 C 298.631 328.219,298.400 328.719,298.400 329.038 C 298.400 329.358,297.939 329.795,297.376 330.009 C 296.813 330.223,296.463 330.579,296.600 330.799 C 296.736 331.020,296.637 331.200,296.381 331.200 C 296.124 331.200,296.002 331.429,296.110 331.709 C 296.217 331.989,295.606 332.743,294.753 333.386 C 293.899 334.028,293.200 334.864,293.200 335.243 C 293.200 335.623,293.058 335.993,292.883 336.067 C 292.709 336.140,292.058 336.875,291.436 337.700 C 290.814 338.525,290.061 339.200,289.763 339.200 C 289.465 339.200,288.938 339.746,288.593 340.413 C 288.248 341.080,287.806 341.527,287.611 341.407 C 287.046 341.058,286.662 342.022,287.165 342.525 C 287.674 343.034,289.759 340.981,289.371 340.352 C 289.254 340.164,289.407 340.105,289.711 340.221 C 290.022 340.340,290.599 339.965,291.032 339.363 C 291.454 338.774,292.289 337.777,292.887 337.146 C 293.484 336.516,293.855 336.000,293.710 336.000 C 293.565 336.000,293.796 335.736,294.224 335.413 C 294.651 335.090,294.871 334.820,294.713 334.813 C 294.556 334.806,294.916 334.280,295.513 333.644 C 296.974 332.089,298.520 330.076,298.961 329.154 C 299.160 328.739,299.475 328.400,299.661 328.400 C 299.848 328.400,300.000 328.124,300.000 327.787 C 300.000 327.451,300.270 327.071,300.600 326.945 C 300.930 326.818,301.200 326.477,301.200 326.186 C 301.200 325.895,301.491 325.366,301.848 325.010 C 302.526 324.331,302.471 323.843,301.769 324.322 M104.451 333.090 C 104.753 333.469,105.392 334.234,105.872 334.790 C 106.352 335.345,107.181 336.311,107.716 336.936 C 108.588 337.956,108.715 337.998,108.965 337.348 C 109.117 336.950,109.111 336.756,108.951 336.916 C 108.601 337.266,106.745 335.613,107.009 335.186 C 107.223 334.840,104.829 332.400,104.275 332.400 C 104.070 332.400,104.149 332.710,104.451 333.090 M109.232 338.342 C 109.214 338.640,109.650 339.419,110.200 340.073 C 110.750 340.727,111.200 341.144,111.200 341.000 C 111.200 340.856,111.695 341.333,112.300 342.060 C 112.905 342.787,114.086 344.016,114.924 344.791 C 115.762 345.566,117.001 346.780,117.679 347.490 C 118.356 348.199,119.093 348.666,119.317 348.528 C 119.540 348.390,119.604 348.470,119.457 348.708 C 119.311 348.945,119.778 349.543,120.495 350.036 C 121.213 350.530,122.366 351.489,123.058 352.167 C 125.074 354.144,126.588 355.209,126.743 354.759 C 126.927 354.222,125.232 352.410,124.647 352.518 C 124.401 352.563,124.245 352.375,124.300 352.100 C 124.355 351.825,124.155 351.600,123.855 351.600 C 123.555 351.600,122.880 351.181,122.355 350.668 C 121.830 350.156,121.085 349.621,120.700 349.481 C 120.315 349.340,120.000 348.937,120.000 348.584 C 120.000 347.940,118.811 346.457,118.787 347.071 C 118.780 347.252,118.503 347.040,118.170 346.600 C 117.838 346.160,117.393 345.778,117.183 345.750 C 116.972 345.723,116.609 345.678,116.376 345.650 C 116.143 345.623,116.049 345.444,116.167 345.253 C 116.285 345.063,116.025 344.585,115.591 344.191 C 115.156 343.798,114.800 343.622,114.800 343.800 C 114.800 343.978,114.434 343.792,113.986 343.387 C 113.538 342.982,113.270 342.394,113.390 342.081 C 113.538 341.695,113.413 341.586,113.005 341.743 C 112.562 341.913,112.400 341.700,112.400 340.945 C 112.400 340.135,112.253 339.971,111.712 340.178 C 111.334 340.324,111.145 340.321,111.293 340.174 C 111.603 339.863,110.650 338.800,110.062 338.800 C 109.845 338.800,109.576 338.575,109.465 338.300 C 109.314 337.927,109.255 337.938,109.232 338.342 M284.707 344.821 C 284.109 345.502,283.435 345.946,283.210 345.806 C 282.979 345.664,282.800 345.923,282.800 346.400 C 282.800 346.866,282.627 347.140,282.415 347.009 C 282.038 346.777,281.329 347.380,279.889 349.157 C 279.498 349.639,279.003 349.926,278.789 349.793 C 278.575 349.661,278.400 349.923,278.400 350.376 C 278.400 350.829,278.153 351.200,277.852 351.200 C 277.551 351.200,276.531 351.875,275.585 352.700 C 274.640 353.525,273.716 354.155,273.533 354.100 C 273.350 354.045,273.200 354.270,273.200 354.600 C 273.200 354.943,272.840 355.200,272.357 355.200 C 271.799 355.200,271.587 355.389,271.730 355.761 C 271.923 356.265,271.020 356.824,269.800 356.957 C 269.580 356.980,269.163 357.318,268.873 357.707 C 268.583 358.095,268.176 358.309,267.970 358.181 C 267.763 358.054,267.486 358.231,267.354 358.575 C 267.222 358.919,266.784 359.200,266.381 359.200 C 265.511 359.200,264.987 359.862,265.675 360.092 C 266.159 360.253,262.856 361.797,262.300 361.669 C 262.135 361.631,262.000 361.759,262.000 361.953 C 262.000 362.148,261.622 362.406,261.160 362.526 C 260.684 362.651,260.437 362.936,260.589 363.183 C 260.738 363.423,260.711 363.594,260.530 363.563 C 259.531 363.389,258.800 363.677,258.800 364.243 C 258.800 364.644,258.579 364.801,258.213 364.660 C 257.890 364.536,257.519 364.607,257.389 364.817 C 257.259 365.028,256.803 365.200,256.376 365.200 C 255.949 365.200,255.645 365.418,255.700 365.684 C 255.755 365.950,255.398 366.195,254.907 366.229 C 254.416 366.263,253.707 366.540,253.330 366.845 C 252.746 367.320,252.696 367.319,252.985 366.838 C 253.215 366.457,253.175 366.368,252.862 366.562 C 252.608 366.719,252.400 367.067,252.400 367.336 C 252.400 367.605,251.860 368.028,251.200 368.278 C 250.476 368.551,250.000 368.577,250.000 368.345 C 250.000 368.133,249.365 368.444,248.589 369.035 C 247.813 369.627,247.065 369.998,246.926 369.859 C 246.787 369.720,246.431 369.808,246.134 370.054 C 245.838 370.301,245.025 370.619,244.327 370.761 C 243.630 370.904,242.977 371.268,242.876 371.571 C 242.610 372.371,244.817 371.856,247.793 370.426 C 254.449 367.226,258.756 365.065,260.200 364.198 C 261.080 363.670,262.070 363.108,262.400 362.948 C 262.730 362.789,263.090 362.555,263.200 362.429 C 263.509 362.075,264.901 361.241,265.910 360.805 C 266.411 360.589,266.925 360.139,267.053 359.806 C 267.181 359.473,267.626 359.200,268.043 359.200 C 268.459 359.200,268.800 359.020,268.800 358.800 C 268.800 358.580,269.076 358.400,269.413 358.400 C 269.749 358.400,270.129 358.130,270.255 357.800 C 270.382 357.470,270.708 357.200,270.981 357.200 C 271.253 357.200,271.802 356.840,272.200 356.400 C 272.598 355.960,273.177 355.600,273.486 355.600 C 273.794 355.600,273.936 355.420,273.800 355.200 C 273.664 354.980,273.824 354.800,274.157 354.800 C 274.489 354.800,274.904 354.556,275.080 354.259 C 275.256 353.961,275.613 353.646,275.874 353.559 C 277.114 353.144,286.131 344.592,285.938 344.014 C 285.859 343.776,285.305 344.139,284.707 344.821 M128.039 356.122 C 128.557 356.605,129.088 357.000,129.219 357.000 C 129.350 357.000,129.774 357.317,130.161 357.704 C 130.928 358.471,131.600 358.304,131.600 357.347 C 131.600 356.981,131.323 356.800,130.900 356.889 C 130.510 356.971,130.002 356.692,129.754 356.258 C 129.508 355.830,128.810 355.426,128.202 355.361 L 127.096 355.243 128.039 356.122 M131.809 357.986 C 131.423 358.610,133.217 360.265,134.700 360.652 C 135.195 360.781,135.600 361.037,135.600 361.222 C 135.600 361.560,135.985 361.797,139.468 363.600 C 140.531 364.149,141.490 364.689,141.600 364.800 C 142.066 365.266,145.329 366.804,145.497 366.637 C 145.802 366.331,145.170 365.571,144.800 365.800 C 144.610 365.917,144.349 365.841,144.219 365.630 C 144.088 365.419,143.157 364.835,142.149 364.332 C 141.142 363.829,140.066 363.058,139.759 362.619 C 139.439 362.164,139.200 362.046,139.200 362.344 C 139.200 362.632,138.975 362.784,138.700 362.683 C 138.425 362.582,138.260 362.253,138.333 361.950 C 138.407 361.648,138.339 361.528,138.183 361.684 C 137.797 362.070,136.083 361.119,134.475 359.629 C 133.747 358.953,132.997 358.400,132.809 358.400 C 132.621 358.400,132.395 358.184,132.307 357.920 C 132.190 357.569,132.056 357.586,131.809 357.986 M145.846 366.624 C 145.645 367.147,149.446 369.200,150.615 369.200 C 150.900 369.200,151.199 369.397,151.279 369.637 C 151.359 369.877,151.912 370.102,152.508 370.137 C 153.103 370.172,153.666 370.397,153.759 370.638 C 153.851 370.879,154.799 371.312,155.864 371.600 C 156.929 371.888,157.980 372.250,158.200 372.404 C 159.009 372.971,160.400 373.126,160.400 372.650 C 160.400 372.388,159.905 372.134,159.300 372.084 C 158.695 372.034,158.140 371.814,158.066 371.594 C 157.992 371.375,157.767 371.297,157.566 371.421 C 157.365 371.545,157.200 371.473,157.200 371.261 C 157.200 371.049,156.840 370.969,156.400 371.084 C 155.935 371.206,155.600 371.096,155.600 370.823 C 155.600 370.564,155.432 370.456,155.227 370.583 C 155.022 370.710,154.617 370.495,154.327 370.107 C 153.769 369.359,152.562 368.891,152.994 369.590 C 153.545 370.481,152.378 369.938,151.779 369.024 C 151.405 368.453,150.901 368.140,150.565 368.269 C 150.249 368.390,149.730 368.274,149.412 368.010 C 149.095 367.747,148.617 367.666,148.350 367.831 C 148.027 368.031,147.940 367.932,148.092 367.538 C 148.243 367.143,147.940 366.802,147.185 366.517 C 146.303 366.184,146.006 366.208,145.846 366.624 M240.703 372.154 C 240.417 372.440,239.872 372.628,239.492 372.572 C 239.111 372.516,238.800 372.624,238.800 372.811 C 238.800 372.999,239.295 373.093,239.900 373.022 C 240.505 372.950,241.315 372.871,241.700 372.846 C 242.085 372.821,242.400 372.639,242.400 372.443 C 242.400 371.813,241.241 371.616,240.703 372.154 M162.381 373.664 C 161.904 374.002,161.923 374.036,162.487 373.855 C 162.865 373.734,163.281 373.807,163.411 374.017 C 163.541 374.228,163.997 374.400,164.424 374.400 C 164.851 374.400,165.200 374.569,165.200 374.775 C 165.200 374.981,165.515 375.145,165.900 375.139 C 167.255 375.118,169.329 375.562,169.563 375.923 C 169.694 376.124,170.700 376.421,171.800 376.582 C 172.900 376.743,173.650 376.723,173.467 376.537 C 173.133 376.199,172.938 376.143,171.776 376.050 C 171.428 376.022,171.274 375.804,171.426 375.557 C 171.611 375.259,171.422 375.203,170.850 375.384 C 170.335 375.547,170.000 375.481,170.000 375.214 C 170.000 374.973,169.415 374.784,168.700 374.795 C 166.826 374.825,164.594 374.262,163.223 373.414 C 163.079 373.326,162.700 373.438,162.381 373.664 M235.740 374.100 C 235.505 374.477,236.684 374.423,238.000 373.996 C 238.844 373.723,238.760 373.682,237.463 373.736 C 236.618 373.771,235.842 373.935,235.740 374.100 M233.809 374.765 C 233.375 374.935,232.520 375.016,231.909 374.945 C 231.299 374.874,230.800 374.978,230.800 375.176 C 230.800 375.470,229.046 376.083,227.933 376.177 C 227.787 376.190,227.517 376.351,227.333 376.536 C 227.150 376.720,227.720 376.736,228.600 376.571 C 229.480 376.405,230.425 376.269,230.700 376.268 C 230.975 376.267,231.200 376.134,231.200 375.971 C 231.200 375.808,232.100 375.551,233.200 375.400 C 234.300 375.249,235.200 374.962,235.200 374.762 C 235.200 374.340,234.897 374.340,233.809 374.765 M174.690 377.090 C 174.826 377.443,175.371 377.612,176.159 377.544 C 176.848 377.485,177.589 377.528,177.806 377.641 C 178.023 377.753,178.830 377.897,179.600 377.961 C 180.370 378.024,181.180 378.218,181.400 378.391 C 181.990 378.854,188.677 379.323,188.927 378.918 C 189.045 378.727,188.569 378.537,187.871 378.495 C 183.985 378.262,182.323 378.034,181.887 377.674 C 181.619 377.452,180.950 377.268,180.400 377.265 C 179.394 377.260,176.600 376.907,176.600 376.786 C 176.600 376.750,176.122 376.677,175.537 376.624 C 174.765 376.554,174.533 376.681,174.690 377.090 M222.900 376.665 C 222.625 376.776,222.400 377.081,222.400 377.344 C 222.400 378.023,225.487 377.670,225.760 376.961 C 226.015 376.294,225.538 376.222,224.925 376.835 C 224.612 377.148,224.415 377.148,224.222 376.835 C 223.936 376.373,223.700 376.342,222.900 376.665 M218.967 377.859 C 219.109 378.228,219.023 378.338,218.734 378.159 C 217.877 377.630,216.457 377.675,216.241 378.238 C 215.984 378.908,218.991 379.062,219.400 378.400 C 219.536 378.180,220.177 378.000,220.824 378.000 C 222.624 378.000,222.218 377.408,220.370 377.338 C 219.095 377.290,218.792 377.402,218.967 377.859 " stroke="none" fill="#a41c34" fill-rule="evenodd"></path><path id="path2" d="" stroke="none" fill="#a82434" fill-rule="evenodd"></path><path id="path3" d="" stroke="none" fill="#a82434" fill-rule="evenodd"></path><path id="path4" d="" stroke="none" fill="#a82434" fill-rule="evenodd"></path></g></svg>