<svg id="svg" version="1.1" xmlns="http://www.w3.org/2000/svg" xmlns:xlink="http://www.w3.org/1999/xlink" width="400" height="120.94204278550119" viewBox="0, 0, 400,120.94204278550119"><g id="svgg"><path id="path0" d="M21.742 35.941 C 20.525 37.254,22.315 39.099,23.728 37.988 C 24.082 37.709,24.167 37.502,24.167 36.917 C 24.167 35.597,22.633 34.980,21.742 35.941 M203.215 35.875 C 201.902 37.310,203.853 39.268,205.227 37.894 C 205.769 37.352,205.807 36.557,205.321 35.939 C 204.857 35.348,203.728 35.314,203.215 35.875 M207.529 35.886 C 206.988 36.462,207.027 37.533,207.606 37.988 C 209.018 39.099,210.808 37.254,209.591 35.941 C 209.047 35.353,208.054 35.327,207.529 35.886 M239.242 35.941 C 238.014 37.267,239.801 39.110,241.228 37.988 C 241.824 37.519,241.852 36.399,241.281 35.862 C 240.719 35.334,239.770 35.371,239.242 35.941 M319.362 35.886 C 318.821 36.462,318.861 37.533,319.439 37.988 C 320.851 39.099,322.659 37.204,321.394 35.939 C 320.814 35.359,319.880 35.335,319.362 35.886 M378.365 35.840 C 377.845 36.324,377.857 37.474,378.386 37.971 C 379.690 39.196,381.659 37.205,380.394 35.939 C 379.840 35.386,378.902 35.340,378.365 35.840 M102.192 39.792 C 102.109 39.952,101.047 42.408,99.834 45.250 C 97.568 50.559,97.090 51.673,96.833 52.250 C 96.226 53.613,96.000 54.168,96.000 54.294 C 96.000 54.652,94.809 55.796,94.339 55.890 C 94.041 55.950,93.833 56.096,93.833 56.246 C 93.833 56.463,94.221 56.500,96.500 56.500 C 98.662 56.500,99.167 56.456,99.167 56.269 C 99.167 56.123,98.890 55.996,98.414 55.925 C 97.875 55.844,97.584 55.696,97.394 55.405 C 97.094 54.948,97.024 55.212,98.259 52.167 C 98.763 50.925,98.555 50.988,101.975 51.038 L 105.069 51.083 105.815 52.962 C 106.718 55.237,106.679 55.654,105.540 55.907 C 103.796 56.295,104.739 56.500,108.264 56.500 C 111.706 56.500,112.506 56.340,110.989 55.953 C 109.867 55.667,109.367 54.917,107.907 51.333 C 107.495 50.322,107.015 49.195,106.665 48.417 C 106.583 48.233,105.832 46.433,104.996 44.417 C 102.871 39.286,102.973 39.500,102.640 39.500 C 102.478 39.500,102.276 39.631,102.192 39.792 M304.739 39.897 C 301.780 41.274,301.134 44.673,303.404 46.916 C 304.199 47.701,306.387 49.128,308.337 50.133 C 311.919 51.978,311.497 55.830,307.713 55.833 C 305.173 55.834,303.711 54.528,302.911 51.542 C 302.851 51.317,302.682 51.167,302.489 51.167 C 302.183 51.167,302.167 51.312,302.167 54.083 C 302.167 57.251,302.339 57.721,303.045 56.480 C 303.250 56.120,303.427 55.990,303.628 56.053 C 306.361 56.913,306.993 57.034,308.333 56.960 C 311.391 56.789,313.613 54.455,313.260 51.786 C 313.000 49.832,311.835 48.659,308.263 46.755 C 304.701 44.857,303.730 43.721,304.423 42.260 C 305.889 39.171,310.550 40.599,311.326 44.375 C 311.484 45.142,311.588 45.333,311.845 45.333 C 312.150 45.333,312.167 45.186,312.167 42.417 C 312.167 39.696,312.146 39.500,311.860 39.500 C 311.691 39.500,311.468 39.688,311.364 39.917 C 311.253 40.159,311.034 40.333,310.841 40.333 C 310.658 40.333,310.009 40.146,309.401 39.917 C 307.873 39.342,305.948 39.334,304.739 39.897 M363.750 39.883 C 360.795 41.298,360.147 44.687,362.404 46.915 C 363.182 47.683,365.927 49.500,366.309 49.500 C 366.399 49.500,366.497 49.556,366.528 49.625 C 366.558 49.694,366.949 49.938,367.397 50.167 C 368.532 50.749,369.628 51.875,369.764 52.600 C 370.370 55.832,365.890 57.056,363.221 54.388 C 362.605 53.772,362.539 53.620,361.903 51.375 C 361.870 51.260,361.691 51.167,361.505 51.167 C 361.178 51.167,361.167 51.263,361.167 54.083 C 361.167 57.251,361.339 57.721,362.045 56.480 C 362.281 56.065,362.413 55.984,362.711 56.072 C 362.916 56.133,363.458 56.294,363.917 56.431 C 365.704 56.966,366.128 57.029,367.423 56.953 C 370.677 56.763,372.808 54.253,372.185 51.346 C 371.809 49.592,371.019 48.843,367.429 46.837 C 363.298 44.528,362.482 43.398,363.748 41.737 C 365.679 39.207,369.820 41.052,370.414 44.708 C 370.491 45.183,370.594 45.333,370.841 45.333 C 371.152 45.333,371.167 45.200,371.167 42.417 C 371.167 39.696,371.146 39.500,370.860 39.500 C 370.691 39.500,370.468 39.688,370.364 39.917 C 370.128 40.434,369.675 40.449,368.667 39.970 C 367.465 39.400,364.855 39.354,363.750 39.883 M19.000 40.145 C 19.000 40.398,19.158 40.473,19.828 40.537 C 21.383 40.687,21.321 40.369,21.328 48.221 L 21.333 55.026 20.846 55.513 C 20.467 55.892,20.208 56.000,19.679 56.000 C 19.187 56.000,19.000 56.069,19.000 56.250 C 19.000 56.465,19.519 56.500,22.667 56.500 C 25.815 56.500,26.333 56.465,26.333 56.250 C 26.333 56.075,26.156 56.000,25.742 56.000 C 23.890 56.000,23.831 55.763,23.843 48.267 C 23.854 40.701,23.900 40.510,25.708 40.502 C 26.221 40.500,26.333 40.440,26.333 40.167 C 26.333 39.843,26.222 39.833,22.667 39.833 C 19.194 39.833,19.000 39.850,19.000 40.145 M28.667 40.145 C 28.667 40.399,28.827 40.473,29.524 40.540 C 31.056 40.687,30.993 40.354,30.991 48.250 C 30.989 56.135,31.051 55.813,29.495 55.963 C 25.809 56.317,33.626 56.778,38.290 56.482 C 41.159 56.300,42.411 55.637,43.351 53.803 C 44.439 51.679,43.182 48.729,40.982 48.246 C 40.490 48.138,40.553 47.676,41.062 47.661 C 41.714 47.643,42.808 46.017,42.944 44.863 C 43.247 42.306,41.547 40.437,38.519 39.999 C 36.277 39.675,28.667 39.788,28.667 40.145 M46.167 40.144 C 46.167 40.386,46.333 40.477,46.918 40.558 C 47.721 40.668,48.355 41.007,48.958 41.649 L 49.333 42.049 49.333 48.582 C 49.333 56.123,49.397 55.812,47.826 55.963 C 47.165 56.027,46.995 56.102,47.036 56.314 C 47.126 56.782,53.000 56.805,53.000 56.337 C 53.000 56.058,52.891 56.000,52.370 56.000 C 50.734 56.000,50.652 55.666,50.706 49.193 L 50.750 43.802 51.665 44.943 C 52.167 45.570,52.617 46.121,52.665 46.167 C 52.712 46.212,53.235 46.850,53.828 47.583 C 54.421 48.317,54.946 48.954,54.995 49.000 C 55.043 49.046,55.382 49.458,55.747 49.917 C 56.111 50.375,56.486 50.834,56.580 50.936 C 56.797 51.174,57.163 51.617,58.495 53.256 C 59.088 53.986,59.615 54.621,59.666 54.667 C 59.717 54.712,60.019 55.087,60.338 55.499 C 61.305 56.752,61.394 56.833,61.787 56.833 L 62.167 56.833 62.167 49.102 C 62.167 40.208,62.084 40.690,63.636 40.541 C 64.340 40.473,64.500 40.400,64.500 40.145 C 64.500 39.852,64.321 39.833,61.500 39.833 C 58.679 39.833,58.500 39.852,58.500 40.145 C 58.500 40.399,58.660 40.473,59.356 40.540 C 60.220 40.623,60.434 40.790,60.692 41.583 C 60.751 41.767,60.804 44.204,60.809 47.000 L 60.818 52.083 60.367 51.514 C 60.119 51.200,59.141 50.000,58.193 48.847 C 55.934 46.098,56.116 46.322,53.333 42.861 L 50.917 39.854 48.542 39.843 C 46.332 39.834,46.167 39.855,46.167 40.144 M74.333 40.145 C 74.333 40.398,74.491 40.473,75.153 40.536 C 76.650 40.680,76.576 40.326,76.634 47.655 C 76.700 55.983,76.697 56.000,74.933 56.000 C 74.511 56.000,74.333 56.074,74.333 56.250 C 74.333 56.465,74.852 56.500,78.000 56.500 C 80.997 56.500,81.667 56.458,81.667 56.271 C 81.667 56.117,81.384 56.015,80.802 55.959 C 79.372 55.822,79.333 55.715,79.333 51.898 L 79.333 48.667 83.010 48.667 L 86.686 48.667 86.635 51.994 C 86.576 55.815,86.571 55.827,85.179 55.961 C 84.613 56.016,84.333 56.118,84.333 56.271 C 84.333 56.458,85.003 56.500,88.000 56.500 C 90.993 56.500,91.667 56.458,91.667 56.272 C 91.667 56.124,91.397 56.013,90.906 55.958 C 90.433 55.904,89.993 55.728,89.740 55.490 L 89.333 55.109 89.333 48.163 C 89.333 40.227,89.242 40.691,90.832 40.538 C 91.508 40.473,91.667 40.398,91.667 40.145 C 91.667 39.850,91.473 39.833,88.000 39.833 C 84.527 39.833,84.333 39.850,84.333 40.145 C 84.333 40.400,84.494 40.473,85.198 40.541 C 86.618 40.677,86.667 40.805,86.667 44.435 L 86.667 47.500 83.000 47.500 L 79.333 47.500 79.333 44.435 C 79.333 40.805,79.382 40.677,80.802 40.541 C 81.506 40.473,81.667 40.400,81.667 40.145 C 81.667 39.850,81.473 39.833,78.000 39.833 C 74.527 39.833,74.333 39.850,74.333 40.145 M113.667 40.167 C 113.667 40.431,113.779 40.500,114.208 40.502 C 116.035 40.510,116.000 40.359,116.000 48.338 L 116.000 55.026 115.513 55.513 C 115.134 55.892,114.875 56.000,114.346 56.000 C 113.853 56.000,113.667 56.069,113.667 56.250 C 113.667 56.468,114.506 56.500,120.219 56.500 L 126.771 56.500 127.400 54.458 C 127.747 53.335,128.070 52.285,128.118 52.125 C 128.348 51.359,127.519 51.845,127.124 52.708 C 126.131 54.876,125.322 55.250,121.631 55.250 C 118.261 55.250,118.595 55.929,118.530 48.953 C 118.456 40.926,118.507 40.693,120.388 40.537 C 121.174 40.472,121.333 40.406,121.333 40.146 C 121.333 39.849,121.138 39.833,117.500 39.833 C 113.778 39.833,113.667 39.843,113.667 40.167 M130.364 40.125 C 130.400 40.312,130.599 40.433,130.918 40.462 C 132.878 40.642,132.832 40.457,132.833 48.130 C 132.833 55.871,132.804 56.000,131.011 56.000 C 130.508 56.000,130.333 56.067,130.333 56.260 C 130.333 56.492,130.924 56.515,135.708 56.469 L 141.083 56.417 142.275 55.939 C 149.081 53.208,149.080 42.727,142.272 40.416 C 140.364 39.768,130.250 39.521,130.364 40.125 M149.667 40.167 C 149.667 40.450,149.778 40.500,150.407 40.500 C 150.950 40.500,151.273 40.608,151.616 40.902 L 152.083 41.304 152.167 47.110 L 152.250 52.917 152.717 53.867 C 154.497 57.493,160.715 58.225,163.787 55.170 C 165.054 53.910,165.183 53.193,165.311 46.694 L 165.417 41.304 165.884 40.902 C 166.208 40.624,166.555 40.500,167.009 40.500 C 167.556 40.500,167.667 40.444,167.667 40.167 C 167.667 39.846,167.556 39.833,164.667 39.833 C 161.846 39.833,161.667 39.852,161.667 40.145 C 161.667 40.399,161.825 40.473,162.506 40.538 C 163.554 40.639,163.776 40.916,163.928 42.311 C 164.141 44.268,163.908 52.342,163.619 53.000 C 162.373 55.844,158.009 56.726,155.905 54.560 C 154.863 53.488,154.759 52.771,154.754 46.694 L 154.750 41.305 155.218 40.902 C 155.560 40.607,155.883 40.500,156.426 40.500 C 157.056 40.500,157.167 40.450,157.167 40.167 C 157.167 39.843,157.056 39.833,153.417 39.833 C 149.778 39.833,149.667 39.843,149.667 40.167 M169.000 40.145 C 169.000 40.394,169.170 40.480,169.837 40.568 C 170.520 40.659,170.812 40.812,171.428 41.401 L 172.181 42.124 172.132 48.660 L 172.083 55.196 171.616 55.598 C 171.292 55.876,170.945 56.000,170.491 56.000 C 169.944 56.000,169.833 56.056,169.833 56.333 C 169.833 56.654,169.944 56.667,172.833 56.667 C 175.722 56.667,175.833 56.654,175.833 56.333 C 175.833 56.064,175.722 56.000,175.258 56.000 C 174.565 56.000,173.899 55.720,173.721 55.352 C 173.586 55.074,173.421 43.696,173.555 43.837 C 173.637 43.925,177.236 48.341,178.167 49.497 C 178.487 49.895,178.827 50.303,178.920 50.402 C 179.014 50.502,179.389 50.956,179.753 51.412 C 180.484 52.325,180.995 52.946,181.250 53.231 C 181.342 53.333,181.714 53.792,182.078 54.250 C 182.441 54.708,182.779 55.121,182.828 55.167 C 182.877 55.212,183.203 55.606,183.553 56.042 C 184.850 57.656,184.811 57.863,184.867 49.088 L 184.917 41.342 185.288 40.971 C 185.526 40.733,185.946 40.566,186.453 40.508 C 187.031 40.441,187.261 40.337,187.302 40.125 C 187.353 39.856,187.121 39.833,184.262 39.833 C 181.278 39.833,181.167 39.845,181.167 40.167 C 181.167 40.451,181.278 40.500,181.924 40.500 C 182.506 40.500,182.777 40.595,183.091 40.909 L 183.500 41.318 183.500 46.612 L 183.500 51.905 183.088 51.411 C 181.772 49.831,178.314 45.602,176.757 43.667 C 175.761 42.429,174.646 41.060,174.280 40.625 L 173.614 39.833 171.307 39.833 C 169.164 39.833,169.000 39.856,169.000 40.145 M196.833 40.167 C 196.833 40.431,196.945 40.500,197.375 40.502 C 199.131 40.510,199.151 40.582,199.214 47.167 C 199.276 53.611,199.323 53.850,200.823 55.333 C 203.309 57.792,209.070 57.542,211.094 54.888 C 212.173 53.473,212.230 53.114,212.327 47.083 C 212.432 40.627,212.466 40.500,214.072 40.500 C 214.558 40.500,214.667 40.438,214.667 40.163 C 214.667 39.835,214.582 39.827,211.625 39.871 C 209.053 39.910,208.583 39.955,208.583 40.167 C 208.583 40.344,208.841 40.448,209.469 40.525 C 211.025 40.715,211.059 40.877,210.962 47.528 C 210.901 51.735,210.850 52.510,210.597 53.083 C 209.412 55.766,205.016 56.683,203.000 54.667 C 201.966 53.633,201.917 53.281,201.917 46.965 C 201.917 40.377,201.850 40.680,203.321 40.539 C 204.007 40.473,204.167 40.399,204.167 40.145 C 204.167 39.850,203.973 39.833,200.500 39.833 C 196.944 39.833,196.833 39.843,196.833 40.167 M216.000 40.145 C 216.000 40.393,216.168 40.479,216.813 40.565 C 217.441 40.648,217.803 40.828,218.397 41.351 L 219.167 42.028 219.167 48.447 C 219.167 56.092,219.191 55.990,217.375 55.998 C 216.945 56.000,216.833 56.069,216.833 56.333 C 216.833 56.654,216.944 56.667,219.833 56.667 C 222.722 56.667,222.833 56.654,222.833 56.333 C 222.833 56.062,222.722 56.000,222.234 56.000 C 220.511 56.000,220.468 55.824,220.534 48.977 L 220.583 43.871 223.167 47.041 C 224.588 48.785,225.826 50.295,225.920 50.398 C 226.063 50.554,227.211 51.955,228.583 53.648 C 228.767 53.875,229.144 54.328,229.421 54.655 C 229.699 54.982,230.210 55.606,230.558 56.042 C 231.865 57.681,231.833 57.847,231.833 49.317 C 231.833 40.326,231.796 40.510,233.625 40.502 C 234.055 40.500,234.167 40.431,234.167 40.167 C 234.167 39.846,234.056 39.833,231.167 39.833 C 228.278 39.833,228.167 39.846,228.167 40.167 C 228.167 40.451,228.278 40.500,228.924 40.500 C 229.506 40.500,229.777 40.595,230.091 40.909 L 230.500 41.318 230.500 46.609 C 230.500 49.705,230.439 51.834,230.352 51.742 C 230.123 51.498,228.968 50.105,228.474 49.478 C 228.071 48.967,223.552 43.411,221.476 40.875 L 220.623 39.833 218.311 39.833 C 216.164 39.833,216.000 39.855,216.000 40.145 M236.500 40.145 C 236.500 40.398,236.658 40.473,237.319 40.536 C 238.831 40.682,238.750 40.247,238.750 48.211 L 238.750 55.195 238.282 55.598 C 237.959 55.876,237.612 56.000,237.157 56.000 C 236.611 56.000,236.500 56.056,236.500 56.333 C 236.500 56.657,236.611 56.667,240.167 56.667 C 243.639 56.667,243.833 56.650,243.833 56.355 C 243.833 56.102,243.675 56.027,242.999 55.962 C 241.432 55.812,241.500 56.164,241.500 48.243 C 241.500 40.320,241.430 40.689,242.969 40.541 C 243.673 40.473,243.833 40.400,243.833 40.145 C 243.833 39.850,243.639 39.833,240.167 39.833 C 236.694 39.833,236.500 39.850,236.500 40.145 M246.000 40.152 C 246.000 40.390,246.158 40.498,246.625 40.579 C 247.790 40.781,247.897 40.943,249.859 45.490 C 250.311 46.539,250.785 47.627,250.912 47.907 C 251.512 49.236,252.016 50.387,252.667 51.917 C 253.350 53.523,254.018 55.053,254.339 55.750 C 254.424 55.933,254.570 56.295,254.663 56.553 C 255.015 57.524,255.480 57.104,256.291 55.083 C 256.695 54.075,257.090 53.100,257.168 52.917 C 258.223 50.441,259.833 46.518,259.833 46.424 C 259.833 46.380,260.009 45.947,260.224 45.463 C 260.439 44.979,260.713 44.321,260.833 44.000 C 261.655 41.808,262.401 40.788,263.333 40.583 C 263.677 40.508,263.833 40.374,263.833 40.153 C 263.833 39.851,263.685 39.833,261.167 39.833 C 258.648 39.833,258.500 39.851,258.500 40.153 C 258.500 40.380,258.659 40.507,259.042 40.589 C 259.780 40.746,260.167 41.126,260.167 41.695 C 260.167 42.112,258.244 47.141,257.327 49.123 C 257.147 49.512,257.000 49.875,257.000 49.931 C 257.000 49.987,256.891 50.269,256.757 50.558 C 256.624 50.847,256.368 51.458,256.189 51.917 L 255.863 52.750 255.267 51.417 C 254.939 50.683,254.558 49.871,254.419 49.611 C 254.280 49.352,254.167 49.076,254.167 48.998 C 254.167 48.920,253.936 48.345,253.653 47.720 C 253.371 47.095,253.028 46.321,252.892 46.000 C 252.756 45.679,252.578 45.267,252.498 45.083 C 250.837 41.299,250.825 40.867,252.375 40.579 C 252.836 40.493,253.000 40.380,253.000 40.148 C 253.000 39.850,252.820 39.833,249.500 39.833 C 246.165 39.833,246.000 39.848,246.000 40.152 M265.833 40.146 C 265.833 40.405,265.992 40.472,266.756 40.535 C 268.168 40.652,268.078 40.159,268.130 48.067 C 268.184 56.203,268.256 55.810,266.698 55.959 C 266.116 56.015,265.833 56.117,265.833 56.271 C 265.833 56.461,266.946 56.500,272.410 56.500 L 278.987 56.500 279.167 55.792 C 279.266 55.402,279.414 54.933,279.495 54.750 C 280.601 52.257,280.368 51.059,279.164 53.042 C 277.879 55.157,277.124 55.500,273.757 55.500 C 270.625 55.500,270.833 55.775,270.833 51.633 L 270.833 48.284 273.227 48.374 C 276.200 48.485,276.833 48.848,276.833 50.437 C 276.833 50.722,276.927 50.833,277.167 50.833 C 277.488 50.833,277.500 50.722,277.500 47.833 C 277.500 44.944,277.488 44.833,277.167 44.833 C 276.919 44.833,276.833 44.944,276.833 45.266 C 276.833 46.829,276.180 47.167,273.156 47.167 L 270.833 47.167 270.833 44.083 L 270.833 41.000 273.683 41.000 C 277.418 41.000,277.912 41.221,278.254 43.047 C 278.455 44.115,279.232 43.958,279.106 42.875 C 279.055 42.440,278.967 41.577,278.910 40.958 L 278.807 39.833 272.320 39.833 C 266.087 39.833,265.833 39.846,265.833 40.146 M282.667 40.145 C 282.667 40.399,282.826 40.473,283.512 40.539 C 284.990 40.681,284.910 40.278,284.969 47.797 C 285.033 55.893,285.010 56.000,283.242 56.000 C 282.842 56.000,282.667 56.076,282.667 56.250 C 282.667 56.465,283.185 56.500,286.333 56.500 C 289.481 56.500,290.000 56.465,290.000 56.250 C 290.000 56.066,289.808 56.000,289.268 56.000 C 287.760 56.000,287.526 55.375,287.510 51.292 L 287.500 48.833 288.299 48.833 L 289.099 48.833 290.543 50.792 C 291.337 51.869,292.577 53.575,293.298 54.583 L 294.609 56.417 296.971 56.463 C 298.937 56.501,299.333 56.469,299.333 56.269 C 299.333 56.120,299.086 55.988,298.680 55.919 C 297.781 55.767,296.685 55.035,295.904 54.064 C 295.545 53.616,295.194 53.225,295.125 53.194 C 295.056 53.164,295.000 53.071,295.000 52.988 C 295.000 52.905,294.890 52.705,294.756 52.544 C 294.623 52.382,293.917 51.425,293.190 50.417 L 291.866 48.583 292.629 48.283 C 297.371 46.416,296.743 40.731,291.716 40.004 C 289.465 39.678,282.667 39.785,282.667 40.145 M316.667 40.145 C 316.667 40.392,316.826 40.475,317.435 40.543 C 318.976 40.717,318.910 40.400,318.964 47.913 C 319.021 55.851,318.988 56.000,317.156 56.000 C 316.766 56.000,316.667 56.073,316.667 56.359 C 316.667 56.711,316.700 56.716,318.542 56.610 C 319.573 56.550,321.185 56.501,322.125 56.501 C 323.532 56.500,323.833 56.456,323.833 56.250 C 323.833 56.069,323.647 56.000,323.154 56.000 C 322.625 56.000,322.366 55.892,321.987 55.513 L 321.500 55.026 321.500 48.330 C 321.500 40.371,321.468 40.510,323.292 40.502 C 323.721 40.500,323.833 40.431,323.833 40.167 C 323.833 39.844,323.722 39.833,320.250 39.833 C 316.861 39.833,316.667 39.850,316.667 40.145 M326.664 41.542 C 326.663 42.481,326.617 43.419,326.562 43.625 C 326.326 44.505,327.092 44.042,327.389 43.125 C 327.938 41.431,328.376 41.167,330.629 41.167 L 332.350 41.167 332.300 48.181 L 332.250 55.196 331.782 55.598 C 331.459 55.876,331.112 56.000,330.657 56.000 C 330.184 56.000,330.000 56.070,330.000 56.250 C 330.000 56.464,330.509 56.500,333.583 56.500 C 336.657 56.500,337.167 56.464,337.167 56.250 C 337.167 56.070,336.983 56.000,336.509 56.000 C 336.055 56.000,335.708 55.876,335.384 55.598 L 334.917 55.196 334.865 48.181 L 334.813 41.167 336.589 41.167 C 338.880 41.167,340.000 41.958,340.000 43.577 C 340.000 43.889,340.087 44.000,340.333 44.000 C 340.705 44.000,340.780 42.963,340.560 40.858 L 340.453 39.833 333.560 39.833 L 326.667 39.833 326.664 41.542 M343.167 40.167 C 343.167 40.451,343.278 40.500,343.924 40.500 C 344.506 40.500,344.777 40.595,345.091 40.909 L 345.500 41.318 345.500 48.213 L 345.500 55.109 345.094 55.490 C 344.841 55.728,344.400 55.904,343.927 55.958 C 343.436 56.013,343.167 56.124,343.167 56.272 C 343.167 56.460,344.164 56.506,348.833 56.535 C 351.950 56.555,354.883 56.573,355.352 56.577 L 356.204 56.583 356.928 54.417 C 357.326 53.225,357.655 52.231,357.659 52.208 C 357.746 51.720,356.821 52.338,356.434 53.027 C 355.305 55.037,354.289 55.500,351.007 55.500 C 347.973 55.500,348.167 55.762,348.167 51.657 L 348.167 48.333 349.708 48.337 C 353.041 48.344,353.784 48.627,353.974 49.961 C 354.066 50.610,354.153 50.759,354.460 50.803 L 354.833 50.857 354.833 47.845 C 354.833 44.950,354.820 44.833,354.502 44.833 C 354.241 44.833,354.147 44.984,354.058 45.541 C 353.829 46.970,353.411 47.167,350.596 47.167 L 348.167 47.167 348.167 44.070 L 348.167 40.974 351.269 41.028 L 354.370 41.083 354.836 41.642 C 355.093 41.949,355.385 42.530,355.487 42.933 C 356.000 44.970,356.577 43.157,356.227 40.607 L 356.121 39.833 349.644 39.833 C 343.278 39.833,343.167 39.839,343.167 40.167 M375.500 40.145 C 375.500 40.399,375.659 40.473,376.346 40.539 C 377.955 40.694,377.991 40.858,377.996 48.117 C 378.001 55.593,377.903 56.000,376.092 56.000 C 375.677 56.000,375.500 56.075,375.500 56.250 C 375.500 56.465,376.019 56.500,379.167 56.500 C 382.315 56.500,382.833 56.465,382.833 56.250 C 382.833 56.070,382.650 56.000,382.179 56.000 C 381.719 56.000,381.374 55.872,381.013 55.569 L 380.500 55.137 380.500 48.394 C 380.500 40.352,380.464 40.510,382.292 40.502 C 382.721 40.500,382.833 40.431,382.833 40.167 C 382.833 39.843,382.722 39.833,379.167 39.833 C 375.694 39.833,375.500 39.850,375.500 40.145 M38.151 41.340 C 40.011 42.184,40.708 44.035,39.817 45.766 C 39.154 47.056,37.387 47.645,34.875 47.415 L 33.667 47.305 33.667 44.264 C 33.667 42.591,33.717 41.172,33.778 41.111 C 34.058 40.831,37.415 41.007,38.151 41.340 M140.713 41.572 C 141.527 41.984,142.385 42.755,143.273 43.874 C 144.567 45.503,144.652 49.738,143.440 52.151 C 142.138 54.744,138.865 56.132,135.958 55.325 L 135.333 55.151 135.333 48.170 L 135.333 41.190 135.708 41.109 C 136.994 40.833,139.759 41.088,140.713 41.572 M290.884 41.154 C 292.073 41.606,292.905 43.061,292.801 44.506 C 292.657 46.495,291.302 47.620,288.848 47.789 L 287.500 47.881 287.500 44.535 C 287.500 41.198,287.501 41.190,287.875 41.118 C 288.597 40.979,290.482 41.001,290.884 41.154 M102.333 44.500 C 102.549 45.074,103.042 46.264,103.334 46.917 C 103.638 47.596,104.500 49.704,104.500 49.767 C 104.500 49.804,103.337 49.833,101.917 49.833 C 100.496 49.833,99.333 49.788,99.333 49.734 C 99.333 49.679,99.440 49.397,99.570 49.109 C 100.563 46.902,100.846 46.253,101.339 45.041 C 101.928 43.595,101.981 43.566,102.333 44.500 M38.500 49.035 C 41.538 50.427,41.403 54.201,38.277 55.263 C 37.438 55.548,34.322 55.558,33.875 55.278 C 33.720 55.180,33.667 54.297,33.667 51.803 L 33.667 48.459 35.625 48.537 C 37.259 48.602,37.735 48.684,38.500 49.035 M139.333 62.444 C 137.845 63.037,138.319 65.341,139.927 65.328 C 141.857 65.312,142.056 62.655,140.146 62.415 C 139.836 62.376,139.471 62.389,139.333 62.444 M188.500 62.442 C 187.639 62.779,187.365 64.326,188.052 64.971 C 188.552 65.440,189.637 65.462,190.190 65.015 C 191.409 64.028,189.985 61.861,188.500 62.442 M334.319 62.714 C 333.581 63.280,333.495 64.103,334.098 64.821 C 335.209 66.141,337.442 64.788,336.639 63.281 C 336.337 62.713,335.972 62.511,335.250 62.511 C 334.883 62.511,334.464 62.602,334.319 62.714 M338.750 62.855 C 338.252 63.356,338.287 64.591,338.810 65.015 C 340.225 66.161,342.109 64.365,340.988 62.939 C 340.541 62.371,339.279 62.323,338.750 62.855 M371.162 62.921 C 370.268 63.873,370.922 65.338,372.237 65.328 C 373.353 65.319,373.947 64.526,373.650 63.442 C 373.374 62.433,371.909 62.126,371.162 62.921 M375.742 62.909 C 374.798 63.853,375.503 65.333,376.897 65.333 C 377.784 65.333,378.333 64.792,378.333 63.917 C 378.333 62.598,376.692 61.960,375.742 62.909 M60.917 66.963 C 51.450 70.223,53.565 85.167,63.492 85.167 C 72.924 85.167,75.782 71.380,67.198 67.289 C 65.793 66.619,62.424 66.444,60.917 66.963 M99.637 66.822 C 89.975 69.906,91.948 85.167,102.008 85.167 C 107.523 85.167,111.359 80.403,110.675 74.404 C 110.332 71.397,108.432 68.670,105.750 67.336 C 104.526 66.727,100.891 66.422,99.637 66.822 M221.667 66.839 C 221.667 66.946,221.560 67.269,221.430 67.558 C 221.300 67.847,220.733 69.171,220.170 70.500 C 219.606 71.829,219.080 73.067,218.999 73.250 C 218.918 73.433,218.653 74.033,218.409 74.583 C 218.166 75.133,217.479 76.746,216.882 78.167 C 214.813 83.100,214.407 83.759,213.303 83.983 C 212.903 84.065,212.735 84.198,212.697 84.465 C 212.644 84.833,212.645 84.833,215.572 84.833 L 218.500 84.833 218.500 84.438 C 218.500 84.094,218.404 84.033,217.750 83.959 C 216.162 83.780,216.145 83.265,217.618 79.958 L 218.046 79.000 221.426 79.000 L 224.806 79.000 225.098 79.792 C 225.259 80.227,225.444 80.658,225.508 80.750 C 225.573 80.842,225.793 81.414,225.996 82.023 C 226.500 83.532,226.344 83.823,224.917 84.037 C 224.718 84.067,224.562 84.238,224.530 84.460 L 224.477 84.833 228.072 84.833 L 231.667 84.833 231.667 84.417 C 231.667 84.081,231.584 84.000,231.242 84.000 C 230.176 84.000,229.412 83.096,228.425 80.667 C 228.183 80.071,227.918 79.433,227.835 79.250 C 227.421 78.331,226.957 77.241,226.240 75.500 C 225.805 74.446,225.269 73.171,225.048 72.667 C 224.828 72.162,224.609 71.637,224.563 71.500 C 223.789 69.207,222.538 66.745,222.122 66.697 C 221.856 66.666,221.667 66.725,221.667 66.839 M255.518 67.013 C 254.371 67.564,253.238 68.803,252.929 69.843 C 252.072 72.730,253.223 74.404,257.926 77.114 C 261.914 79.412,262.819 80.735,261.621 82.513 C 259.499 85.661,253.667 83.271,253.667 79.253 C 253.667 79.094,253.511 79.000,253.250 79.000 L 252.833 79.000 252.833 82.083 L 252.833 85.167 253.250 85.167 C 253.546 85.167,253.667 85.076,253.667 84.854 C 253.667 84.240,254.063 84.120,255.115 84.413 C 257.691 85.132,258.100 85.200,259.421 85.121 C 264.115 84.842,266.363 79.916,263.198 76.844 C 262.659 76.321,259.879 74.500,259.620 74.500 C 259.538 74.500,257.547 73.364,256.924 72.961 C 253.956 71.041,254.667 67.917,258.071 67.917 C 260.389 67.917,261.901 69.190,262.571 71.708 C 262.807 72.595,262.937 72.833,263.185 72.833 C 263.482 72.833,263.500 72.662,263.500 69.750 C 263.500 66.767,263.489 66.667,263.163 66.667 C 262.965 66.667,262.748 66.839,262.636 67.083 C 262.395 67.614,261.822 67.629,260.823 67.132 C 259.713 66.580,256.565 66.509,255.518 67.013 M19.000 67.250 C 19.000 67.631,19.063 67.667,19.728 67.667 C 20.211 67.667,20.602 67.782,20.894 68.012 L 21.333 68.358 21.333 75.833 L 21.333 83.309 20.919 83.635 C 20.691 83.815,20.166 84.012,19.752 84.074 C 19.158 84.163,19.000 84.255,19.000 84.510 C 19.000 84.825,19.183 84.833,25.805 84.833 L 32.610 84.833 32.799 84.458 C 33.559 82.951,34.288 80.167,33.923 80.167 C 33.648 80.167,33.359 80.458,32.817 81.283 C 32.414 81.897,31.795 82.628,31.443 82.908 L 30.803 83.417 27.757 83.468 C 23.812 83.535,24.167 83.930,24.167 79.470 L 24.167 75.964 26.708 76.028 C 29.928 76.108,30.306 76.319,30.532 78.167 C 30.568 78.455,30.686 78.583,30.917 78.583 C 31.237 78.583,31.252 78.457,31.295 75.446 L 31.341 72.309 30.964 72.363 C 30.675 72.404,30.565 72.557,30.489 73.027 C 30.242 74.555,29.614 74.831,26.375 74.832 L 24.167 74.833 24.167 71.500 L 24.167 68.167 27.211 68.167 C 31.113 68.167,31.700 68.434,32.065 70.376 C 32.289 71.570,33.060 71.274,32.936 70.042 C 32.883 69.515,32.792 68.577,32.734 67.958 L 32.628 66.833 25.814 66.833 L 19.000 66.833 19.000 67.250 M35.167 67.250 C 35.167 67.620,35.236 67.667,35.792 67.667 C 37.674 67.669,37.714 67.869,37.638 76.806 L 37.583 83.196 37.140 83.577 C 36.897 83.786,36.353 84.009,35.932 84.072 C 35.325 84.163,35.167 84.254,35.167 84.510 C 35.167 84.821,35.318 84.833,39.000 84.833 C 42.627 84.833,42.833 84.817,42.833 84.523 C 42.833 84.280,42.633 84.172,41.909 84.027 C 40.395 83.723,40.424 83.804,40.366 79.713 L 40.315 76.151 43.657 79.441 C 47.298 83.024,47.714 83.671,46.542 83.927 C 45.738 84.104,45.667 84.150,45.667 84.495 C 45.667 84.826,45.755 84.833,50.000 84.833 L 54.333 84.833 54.333 84.417 C 54.333 84.063,54.256 84.000,53.823 84.000 C 52.245 84.000,51.365 83.319,45.917 77.880 L 42.875 74.844 46.063 71.704 C 49.315 68.500,50.452 67.667,51.573 67.667 C 51.917 67.667,52.000 67.586,52.000 67.250 L 52.000 66.833 48.667 66.833 L 45.333 66.833 45.333 67.250 C 45.333 67.610,45.408 67.667,45.883 67.667 C 48.014 67.667,46.627 69.614,40.787 74.821 L 40.333 75.225 40.333 71.933 L 40.333 68.641 40.821 68.154 C 41.217 67.757,41.450 67.667,42.071 67.667 C 42.773 67.667,42.833 67.634,42.833 67.250 L 42.833 66.833 39.000 66.833 L 35.167 66.833 35.167 67.250 M72.730 67.075 C 72.587 67.448,72.806 67.667,73.323 67.667 C 74.006 67.667,75.003 68.121,75.625 68.714 L 76.167 69.232 76.167 76.207 L 76.167 83.182 75.777 83.572 C 75.521 83.828,75.093 84.002,74.527 84.080 C 73.833 84.175,73.667 84.259,73.667 84.516 C 73.667 84.817,73.830 84.833,76.833 84.833 C 79.815 84.833,80.000 84.815,80.000 84.522 C 80.000 84.275,79.798 84.170,79.026 84.019 C 77.599 83.738,77.652 84.011,77.705 77.167 L 77.750 71.250 78.750 72.484 C 79.300 73.162,80.150 74.212,80.639 74.817 C 81.128 75.422,81.765 76.210,82.056 76.569 C 82.346 76.928,82.658 77.303,82.750 77.402 C 82.842 77.502,83.342 78.116,83.862 78.767 C 84.382 79.418,84.910 80.056,85.034 80.184 C 85.159 80.312,85.607 80.867,86.030 81.417 C 86.454 81.967,87.039 82.679,87.332 83.000 C 87.625 83.321,88.095 83.902,88.377 84.292 C 88.724 84.772,89.014 85.000,89.274 85.000 L 89.658 85.000 89.704 76.735 L 89.750 68.471 90.218 68.069 C 90.560 67.774,90.883 67.667,91.426 67.667 C 92.105 67.667,92.167 67.632,92.167 67.250 L 92.167 66.833 89.000 66.833 L 85.833 66.833 85.833 67.250 C 85.833 67.627,85.899 67.667,86.516 67.667 C 88.327 67.667,88.371 67.844,88.300 74.888 L 88.250 79.858 87.333 78.741 C 86.829 78.126,86.341 77.539,86.248 77.436 C 86.155 77.334,85.818 76.912,85.499 76.500 C 85.020 75.881,80.032 69.766,78.124 67.458 L 77.607 66.833 75.215 66.833 C 73.277 66.833,72.805 66.879,72.730 67.075 M112.111 66.944 C 111.766 67.290,112.021 67.667,112.599 67.667 C 114.469 67.667,114.528 67.944,114.467 76.439 C 114.409 84.360,114.519 83.844,112.843 84.066 C 112.150 84.158,112.000 84.237,112.000 84.509 C 112.000 84.980,118.375 84.943,118.466 84.472 C 118.509 84.248,118.332 84.170,117.571 84.075 C 115.906 83.867,115.998 84.283,116.010 77.042 L 116.021 70.750 116.341 71.417 C 116.517 71.783,116.954 72.721,117.312 73.500 C 117.671 74.279,118.272 75.577,118.649 76.385 C 119.025 77.192,119.333 77.877,119.333 77.906 C 119.333 77.936,119.698 78.738,120.144 79.688 C 120.590 80.639,121.197 81.942,121.493 82.583 C 121.789 83.225,122.145 83.994,122.285 84.292 C 122.430 84.602,122.663 84.833,122.832 84.833 C 123.008 84.833,123.214 84.616,123.345 84.292 C 123.465 83.994,123.931 82.962,124.381 82.000 C 124.831 81.037,125.521 79.537,125.915 78.667 C 126.308 77.796,126.889 76.521,127.206 75.833 C 127.523 75.146,127.986 74.133,128.235 73.583 C 128.484 73.033,128.905 72.133,129.169 71.583 L 129.650 70.583 129.617 76.941 C 129.578 84.250,129.658 83.879,128.074 84.077 C 127.328 84.170,127.167 84.248,127.167 84.512 C 127.167 84.820,127.325 84.833,131.000 84.833 C 134.682 84.833,134.833 84.821,134.833 84.510 C 134.833 84.255,134.676 84.163,134.081 84.074 C 133.668 84.012,133.143 83.815,132.915 83.635 L 132.500 83.309 132.500 75.897 L 132.500 68.485 132.909 68.076 C 133.223 67.761,133.494 67.667,134.076 67.667 C 134.775 67.667,134.833 67.634,134.833 67.246 L 134.833 66.825 132.310 66.871 C 130.274 66.908,129.759 66.965,129.646 67.167 C 129.482 67.459,128.698 69.157,126.914 73.083 C 123.195 81.267,123.481 80.729,123.247 79.991 C 123.187 79.803,122.742 78.809,122.257 77.783 C 121.773 76.756,121.187 75.504,120.955 75.000 C 120.723 74.496,120.199 73.371,119.790 72.500 C 119.380 71.629,118.876 70.542,118.668 70.083 C 118.460 69.625,118.040 68.706,117.734 68.042 L 117.178 66.833 114.700 66.833 C 113.337 66.833,112.172 66.883,112.111 66.944 M135.897 67.075 C 135.746 67.469,135.982 67.667,136.601 67.667 C 138.421 67.667,138.417 67.647,138.417 76.140 L 138.417 83.196 137.969 83.581 C 137.699 83.813,137.187 84.012,136.677 84.082 C 135.999 84.175,135.833 84.260,135.833 84.516 C 135.833 84.819,136.009 84.833,139.750 84.833 C 143.371 84.833,143.667 84.811,143.667 84.541 C 143.667 84.321,143.412 84.188,142.627 84.000 C 141.097 83.632,141.172 84.044,141.171 75.917 C 141.171 67.470,141.128 67.667,142.984 67.667 C 143.601 67.667,143.667 67.627,143.667 67.250 L 143.667 66.833 139.828 66.833 C 136.626 66.833,135.974 66.873,135.897 67.075 M170.113 66.943 C 169.745 67.311,170.021 67.667,170.675 67.667 C 172.636 67.667,172.667 67.793,172.667 75.864 C 172.667 83.955,172.702 83.799,170.792 84.086 C 170.169 84.179,170.000 84.272,170.000 84.519 C 170.000 84.818,170.190 84.833,173.917 84.833 C 177.699 84.833,177.833 84.822,177.833 84.506 C 177.833 84.238,177.679 84.158,176.990 84.066 C 175.410 83.857,175.425 83.896,175.363 79.765 L 175.310 76.167 177.380 76.167 C 179.832 76.167,180.139 76.329,180.495 77.812 C 180.652 78.468,180.772 78.671,180.977 78.631 C 181.216 78.586,181.256 78.199,181.295 75.527 L 181.341 72.476 180.967 72.530 C 180.681 72.571,180.542 72.765,180.377 73.352 C 180.018 74.625,179.781 74.741,177.399 74.809 L 175.333 74.868 175.333 71.517 L 175.333 68.167 177.922 68.167 C 181.325 68.167,182.177 68.567,182.684 70.404 C 182.803 70.832,182.942 71.000,183.180 71.000 C 183.494 71.000,183.508 70.899,183.463 68.958 L 183.417 66.917 176.821 66.873 C 173.194 66.849,170.175 66.880,170.113 66.943 M185.110 66.945 C 184.745 67.311,185.023 67.667,185.675 67.667 C 187.557 67.667,187.563 67.687,187.634 74.750 C 187.723 83.600,187.679 83.829,185.860 84.080 C 185.167 84.175,185.000 84.259,185.000 84.516 C 185.000 84.819,185.175 84.833,188.917 84.833 C 192.597 84.833,192.833 84.815,192.833 84.529 C 192.833 84.293,192.602 84.172,191.794 83.988 C 190.981 83.802,190.710 83.659,190.547 83.333 C 190.289 82.819,190.240 69.268,190.493 68.603 C 191.040 67.164,194.322 67.279,195.875 68.792 L 196.500 69.401 196.499 75.825 C 196.498 83.826,196.491 83.859,194.749 84.076 C 194.000 84.170,193.825 84.248,193.867 84.472 C 193.956 84.935,200.333 84.982,200.333 84.519 C 200.333 84.260,200.172 84.176,199.499 84.083 C 197.830 83.854,197.923 84.240,197.875 77.307 L 197.833 71.250 198.291 71.755 C 198.544 72.032,199.025 72.595,199.360 73.005 C 199.696 73.415,200.555 74.460,201.269 75.327 C 201.984 76.195,203.059 77.513,203.659 78.257 C 208.092 83.753,209.189 85.000,209.591 85.000 L 210.000 85.000 210.000 76.742 L 210.000 68.485 210.409 68.076 C 210.723 67.761,210.994 67.667,211.576 67.667 C 212.274 67.667,212.333 67.634,212.333 67.246 L 212.333 66.826 209.208 66.871 C 206.110 66.916,206.083 66.920,206.030 67.292 C 205.981 67.639,206.041 67.667,206.830 67.667 C 207.538 67.667,207.752 67.741,208.091 68.108 L 208.500 68.549 208.495 74.233 C 208.490 79.336,208.464 79.883,208.238 79.583 C 208.100 79.400,207.858 79.100,207.701 78.917 C 207.545 78.733,207.116 78.208,206.750 77.750 C 206.383 77.292,206.044 76.879,205.996 76.833 C 205.947 76.787,205.647 76.413,205.329 76.001 C 205.011 75.588,204.624 75.101,204.470 74.917 C 204.315 74.734,203.089 73.233,201.745 71.583 C 200.401 69.933,198.968 68.191,198.560 67.712 L 197.820 66.840 191.520 66.838 C 188.056 66.836,185.171 66.884,185.110 66.945 M231.397 67.075 C 231.250 67.458,231.477 67.667,232.041 67.667 C 232.745 67.667,233.899 68.248,234.418 68.865 L 234.844 69.371 234.797 76.367 L 234.750 83.363 234.376 83.666 C 234.170 83.832,233.627 84.020,233.168 84.083 C 232.498 84.175,232.333 84.261,232.333 84.516 C 232.333 84.817,232.498 84.833,235.583 84.833 C 238.657 84.833,238.833 84.816,238.833 84.519 C 238.833 84.265,238.652 84.177,237.892 84.061 C 236.265 83.812,236.322 84.070,236.373 77.181 L 236.417 71.281 237.917 73.109 C 238.742 74.114,239.656 75.232,239.948 75.593 C 240.241 75.954,240.665 76.475,240.892 76.750 C 241.119 77.025,241.917 78.000,242.665 78.917 C 243.413 79.833,244.150 80.733,244.304 80.917 C 244.458 81.100,244.884 81.623,245.250 82.079 C 246.048 83.070,246.432 83.532,247.039 84.228 C 247.290 84.515,247.496 84.806,247.497 84.875 C 247.499 84.944,247.684 85.000,247.909 85.000 L 248.319 85.000 248.368 76.735 L 248.417 68.471 248.884 68.069 C 249.227 67.774,249.550 67.667,250.093 67.667 C 250.773 67.667,250.833 67.633,250.833 67.246 L 250.833 66.826 247.708 66.871 C 244.610 66.916,244.583 66.920,244.530 67.292 C 244.482 67.627,244.547 67.667,245.147 67.667 C 246.981 67.667,247.000 67.738,246.998 74.383 L 246.996 79.917 246.456 79.260 C 244.085 76.373,243.363 75.488,241.831 73.583 C 240.873 72.392,240.047 71.379,239.997 71.333 C 239.947 71.287,239.608 70.877,239.244 70.421 C 238.528 69.523,238.013 68.896,237.750 68.603 C 237.658 68.500,237.297 68.060,236.947 67.625 L 236.311 66.833 233.900 66.833 C 231.946 66.833,231.472 66.879,231.397 67.075 M273.000 67.250 C 273.000 67.617,273.071 67.667,273.600 67.667 C 275.552 67.667,275.541 67.617,275.470 76.611 L 275.417 83.306 275.041 83.631 C 274.834 83.811,274.290 84.007,273.832 84.068 C 273.153 84.158,273.000 84.239,273.000 84.506 C 273.000 84.822,273.134 84.833,276.833 84.833 C 280.497 84.833,280.667 84.819,280.667 84.515 C 280.667 84.269,280.504 84.169,279.958 84.079 C 278.221 83.792,278.171 83.657,278.169 79.168 L 278.167 76.086 281.502 79.418 C 283.336 81.251,284.878 82.878,284.928 83.035 C 285.081 83.516,284.711 83.975,284.125 84.031 C 283.712 84.071,283.583 84.162,283.583 84.417 C 283.583 84.740,283.709 84.751,287.875 84.794 L 292.167 84.839 292.167 84.419 C 292.167 84.055,292.094 84.000,291.610 84.000 C 290.324 84.000,289.100 83.115,285.512 79.592 C 283.640 77.754,281.802 75.950,281.429 75.583 L 280.750 74.917 283.500 72.159 C 287.091 68.557,288.265 67.667,289.422 67.667 C 289.751 67.667,289.833 67.582,289.833 67.246 L 289.833 66.826 286.542 66.871 C 283.271 66.916,283.250 66.919,283.197 67.292 C 283.150 67.619,283.217 67.667,283.727 67.667 C 284.896 67.667,285.061 68.360,284.162 69.500 C 283.527 70.305,278.912 74.725,278.334 75.083 C 278.183 75.176,278.149 74.416,278.193 71.857 C 278.260 67.951,278.298 67.852,279.819 67.706 C 280.577 67.633,280.667 67.582,280.667 67.229 L 280.667 66.833 276.833 66.833 L 273.000 66.833 273.000 67.250 M291.944 66.944 C 291.544 67.345,291.858 67.667,292.648 67.667 C 294.399 67.667,294.498 68.040,294.506 74.650 C 294.513 81.213,294.688 82.070,296.347 83.655 C 298.483 85.696,303.973 85.695,306.355 83.652 C 308.088 82.166,308.217 81.569,308.326 74.528 L 308.417 68.639 308.961 68.153 C 309.369 67.788,309.671 67.667,310.169 67.667 C 310.766 67.667,310.833 67.625,310.833 67.250 L 310.833 66.833 307.667 66.833 L 304.500 66.833 304.500 67.250 C 304.500 67.630,304.564 67.667,305.213 67.667 C 306.048 67.667,306.543 67.965,306.821 68.637 C 307.091 69.290,306.974 79.576,306.683 80.689 C 306.043 83.139,302.259 84.615,299.630 83.440 C 297.486 82.482,297.000 80.723,297.000 73.913 C 297.000 68.464,297.246 67.667,298.926 67.667 C 299.605 67.667,299.667 67.632,299.667 67.250 L 299.667 66.833 295.861 66.833 C 293.768 66.833,292.006 66.883,291.944 66.944 M311.611 66.944 C 311.212 67.344,311.525 67.667,312.311 67.667 C 312.964 67.667,313.206 67.752,313.561 68.106 L 314.000 68.545 314.000 75.832 L 314.000 83.118 313.609 83.540 C 313.334 83.837,312.964 83.997,312.359 84.080 C 311.667 84.175,311.500 84.260,311.500 84.516 C 311.500 84.823,311.724 84.833,318.390 84.833 L 325.280 84.833 325.448 84.458 C 325.541 84.252,325.858 83.296,326.152 82.333 C 326.447 81.371,326.754 80.421,326.834 80.222 C 326.964 79.901,326.786 79.667,326.412 79.667 C 326.379 79.667,326.075 80.193,325.736 80.837 C 325.156 81.942,324.486 82.643,323.500 83.178 C 322.761 83.578,317.374 83.507,317.070 83.093 C 316.768 82.680,316.714 69.034,317.013 68.475 C 317.249 68.035,318.152 67.667,318.995 67.667 C 319.600 67.667,319.667 67.626,319.667 67.250 L 319.667 66.833 315.694 66.833 C 313.510 66.833,311.672 66.883,311.611 66.944 M327.447 66.941 C 327.044 67.344,327.356 67.667,328.148 67.667 C 329.875 67.667,329.971 68.047,329.993 75.000 C 330.012 80.929,330.209 81.969,331.578 83.377 C 333.941 85.810,339.643 85.816,342.096 83.388 C 343.668 81.832,343.721 81.570,343.826 74.750 C 343.932 67.909,343.943 67.868,345.644 67.672 C 346.276 67.600,346.417 67.523,346.417 67.250 C 346.417 66.930,346.290 66.915,343.208 66.871 L 340.000 66.826 340.000 67.246 C 340.000 67.633,340.060 67.667,340.741 67.667 C 341.284 67.667,341.606 67.774,341.949 68.069 L 342.417 68.472 342.415 74.361 L 342.412 80.250 341.948 81.200 C 340.490 84.184,335.433 84.814,333.623 82.239 C 332.854 81.144,332.679 79.639,332.672 74.036 C 332.665 67.952,332.694 67.848,334.417 67.670 C 335.110 67.598,335.250 67.527,335.250 67.250 C 335.250 66.911,327.774 66.615,327.447 66.941 M347.000 67.250 C 347.000 67.632,347.062 67.667,347.741 67.667 C 348.283 67.667,348.606 67.774,348.949 68.069 L 349.417 68.471 349.470 75.027 C 349.541 83.838,349.541 83.841,347.849 84.066 C 347.154 84.158,347.000 84.238,347.000 84.506 C 347.000 84.948,356.164 85.008,358.417 84.580 C 363.531 83.609,364.788 78.230,360.417 76.019 C 359.867 75.741,359.553 75.510,359.719 75.507 C 360.684 75.485,362.164 73.234,362.166 71.782 C 362.171 67.992,359.613 66.833,351.243 66.833 L 347.000 66.833 347.000 67.250 M364.444 66.944 C 364.048 67.340,364.358 67.667,365.130 67.667 C 366.894 67.667,367.000 68.070,367.000 74.758 C 367.000 80.428,367.108 81.257,368.026 82.653 C 370.449 86.336,378.191 86.000,380.042 82.132 C 380.778 80.595,380.833 80.111,380.846 75.064 C 380.863 68.240,381.005 67.667,382.676 67.667 C 383.266 67.667,383.333 67.624,383.333 67.250 L 383.333 66.833 380.167 66.833 L 377.000 66.833 377.000 67.250 C 377.000 67.630,377.064 67.667,377.713 67.667 C 378.548 67.667,379.043 67.965,379.321 68.637 C 379.591 69.290,379.474 79.576,379.183 80.688 C 378.361 83.834,372.709 84.999,370.747 82.427 C 369.825 81.218,369.750 80.607,369.750 74.277 L 369.750 68.471 370.218 68.069 C 370.560 67.774,370.883 67.667,371.426 67.667 C 372.105 67.667,372.167 67.632,372.167 67.250 L 372.167 66.833 368.361 66.833 C 366.268 66.833,364.506 66.883,364.444 66.944 M65.147 67.942 C 70.173 69.565,70.649 80.948,65.799 83.534 C 64.819 84.057,62.192 84.093,61.417 83.595 C 59.065 82.084,58.111 79.819,58.108 75.750 C 58.105 69.823,61.006 66.604,65.147 67.942 M104.215 68.168 C 108.063 69.976,108.949 79.170,105.597 82.516 C 102.640 85.468,98.089 83.928,96.983 79.601 C 96.240 76.694,96.440 72.787,97.440 70.677 C 98.671 68.080,101.667 66.970,104.215 68.168 M356.672 68.433 C 358.246 68.926,359.167 70.119,359.167 71.667 C 359.167 74.045,357.636 75.051,354.148 74.964 L 352.250 74.917 352.205 71.629 L 352.160 68.341 352.538 68.257 C 353.712 67.994,355.516 68.071,356.672 68.433 M221.857 71.958 C 222.042 72.394,222.338 73.068,222.514 73.457 C 222.690 73.845,222.833 74.209,222.833 74.265 C 222.833 74.321,222.941 74.603,223.073 74.891 C 223.445 75.707,224.167 77.480,224.167 77.578 C 224.167 77.627,222.929 77.667,221.417 77.667 C 219.904 77.667,218.667 77.639,218.667 77.605 C 218.667 77.550,219.055 76.609,219.499 75.583 C 219.579 75.400,219.756 74.987,219.892 74.667 C 220.028 74.346,220.371 73.572,220.653 72.947 C 220.936 72.322,221.167 71.715,221.167 71.599 C 221.167 71.397,221.319 71.167,221.454 71.167 C 221.490 71.167,221.671 71.523,221.857 71.958 M147.709 75.598 C 147.763 75.652,148.049 75.821,148.346 75.973 C 148.802 76.207,149.009 76.544,149.694 78.167 C 150.139 79.221,150.578 80.233,150.669 80.417 C 150.760 80.600,151.237 81.688,151.728 82.833 C 152.818 85.378,152.934 85.426,153.660 83.631 C 154.235 82.211,154.739 81.003,155.000 80.417 C 155.082 80.233,155.387 79.483,155.678 78.750 C 156.602 76.419,156.735 76.176,157.208 75.961 C 157.979 75.610,157.731 75.500,156.167 75.500 C 154.597 75.500,154.318 75.629,155.181 75.954 C 155.715 76.156,155.734 76.308,155.340 77.250 C 154.510 79.235,153.963 80.584,153.654 81.411 L 153.283 82.405 152.903 81.577 C 152.695 81.122,152.364 80.375,152.169 79.917 C 151.975 79.458,151.749 78.933,151.667 78.750 C 150.697 76.566,150.643 76.408,150.794 76.169 C 150.881 76.030,151.094 75.891,151.268 75.859 C 152.335 75.663,151.648 75.500,149.756 75.500 C 148.576 75.500,147.655 75.544,147.709 75.598 M158.000 75.667 C 158.000 75.758,158.169 75.834,158.375 75.836 C 159.235 75.842,159.247 75.893,159.295 79.785 C 159.346 83.788,159.267 84.208,158.454 84.303 C 158.195 84.333,158.000 84.458,158.000 84.594 C 158.000 84.795,158.589 84.833,161.627 84.833 L 165.253 84.833 165.627 83.683 C 165.832 83.050,166.000 82.450,166.000 82.349 C 166.000 82.018,165.557 82.159,165.381 82.546 C 164.784 83.856,163.306 84.427,161.426 84.074 L 160.833 83.963 160.833 82.065 L 160.833 80.167 161.792 80.186 C 163.385 80.219,163.729 80.345,163.909 80.958 C 164.235 82.063,164.500 81.596,164.500 79.917 C 164.500 78.290,164.173 77.668,163.920 78.816 C 163.794 79.393,163.500 79.495,161.958 79.498 L 160.833 79.500 160.833 77.833 L 160.833 76.167 162.564 76.167 C 164.404 76.167,164.662 76.286,164.856 77.224 C 164.997 77.905,165.253 77.510,165.300 76.542 L 165.349 75.500 161.675 75.500 C 159.336 75.500,158.000 75.561,158.000 75.667 M356.461 76.404 C 358.731 77.008,359.743 78.226,359.639 80.226 C 359.512 82.672,357.537 83.887,354.167 83.591 C 351.936 83.396,352.167 83.841,352.167 79.732 L 352.167 76.167 353.875 76.169 C 354.815 76.170,355.978 76.276,356.461 76.404 " stroke="none" fill="#000000" fill-rule="evenodd"></path><path id="path1" d="" stroke="none" fill="#100fcfc" fill-rule="evenodd"></path><path id="path2" d="" stroke="none" fill="#100fcfc" fill-rule="evenodd"></path><path id="path3" d="" stroke="none" fill="#100fcfc" fill-rule="evenodd"></path><path id="path4" d="" stroke="none" fill="#100fcfc" fill-rule="evenodd"></path></g></svg>