<svg id="svg" version="1.1" xmlns="http://www.w3.org/2000/svg" xmlns:xlink="http://www.w3.org/1999/xlink" width="400" height="166.45116197798356" viewBox="0, 0, 400,166.45116197798356"><g id="svgg"><path id="path0" d="M27.214 42.750 C 27.216 43.208,27.248 43.376,27.286 43.123 C 27.325 42.869,27.324 42.494,27.284 42.289 C 27.244 42.084,27.213 42.292,27.214 42.750 M119.500 69.952 C 118.247 70.412,118.528 72.167,119.855 72.167 C 120.809 72.167,121.180 70.797,120.394 70.179 C 119.931 69.815,119.897 69.806,119.500 69.952 M250.500 70.167 C 250.317 70.350,250.167 70.708,250.167 70.963 C 250.167 72.118,251.311 72.588,251.997 71.716 C 252.829 70.658,251.442 69.224,250.500 70.167 M253.576 70.242 C 253.076 70.742,253.058 71.151,253.512 71.728 C 254.179 72.575,255.333 72.114,255.333 71.000 C 255.333 69.901,254.344 69.475,253.576 70.242 M276.886 70.001 C 276.116 70.312,275.952 71.240,276.566 71.817 C 277.426 72.625,278.778 71.741,278.332 70.663 C 278.165 70.260,277.524 69.760,277.281 69.844 C 277.264 69.850,277.086 69.920,276.886 70.001 M334.833 70.048 C 334.290 70.322,334.134 71.609,334.604 71.952 C 335.765 72.801,337.025 71.068,335.894 70.179 C 335.381 69.775,335.376 69.775,334.833 70.048 M377.553 70.003 C 376.791 70.306,376.618 71.239,377.219 71.804 C 377.703 72.259,378.165 72.264,378.728 71.821 C 379.710 71.048,378.731 69.533,377.553 70.003 M177.010 73.708 C 176.800 74.190,176.440 75.033,176.208 75.583 C 175.976 76.133,175.654 76.883,175.492 77.250 C 174.302 79.946,173.913 80.833,173.663 81.417 C 172.583 83.935,172.264 84.472,171.758 84.617 C 170.411 85.003,171.055 85.333,173.154 85.333 C 175.284 85.333,175.922 85.049,174.542 84.715 C 173.748 84.523,173.713 83.805,174.426 82.313 L 174.895 81.333 177.083 81.333 L 179.272 81.333 179.740 82.313 C 180.421 83.738,180.411 84.517,179.708 84.723 C 178.381 85.112,179.092 85.333,181.667 85.333 C 184.340 85.333,184.901 85.129,183.499 84.666 C 182.788 84.432,182.549 84.051,181.434 81.375 C 180.622 79.426,180.129 78.252,179.667 77.167 C 179.413 76.571,179.018 75.633,178.789 75.083 C 177.932 73.022,177.833 72.833,177.615 72.833 C 177.491 72.833,177.219 73.227,177.010 73.708 M324.167 73.111 C 321.393 74.077,321.321 77.834,324.048 79.245 C 324.343 79.397,324.996 79.778,325.500 80.091 C 326.004 80.404,326.642 80.768,326.917 80.899 C 329.307 82.040,328.465 84.827,325.796 84.610 C 324.190 84.479,323.325 83.755,322.931 82.213 C 322.496 80.507,322.167 81.056,322.167 83.488 C 322.167 85.630,322.411 86.402,322.750 85.333 C 322.878 84.930,322.796 84.930,324.333 85.333 C 326.470 85.893,328.053 85.662,329.121 84.634 C 330.715 83.099,330.429 80.324,328.569 79.283 C 328.373 79.173,327.771 78.839,327.231 78.540 C 323.553 76.505,322.775 75.242,324.538 74.167 C 326.179 73.166,328.804 74.822,328.830 76.875 C 328.832 77.054,328.962 77.167,329.167 77.167 C 329.483 77.167,329.500 77.056,329.500 75.000 C 329.500 72.944,329.483 72.833,329.167 72.833 C 328.983 72.833,328.833 72.941,328.833 73.072 C 328.833 73.483,328.262 73.517,327.173 73.169 C 325.928 72.771,325.183 72.757,324.167 73.111 M366.974 73.081 C 365.112 73.766,364.184 75.682,364.941 77.278 C 365.466 78.384,366.386 79.101,369.417 80.764 C 372.012 82.188,371.527 84.603,368.652 84.571 C 367.010 84.553,366.275 83.995,365.644 82.292 C 365.048 80.683,364.833 81.003,364.833 83.500 C 364.833 85.747,364.924 86.004,365.476 85.322 L 365.755 84.977 367.041 85.322 C 373.011 86.922,375.383 81.372,369.958 78.499 C 367.753 77.332,367.144 76.913,366.689 76.249 C 365.587 74.640,367.750 73.199,369.788 74.185 C 370.601 74.578,371.496 75.899,371.498 76.708 C 371.500 77.055,371.581 77.167,371.833 77.167 C 372.150 77.167,372.167 77.056,372.167 75.000 C 372.167 72.944,372.150 72.833,371.833 72.833 C 371.645 72.833,371.500 72.944,371.500 73.089 C 371.500 73.508,371.124 73.529,369.991 73.174 C 368.760 72.788,367.846 72.760,366.974 73.081 M117.000 73.395 C 117.000 73.528,117.250 73.664,117.598 73.720 C 118.707 73.900,118.667 73.692,118.667 79.250 C 118.667 84.808,118.707 84.600,117.598 84.780 C 117.250 84.836,117.000 84.972,117.000 85.105 C 117.000 85.289,117.521 85.333,119.667 85.333 C 121.926 85.333,122.333 85.295,122.333 85.083 C 122.333 84.942,122.184 84.833,121.989 84.833 C 121.597 84.833,120.976 84.539,120.794 84.267 C 120.727 84.166,120.671 81.903,120.669 79.237 L 120.667 74.391 121.052 74.029 C 121.265 73.830,121.640 73.667,121.886 73.667 C 122.172 73.667,122.333 73.577,122.333 73.417 C 122.333 73.205,121.926 73.167,119.667 73.167 C 117.521 73.167,117.000 73.211,117.000 73.395 M124.000 73.398 C 124.000 73.581,124.148 73.667,124.463 73.667 C 125.680 73.667,125.667 73.607,125.667 79.239 C 125.667 84.809,125.707 84.600,124.598 84.780 C 124.236 84.839,124.000 84.971,124.000 85.115 C 124.000 85.317,124.656 85.346,128.292 85.302 L 132.583 85.250 133.319 84.804 C 135.724 83.346,135.591 80.072,133.094 79.259 C 132.810 79.166,132.845 79.102,133.386 78.717 C 135.079 77.512,134.756 74.817,132.789 73.738 L 131.917 73.260 127.958 73.194 C 124.399 73.135,124.000 73.156,124.000 73.398 M136.667 73.417 C 136.667 73.558,136.816 73.667,137.008 73.667 C 137.465 73.667,138.327 74.125,138.693 74.562 C 138.960 74.882,138.989 75.352,138.994 79.364 C 139.001 84.428,138.967 84.615,138.005 84.769 C 136.395 85.026,137.254 85.333,139.583 85.333 C 141.472 85.333,141.833 85.293,141.833 85.083 C 141.833 84.921,141.671 84.833,141.370 84.833 C 140.186 84.833,140.167 84.762,140.167 80.309 L 140.167 76.303 141.542 77.960 C 142.298 78.871,143.122 79.872,143.372 80.183 C 146.219 83.724,147.817 85.583,148.013 85.583 C 148.212 85.583,148.257 84.685,148.294 79.917 C 148.342 73.603,148.327 73.680,149.542 73.670 C 149.836 73.668,150.000 73.577,150.000 73.417 C 150.000 73.207,149.639 73.167,147.750 73.167 C 145.861 73.167,145.500 73.207,145.500 73.417 C 145.500 73.571,145.657 73.667,145.909 73.667 C 146.134 73.667,146.509 73.754,146.742 73.860 L 147.167 74.054 147.167 77.777 C 147.167 79.825,147.135 81.500,147.097 81.500 C 147.042 81.500,145.110 79.217,143.667 77.447 C 143.529 77.278,143.267 76.961,143.083 76.743 C 142.900 76.525,142.600 76.149,142.417 75.907 C 142.233 75.665,141.933 75.293,141.750 75.079 C 141.567 74.865,141.154 74.350,140.833 73.935 L 140.250 73.179 138.458 73.173 C 136.974 73.168,136.667 73.210,136.667 73.417 M157.000 73.417 C 157.000 73.579,157.163 73.667,157.463 73.667 C 158.680 73.667,158.667 73.606,158.667 79.250 C 158.667 84.894,158.680 84.833,157.463 84.833 C 157.163 84.833,157.000 84.921,157.000 85.083 C 157.000 85.295,157.417 85.333,159.750 85.333 C 161.969 85.333,162.500 85.289,162.500 85.105 C 162.500 84.968,162.240 84.834,161.855 84.773 C 160.857 84.613,160.781 84.420,160.698 81.821 L 160.624 79.500 163.417 79.500 L 166.209 79.500 166.134 81.858 C 166.051 84.474,165.891 84.833,164.815 84.833 C 164.498 84.833,164.333 84.919,164.333 85.083 C 164.333 85.295,164.741 85.333,167.000 85.333 C 169.259 85.333,169.667 85.295,169.667 85.083 C 169.667 84.942,169.518 84.833,169.325 84.833 C 169.137 84.833,168.762 84.719,168.492 84.579 L 168.000 84.325 168.000 79.250 L 168.000 74.175 168.492 73.921 C 168.762 73.781,169.137 73.667,169.325 73.667 C 169.518 73.667,169.667 73.558,169.667 73.417 C 169.667 73.205,169.259 73.167,167.000 73.167 C 164.741 73.167,164.333 73.205,164.333 73.417 C 164.333 73.581,164.498 73.667,164.815 73.667 C 165.869 73.667,166.044 74.039,166.132 76.473 L 166.211 78.667 163.417 78.667 L 160.622 78.667 160.702 76.473 C 160.790 74.039,160.964 73.667,162.018 73.667 C 162.335 73.667,162.500 73.581,162.500 73.417 C 162.500 73.205,162.083 73.167,159.750 73.167 C 157.417 73.167,157.000 73.205,157.000 73.417 M185.500 73.417 C 185.500 73.579,185.663 73.667,185.963 73.667 C 187.180 73.667,187.167 73.607,187.167 79.239 C 187.167 84.809,187.207 84.600,186.098 84.780 C 185.750 84.836,185.500 84.972,185.500 85.105 C 185.500 85.293,186.349 85.333,190.307 85.333 L 195.114 85.333 195.410 84.292 C 195.572 83.719,195.805 82.977,195.927 82.644 C 196.133 82.082,196.104 81.833,195.835 81.833 C 195.711 81.833,194.833 83.133,194.833 83.317 C 194.833 83.995,192.504 84.559,190.469 84.375 C 189.122 84.253,189.142 84.339,189.201 78.892 C 189.256 73.744,189.226 73.861,190.566 73.710 C 191.063 73.654,191.333 73.543,191.333 73.395 C 191.333 73.210,190.775 73.167,188.417 73.167 C 185.935 73.167,185.500 73.204,185.500 73.417 M197.667 73.417 C 197.667 73.579,197.829 73.667,198.130 73.667 C 199.343 73.667,199.333 73.624,199.333 79.104 C 199.333 84.553,199.323 84.611,198.328 84.770 C 197.913 84.837,197.667 84.965,197.667 85.116 C 197.667 85.605,205.359 85.349,206.551 84.820 C 211.982 82.408,210.925 73.994,205.105 73.319 C 202.882 73.061,197.667 73.130,197.667 73.417 M211.667 73.417 C 211.667 73.581,211.831 73.667,212.148 73.667 C 213.360 73.667,213.405 73.826,213.523 78.527 C 213.646 83.445,213.655 83.493,214.610 84.434 C 216.242 86.044,219.925 86.117,221.641 84.575 C 222.871 83.469,223.033 82.757,223.131 78.035 C 223.220 73.742,223.242 73.667,224.370 73.667 C 224.671 73.667,224.833 73.579,224.833 73.417 C 224.833 73.207,224.472 73.167,222.583 73.167 C 220.694 73.167,220.333 73.207,220.333 73.417 C 220.333 73.580,220.496 73.667,220.801 73.667 C 221.899 73.667,221.917 73.735,221.917 77.945 C 221.917 83.710,221.500 84.507,218.472 84.526 C 215.786 84.544,215.598 84.165,215.530 78.589 L 215.476 74.203 215.858 73.935 C 216.069 73.787,216.449 73.667,216.704 73.667 C 217.004 73.667,217.167 73.579,217.167 73.417 C 217.167 73.205,216.750 73.167,214.417 73.167 C 212.083 73.167,211.667 73.205,211.667 73.417 M225.667 73.396 C 225.667 73.522,225.904 73.672,226.194 73.731 C 226.485 73.789,226.972 74.027,227.278 74.260 L 227.833 74.684 227.833 79.565 L 227.833 84.446 227.409 84.640 C 227.175 84.746,226.800 84.833,226.575 84.833 C 226.323 84.833,226.167 84.929,226.167 85.083 C 226.167 85.293,226.528 85.333,228.417 85.333 C 230.746 85.333,231.605 85.026,229.995 84.769 C 229.048 84.617,229.000 84.391,229.000 80.031 L 229.000 76.250 229.667 76.979 C 230.033 77.381,230.333 77.741,230.333 77.779 C 230.333 77.818,230.915 78.545,231.625 79.394 C 232.335 80.242,233.142 81.226,233.417 81.579 C 233.692 81.932,234.085 82.386,234.292 82.588 C 234.498 82.790,234.667 83.013,234.667 83.084 C 234.667 83.218,236.456 85.330,236.740 85.531 C 237.120 85.800,237.167 85.200,237.167 79.983 L 237.167 74.485 237.576 74.076 C 237.831 73.821,238.176 73.667,238.492 73.667 C 238.832 73.667,239.000 73.584,239.000 73.417 C 239.000 73.207,238.639 73.167,236.750 73.167 C 234.861 73.167,234.500 73.207,234.500 73.417 C 234.500 73.581,234.665 73.667,234.982 73.667 C 236.185 73.667,236.243 73.864,236.310 78.186 L 236.370 82.069 234.727 80.065 C 233.823 78.962,232.190 76.959,231.098 75.613 L 229.113 73.167 227.390 73.167 C 226.039 73.167,225.667 73.216,225.667 73.396 M245.833 73.417 C 245.833 73.580,245.997 73.667,246.302 73.667 C 247.397 73.667,247.439 73.835,247.542 78.646 C 247.645 83.466,247.638 83.433,248.881 84.634 C 250.278 85.984,253.964 86.015,255.613 84.690 C 256.954 83.612,257.165 82.703,257.166 77.978 L 257.167 74.205 257.577 73.936 C 257.803 73.788,258.178 73.667,258.411 73.667 C 258.675 73.667,258.833 73.573,258.833 73.417 C 258.833 73.207,258.472 73.167,256.583 73.167 C 254.694 73.167,254.333 73.207,254.333 73.417 C 254.333 73.581,254.498 73.667,254.815 73.667 C 255.954 73.667,256.077 73.988,256.142 77.149 C 256.272 83.500,255.566 84.707,251.838 84.504 C 249.901 84.399,249.597 83.597,249.531 78.419 C 249.472 73.775,249.498 73.667,250.685 73.667 C 251.002 73.667,251.167 73.581,251.167 73.417 C 251.167 73.205,250.759 73.167,248.500 73.167 C 246.241 73.167,245.833 73.205,245.833 73.417 M259.667 73.417 C 259.667 73.558,259.816 73.667,260.008 73.667 C 260.465 73.667,261.327 74.125,261.693 74.562 C 261.991 74.919,262.169 83.105,261.900 84.105 C 261.799 84.481,261.199 84.833,260.659 84.833 C 260.480 84.833,260.333 84.946,260.333 85.083 C 260.333 85.293,260.694 85.333,262.583 85.333 C 264.472 85.333,264.833 85.293,264.833 85.083 C 264.833 84.929,264.677 84.833,264.425 84.833 C 264.200 84.833,263.825 84.746,263.591 84.640 L 263.167 84.446 263.167 80.363 L 263.167 76.279 264.263 77.681 C 264.865 78.452,265.465 79.167,265.596 79.268 C 265.726 79.370,265.833 79.525,265.833 79.613 C 265.833 79.701,266.002 79.932,266.208 80.127 C 266.415 80.321,266.783 80.728,267.026 81.032 C 270.114 84.877,270.836 85.694,271.074 85.614 C 271.192 85.575,271.264 83.687,271.291 79.903 C 271.336 73.605,271.324 73.667,272.518 73.667 C 272.835 73.667,273.000 73.581,273.000 73.417 C 273.000 73.207,272.639 73.167,270.750 73.167 C 268.861 73.167,268.500 73.207,268.500 73.417 C 268.500 73.579,268.663 73.667,268.963 73.667 C 270.137 73.667,270.167 73.771,270.167 77.929 L 270.167 81.672 269.756 81.211 C 269.530 80.958,268.520 79.737,267.513 78.500 C 266.505 77.262,265.547 76.100,265.382 75.917 C 265.218 75.733,264.651 75.040,264.123 74.375 L 263.163 73.167 261.415 73.167 C 259.972 73.167,259.667 73.210,259.667 73.417 M274.500 73.417 C 274.500 73.579,274.663 73.667,274.963 73.667 C 276.180 73.667,276.167 73.607,276.167 79.239 C 276.167 84.809,276.207 84.600,275.098 84.780 C 274.750 84.836,274.500 84.972,274.500 85.105 C 274.500 85.289,275.021 85.333,277.167 85.333 C 279.426 85.333,279.833 85.295,279.833 85.083 C 279.833 84.942,279.684 84.833,279.489 84.833 C 279.097 84.833,278.476 84.539,278.294 84.267 C 278.227 84.166,278.171 81.937,278.169 79.314 C 278.166 73.966,278.229 73.667,279.345 73.667 C 279.668 73.667,279.833 73.582,279.833 73.417 C 279.833 73.205,279.426 73.167,277.167 73.167 C 274.907 73.167,274.500 73.205,274.500 73.417 M281.508 73.375 C 281.512 73.490,281.819 73.733,282.191 73.917 C 282.906 74.270,282.840 74.152,284.542 78.083 C 284.820 78.725,285.215 79.625,285.418 80.083 C 285.622 80.542,285.995 81.404,286.247 82.000 C 286.499 82.596,286.875 83.458,287.082 83.917 C 287.289 84.375,287.544 84.962,287.648 85.220 C 287.954 85.982,288.351 85.723,288.878 84.415 C 289.136 83.774,289.502 82.875,289.692 82.417 C 289.882 81.958,290.208 81.171,290.415 80.667 C 290.623 80.162,290.924 79.450,291.084 79.083 C 291.244 78.717,291.704 77.609,292.105 76.621 C 293.002 74.417,293.101 74.254,293.786 73.886 C 294.815 73.332,294.500 73.167,292.417 73.167 C 290.387 73.167,289.919 73.385,290.994 73.831 C 291.936 74.221,291.887 74.642,290.575 77.462 C 290.351 77.945,290.167 78.419,290.167 78.514 C 290.167 78.610,289.971 79.114,289.733 79.636 C 289.494 80.157,289.151 80.978,288.970 81.460 C 288.675 82.247,288.333 82.500,288.333 81.930 C 288.333 81.744,287.736 80.325,286.923 78.583 C 285.187 74.861,285.033 74.130,285.917 73.811 C 287.185 73.352,286.634 73.167,284.000 73.167 C 282.107 73.167,281.502 73.217,281.508 73.375 M295.833 73.417 C 295.833 73.579,295.996 73.667,296.296 73.667 C 297.511 73.667,297.500 73.620,297.497 79.134 C 297.496 81.856,297.440 84.166,297.372 84.267 C 297.191 84.539,296.570 84.833,296.178 84.833 C 295.981 84.833,295.833 84.942,295.833 85.086 C 295.833 85.307,296.433 85.333,300.601 85.294 L 305.368 85.250 305.854 83.833 C 306.485 81.994,306.474 82.100,306.042 82.034 C 305.804 81.998,305.667 82.062,305.667 82.211 C 305.667 83.472,303.856 84.500,301.633 84.500 C 299.400 84.500,299.500 84.631,299.500 81.701 L 299.500 79.303 301.232 79.360 C 303.131 79.422,303.515 79.629,303.732 80.708 C 303.785 80.968,303.935 81.167,304.079 81.167 C 304.294 81.167,304.333 80.831,304.333 79.000 C 304.333 76.874,304.069 76.038,303.772 77.223 C 303.499 78.310,303.122 78.500,301.238 78.500 L 299.500 78.500 299.500 76.333 L 299.500 74.167 301.738 74.167 C 304.210 74.167,304.538 74.314,304.782 75.537 C 304.844 75.846,304.979 76.000,305.188 76.000 C 305.527 76.000,305.610 75.106,305.393 73.792 L 305.290 73.167 300.562 73.167 C 296.470 73.167,295.833 73.200,295.833 73.417 M308.000 73.417 C 308.000 73.580,308.163 73.667,308.471 73.667 C 309.621 73.667,309.667 73.884,309.664 79.261 C 309.663 81.913,309.606 84.166,309.539 84.267 C 309.357 84.539,308.736 84.833,308.344 84.833 C 308.147 84.833,308.000 84.942,308.000 85.087 C 308.000 85.307,308.372 85.335,310.708 85.296 C 313.379 85.251,314.104 85.074,312.763 84.796 C 311.681 84.571,311.667 84.535,311.667 82.052 L 311.667 79.812 312.196 79.864 C 312.707 79.915,314.292 81.578,314.323 82.096 C 314.329 82.195,314.521 82.451,314.750 82.667 C 314.979 82.882,315.167 83.119,315.167 83.194 C 315.167 83.269,315.510 83.780,315.929 84.331 L 316.691 85.333 318.429 85.333 C 320.415 85.333,320.855 85.012,319.378 84.639 C 318.591 84.441,316.833 82.897,316.833 82.403 C 316.833 82.296,316.729 82.121,316.602 82.016 C 316.367 81.820,314.833 79.597,314.833 79.451 C 314.833 79.407,315.086 79.323,315.395 79.265 C 317.818 78.810,318.341 75.289,316.202 73.824 C 315.237 73.163,308.000 72.803,308.000 73.417 M332.500 73.417 C 332.500 73.577,332.664 73.668,332.958 73.670 C 333.210 73.672,333.604 73.818,333.833 73.994 L 334.250 74.314 334.305 78.449 C 334.384 84.332,334.269 84.833,332.842 84.833 C 332.649 84.833,332.500 84.942,332.500 85.083 C 332.500 85.295,332.907 85.333,335.167 85.333 C 337.426 85.333,337.833 85.295,337.833 85.083 C 337.833 84.942,337.684 84.833,337.489 84.833 C 337.097 84.833,336.476 84.539,336.294 84.267 C 336.227 84.166,336.171 81.893,336.169 79.215 C 336.166 73.795,336.194 73.667,337.365 73.667 C 337.670 73.667,337.833 73.580,337.833 73.417 C 337.833 73.205,337.426 73.167,335.167 73.167 C 332.907 73.167,332.500 73.205,332.500 73.417 M339.833 73.891 C 339.833 74.292,339.786 74.968,339.727 75.393 C 339.593 76.374,340.207 76.591,340.399 75.631 C 340.610 74.577,341.231 74.167,342.615 74.167 L 343.833 74.167 343.833 79.317 L 343.833 84.467 343.308 84.650 C 343.020 84.751,342.645 84.833,342.475 84.833 C 342.305 84.833,342.167 84.946,342.167 85.083 C 342.167 85.295,342.574 85.333,344.833 85.333 C 347.093 85.333,347.500 85.295,347.500 85.083 C 347.500 84.946,347.354 84.833,347.175 84.833 C 345.872 84.833,345.833 84.660,345.833 78.813 L 345.833 74.167 347.100 74.167 C 348.514 74.167,349.182 74.600,349.418 75.671 C 349.672 76.828,350.015 76.225,349.965 74.708 L 349.917 73.250 344.875 73.206 L 339.833 73.162 339.833 73.891 M351.667 73.417 C 351.667 73.585,351.835 73.667,352.178 73.667 C 353.385 73.667,353.333 73.416,353.333 79.240 L 353.333 84.467 352.808 84.650 C 352.520 84.751,352.145 84.833,351.975 84.833 C 351.805 84.833,351.667 84.946,351.667 85.083 C 351.667 85.300,352.313 85.333,356.487 85.333 L 361.307 85.333 361.820 83.739 C 362.425 81.860,362.407 82.000,362.038 82.000 C 361.860 82.000,361.580 82.299,361.330 82.756 C 360.610 84.074,359.925 84.407,357.800 84.473 C 355.388 84.549,355.500 84.682,355.500 81.730 L 355.500 79.333 356.992 79.333 C 358.892 79.333,359.288 79.508,359.525 80.446 C 359.901 81.939,360.167 81.341,360.167 79.000 C 360.167 77.185,360.126 76.833,359.917 76.833 C 359.779 76.833,359.666 76.965,359.666 77.125 C 359.666 77.285,359.517 77.660,359.335 77.958 L 359.005 78.500 357.252 78.500 L 355.500 78.500 355.500 76.329 L 355.500 74.157 357.792 74.204 L 360.083 74.250 360.500 75.124 C 361.116 76.418,361.333 76.277,361.333 74.583 L 361.333 73.167 356.500 73.167 C 352.315 73.167,351.667 73.200,351.667 73.417 M375.167 73.417 C 375.167 73.583,375.333 73.667,375.667 73.667 C 376.810 73.667,376.833 73.779,376.833 79.178 C 376.833 84.547,376.822 84.611,375.828 84.770 C 375.430 84.834,375.167 84.967,375.167 85.105 C 375.167 85.289,375.697 85.333,377.917 85.333 C 380.777 85.333,381.580 85.100,379.961 84.740 C 378.862 84.496,378.839 84.382,378.836 79.317 C 378.833 73.896,378.889 73.677,380.292 73.669 C 380.513 73.668,380.667 73.564,380.667 73.417 C 380.667 73.205,380.250 73.167,377.917 73.167 C 375.583 73.167,375.167 73.205,375.167 73.417 M131.161 74.449 C 132.529 75.334,132.778 76.658,131.801 77.848 C 131.333 78.417,130.256 78.626,128.292 78.530 L 127.667 78.500 127.667 76.345 C 127.667 74.246,127.676 74.188,128.042 74.108 C 128.746 73.953,130.731 74.171,131.161 74.449 M205.416 74.610 C 210.273 77.762,207.202 85.867,201.708 84.395 L 201.333 84.294 201.333 79.241 L 201.333 74.188 201.875 74.111 C 203.110 73.935,204.727 74.163,205.416 74.610 M314.656 74.751 C 316.221 76.301,315.042 78.595,312.507 78.932 L 311.667 79.043 311.667 76.616 C 311.667 73.846,311.598 73.954,313.250 74.107 C 313.918 74.168,314.197 74.296,314.656 74.751 M177.406 76.599 C 177.465 76.836,177.698 77.413,177.924 77.880 C 178.149 78.347,178.333 78.794,178.333 78.873 C 178.333 78.952,178.477 79.312,178.652 79.675 L 178.970 80.333 177.153 80.333 L 175.336 80.333 175.606 79.625 C 175.755 79.235,176.054 78.528,176.272 78.052 C 176.489 77.576,176.667 77.107,176.667 77.008 C 176.667 76.333,177.257 76.006,177.406 76.599 M131.083 79.895 C 133.923 81.228,132.862 84.504,129.592 84.498 C 127.535 84.494,127.667 84.672,127.667 81.897 L 127.667 79.500 128.958 79.502 C 129.964 79.503,130.435 79.590,131.083 79.895 M204.000 89.621 C 203.124 89.955,203.384 91.367,204.387 91.724 C 204.953 91.925,205.833 91.224,205.833 90.571 C 205.833 89.776,204.885 89.285,204.000 89.621 M239.531 89.614 C 239.410 89.662,239.242 89.886,239.156 90.112 C 238.681 91.359,240.152 92.243,241.152 91.311 C 242.130 90.400,240.868 89.079,239.531 89.614 M345.400 89.628 C 344.204 90.426,345.341 92.264,346.609 91.581 C 347.365 91.174,347.449 89.932,346.739 89.663 C 346.235 89.471,345.657 89.456,345.400 89.628 M348.713 89.670 C 347.952 89.977,348.021 91.077,348.832 91.556 C 349.297 91.830,349.369 91.832,349.900 91.580 C 351.454 90.843,350.323 89.023,348.713 89.670 M372.019 89.814 C 371.090 90.743,372.207 92.146,373.419 91.571 C 374.018 91.287,374.230 90.455,373.855 89.862 C 373.593 89.449,372.416 89.418,372.019 89.814 M375.667 89.616 C 374.833 89.914,374.759 91.025,375.541 91.501 C 376.407 92.027,377.333 91.545,377.333 90.567 C 377.333 89.750,376.547 89.301,375.667 89.616 M147.167 92.863 C 144.195 93.983,142.468 97.089,142.993 100.371 C 144.212 108.005,154.441 107.920,155.664 100.265 C 156.472 95.208,151.783 91.123,147.167 92.863 M174.922 92.900 C 168.347 95.494,169.946 105.740,176.963 105.974 C 183.906 106.205,186.179 95.979,179.842 93.019 C 178.509 92.396,176.333 92.344,174.922 92.900 M263.648 93.127 C 263.500 93.470,263.153 94.275,262.876 94.917 C 262.599 95.558,262.183 96.533,261.953 97.083 C 258.966 104.207,258.456 105.167,257.653 105.167 C 257.444 105.167,257.333 105.283,257.333 105.500 C 257.333 105.816,257.444 105.833,259.417 105.833 C 261.389 105.833,261.500 105.816,261.500 105.500 C 261.500 105.258,261.389 105.167,261.095 105.167 C 260.100 105.167,259.994 104.625,260.666 102.976 C 260.941 102.302,261.166 101.731,261.166 101.708 C 261.166 101.685,262.277 101.667,263.635 101.667 L 266.103 101.667 266.362 102.292 C 267.308 104.571,267.279 105.167,266.224 105.167 C 265.944 105.167,265.833 105.261,265.833 105.500 C 265.833 105.820,265.944 105.833,268.512 105.833 C 270.974 105.833,271.187 105.810,271.136 105.542 C 271.105 105.381,270.923 105.227,270.731 105.200 C 269.967 105.090,269.365 104.122,267.936 100.708 C 267.696 100.135,267.316 99.235,267.090 98.708 C 266.865 98.181,266.449 97.188,266.166 96.500 C 265.883 95.813,265.507 94.912,265.331 94.500 C 265.155 94.087,264.900 93.469,264.764 93.125 C 264.438 92.301,264.004 92.302,263.648 93.127 M288.167 92.908 C 285.111 94.507,285.679 97.653,289.417 99.834 C 292.966 101.904,293.453 102.490,292.805 103.913 C 291.811 106.094,288.012 105.099,287.252 102.458 C 287.039 101.718,286.903 101.500,286.655 101.500 C 286.353 101.500,286.333 101.639,286.333 103.750 C 286.333 105.863,286.353 106.000,286.655 106.000 C 286.833 106.000,287.025 105.850,287.083 105.667 C 287.142 105.483,287.280 105.333,287.392 105.333 C 287.504 105.333,288.022 105.483,288.543 105.667 C 294.003 107.586,297.575 101.965,292.749 99.049 C 292.566 98.938,291.854 98.535,291.167 98.153 C 288.406 96.618,287.715 95.777,288.264 94.624 C 289.215 92.631,292.679 93.591,293.343 96.031 C 293.450 96.427,293.565 96.844,293.597 96.958 C 293.630 97.073,293.771 97.167,293.911 97.167 C 294.128 97.167,294.167 96.818,294.167 94.833 C 294.167 92.659,294.145 92.500,293.853 92.500 C 293.679 92.500,293.500 92.649,293.452 92.833 C 293.341 93.257,292.904 93.258,291.977 92.837 C 290.916 92.356,289.159 92.389,288.167 92.908 M117.000 93.083 C 117.000 93.238,117.157 93.333,117.409 93.333 C 117.634 93.333,118.009 93.420,118.242 93.527 L 118.667 93.720 118.667 99.217 C 118.667 105.328,118.700 105.150,117.542 105.161 C 117.113 105.166,117.000 105.236,117.000 105.500 C 117.000 105.826,117.111 105.833,122.076 105.833 L 127.152 105.833 127.267 105.219 C 127.330 104.880,127.559 104.169,127.774 103.639 C 128.320 102.295,127.899 101.590,127.268 102.792 C 126.441 104.366,125.466 104.831,122.984 104.832 C 120.796 104.834,120.833 104.885,120.833 101.862 L 120.833 99.500 122.648 99.500 C 124.715 99.500,125.108 99.672,125.312 100.670 C 125.383 101.020,125.542 101.270,125.715 101.303 C 125.973 101.353,126.000 101.135,126.000 99.000 C 126.000 96.455,125.751 95.925,125.246 97.396 C 124.924 98.335,124.889 98.350,122.771 98.454 L 120.833 98.550 120.833 96.191 L 120.833 93.833 123.183 93.833 L 125.533 93.833 126.006 94.340 C 126.266 94.618,126.503 95.049,126.531 95.297 C 126.562 95.566,126.700 95.769,126.875 95.802 C 127.135 95.852,127.167 95.696,127.167 94.346 L 127.167 92.833 122.083 92.833 C 117.676 92.833,117.000 92.867,117.000 93.083 M128.667 93.083 C 128.667 93.251,128.834 93.333,129.174 93.333 C 129.491 93.333,129.836 93.487,130.091 93.742 L 130.500 94.152 130.500 99.175 C 130.500 104.966,130.460 105.167,129.297 105.167 C 128.778 105.167,128.667 105.225,128.667 105.500 C 128.667 105.820,128.778 105.833,131.500 105.833 C 134.222 105.833,134.333 105.820,134.333 105.500 C 134.333 105.233,134.222 105.167,133.779 105.167 C 132.657 105.167,132.484 104.729,132.537 102.021 L 132.583 99.657 134.958 101.993 C 137.476 104.470,137.750 104.925,136.833 105.108 C 136.491 105.177,136.333 105.307,136.333 105.521 C 136.333 105.815,136.515 105.833,139.500 105.833 C 142.482 105.833,142.667 105.815,142.667 105.522 C 142.667 105.296,142.509 105.185,142.092 105.117 C 141.151 104.964,139.735 103.846,137.009 101.104 L 134.435 98.514 136.667 96.327 C 138.735 94.300,140.052 93.333,140.744 93.333 C 140.885 93.333,141.000 93.221,141.000 93.083 C 141.000 92.872,140.611 92.833,138.500 92.833 C 136.389 92.833,136.000 92.872,136.000 93.083 C 136.000 93.231,136.154 93.334,136.375 93.336 C 137.906 93.346,137.307 94.265,133.333 98.004 L 132.583 98.709 132.535 96.396 C 132.481 93.810,132.685 93.333,133.843 93.333 C 134.168 93.333,134.333 93.249,134.333 93.083 C 134.333 92.871,133.907 92.833,131.500 92.833 C 129.093 92.833,128.667 92.871,128.667 93.083 M155.874 93.037 C 155.911 93.150,156.189 93.292,156.492 93.354 C 156.795 93.416,157.351 93.684,157.729 93.949 L 158.417 94.432 158.463 99.175 C 158.521 105.016,158.490 105.167,157.238 105.167 C 156.778 105.167,156.667 105.231,156.667 105.500 C 156.667 105.817,156.778 105.833,159.000 105.833 C 161.222 105.833,161.333 105.817,161.333 105.500 C 161.333 105.234,161.222 105.167,160.782 105.167 C 159.580 105.167,159.589 105.202,159.534 100.324 L 159.484 95.954 159.867 96.407 C 160.078 96.657,160.400 97.034,160.583 97.246 C 160.767 97.458,161.142 97.916,161.417 98.265 C 161.692 98.614,162.668 99.804,163.586 100.908 C 164.505 102.013,165.805 103.610,166.476 104.458 C 168.419 106.913,168.333 107.117,168.333 100.031 C 168.333 93.367,168.339 93.333,169.506 93.333 C 169.834 93.333,170.000 93.249,170.000 93.083 C 170.000 92.873,169.639 92.833,167.750 92.833 C 165.861 92.833,165.500 92.873,165.500 93.083 C 165.500 93.246,165.663 93.333,165.963 93.333 C 167.149 93.333,167.167 93.401,167.162 97.884 L 167.157 101.917 166.703 101.405 C 166.454 101.124,166.025 100.606,165.750 100.253 C 165.475 99.901,165.081 99.448,164.875 99.246 C 164.669 99.044,164.500 98.810,164.500 98.726 C 164.500 98.643,164.369 98.458,164.208 98.315 C 164.048 98.173,163.692 97.767,163.417 97.413 C 162.661 96.441,160.871 94.294,160.497 93.911 C 160.315 93.724,160.167 93.508,160.167 93.429 C 160.167 93.351,160.035 93.187,159.875 93.065 C 159.476 92.763,155.773 92.737,155.874 93.037 M184.500 93.063 C 184.500 93.189,184.739 93.339,185.031 93.398 C 186.199 93.631,186.167 93.462,186.167 99.350 C 186.167 105.258,186.185 105.167,184.963 105.167 C 184.611 105.167,184.500 105.247,184.500 105.500 C 184.500 105.817,184.611 105.833,186.750 105.833 C 188.889 105.833,189.000 105.817,189.000 105.500 C 189.000 105.233,188.889 105.167,188.442 105.167 C 187.290 105.167,187.256 105.026,187.200 99.947 C 187.173 97.462,187.190 95.468,187.239 95.517 C 187.287 95.565,188.365 97.887,189.633 100.677 C 190.983 103.645,192.042 105.770,192.186 105.797 C 192.359 105.831,192.824 104.984,193.741 102.964 C 195.149 99.867,196.320 97.321,196.829 96.250 L 197.146 95.583 197.156 100.005 C 197.168 104.999,197.145 105.107,196.039 105.198 C 195.620 105.233,195.417 105.332,195.417 105.500 C 195.417 105.710,195.858 105.757,198.208 105.796 C 200.915 105.840,201.000 105.831,201.000 105.504 C 201.000 105.235,200.890 105.166,200.458 105.164 C 199.203 105.158,199.167 104.992,199.167 99.170 L 199.167 94.152 199.576 93.742 C 199.831 93.487,200.176 93.333,200.492 93.333 C 200.832 93.333,201.000 93.251,201.000 93.083 C 201.000 92.876,200.678 92.833,199.098 92.833 L 197.196 92.833 196.830 93.625 C 196.628 94.060,196.289 94.792,196.075 95.250 C 195.260 97.003,194.820 97.959,194.273 99.167 C 193.962 99.854,193.490 100.886,193.226 101.460 L 192.744 102.503 192.478 101.960 C 192.332 101.661,192.022 101.004,191.791 100.500 C 191.559 99.996,191.000 98.796,190.549 97.833 C 190.098 96.871,189.397 95.352,188.992 94.458 L 188.256 92.833 186.378 92.833 C 184.896 92.833,184.500 92.882,184.500 93.063 M201.667 93.083 C 201.667 93.247,201.831 93.333,202.144 93.333 C 202.407 93.333,202.819 93.489,203.061 93.679 L 203.500 94.024 203.500 99.262 C 203.500 105.168,203.500 105.167,202.250 105.167 C 201.776 105.167,201.667 105.230,201.667 105.504 C 201.667 105.831,201.752 105.840,204.542 105.796 C 206.966 105.757,207.417 105.711,207.417 105.500 C 207.417 105.333,207.216 105.233,206.809 105.199 C 205.579 105.097,205.583 105.119,205.583 99.238 C 205.583 93.395,205.553 93.547,206.767 93.350 C 208.489 93.070,207.494 92.833,204.597 92.833 C 202.103 92.833,201.667 92.871,201.667 93.083 M226.333 93.083 C 226.333 93.237,226.490 93.333,226.739 93.333 C 228.266 93.333,228.371 93.758,228.303 99.652 C 228.242 104.920,228.201 105.103,227.045 105.198 C 226.621 105.233,226.417 105.331,226.417 105.500 C 226.417 105.711,226.869 105.757,229.305 105.796 C 231.985 105.838,232.189 105.820,232.136 105.548 C 232.099 105.356,231.868 105.221,231.465 105.155 C 230.355 104.975,230.333 104.917,230.333 102.063 L 230.333 99.500 231.625 99.502 C 233.283 99.506,233.704 99.713,233.907 100.627 C 234.021 101.139,234.147 101.333,234.365 101.333 C 234.642 101.333,234.667 101.140,234.667 99.000 C 234.667 96.814,234.647 96.667,234.348 96.667 C 234.107 96.667,234.002 96.827,233.918 97.324 C 233.765 98.234,233.570 98.340,231.846 98.451 L 230.333 98.549 230.333 96.191 L 230.333 93.833 232.261 93.833 C 234.637 93.833,235.319 94.152,235.566 95.375 C 235.630 95.694,235.761 95.833,235.996 95.833 C 236.340 95.833,236.513 93.830,236.232 93.097 C 236.083 92.708,226.333 92.694,226.333 93.083 M237.333 93.062 C 237.333 93.194,237.584 93.330,237.932 93.387 C 239.045 93.567,239.000 93.321,239.000 99.294 C 239.000 105.319,239.032 105.150,237.875 105.161 C 237.446 105.166,237.333 105.236,237.333 105.500 C 237.333 105.820,237.444 105.833,240.167 105.833 C 242.889 105.833,243.000 105.820,243.000 105.500 C 243.000 105.236,242.888 105.166,242.458 105.164 C 241.208 105.158,241.167 104.972,241.167 99.369 C 241.167 94.290,241.250 93.606,241.885 93.436 C 243.011 93.134,244.275 93.438,245.125 94.215 C 245.498 94.556,245.500 94.588,245.500 99.492 C 245.500 105.118,245.490 105.167,244.324 105.167 C 243.775 105.167,243.667 105.222,243.667 105.505 C 243.667 105.830,243.752 105.841,246.042 105.796 C 248.021 105.758,248.417 105.708,248.417 105.500 C 248.417 105.332,248.213 105.233,247.794 105.198 C 246.698 105.108,246.667 104.971,246.667 100.269 L 246.667 96.113 247.147 96.681 C 248.443 98.217,250.460 100.665,252.338 102.981 C 253.481 104.391,254.500 105.647,254.602 105.772 C 255.293 106.623,255.333 106.307,255.333 100.012 L 255.333 94.024 255.772 93.679 C 256.014 93.489,256.427 93.333,256.689 93.333 C 257.002 93.333,257.167 93.247,257.167 93.083 C 257.167 92.873,256.796 92.833,254.833 92.833 C 252.870 92.833,252.500 92.873,252.500 93.083 C 252.500 93.246,252.663 93.333,252.963 93.333 C 254.254 93.333,254.363 93.755,254.299 98.492 L 254.250 102.068 251.917 99.180 C 250.633 97.592,249.051 95.634,248.401 94.827 C 247.751 94.021,247.100 93.243,246.955 93.098 C 246.585 92.728,237.333 92.694,237.333 93.062 M270.833 93.062 C 270.833 93.197,271.089 93.332,271.458 93.391 C 271.802 93.447,272.365 93.724,272.708 94.008 L 273.333 94.524 273.333 99.475 C 273.333 105.052,273.323 105.106,272.206 105.198 C 271.787 105.233,271.583 105.332,271.583 105.500 C 271.583 105.708,271.970 105.758,273.875 105.796 C 276.081 105.841,276.167 105.830,276.167 105.505 C 276.167 105.232,276.058 105.167,275.609 105.167 C 274.513 105.167,274.489 105.057,274.539 100.317 L 274.583 96.083 276.186 98.083 C 278.918 101.493,281.206 104.247,281.356 104.306 C 281.435 104.336,281.500 104.463,281.500 104.588 C 281.500 104.712,281.638 104.912,281.807 105.032 C 281.976 105.152,282.203 105.419,282.313 105.625 C 282.422 105.831,282.659 106.000,282.839 106.000 C 283.159 106.000,283.167 105.854,283.167 100.076 L 283.167 94.152 283.576 93.742 C 283.831 93.487,284.176 93.333,284.492 93.333 C 284.832 93.333,285.000 93.251,285.000 93.083 C 285.000 92.873,284.630 92.833,282.667 92.833 C 280.704 92.833,280.333 92.873,280.333 93.083 C 280.333 93.251,280.501 93.333,280.841 93.333 C 281.158 93.333,281.502 93.487,281.758 93.742 L 282.167 94.152 282.167 97.987 C 282.167 102.461,282.292 102.322,280.395 99.947 C 279.649 99.014,278.052 97.031,276.846 95.542 L 274.652 92.833 272.743 92.833 C 271.236 92.833,270.833 92.882,270.833 93.062 M301.000 93.062 C 301.000 93.199,301.260 93.332,301.645 93.394 C 302.769 93.574,302.750 93.471,302.750 99.258 C 302.750 105.112,302.739 105.167,301.558 105.167 C 301.111 105.167,301.000 105.233,301.000 105.500 C 301.000 105.820,301.111 105.833,303.750 105.833 C 306.389 105.833,306.500 105.820,306.500 105.500 C 306.500 105.241,306.389 105.167,306.000 105.167 C 304.985 105.167,304.833 104.778,304.833 102.167 C 304.833 100.883,304.874 99.833,304.924 99.833 C 305.031 99.833,309.169 103.950,309.488 104.375 C 309.755 104.730,309.475 105.167,308.980 105.167 C 308.778 105.167,308.667 105.285,308.667 105.500 C 308.667 105.822,308.778 105.833,311.833 105.833 C 314.889 105.833,315.000 105.822,315.000 105.500 C 315.000 105.261,314.889 105.167,314.606 105.167 C 313.682 105.167,306.820 99.288,306.835 98.510 C 306.849 97.815,312.232 93.333,313.053 93.333 C 313.207 93.333,313.333 93.221,313.333 93.083 C 313.333 92.872,312.944 92.833,310.833 92.833 C 308.722 92.833,308.333 92.872,308.333 93.083 C 308.333 93.235,308.488 93.333,308.730 93.333 C 309.979 93.333,309.631 94.051,307.250 96.394 C 304.655 98.946,304.833 98.955,304.833 96.268 C 304.833 93.812,305.041 93.333,306.106 93.333 C 306.345 93.333,306.500 93.235,306.500 93.083 C 306.500 92.871,306.083 92.833,303.750 92.833 C 301.531 92.833,301.000 92.877,301.000 93.062 M314.541 93.041 C 314.580 93.155,314.891 93.294,315.233 93.350 C 316.416 93.542,316.405 93.499,316.519 98.464 C 316.643 103.885,316.792 104.392,318.583 105.503 C 319.455 106.044,322.871 106.215,323.842 105.767 C 326.305 104.628,326.667 103.599,326.667 97.728 C 326.667 93.707,326.779 93.333,327.992 93.333 C 328.332 93.333,328.500 93.251,328.500 93.083 C 328.500 92.873,328.130 92.833,326.167 92.833 C 324.204 92.833,323.833 92.873,323.833 93.083 C 323.833 93.248,323.998 93.333,324.315 93.333 C 325.491 93.333,325.577 93.594,325.638 97.321 C 325.736 103.389,324.935 104.968,321.747 104.993 C 319.101 105.014,318.667 104.073,318.667 98.317 C 318.667 93.348,318.670 93.333,319.870 93.333 C 320.171 93.333,320.333 93.246,320.333 93.083 C 320.333 92.871,319.897 92.833,317.403 92.833 C 315.137 92.833,314.488 92.880,314.541 93.041 M328.833 93.083 C 328.833 93.247,328.998 93.333,329.311 93.333 C 329.573 93.333,329.986 93.489,330.228 93.679 L 330.667 94.024 330.667 99.262 C 330.667 105.168,330.667 105.167,329.417 105.167 C 328.944 105.167,328.833 105.230,328.833 105.500 C 328.833 105.826,328.944 105.833,333.910 105.833 L 338.987 105.833 339.178 105.125 C 339.283 104.735,339.549 103.906,339.768 103.282 C 340.329 101.686,339.936 101.334,339.182 102.756 C 338.309 104.400,337.524 104.728,334.671 104.635 C 332.527 104.565,332.651 104.923,332.706 98.963 C 332.756 93.474,332.737 93.545,334.231 93.377 C 334.729 93.321,335.000 93.209,335.000 93.062 C 335.000 92.877,334.416 92.833,331.917 92.833 C 329.287 92.833,328.833 92.870,328.833 93.083 M340.333 93.083 C 340.333 93.248,340.498 93.333,340.815 93.333 C 342.040 93.333,342.073 93.459,342.171 98.443 C 342.299 104.976,342.993 106.000,347.295 106.000 C 351.533 106.000,352.333 104.764,352.333 98.212 L 352.333 94.151 352.774 93.742 C 353.028 93.507,353.417 93.333,353.691 93.333 C 354.003 93.333,354.167 93.247,354.167 93.083 C 354.167 92.873,353.796 92.833,351.833 92.833 C 349.870 92.833,349.500 92.873,349.500 93.083 C 349.500 93.248,349.665 93.333,349.982 93.333 C 350.246 93.333,350.640 93.477,350.857 93.652 L 351.250 93.971 351.250 98.027 C 351.250 103.754,350.779 104.684,347.741 104.952 C 344.899 105.202,344.333 104.032,344.333 97.908 C 344.333 93.492,344.377 93.333,345.583 93.333 C 345.991 93.333,346.167 93.258,346.167 93.083 C 346.167 92.871,345.731 92.833,343.250 92.833 C 340.769 92.833,340.333 92.871,340.333 93.083 M354.500 93.083 C 354.500 93.251,354.668 93.333,355.008 93.333 C 355.324 93.333,355.669 93.487,355.924 93.742 L 356.333 94.152 356.333 99.220 C 356.333 104.981,356.294 105.167,355.071 105.167 C 354.604 105.167,354.500 105.230,354.500 105.512 C 354.500 106.014,362.606 105.941,363.833 105.428 C 366.663 104.246,367.091 100.653,364.551 99.397 L 363.899 99.074 364.525 98.579 C 366.304 97.171,365.649 93.696,363.518 93.234 C 363.279 93.182,362.866 93.070,362.600 92.986 C 361.712 92.705,354.500 92.792,354.500 93.083 M367.167 93.083 C 367.167 93.248,367.331 93.333,367.648 93.333 C 368.877 93.333,368.907 93.448,369.002 98.527 C 369.075 102.389,369.131 103.163,369.371 103.605 C 371.160 106.899,376.925 107.009,378.627 103.781 L 379.083 102.917 379.137 98.461 L 379.191 94.005 379.618 93.669 C 379.853 93.485,380.260 93.333,380.522 93.333 C 380.836 93.333,381.000 93.247,381.000 93.083 C 381.000 92.873,380.620 92.833,378.583 92.833 C 376.546 92.833,376.167 92.873,376.167 93.083 C 376.167 93.258,376.343 93.333,376.750 93.333 C 377.997 93.333,378.027 93.455,377.969 98.302 C 377.901 103.900,377.482 104.721,374.576 104.958 C 371.718 105.191,371.009 103.776,371.004 97.833 C 371.001 93.899,371.188 93.333,372.489 93.333 C 372.832 93.333,373.000 93.251,373.000 93.083 C 373.000 92.871,372.565 92.833,370.083 92.833 C 367.602 92.833,367.167 92.871,367.167 93.083 M150.914 93.786 C 153.600 95.141,154.256 101.475,151.965 103.933 C 150.080 105.955,147.474 105.475,146.125 102.856 L 145.500 101.644 145.500 99.239 C 145.500 94.606,147.850 92.239,150.914 93.786 M178.833 93.837 C 181.486 95.188,182.081 101.742,179.760 104.034 C 178.691 105.089,177.060 105.448,175.878 104.887 C 175.236 104.583,174.000 103.386,174.000 103.069 C 174.000 102.960,173.889 102.658,173.754 102.397 C 172.690 100.347,173.159 96.098,174.620 94.537 C 175.726 93.355,177.356 93.085,178.833 93.837 M361.004 93.834 C 362.867 94.187,363.852 95.668,363.167 97.083 C 362.616 98.220,362.236 98.400,360.220 98.474 L 358.500 98.538 358.500 96.197 L 358.500 93.855 358.958 93.786 C 359.802 93.658,360.116 93.666,361.004 93.834 M264.622 98.083 C 264.851 98.633,265.178 99.402,265.350 99.792 L 265.662 100.500 263.674 100.500 L 261.685 100.500 262.107 99.542 C 262.339 99.015,262.632 98.358,262.758 98.083 C 262.884 97.808,263.148 97.208,263.343 96.750 L 263.699 95.917 263.953 96.500 C 264.092 96.821,264.393 97.533,264.622 98.083 M210.333 98.969 C 210.333 99.043,210.558 99.270,210.833 99.474 C 211.108 99.677,211.333 99.952,211.333 100.085 C 211.333 100.217,211.532 100.759,211.775 101.288 C 212.017 101.817,212.381 102.625,212.582 103.083 C 213.997 106.307,214.025 106.344,214.403 105.458 C 214.530 105.160,214.866 104.386,215.150 103.737 C 215.434 103.088,215.667 102.502,215.667 102.434 C 215.667 102.367,215.854 101.902,216.083 101.401 C 216.313 100.900,216.500 100.394,216.500 100.276 C 216.500 100.159,216.725 99.847,217.000 99.583 C 217.702 98.911,217.642 98.833,216.417 98.833 C 215.336 98.833,214.864 99.172,215.656 99.379 C 216.020 99.474,215.889 100.137,215.202 101.667 C 215.017 102.079,214.730 102.744,214.565 103.145 L 214.265 103.873 214.053 103.395 C 213.937 103.132,213.529 102.170,213.147 101.258 L 212.453 99.600 212.810 99.363 C 213.434 98.949,213.203 98.833,211.750 98.833 C 210.971 98.833,210.333 98.894,210.333 98.969 M217.667 98.982 C 217.667 99.064,217.845 99.175,218.062 99.230 C 218.998 99.465,218.942 105.333,218.004 105.333 C 217.813 105.333,217.667 105.443,217.667 105.587 C 217.667 105.807,218.039 105.835,220.375 105.796 L 223.083 105.750 223.302 104.857 C 223.540 103.880,223.443 103.563,223.063 104.084 C 222.302 105.127,222.226 105.167,221.001 105.167 L 219.833 105.167 219.833 103.833 L 219.833 102.500 220.838 102.500 C 221.823 102.500,221.844 102.510,221.943 103.007 C 222.127 103.928,222.415 103.435,222.465 102.112 C 222.506 101.050,222.470 100.833,222.257 100.833 C 222.116 100.833,222.000 100.968,222.000 101.133 C 222.000 101.637,221.641 101.833,220.717 101.833 L 219.833 101.833 219.833 100.659 L 219.833 99.485 221.042 99.534 C 222.229 99.582,222.254 99.593,222.490 100.128 C 222.897 101.053,223.308 100.554,223.091 99.400 L 222.985 98.833 220.326 98.833 C 218.863 98.833,217.667 98.900,217.667 98.982 M361.881 99.873 C 363.526 100.351,364.271 102.547,363.202 103.763 C 362.408 104.666,360.690 105.063,359.021 104.729 L 358.500 104.625 358.500 102.157 L 358.500 99.689 358.958 99.613 C 359.572 99.511,361.101 99.647,361.881 99.873 " stroke="none" fill="#000000" fill-rule="evenodd"></path><path id="path1" d="M91.698 71.025 C 91.511 71.546,90.526 76.469,89.984 79.583 C 89.889 80.133,89.734 80.921,89.640 81.333 C 89.364 82.547,89.332 82.717,89.248 83.417 C 89.204 83.783,89.021 84.796,88.842 85.667 C 88.663 86.537,88.436 87.925,88.338 88.750 C 88.241 89.575,88.071 90.648,87.962 91.135 C 87.665 92.458,88.124 92.653,89.765 91.903 C 92.696 90.562,92.574 90.381,92.619 96.151 C 92.657 101.038,92.289 104.277,91.360 107.234 C 91.184 107.793,90.988 108.475,90.924 108.750 C 90.860 109.025,90.704 109.475,90.578 109.750 C 90.452 110.025,90.240 110.550,90.107 110.917 C 89.714 112.005,89.074 113.460,88.884 113.696 C 88.787 113.818,88.651 114.104,88.581 114.333 C 88.512 114.563,88.409 114.787,88.353 114.833 C 88.215 114.945,87.877 115.488,87.627 116.000 C 87.515 116.229,87.377 116.454,87.320 116.500 C 87.264 116.546,86.888 117.108,86.487 117.750 C 83.896 121.888,77.952 127.433,73.583 129.788 C 70.277 131.571,65.205 133.521,63.333 133.728 C 63.012 133.764,62.551 133.872,62.309 133.969 C 62.066 134.066,61.828 134.105,61.779 134.057 C 61.730 134.008,61.141 134.095,60.470 134.249 C 58.993 134.590,51.735 134.661,50.067 134.350 C 49.508 134.246,48.690 134.125,48.250 134.080 C 47.810 134.036,47.367 133.932,47.267 133.851 C 47.166 133.769,46.746 133.666,46.333 133.622 C 45.921 133.577,45.246 133.409,44.833 133.247 C 44.421 133.085,43.783 132.899,43.417 132.833 C 43.050 132.767,42.525 132.660,42.250 132.596 L 41.750 132.478 42.231 132.888 C 43.477 133.951,50.164 135.820,53.833 136.130 C 57.587 136.448,64.088 136.199,65.917 135.667 C 66.192 135.587,66.867 135.438,67.417 135.335 C 70.999 134.663,78.416 131.608,79.783 130.240 C 79.916 130.108,80.131 130.000,80.262 130.000 C 80.393 130.000,80.500 129.939,80.500 129.864 C 80.500 129.789,80.785 129.568,81.134 129.372 C 81.482 129.176,81.906 128.862,82.076 128.675 C 82.246 128.487,82.459 128.333,82.548 128.333 C 82.638 128.333,82.886 128.146,83.098 127.917 C 83.310 127.688,83.530 127.500,83.585 127.500 C 83.846 127.500,87.044 124.353,88.531 122.633 C 89.018 122.069,89.548 121.471,89.708 121.304 C 89.869 121.137,90.000 120.929,90.000 120.842 C 90.000 120.755,90.099 120.623,90.220 120.550 C 90.414 120.432,91.287 119.275,91.750 118.522 C 91.842 118.373,92.067 118.026,92.250 117.751 C 92.433 117.476,92.724 116.989,92.896 116.667 C 93.068 116.346,93.255 116.046,93.313 116.000 C 93.443 115.895,94.648 113.461,95.332 111.918 C 95.868 110.710,96.775 108.120,96.896 107.451 C 96.934 107.241,97.118 106.547,97.305 105.909 C 97.492 105.272,97.687 104.412,97.739 104.000 C 97.791 103.587,97.943 102.462,98.078 101.500 C 98.447 98.869,98.565 95.466,98.340 93.917 C 97.780 90.065,97.797 90.047,101.327 90.505 C 103.305 90.762,103.576 90.470,102.713 89.015 C 102.065 87.921,101.798 87.444,100.511 85.083 C 100.211 84.533,99.861 83.965,99.733 83.820 C 99.605 83.675,99.500 83.508,99.500 83.447 C 99.500 83.349,98.550 81.606,97.605 79.969 C 97.410 79.631,96.852 78.639,96.366 77.765 C 95.880 76.891,95.411 76.131,95.324 76.078 C 95.238 76.024,95.167 75.841,95.167 75.671 C 95.167 75.500,95.101 75.336,95.021 75.306 C 94.941 75.275,94.640 74.800,94.353 74.250 C 94.066 73.700,93.738 73.103,93.624 72.923 C 92.963 71.879,92.667 71.311,92.667 71.087 C 92.667 70.947,92.598 70.833,92.514 70.833 C 92.429 70.833,92.243 70.788,92.099 70.733 C 91.924 70.666,91.792 70.761,91.698 71.025 M26.829 70.958 C 26.826 71.027,26.470 71.471,26.037 71.944 C 24.833 73.261,22.048 77.304,21.649 78.313 C 21.562 78.532,21.344 78.918,21.163 79.172 C 20.981 79.427,20.833 79.713,20.833 79.808 C 20.833 79.903,20.665 80.266,20.458 80.614 C 20.252 80.962,19.999 81.473,19.896 81.749 C 19.794 82.024,19.442 82.962,19.115 83.833 C 18.369 85.821,17.550 88.803,17.426 89.985 C 17.374 90.482,17.254 91.371,17.159 91.963 C 16.963 93.192,16.967 98.171,17.165 99.417 C 17.238 99.875,17.343 100.717,17.398 101.287 C 17.453 101.858,17.660 102.908,17.857 103.621 C 18.054 104.333,18.234 105.067,18.257 105.250 C 18.369 106.151,19.884 110.193,20.975 112.500 C 22.380 115.472,24.759 119.097,26.334 120.666 C 26.473 120.804,26.961 121.334,27.420 121.845 C 28.923 123.518,32.160 126.174,34.400 127.572 C 35.564 128.299,39.160 130.167,39.396 130.167 C 39.455 130.167,39.822 130.307,40.210 130.480 C 41.231 130.932,42.942 131.504,44.000 131.748 C 44.504 131.864,45.329 132.077,45.833 132.221 C 48.199 132.899,54.532 133.300,57.500 132.959 C 58.096 132.890,59.033 132.792,59.583 132.740 C 61.561 132.555,66.125 131.342,68.167 130.461 C 70.315 129.534,71.305 129.062,71.830 128.716 C 72.150 128.505,72.474 128.333,72.550 128.333 C 72.627 128.333,73.017 128.108,73.417 127.833 C 73.816 127.558,74.195 127.333,74.257 127.333 C 74.423 127.333,76.160 126.070,77.549 124.938 C 79.630 123.243,84.000 118.672,84.000 118.190 C 84.000 118.101,84.064 118.003,84.142 117.972 C 84.305 117.908,86.138 115.162,86.580 114.319 C 89.257 109.212,90.488 105.365,91.082 100.250 C 91.231 98.967,91.376 97.745,91.404 97.535 C 91.433 97.325,91.379 97.179,91.284 97.211 C 91.190 97.242,91.092 97.414,91.066 97.592 C 90.380 102.422,87.885 109.151,85.605 112.326 C 85.272 112.789,85.000 113.205,85.000 113.252 C 85.000 113.368,84.104 114.594,83.363 115.493 C 82.055 117.079,80.838 118.350,79.000 120.052 C 77.732 121.225,74.542 123.427,72.917 124.251 C 72.458 124.483,71.971 124.742,71.833 124.826 C 71.144 125.247,68.451 126.295,66.083 127.063 C 60.415 128.903,51.859 128.969,46.500 127.216 C 45.813 126.991,45.072 126.772,44.855 126.730 C 44.637 126.687,44.172 126.506,43.820 126.326 C 43.468 126.147,43.099 126.000,43.000 126.000 C 42.698 126.000,38.974 124.087,37.932 123.397 C 37.395 123.041,36.838 122.675,36.694 122.583 C 34.176 120.975,30.375 117.460,28.601 115.098 C 27.556 113.705,26.000 111.405,26.000 111.251 C 26.000 111.192,25.784 110.830,25.521 110.447 C 25.257 110.064,25.033 109.693,25.022 109.624 C 25.011 109.555,24.696 108.843,24.322 108.041 C 23.434 106.142,23.429 106.128,22.952 104.667 C 21.830 101.224,21.251 97.542,21.251 93.833 C 21.250 91.554,21.292 90.946,21.646 88.083 C 21.888 86.120,22.985 82.151,23.776 80.370 C 23.991 79.887,24.167 79.420,24.167 79.333 C 24.167 78.827,26.559 74.689,27.014 74.408 C 27.226 74.277,27.212 70.833,27.000 70.833 C 26.908 70.833,26.831 70.890,26.829 70.958 M80.034 72.513 C 79.721 73.078,77.560 76.435,77.319 76.731 C 77.236 76.833,76.457 77.817,75.588 78.917 C 74.126 80.766,71.808 83.184,70.000 84.745 C 69.587 85.101,69.159 85.548,69.048 85.738 C 68.892 86.003,68.844 90.068,68.839 103.130 C 68.833 121.693,68.861 121.141,67.914 121.501 C 67.206 121.770,66.837 121.696,66.321 121.179 L 65.833 120.692 65.833 104.513 C 65.833 86.257,65.979 87.895,64.445 88.894 C 61.704 90.679,58.858 92.148,56.469 93.011 C 54.820 93.607,54.369 93.885,54.159 94.436 C 54.063 94.690,54.000 100.135,54.000 108.236 C 54.000 121.910,53.976 122.469,53.364 122.958 C 52.969 123.273,51.927 123.213,51.477 122.848 L 51.083 122.530 51.037 108.765 C 50.984 93.048,51.193 94.674,49.321 95.435 C 42.330 98.275,39.428 102.814,39.191 111.274 C 39.073 115.512,39.026 115.691,37.995 115.918 C 37.016 116.133,35.447 114.679,32.738 111.047 C 31.466 109.340,29.924 106.404,29.039 104.000 C 27.498 99.815,27.312 98.098,27.187 86.917 C 27.088 77.984,27.071 77.608,26.801 78.167 C 26.645 78.487,26.414 78.938,26.287 79.167 C 22.228 86.494,21.686 95.880,24.786 105.167 C 25.379 106.943,27.097 110.614,27.600 111.180 C 27.728 111.325,27.833 111.502,27.833 111.575 C 27.833 111.719,29.979 114.573,30.764 115.473 C 31.323 116.114,33.052 117.802,33.667 118.306 C 33.896 118.494,34.346 118.864,34.667 119.127 C 34.987 119.390,35.737 119.938,36.333 120.345 C 36.929 120.751,37.454 121.121,37.500 121.167 C 38.583 122.249,46.105 125.299,49.583 126.065 C 55.092 127.279,62.031 126.656,67.000 124.501 C 67.596 124.243,68.252 123.982,68.458 123.921 C 68.665 123.860,69.434 123.478,70.169 123.072 C 70.904 122.666,71.537 122.333,71.576 122.333 C 71.716 122.333,73.918 120.919,73.972 120.794 C 74.003 120.724,74.108 120.667,74.205 120.667 C 74.303 120.667,74.709 120.399,75.108 120.072 C 75.507 119.745,75.834 119.539,75.836 119.614 C 75.837 119.689,75.894 119.665,75.961 119.561 C 76.028 119.456,76.686 118.925,77.422 118.380 C 79.274 117.009,81.091 115.191,80.851 114.951 C 80.718 114.818,80.667 108.797,80.667 93.383 C 80.667 71.466,80.664 71.375,80.034 72.513 " stroke="none" fill="#54bccc" fill-rule="evenodd"></path><path id="path2" d="M56.348 34.320 C 56.219 34.402,56.013 34.431,55.890 34.383 C 55.767 34.336,55.535 34.351,55.375 34.417 C 55.215 34.483,54.858 34.554,54.583 34.576 C 53.920 34.627,51.159 35.826,51.051 36.109 C 51.004 36.231,50.907 36.295,50.835 36.251 C 50.547 36.073,48.488 37.940,47.465 39.309 C 46.674 40.366,46.477 41.270,46.944 41.698 C 47.322 42.045,51.222 45.952,51.672 46.434 C 51.853 46.627,52.000 46.867,52.000 46.968 C 52.000 47.068,52.103 47.210,52.229 47.283 C 52.356 47.357,52.819 47.979,53.259 48.667 C 53.699 49.354,54.118 49.957,54.190 50.006 C 54.262 50.055,54.444 50.391,54.595 50.753 C 54.747 51.115,55.012 51.591,55.185 51.811 C 55.358 52.031,55.500 52.337,55.500 52.490 C 55.500 52.643,55.712 53.103,55.971 53.511 C 56.231 53.920,56.416 54.336,56.382 54.436 C 56.349 54.535,56.526 55.022,56.775 55.517 C 57.025 56.012,57.246 56.578,57.268 56.774 C 57.289 56.971,57.441 57.384,57.604 57.691 C 57.768 57.998,57.886 58.306,57.868 58.375 C 57.849 58.444,57.872 58.500,57.919 58.500 C 58.059 58.500,58.833 56.651,58.833 56.316 C 58.833 56.018,59.182 55.186,60.188 53.083 C 60.451 52.533,60.667 51.990,60.667 51.875 C 60.667 51.760,60.728 51.667,60.804 51.667 C 60.879 51.667,61.119 51.310,61.336 50.875 C 61.554 50.440,61.792 50.008,61.866 49.917 C 62.181 49.525,63.167 47.956,63.167 47.847 C 63.167 47.781,63.354 47.564,63.583 47.364 C 63.813 47.165,64.000 46.889,64.000 46.751 C 64.000 46.613,64.112 46.500,64.250 46.500 C 64.387 46.500,64.500 46.428,64.500 46.340 C 64.500 46.208,68.042 42.590,69.042 41.701 C 69.545 41.253,69.401 40.493,68.606 39.400 C 67.849 38.360,65.729 36.333,65.398 36.333 C 65.293 36.333,65.121 36.229,65.014 36.100 C 64.074 34.967,57.470 33.611,56.348 34.320 M27.612 40.708 C 27.332 40.913,26.897 70.834,27.175 70.833 C 27.225 70.833,27.284 75.690,27.307 81.625 C 27.371 98.781,27.622 100.874,30.295 106.536 C 32.317 110.819,36.382 115.833,37.833 115.833 C 38.833 115.833,39.000 115.283,39.003 111.966 C 39.013 103.118,42.853 97.152,49.892 95.052 C 51.284 94.636,51.167 93.388,51.167 108.586 L 51.167 122.182 51.576 122.591 C 52.101 123.116,52.985 123.144,53.433 122.649 C 53.738 122.312,53.753 121.769,53.833 108.329 L 53.917 94.360 54.305 93.947 C 54.518 93.720,55.418 93.256,56.305 92.917 C 59.112 91.843,62.424 90.124,64.389 88.722 C 64.855 88.389,65.347 88.169,65.556 88.199 L 65.917 88.250 66.000 104.417 C 66.046 113.308,66.148 120.717,66.228 120.880 C 66.517 121.473,67.485 121.693,68.014 121.286 C 68.670 120.783,68.667 120.888,68.667 103.253 C 68.667 88.800,68.703 86.080,68.903 85.700 C 69.034 85.453,69.858 84.619,70.737 83.848 C 73.754 81.197,77.036 77.186,79.409 73.250 C 80.102 72.102,80.538 71.626,80.685 71.858 C 80.764 71.982,80.829 81.660,80.831 93.365 C 80.832 107.598,80.889 114.682,81.003 114.752 C 81.096 114.809,81.122 114.945,81.061 115.053 C 81.000 115.161,81.220 114.950,81.551 114.583 C 81.882 114.217,82.156 113.872,82.160 113.817 C 82.164 113.762,82.324 113.537,82.517 113.317 C 82.829 112.960,83.117 112.537,84.263 110.750 C 84.763 109.970,85.299 108.986,85.669 108.167 C 85.856 107.754,86.112 107.192,86.239 106.917 C 86.632 106.065,87.385 103.957,87.518 103.338 C 87.588 103.015,87.734 102.450,87.844 102.083 C 87.954 101.717,88.052 101.180,88.063 100.891 C 88.074 100.602,88.131 100.395,88.190 100.431 C 88.332 100.519,88.477 98.693,88.604 95.221 L 88.708 92.359 88.229 92.305 C 87.619 92.235,87.611 91.792,88.179 89.333 L 88.583 87.583 88.583 64.278 C 88.583 37.594,88.770 40.383,87.000 40.579 C 84.808 40.823,80.167 41.894,80.167 42.157 C 80.167 42.214,79.976 42.276,79.742 42.296 C 79.370 42.327,78.670 42.602,77.167 43.309 C 76.614 43.569,75.537 44.173,74.917 44.571 C 74.642 44.747,74.020 45.147,73.535 45.459 C 71.225 46.946,67.772 50.152,66.267 52.206 C 65.846 52.780,65.389 53.369,65.251 53.514 C 65.113 53.659,65.000 53.841,65.000 53.918 C 65.000 53.994,64.889 54.179,64.754 54.329 C 63.939 55.229,61.602 60.762,61.444 62.167 C 61.408 62.487,61.335 62.862,61.283 63.000 C 61.030 63.668,60.657 65.785,60.684 66.395 C 60.738 67.609,60.466 70.335,60.280 70.450 C 60.050 70.592,56.308 70.567,55.847 70.421 C 55.569 70.333,55.496 70.164,55.479 69.572 C 55.468 69.166,55.440 68.627,55.417 68.375 C 55.394 68.123,55.359 67.354,55.340 66.667 C 55.296 65.092,54.433 61.247,53.881 60.167 C 53.764 59.938,53.668 59.621,53.668 59.463 C 53.667 59.306,53.524 58.893,53.349 58.547 C 53.174 58.200,52.761 57.345,52.431 56.646 C 52.101 55.947,51.643 55.100,51.415 54.764 C 51.187 54.427,51.000 54.113,51.000 54.065 C 51.000 53.537,46.509 48.333,46.054 48.333 C 45.932 48.333,45.833 48.219,45.833 48.080 C 45.833 47.940,45.646 47.741,45.417 47.636 C 45.188 47.532,45.000 47.391,45.000 47.322 C 45.000 47.129,43.022 45.716,41.250 44.645 C 38.054 42.713,33.451 41.156,29.504 40.673 C 27.780 40.462,27.954 40.459,27.612 40.708 " stroke="none" fill="#24546c" fill-rule="evenodd"></path><path id="path3" d="M27.228 72.417 C 27.228 73.333,27.256 73.687,27.290 73.203 C 27.324 72.718,27.323 71.968,27.289 71.536 C 27.255 71.104,27.227 71.500,27.228 72.417 M27.237 80.917 C 27.237 82.750,27.261 83.523,27.291 82.634 C 27.321 81.745,27.321 80.245,27.291 79.301 C 27.261 78.356,27.237 79.083,27.237 80.917 M72.333 82.417 C 71.650 83.104,71.129 83.667,71.175 83.667 C 71.221 83.667,71.817 83.104,72.500 82.417 C 73.183 81.729,73.704 81.167,73.658 81.167 C 73.612 81.167,73.016 81.729,72.333 82.417 M65.913 104.583 C 65.913 113.475,65.934 117.088,65.958 112.612 C 65.983 108.137,65.983 100.862,65.958 96.446 C 65.934 92.030,65.913 95.692,65.913 104.583 M27.230 92.167 C 27.230 93.221,27.257 93.652,27.290 93.125 C 27.323 92.598,27.323 91.735,27.290 91.208 C 27.257 90.681,27.230 91.112,27.230 92.167 M53.890 96.417 C 53.891 97.150,53.920 97.429,53.956 97.037 C 53.991 96.645,53.990 96.045,53.954 95.704 C 53.919 95.363,53.890 95.683,53.890 96.417 M51.079 108.583 C 51.079 115.917,51.100 118.892,51.125 115.196 C 51.150 111.500,51.150 105.500,51.125 101.863 C 51.100 98.226,51.079 101.250,51.079 108.583 M35.250 114.167 C 35.608 114.533,35.938 114.833,35.984 114.833 C 36.030 114.833,35.775 114.533,35.417 114.167 C 35.059 113.800,34.728 113.500,34.682 113.500 C 34.637 113.500,34.892 113.800,35.250 114.167 " stroke="none" fill="#4cb0c4" fill-rule="evenodd"></path><path id="path4" d="M27.236 47.000 C 27.236 48.788,27.261 49.519,27.291 48.625 C 27.321 47.731,27.321 46.269,27.291 45.375 C 27.261 44.481,27.236 45.212,27.236 47.000 M80.747 93.667 C 80.747 105.171,80.767 109.877,80.792 104.125 C 80.816 98.373,80.816 88.960,80.792 83.208 C 80.767 77.456,80.747 82.162,80.747 93.667 M70.824 83.792 L 70.250 84.417 70.875 83.842 C 71.219 83.526,71.500 83.245,71.500 83.217 C 71.500 83.090,71.359 83.210,70.824 83.792 M27.236 87.250 C 27.236 88.992,27.261 89.682,27.291 88.783 C 27.321 87.884,27.321 86.459,27.291 85.616 C 27.261 84.773,27.236 85.508,27.236 87.250 M68.747 103.083 C 68.747 112.525,68.767 116.363,68.792 111.612 C 68.816 106.862,68.816 99.137,68.792 94.446 C 68.767 89.755,68.747 93.642,68.747 103.083 M87.667 91.657 C 87.667 91.926,87.726 92.184,87.799 92.228 C 87.871 92.273,87.900 92.053,87.864 91.738 C 87.782 91.038,87.667 90.990,87.667 91.657 M27.390 94.750 C 27.391 95.483,27.420 95.763,27.456 95.371 C 27.491 94.979,27.490 94.379,27.454 94.037 C 27.419 93.696,27.390 94.017,27.390 94.750 M53.912 109.667 C 53.912 116.313,53.933 119.031,53.958 115.708 C 53.984 112.385,53.984 106.948,53.958 103.625 C 53.933 100.302,53.912 103.021,53.912 109.667 M43.410 99.042 L 42.583 99.917 43.458 99.090 C 43.940 98.635,44.333 98.241,44.333 98.215 C 44.333 98.090,44.179 98.229,43.410 99.042 M39.069 111.500 C 39.069 113.196,39.094 113.890,39.124 113.042 C 39.154 112.194,39.154 110.806,39.124 109.958 C 39.094 109.110,39.069 109.804,39.069 111.500 " stroke="none" fill="#4092a4" fill-rule="evenodd"></path></g></svg>