<svg id="svg" version="1.1" xmlns="http://www.w3.org/2000/svg" xmlns:xlink="http://www.w3.org/1999/xlink" width="400" height="462.03208556149735" viewBox="0, 0, 400,462.03208556149735"><g id="svgg"><path id="path0" d="M191.200 44.958 C 183.287 47.043,173.326 54.033,167.632 61.497 L 166.338 63.194 168.669 65.689 C 169.951 67.061,171.540 68.750,172.200 69.442 C 175.176 72.564,176.400 73.993,176.400 74.349 C 176.400 74.560,176.558 74.793,176.751 74.867 C 177.291 75.072,181.192 79.748,181.200 80.200 C 181.207 80.573,183.284 83.441,184.531 84.800 C 184.834 85.130,186.012 87.020,187.150 89.000 C 188.288 90.980,189.400 92.870,189.621 93.200 C 189.842 93.530,190.129 94.115,190.258 94.500 C 190.388 94.885,190.627 95.200,190.791 95.200 C 191.056 95.200,192.593 98.354,194.884 103.600 C 195.316 104.590,195.950 105.922,196.292 106.559 C 196.635 107.197,197.500 109.357,198.215 111.359 C 199.832 115.888,200.168 115.888,201.785 111.359 C 202.500 109.357,203.365 107.197,203.708 106.559 C 204.050 105.922,204.684 104.590,205.116 103.600 C 207.407 98.354,208.944 95.200,209.209 95.200 C 209.373 95.200,209.612 94.885,209.742 94.500 C 209.871 94.115,210.158 93.530,210.379 93.200 C 210.600 92.870,211.712 90.980,212.850 89.000 C 213.988 87.020,215.166 85.130,215.469 84.800 C 216.716 83.441,218.793 80.573,218.800 80.200 C 218.808 79.748,222.709 75.072,223.249 74.867 C 223.442 74.793,223.600 74.560,223.600 74.349 C 223.600 73.993,224.824 72.564,227.800 69.442 C 228.460 68.750,230.049 67.061,231.331 65.689 L 233.662 63.194 232.368 61.497 C 221.933 47.819,205.460 41.201,191.200 44.958 M110.135 147.244 C 110.213 193.750,110.390 232.340,110.529 233.000 C 110.667 233.660,111.059 235.705,111.399 237.544 C 113.188 247.216,114.830 252.516,118.186 259.446 C 119.624 262.415,120.800 264.921,120.800 265.015 C 120.800 265.251,125.609 272.493,127.563 275.200 C 134.954 285.441,148.701 296.447,159.300 300.610 C 160.785 301.193,162.000 301.812,162.000 301.985 C 162.000 302.358,169.803 304.843,173.800 305.743 C 177.933 306.673,184.891 307.557,189.100 307.686 L 192.800 307.800 192.800 270.300 L 192.800 232.800 200.000 232.800 L 207.200 232.800 207.200 270.300 L 207.200 307.800 210.900 307.686 C 215.109 307.557,222.067 306.673,226.200 305.743 C 230.197 304.843,238.000 302.358,238.000 301.985 C 238.000 301.812,239.215 301.193,240.700 300.610 C 251.299 296.447,265.046 285.441,272.437 275.200 C 274.391 272.493,279.200 265.251,279.200 265.015 C 279.200 264.921,280.376 262.415,281.814 259.446 C 285.170 252.516,286.812 247.216,288.601 237.544 C 288.941 235.705,289.333 233.660,289.471 233.000 C 289.610 232.340,289.787 193.750,289.865 147.244 L 290.007 62.688 284.504 62.912 C 276.810 63.225,265.061 65.612,261.561 67.573 C 261.209 67.770,259.402 68.560,257.546 69.328 C 253.167 71.141,249.842 72.900,247.600 74.590 C 246.610 75.336,245.636 75.959,245.436 75.973 C 244.927 76.011,240.669 79.230,240.280 79.872 C 240.104 80.162,239.716 80.400,239.417 80.400 C 237.921 80.400,222.852 96.594,222.811 98.245 C 222.805 98.490,222.371 99.120,221.847 99.645 C 220.736 100.758,219.916 102.137,217.594 106.800 C 216.663 108.670,215.747 110.470,215.558 110.800 C 213.829 113.819,210.790 122.570,209.966 126.900 C 209.684 128.385,209.336 129.600,209.193 129.600 C 209.050 129.600,208.912 129.825,208.886 130.100 C 208.860 130.375,208.566 132.220,208.232 134.200 C 207.898 136.180,207.501 140.635,207.350 144.100 L 207.075 150.400 200.000 150.400 L 192.925 150.400 192.650 144.100 C 192.499 140.635,192.102 136.180,191.768 134.200 C 191.434 132.220,191.140 130.375,191.114 130.100 C 191.088 129.825,190.948 129.600,190.802 129.600 C 190.657 129.600,190.319 128.385,190.050 126.900 C 189.324 122.886,186.169 113.824,184.444 110.800 C 184.255 110.470,183.133 108.252,181.951 105.870 C 180.768 103.489,179.215 100.879,178.500 100.070 C 177.785 99.262,177.195 98.420,177.189 98.200 C 177.143 96.581,162.046 80.400,160.583 80.400 C 160.284 80.400,159.896 80.162,159.720 79.872 C 159.331 79.230,155.073 76.011,154.564 75.973 C 154.364 75.959,153.390 75.336,152.400 74.590 C 150.158 72.900,146.833 71.141,142.454 69.328 C 140.598 68.560,138.791 67.770,138.439 67.573 C 134.939 65.612,123.190 63.225,115.496 62.912 L 109.993 62.688 110.135 147.244 " stroke="none" fill="#a42434" fill-rule="evenodd"></path><path id="path1" d="M75.060 345.902 C 74.958 346.069,74.741 354.164,74.579 363.891 C 74.245 383.986,74.270 383.832,71.321 384.075 C 70.108 384.175,69.800 384.362,69.800 385.000 C 69.800 385.770,70.067 385.800,77.000 385.800 C 83.933 385.800,84.200 385.770,84.200 385.000 C 84.200 384.360,83.857 384.154,82.485 383.971 C 79.254 383.540,78.620 380.166,78.890 364.839 L 79.000 358.600 82.000 361.693 C 102.306 382.632,107.514 387.434,108.386 386.023 C 108.551 385.756,108.816 377.587,108.975 367.869 C 109.298 348.153,109.274 348.317,111.803 348.000 C 113.067 347.842,113.400 347.633,113.400 347.000 C 113.400 346.189,100.743 345.694,99.509 346.456 C 98.550 347.049,99.579 348.000,101.178 348.000 C 103.891 348.000,103.934 348.185,104.501 362.132 C 104.776 368.879,104.893 374.400,104.761 374.400 C 104.630 374.400,102.809 372.555,100.713 370.300 C 98.618 368.045,93.702 362.960,89.790 359.000 C 85.877 355.040,81.313 350.405,79.647 348.700 C 76.891 345.880,75.572 345.075,75.060 345.902 M197.986 347.433 C 197.554 348.441,197.200 349.416,197.200 349.600 C 197.200 349.783,197.065 349.993,196.900 350.067 C 196.572 350.212,195.723 352.270,193.214 359.000 C 192.312 361.420,191.201 364.097,190.747 364.948 C 190.292 365.800,188.776 369.526,187.378 373.229 C 183.469 383.578,183.015 384.096,177.883 384.062 C 173.020 384.030,173.417 385.589,173.299 366.086 C 173.190 348.097,173.152 348.412,175.458 348.037 C 176.621 347.848,177.000 347.599,177.000 347.024 C 177.000 346.248,161.892 345.725,160.703 346.460 C 159.782 347.029,160.777 348.000,162.287 348.006 C 165.152 348.018,165.535 349.124,165.576 357.500 L 165.600 362.400 155.800 362.400 L 146.000 362.400 146.006 356.300 C 146.013 349.082,146.260 348.296,148.610 348.000 C 149.832 347.846,150.200 347.625,150.200 347.044 C 150.200 346.329,149.763 346.287,142.000 346.258 C 134.103 346.228,133.800 346.256,133.800 347.014 C 133.800 347.654,134.152 347.840,135.698 348.018 C 138.766 348.371,138.600 347.357,138.600 365.720 C 138.600 384.058,138.608 384.000,136.173 384.000 C 134.767 384.000,133.819 384.994,134.704 385.540 C 135.950 386.308,151.400 385.808,151.400 385.000 C 151.400 384.330,151.064 384.166,149.325 383.991 C 146.206 383.678,146.061 383.180,146.024 372.700 L 146.000 366.000 155.863 366.000 L 165.726 366.000 165.481 373.927 C 165.192 383.242,165.006 384.000,162.997 384.000 C 161.654 384.000,160.714 384.847,161.351 385.484 C 161.889 386.022,192.045 385.827,192.497 385.283 C 193.114 384.540,192.462 384.074,190.600 383.927 C 188.584 383.767,188.513 382.251,190.336 378.312 C 190.975 376.930,191.737 375.125,192.029 374.300 L 192.561 372.800 198.480 372.800 C 202.223 372.800,204.400 372.949,204.400 373.206 C 204.400 373.430,205.238 375.865,206.261 378.618 C 208.023 383.354,208.084 383.650,207.400 384.150 C 205.992 385.180,207.199 385.516,213.338 385.803 C 220.005 386.116,221.200 385.959,221.200 384.773 C 221.200 384.140,220.915 384.000,219.631 384.000 C 217.126 384.000,215.328 381.558,212.564 374.400 C 211.332 371.210,209.897 367.700,209.374 366.600 C 208.350 364.447,206.622 360.108,204.762 355.024 C 204.123 353.277,203.459 351.747,203.287 351.624 C 203.115 351.501,202.469 350.095,201.852 348.500 C 200.420 344.801,199.252 344.479,197.986 347.433 M345.025 345.959 C 344.903 346.156,344.598 354.391,344.347 364.259 C 343.841 384.166,343.887 383.862,341.307 384.075 C 340.109 384.174,339.800 384.364,339.800 384.999 C 339.800 385.767,340.071 385.798,347.000 385.799 C 353.934 385.800,354.200 385.770,354.200 385.000 C 354.200 384.360,353.857 384.154,352.485 383.971 C 349.336 383.551,348.895 381.099,348.822 363.631 L 348.800 358.262 354.300 364.005 C 370.703 381.131,377.349 387.240,378.395 386.151 C 378.580 385.958,378.882 377.592,379.066 367.561 C 379.433 347.522,379.343 348.138,381.930 347.922 C 383.093 347.826,383.400 347.633,383.400 347.000 C 383.400 346.219,372.926 345.694,369.700 346.314 C 367.670 346.704,368.954 348.000,371.371 348.000 C 374.181 348.000,374.206 348.144,374.567 365.800 L 374.747 374.600 373.714 373.400 C 370.131 369.240,346.518 345.600,345.945 345.600 C 345.561 345.600,345.147 345.762,345.025 345.959 M16.514 346.681 C 16.191 347.520,16.805 348.000,18.201 348.000 C 20.817 348.000,20.801 347.885,20.794 365.789 C 20.787 383.807,20.807 383.671,18.190 384.000 C 16.966 384.154,16.600 384.375,16.600 384.958 C 16.600 385.737,32.484 386.290,33.677 385.552 C 34.763 384.881,33.607 384.000,31.641 384.000 C 27.945 384.000,27.892 383.696,28.072 363.561 C 28.213 347.857,28.166 348.136,30.730 347.922 C 31.873 347.827,32.200 347.628,32.200 347.029 C 32.200 346.081,16.874 345.741,16.514 346.681 M37.314 346.681 C 36.995 347.511,37.600 348.000,38.947 348.000 C 41.933 348.000,41.800 347.177,41.800 365.668 C 41.800 383.825,41.796 383.853,39.499 384.075 C 38.535 384.168,38.200 384.395,38.200 384.958 C 38.200 386.272,56.835 386.163,60.200 384.830 C 69.013 381.338,69.584 368.894,61.128 364.572 C 58.575 363.267,58.559 363.155,60.604 360.944 C 65.065 356.121,63.988 349.719,58.292 347.200 C 56.004 346.187,37.677 345.734,37.314 346.681 M222.514 346.681 C 222.192 347.519,222.804 348.000,224.195 348.000 C 227.044 348.000,227.547 352.210,227.014 371.566 C 226.681 383.659,226.615 384.000,224.597 384.000 C 223.306 384.000,222.307 384.841,222.898 385.431 C 223.243 385.777,248.180 386.019,248.695 385.682 C 250.026 384.813,250.479 377.200,249.200 377.200 C 248.705 377.200,248.399 377.467,248.399 377.900 C 248.389 382.560,236.846 384.529,235.183 380.155 C 234.695 378.871,234.685 349.602,235.172 348.831 C 235.370 348.519,236.312 348.159,237.266 348.031 C 238.618 347.851,239.000 347.633,239.000 347.044 C 239.000 346.109,222.869 345.754,222.514 346.681 M252.400 346.333 C 250.905 346.832,252.464 348.000,254.623 348.000 C 257.268 348.000,257.257 347.913,257.121 366.301 C 256.989 384.165,257.033 383.848,254.670 384.077 C 253.708 384.170,253.400 384.394,253.400 385.000 C 253.400 385.743,253.622 385.790,256.483 385.665 C 258.179 385.590,262.499 385.737,266.083 385.990 C 274.952 386.617,281.999 385.652,285.587 383.319 C 291.999 379.151,294.907 373.633,294.928 365.600 C 294.954 355.294,290.047 349.023,280.331 346.942 C 277.683 346.375,253.833 345.855,252.400 346.333 M297.503 346.460 C 296.576 347.033,297.577 348.000,299.098 348.000 C 302.396 348.000,302.292 347.583,302.502 361.693 C 302.754 378.716,303.665 381.614,309.754 384.772 L 312.507 386.200 318.359 386.200 C 325.282 386.200,328.321 385.152,330.872 381.886 C 331.596 380.959,332.412 379.967,332.684 379.681 C 334.116 378.184,334.507 375.132,334.870 362.600 C 335.278 348.533,335.284 348.479,336.506 348.231 C 336.998 348.132,337.895 347.945,338.500 347.817 C 339.467 347.613,340.097 346.465,339.300 346.361 C 337.857 346.173,325.027 346.260,324.703 346.460 C 323.772 347.036,324.778 348.000,326.311 348.000 C 329.515 348.000,329.400 347.471,329.400 362.268 L 329.400 375.400 328.334 377.673 C 325.615 383.475,318.614 384.885,313.739 380.612 C 310.378 377.667,310.275 377.155,310.094 362.476 C 309.925 348.784,310.038 348.000,312.177 348.000 C 313.833 348.000,315.579 346.520,314.100 346.369 C 312.300 346.186,297.818 346.265,297.503 346.460 M52.269 349.195 C 54.241 349.217,56.800 353.381,56.800 356.565 C 56.800 360.661,54.944 362.541,51.118 362.322 L 49.000 362.200 48.889 356.003 C 48.769 349.315,49.029 348.449,51.000 348.975 C 51.440 349.093,52.011 349.192,52.269 349.195 M275.504 350.270 C 276.767 350.659,277.890 351.077,278.000 351.198 C 278.110 351.319,278.740 351.760,279.400 352.178 C 285.229 355.865,287.000 359.365,287.000 367.200 C 287.000 375.319,285.989 377.620,281.048 380.740 C 274.807 384.682,265.200 383.827,265.200 379.330 C 265.200 378.599,265.020 378.000,264.800 378.000 C 264.541 378.000,264.400 373.078,264.400 364.033 L 264.400 350.067 265.500 349.638 C 267.013 349.047,272.707 349.407,275.504 350.270 M200.553 363.530 C 201.569 366.462,202.400 368.937,202.400 369.030 C 202.400 369.124,200.510 369.200,198.200 369.200 C 195.890 369.200,194.000 369.144,194.000 369.077 C 194.000 368.144,198.317 357.768,198.583 358.063 C 198.651 358.138,199.538 360.599,200.553 363.530 M53.328 366.029 C 61.427 368.278,62.258 382.815,54.286 382.795 C 49.360 382.782,48.800 381.697,48.800 372.167 L 48.800 365.600 50.300 365.602 C 51.125 365.603,52.488 365.795,53.328 366.029 M63.067 395.867 C 62.920 396.013,62.798 400.198,62.795 405.167 C 62.788 415.489,62.730 415.907,61.263 416.077 C 60.661 416.147,60.152 416.487,60.081 416.867 C 59.932 417.650,68.170 417.896,68.648 417.122 C 68.971 416.599,68.064 416.014,66.918 416.006 C 65.819 415.998,65.674 415.210,65.496 408.304 L 65.364 403.207 66.570 404.304 C 67.234 404.907,68.039 405.760,68.359 406.200 C 70.425 409.034,79.584 417.600,80.549 417.600 L 81.600 417.600 81.635 409.500 C 81.680 399.205,81.891 397.444,83.100 397.272 C 83.595 397.202,84.000 396.887,84.000 396.572 C 84.000 396.114,83.202 396.000,80.000 396.000 C 75.958 396.000,74.315 396.763,77.139 397.328 C 78.425 397.585,78.800 399.803,78.800 407.155 L 78.800 410.589 71.564 403.094 C 64.787 396.076,63.744 395.189,63.067 395.867 M184.300 395.899 C 178.714 395.999,177.600 396.118,177.600 396.610 C 177.600 396.953,177.976 397.203,178.500 397.206 C 180.407 397.219,180.422 397.300,180.308 406.811 L 180.200 415.764 179.200 416.000 C 178.650 416.130,178.200 416.498,178.200 416.818 C 178.200 417.626,191.558 417.908,192.063 417.111 C 192.536 416.366,192.474 412.400,191.990 412.400 C 191.765 412.400,191.423 412.812,191.232 413.316 C 190.388 415.536,185.528 416.095,185.283 414.000 C 185.219 413.450,184.958 412.584,184.703 412.075 C 184.348 411.369,184.352 410.969,184.719 410.381 C 184.984 409.957,185.200 409.068,185.200 408.405 C 185.200 407.290,185.307 407.200,186.626 407.200 C 188.458 407.200,189.600 407.820,189.600 408.814 C 189.600 409.333,189.871 409.600,190.400 409.600 C 191.035 409.600,191.201 409.332,191.204 408.300 C 191.207 407.585,191.320 406.325,191.457 405.500 C 191.704 404.002,190.528 403.222,189.800 404.400 C 189.664 404.620,188.573 404.800,187.376 404.800 L 185.200 404.800 185.200 401.375 L 185.200 397.951 187.100 398.226 C 189.149 398.522,190.000 398.992,190.000 399.825 C 190.000 400.514,190.780 400.987,191.189 400.545 C 191.811 399.874,192.110 395.591,191.529 395.690 C 191.238 395.739,187.985 395.833,184.300 395.899 M258.786 396.500 C 254.331 398.748,254.856 403.062,260.205 408.182 C 264.089 411.898,264.597 413.039,263.056 414.580 C 261.037 416.599,257.563 415.462,257.028 412.607 C 256.579 410.216,255.692 410.858,255.518 413.700 C 255.283 417.530,255.350 417.585,260.251 417.595 C 265.487 417.605,267.294 416.213,267.533 411.989 C 267.729 408.514,267.018 407.246,263.131 404.145 C 259.798 401.486,259.204 400.465,260.148 399.023 C 261.529 396.916,264.849 397.636,265.765 400.241 C 266.479 402.272,267.200 401.455,267.200 398.617 C 267.200 396.118,267.191 396.098,265.950 395.850 C 263.372 395.334,260.597 395.586,258.786 396.500 M321.430 396.950 C 320.766 400.274,321.612 401.847,322.737 399.378 C 323.148 398.476,323.401 398.400,325.991 398.400 L 328.800 398.400 328.795 406.300 C 328.788 415.138,328.684 415.903,327.459 416.078 C 326.987 416.145,326.600 416.470,326.600 416.800 C 326.600 417.296,327.419 417.411,331.322 417.461 C 335.518 417.516,336.030 417.449,335.918 416.861 C 335.849 416.498,335.344 416.137,334.796 416.060 C 333.262 415.844,333.213 415.553,333.206 406.700 L 333.200 398.400 335.100 398.405 C 337.822 398.413,338.775 398.761,339.048 399.848 C 339.557 401.875,340.400 400.909,340.400 398.300 L 340.399 395.800 331.029 395.800 L 321.660 395.800 321.430 396.950 M16.400 396.517 C 16.400 396.802,16.985 397.207,17.700 397.417 L 19.000 397.800 19.200 405.200 C 19.492 415.993,20.599 417.587,27.800 417.587 C 35.085 417.587,36.701 415.084,36.832 403.600 C 36.890 398.514,37.141 397.442,38.316 397.272 C 38.802 397.202,39.200 396.887,39.200 396.572 C 39.200 396.114,38.402 396.000,35.200 396.000 C 31.911 396.000,31.200 396.107,31.200 396.600 C 31.200 396.930,31.524 397.200,31.920 397.200 C 33.419 397.200,33.600 397.959,33.590 404.180 C 33.576 413.033,32.828 415.004,29.300 415.477 C 24.882 416.070,23.544 413.769,23.297 405.150 C 23.101 398.306,23.340 397.200,25.014 397.200 C 25.624 397.200,26.000 396.971,26.000 396.600 C 26.000 396.100,25.200 396.000,21.200 396.000 C 17.541 396.000,16.400 396.123,16.400 396.517 M106.400 396.378 C 106.400 396.586,106.895 396.994,107.500 397.284 L 108.600 397.811 108.600 406.805 L 108.600 415.800 107.700 415.928 C 107.160 416.004,106.800 416.334,106.800 416.752 C 106.800 417.371,107.306 417.451,111.400 417.477 C 115.648 417.504,116.000 417.449,116.000 416.753 C 116.000 416.189,115.709 416.000,114.843 416.000 C 113.235 416.000,113.200 415.799,113.200 406.447 C 113.200 397.867,113.321 397.200,114.880 397.200 C 115.276 397.200,115.600 396.930,115.600 396.600 C 115.600 396.101,114.822 396.000,111.000 396.000 C 108.377 396.000,106.400 396.163,106.400 396.378 M134.800 396.600 C 134.800 396.940,135.158 397.200,135.626 397.200 C 137.196 397.200,137.930 397.999,139.019 400.894 C 139.621 402.492,140.658 404.970,141.324 406.400 C 141.990 407.830,143.276 410.890,144.183 413.200 C 146.886 420.087,147.040 419.986,151.772 408.242 C 152.561 406.286,153.550 404.126,153.970 403.442 C 154.390 402.759,155.046 401.390,155.429 400.400 C 156.284 398.186,157.095 397.200,158.062 397.200 C 158.468 397.200,158.800 396.930,158.800 396.600 C 158.800 396.109,158.111 396.000,155.000 396.000 C 151.889 396.000,151.200 396.109,151.200 396.600 C 151.200 396.933,151.556 397.200,152.000 397.200 C 152.893 397.200,152.977 397.535,152.420 398.881 C 152.211 399.387,151.221 402.021,150.221 404.734 C 147.531 412.029,147.868 411.818,146.278 407.200 C 145.937 406.210,145.012 403.629,144.223 401.464 C 142.836 397.659,142.815 397.521,143.594 397.317 C 146.185 396.640,144.245 396.000,139.600 396.000 C 135.600 396.000,134.800 396.100,134.800 396.600 M214.400 396.600 C 214.400 396.990,214.791 397.200,215.520 397.200 C 217.522 397.200,217.600 397.540,217.595 406.180 C 217.589 414.838,217.454 415.997,216.453 416.006 C 215.358 416.016,214.504 416.738,215.118 417.135 C 216.296 417.896,224.400 417.601,224.400 416.797 C 224.400 416.283,224.060 416.014,223.300 415.927 C 222.364 415.819,222.181 415.592,222.071 414.400 C 222.001 413.630,221.776 412.829,221.571 412.620 C 221.186 412.226,221.050 409.484,221.398 409.136 C 222.227 408.307,224.144 409.456,225.662 411.692 C 228.980 416.578,230.604 417.600,235.050 417.600 C 236.933 417.600,237.200 417.501,237.200 416.800 C 237.200 416.237,236.933 416.000,236.300 415.999 C 235.107 415.997,233.066 414.721,232.143 413.401 C 231.734 412.817,230.535 411.268,229.477 409.960 L 227.554 407.580 228.971 405.925 C 232.050 402.328,231.193 397.644,227.239 396.459 C 224.807 395.730,214.400 395.844,214.400 396.600 M290.800 396.572 C 290.800 396.887,291.205 397.202,291.700 397.272 L 292.600 397.400 292.707 406.700 L 292.815 416.000 291.807 416.000 C 291.097 416.000,290.800 416.216,290.800 416.734 C 290.800 417.406,291.195 417.465,295.500 417.434 C 299.382 417.406,300.200 417.296,300.200 416.804 C 300.200 416.454,299.704 416.123,299.000 416.002 C 297.596 415.760,297.316 414.070,297.279 405.600 C 297.252 399.216,297.555 397.435,298.700 397.272 C 299.195 397.202,299.600 396.887,299.600 396.572 C 299.600 396.111,298.749 396.000,295.200 396.000 C 291.651 396.000,290.800 396.111,290.800 396.572 M358.409 396.500 C 358.413 396.775,358.991 397.270,359.691 397.600 C 361.075 398.252,362.809 400.523,365.485 405.190 C 367.696 409.046,368.108 415.275,366.200 416.000 C 363.724 416.941,365.084 417.469,369.900 417.434 C 374.633 417.400,376.670 416.566,373.404 416.001 C 371.273 415.632,371.047 409.716,373.019 405.909 C 374.996 402.092,378.094 397.895,379.259 397.455 C 381.583 396.578,380.606 396.000,376.800 396.000 C 373.867 396.000,373.200 396.111,373.200 396.600 C 373.200 396.930,373.380 397.200,373.600 397.200 C 373.820 397.200,374.000 397.494,374.000 397.853 C 374.000 398.574,370.785 404.800,370.412 404.800 C 369.498 404.800,365.569 397.544,366.343 397.286 C 368.326 396.625,366.507 396.000,362.600 396.000 C 359.502 396.000,358.402 396.131,358.409 396.500 M225.039 398.932 C 226.532 400.217,226.834 403.580,225.628 405.500 C 224.694 406.987,221.927 407.429,221.443 406.167 C 221.113 405.308,221.133 398.600,221.467 398.267 C 222.049 397.684,224.014 398.051,225.039 398.932 " stroke="none" fill="#ffffff" fill-rule="evenodd"></path><path id="path2" d="" stroke="none" fill="#a8204c" fill-rule="evenodd"></path><path id="path3" d="" stroke="none" fill="#a8204c" fill-rule="evenodd"></path><path id="path4" d="" stroke="none" fill="#a8204c" fill-rule="evenodd"></path></g></svg>