<svg id="svg" version="1.1" xmlns="http://www.w3.org/2000/svg" xmlns:xlink="http://www.w3.org/1999/xlink" width="400" height="474.35064935064935" viewBox="0, 0, 400,474.35064935064935"><g id="svgg"><path id="path0" d="M242.862 31.241 C 242.862 31.730,242.900 31.930,242.947 31.686 C 242.994 31.441,242.994 31.041,242.947 30.796 C 242.900 30.551,242.862 30.751,242.862 31.241 M332.671 55.166 C 332.671 66.530,332.694 71.179,332.724 65.497 C 332.753 59.815,332.753 50.517,332.724 44.834 C 332.694 39.152,332.671 43.801,332.671 55.166 M231.629 43.154 L 230.648 44.192 231.686 43.211 C 232.257 42.671,232.724 42.204,232.724 42.173 C 232.724 42.025,232.540 42.189,231.629 43.154 M227.076 47.701 L 226.495 48.344 227.138 47.763 C 227.737 47.222,227.871 47.059,227.719 47.059 C 227.685 47.059,227.395 47.348,227.076 47.701 M240.234 71.132 L 238.161 73.258 240.287 71.185 C 242.261 69.260,242.502 69.006,242.359 69.006 C 242.330 69.006,241.374 69.963,240.234 71.132 M47.944 104.399 C 47.944 112.610,47.968 115.969,47.998 111.864 C 48.028 107.758,48.028 101.041,47.998 96.935 C 47.968 92.830,47.944 96.189,47.944 104.399 M47.695 159.220 L 47.652 169.651 44.716 172.566 C 43.101 174.170,41.567 175.784,41.305 176.154 C 41.044 176.524,40.630 177.023,40.386 177.264 C 40.141 177.505,39.941 177.796,39.941 177.910 C 39.941 178.025,39.873 178.148,39.791 178.184 C 39.664 178.240,38.785 179.338,37.681 180.821 C 37.520 181.038,37.182 181.483,36.932 181.809 C 36.682 182.135,36.171 182.847,35.797 183.391 C 35.423 183.935,35.063 184.424,34.997 184.478 C 34.931 184.533,34.358 185.334,33.722 186.258 C 33.086 187.182,32.179 188.500,31.706 189.187 C 31.233 189.874,30.845 190.489,30.845 190.554 C 30.845 190.620,30.711 190.815,30.548 190.987 C 30.384 191.159,29.673 192.190,28.968 193.277 C 28.263 194.365,27.596 195.362,27.486 195.493 C 27.376 195.625,27.286 195.775,27.286 195.826 C 27.286 195.942,26.045 197.984,25.892 198.122 C 25.756 198.243,24.557 200.307,22.505 203.955 C 21.648 205.477,20.864 206.856,20.763 207.019 C 19.875 208.450,16.142 215.986,14.297 220.069 C 13.978 220.776,13.554 221.710,13.355 222.145 C 13.157 222.580,12.829 223.359,12.626 223.875 C 12.424 224.392,12.089 225.237,11.880 225.754 C 9.941 230.565,7.638 236.968,7.311 238.458 C 7.228 238.838,6.977 239.684,6.753 240.336 C 6.530 240.989,6.156 242.234,5.922 243.104 C 5.689 243.974,5.313 245.309,5.087 246.070 C 4.862 246.831,4.613 247.810,4.535 248.245 C 4.456 248.680,4.213 249.748,3.995 250.618 C 2.342 257.189,1.011 266.328,0.193 276.718 C -0.049 279.791,-0.046 291.426,0.198 294.612 C 0.510 298.689,0.985 303.473,1.308 305.783 C 1.476 306.980,1.687 308.633,1.778 309.458 C 2.234 313.580,4.577 324.650,5.950 329.169 C 6.158 329.851,6.327 330.556,6.327 330.737 C 6.327 330.918,6.539 331.694,6.799 332.463 C 7.058 333.232,7.510 334.706,7.803 335.739 C 8.096 336.772,8.507 338.052,8.716 338.583 C 8.924 339.114,9.095 339.653,9.095 339.780 C 9.095 339.907,9.458 340.985,9.900 342.176 C 10.343 343.366,10.775 344.607,10.859 344.933 C 10.944 345.260,11.204 345.944,11.438 346.455 C 11.672 346.965,11.864 347.481,11.864 347.601 C 11.864 347.721,12.042 348.188,12.259 348.638 C 12.477 349.088,12.654 349.540,12.654 349.642 C 12.654 349.744,12.886 350.372,13.168 351.038 C 13.451 351.704,13.861 352.694,14.080 353.238 C 14.754 354.909,15.445 356.548,15.958 357.687 C 16.227 358.285,16.624 359.174,16.839 359.664 C 17.890 362.048,21.070 368.520,22.280 370.737 C 22.784 371.661,23.362 372.729,23.564 373.109 C 24.640 375.140,26.925 378.934,27.116 379.008 C 27.210 379.044,27.286 379.231,27.286 379.422 C 27.286 379.614,27.464 379.932,27.682 380.129 C 27.899 380.325,28.077 380.575,28.077 380.684 C 28.077 380.793,28.300 381.174,28.571 381.530 C 28.843 381.887,29.066 382.228,29.066 382.288 C 29.066 382.349,29.466 382.983,29.956 383.698 C 30.445 384.413,30.845 385.074,30.845 385.167 C 30.845 385.259,30.916 385.365,31.002 385.401 C 31.088 385.437,31.555 386.045,32.040 386.752 C 32.525 387.459,32.973 388.082,33.035 388.136 C 33.098 388.191,33.536 388.814,34.009 389.521 C 34.482 390.227,34.950 390.860,35.050 390.927 C 35.150 390.994,35.334 391.226,35.460 391.443 C 35.735 391.915,36.785 393.345,37.460 394.167 C 37.728 394.493,38.586 395.561,39.367 396.540 C 40.925 398.493,42.665 400.580,42.993 400.890 C 43.109 400.999,44.136 402.155,45.276 403.460 C 48.011 406.592,54.375 412.945,57.835 415.998 C 61.742 419.447,62.156 419.806,62.904 420.397 C 63.270 420.686,64.192 421.426,64.953 422.041 C 66.601 423.373,69.903 425.920,70.344 426.199 C 70.515 426.307,70.796 426.502,70.968 426.631 C 71.140 426.760,71.704 427.182,72.221 427.570 C 72.739 427.958,73.243 428.275,73.342 428.275 C 73.440 428.275,73.551 428.343,73.587 428.426 C 73.682 428.643,75.696 430.054,75.911 430.054 C 76.010 430.054,76.121 430.129,76.158 430.220 C 76.221 430.381,79.671 432.660,81.208 433.557 C 82.783 434.476,83.370 434.831,84.231 435.388 C 84.721 435.705,85.612 436.224,86.211 436.541 C 86.811 436.859,88.412 437.737,89.770 438.493 C 91.128 439.249,93.885 440.675,95.897 441.661 C 99.738 443.544,100.298 443.804,103.015 444.974 C 103.940 445.372,104.932 445.826,105.221 445.983 C 105.509 446.140,105.857 446.268,105.992 446.268 C 106.128 446.268,106.692 446.476,107.247 446.729 C 107.801 446.983,108.566 447.305,108.947 447.444 C 109.328 447.583,110.173 447.901,110.826 448.150 C 111.478 448.399,112.323 448.714,112.704 448.850 C 113.085 448.986,113.930 449.295,114.582 449.536 C 115.235 449.778,117.103 450.398,118.735 450.916 C 120.366 451.433,122.190 452.017,122.788 452.214 C 123.386 452.411,124.409 452.705,125.062 452.868 C 127.476 453.471,128.057 453.625,129.365 454.008 C 130.101 454.223,131.124 454.470,131.639 454.557 C 132.154 454.644,133.154 454.856,133.861 455.028 C 151.684 459.373,175.151 460.448,194.859 457.823 C 196.164 457.649,198.122 457.388,199.209 457.242 C 200.297 457.096,201.792 456.837,202.533 456.665 C 203.274 456.493,204.108 456.352,204.387 456.352 C 204.666 456.352,205.928 456.125,207.192 455.848 C 208.457 455.571,210.336 455.161,211.369 454.937 C 214.886 454.172,219.075 453.101,221.750 452.282 C 222.620 452.015,223.442 451.799,223.577 451.801 C 223.712 451.803,224.379 451.596,225.060 451.341 C 225.741 451.086,226.965 450.675,227.781 450.429 C 228.596 450.182,229.781 449.767,230.413 449.508 C 231.046 449.248,231.667 449.036,231.794 449.036 C 231.920 449.036,232.515 448.846,233.115 448.613 C 233.716 448.380,234.785 447.971,235.492 447.703 C 236.199 447.436,237.266 447.014,237.865 446.765 C 238.463 446.516,239.397 446.132,239.941 445.913 C 241.794 445.163,245.671 443.438,247.355 442.614 C 248.280 442.161,249.525 441.552,250.124 441.261 C 250.722 440.970,251.567 440.542,252.002 440.310 C 252.437 440.078,252.953 439.808,253.148 439.710 C 254.215 439.172,257.746 437.215,259.219 436.345 C 259.600 436.120,260.178 435.790,260.504 435.610 C 260.830 435.431,261.364 435.115,261.691 434.909 C 263.801 433.572,264.447 433.158,266.041 432.116 C 267.019 431.476,267.963 430.861,268.138 430.750 C 269.428 429.931,270.203 429.377,270.259 429.234 C 270.295 429.141,270.402 429.066,270.497 429.066 C 270.643 429.066,272.409 427.835,273.752 426.797 C 273.969 426.629,275.037 425.831,276.125 425.023 C 277.212 424.215,278.283 423.371,278.504 423.147 C 278.726 422.922,279.015 422.739,279.147 422.739 C 279.279 422.739,279.387 422.671,279.387 422.588 C 279.387 422.505,280.010 421.963,280.771 421.382 C 281.532 420.802,282.155 420.247,282.155 420.149 C 282.155 420.051,282.256 419.970,282.380 419.970 C 282.503 419.970,282.810 419.770,283.061 419.525 C 283.820 418.786,284.326 418.334,286.851 416.134 C 288.183 414.974,289.273 413.939,289.273 413.834 C 289.273 413.729,289.371 413.643,289.490 413.643 C 289.682 413.643,298.369 405.072,298.369 404.882 C 298.369 404.841,298.850 404.310,299.438 403.703 C 300.027 403.095,301.306 401.668,302.282 400.531 C 303.258 399.394,304.249 398.254,304.485 397.996 C 305.444 396.947,305.672 396.676,306.790 395.255 C 307.432 394.439,308.068 393.700,308.205 393.614 C 308.341 393.527,308.453 393.329,308.453 393.176 C 308.453 393.022,308.631 392.801,308.848 392.684 C 309.066 392.568,309.244 392.350,309.244 392.199 C 309.244 392.049,309.315 391.897,309.403 391.860 C 309.640 391.762,312.012 388.551,312.012 388.328 C 312.012 388.223,312.094 388.136,312.193 388.136 C 312.293 388.136,312.569 387.823,312.806 387.439 C 313.043 387.056,313.339 386.629,313.465 386.492 C 313.590 386.354,313.782 386.105,313.890 385.938 C 314.117 385.590,315.585 383.437,316.753 381.740 C 317.190 381.104,317.548 380.517,317.548 380.436 C 317.548 380.355,317.726 380.128,317.944 379.931 C 318.161 379.734,318.339 379.484,318.339 379.375 C 318.339 379.266,318.548 378.902,318.803 378.565 C 319.058 378.229,319.302 377.865,319.347 377.756 C 319.428 377.555,320.441 375.844,321.259 374.524 C 321.506 374.127,321.800 373.581,321.914 373.311 C 322.028 373.041,322.187 372.774,322.268 372.718 C 322.482 372.568,324.839 368.273,325.904 366.090 C 326.222 365.437,326.623 364.637,326.796 364.310 C 326.968 363.984,327.169 363.584,327.242 363.421 C 327.315 363.258,327.526 362.857,327.712 362.531 C 327.897 362.205,328.185 361.626,328.352 361.246 C 328.518 360.865,329.003 359.811,329.429 358.903 C 329.854 357.995,330.203 357.204,330.203 357.145 C 330.203 357.086,330.369 356.672,330.573 356.225 C 330.777 355.778,331.169 354.879,331.444 354.226 C 331.720 353.574,332.176 352.495,332.458 351.829 C 332.740 351.163,332.971 350.491,332.971 350.336 C 332.971 350.181,333.049 349.970,333.144 349.867 C 333.331 349.664,333.792 348.451,334.868 345.329 C 335.243 344.241,335.693 342.951,335.868 342.462 C 336.043 341.972,336.305 341.172,336.450 340.682 C 336.595 340.193,336.855 339.348,337.028 338.804 C 340.316 328.455,342.873 316.162,344.225 304.202 C 344.790 299.202,345.288 293.022,345.137 292.872 C 344.972 292.706,344.644 293.232,344.640 293.669 C 344.638 293.857,344.468 294.568,344.261 295.250 C 343.705 297.090,342.857 300.836,342.857 301.458 C 342.857 301.757,342.632 303.075,342.357 304.387 C 342.082 305.699,341.671 307.662,341.443 308.749 C 341.215 309.837,340.907 311.216,340.758 311.814 C 340.609 312.412,340.389 313.302,340.270 313.791 C 339.345 317.589,337.696 323.336,336.993 325.212 C 336.738 325.893,336.530 326.558,336.530 326.690 C 336.530 326.822,336.300 327.555,336.018 328.319 C 335.736 329.083,335.348 330.153,335.155 330.697 C 334.527 332.463,333.700 334.632,333.332 335.481 C 333.133 335.937,332.971 336.392,332.971 336.491 C 332.971 336.591,332.654 337.374,332.267 338.232 C 331.880 339.090,331.488 339.970,331.395 340.188 C 328.992 345.830,323.838 355.784,321.108 360.059 C 320.795 360.549,320.220 361.501,319.830 362.176 C 319.440 362.851,319.032 363.458,318.925 363.524 C 318.817 363.591,318.550 363.973,318.331 364.373 C 317.880 365.197,317.653 365.551,316.265 367.600 C 315.722 368.401,315.166 369.127,315.029 369.214 C 314.892 369.301,314.780 369.466,314.780 369.581 C 314.780 369.696,314.580 370.041,314.335 370.348 C 314.090 370.656,313.668 371.227,313.396 371.617 C 313.124 372.008,312.724 372.538,312.506 372.794 C 312.289 373.051,311.758 373.761,311.326 374.372 C 310.894 374.982,310.471 375.482,310.387 375.482 C 310.302 375.482,310.232 375.573,310.232 375.685 C 310.232 375.865,306.109 381.012,305.306 381.834 C 305.134 382.011,304.592 382.631,304.103 383.212 C 300.697 387.254,293.562 394.530,289.675 397.924 C 288.429 399.011,287.171 400.146,286.878 400.445 C 286.586 400.744,286.252 400.989,286.136 400.989 C 286.021 400.989,285.831 401.167,285.714 401.384 C 285.598 401.602,285.372 401.780,285.213 401.780 C 285.054 401.780,284.923 401.860,284.923 401.959 C 284.923 402.057,284.301 402.599,283.539 403.164 C 282.778 403.728,282.155 404.249,282.155 404.322 C 282.155 404.394,281.987 404.542,281.781 404.649 C 281.575 404.756,280.683 405.400,279.798 406.080 C 278.913 406.760,278.107 407.316,278.007 407.316 C 277.907 407.316,277.754 407.427,277.667 407.563 C 277.580 407.699,276.930 408.206,276.223 408.690 C 275.517 409.173,274.894 409.618,274.839 409.678 C 274.719 409.811,271.858 411.724,271.571 411.864 C 271.459 411.918,270.477 412.541,269.388 413.248 C 266.741 414.966,266.749 414.961,265.843 415.447 C 265.408 415.680,265.007 415.933,264.953 416.008 C 264.899 416.084,264.587 416.281,264.261 416.446 C 263.495 416.833,262.100 417.605,261.097 418.194 C 260.116 418.771,257.175 420.318,255.462 421.158 C 253.591 422.075,250.119 423.727,249.432 424.027 C 248.406 424.475,246.306 425.414,245.323 425.864 C 244.804 426.103,244.279 426.298,244.157 426.298 C 244.035 426.298,243.481 426.507,242.926 426.763 C 241.656 427.349,239.296 428.275,239.071 428.275 C 238.978 428.275,238.557 428.426,238.136 428.610 C 237.715 428.795,237.014 429.051,236.579 429.181 C 236.144 429.310,234.899 429.725,233.811 430.104 C 230.857 431.131,226.226 432.531,223.529 433.212 C 218.182 434.563,216.482 434.943,211.666 435.869 C 199.891 438.132,184.243 439.239,173.505 438.569 C 171.438 438.441,168.502 438.258,166.980 438.163 C 161.589 437.829,151.283 436.280,146.317 435.058 C 145.610 434.884,144.587 434.671,144.043 434.584 C 143.500 434.497,142.477 434.244,141.770 434.021 C 141.063 433.799,140.351 433.617,140.188 433.618 C 139.901 433.619,138.884 433.333,135.541 432.311 C 134.671 432.045,133.872 431.829,133.766 431.831 C 133.659 431.832,132.992 431.624,132.283 431.368 C 131.574 431.112,130.282 430.670,129.412 430.387 C 128.542 430.104,127.074 429.593,126.149 429.251 C 125.225 428.909,124.113 428.501,123.678 428.344 C 123.243 428.187,122.510 427.885,122.049 427.673 C 121.588 427.460,121.098 427.286,120.961 427.285 C 120.824 427.285,120.439 427.118,120.105 426.915 C 119.771 426.711,119.282 426.480,119.018 426.401 C 118.541 426.258,117.676 425.886,115.769 425.004 C 115.225 424.753,114.335 424.349,113.791 424.106 C 112.590 423.570,112.662 423.605,109.459 421.955 C 105.895 420.118,103.803 418.985,103.183 418.555 C 102.894 418.355,102.572 418.191,102.468 418.191 C 102.363 418.191,102.066 418.028,101.806 417.828 C 101.547 417.629,100.845 417.208,100.247 416.894 C 99.649 416.579,98.884 416.120,98.548 415.872 C 98.211 415.625,97.847 415.423,97.738 415.423 C 97.629 415.423,97.379 415.245,97.182 415.027 C 96.986 414.810,96.660 414.632,96.460 414.632 C 96.259 414.632,96.095 414.559,96.095 414.470 C 96.095 414.382,95.717 414.099,95.255 413.843 C 94.792 413.586,94.370 413.316,94.315 413.243 C 94.231 413.129,93.333 412.528,92.113 411.769 C 91.831 411.594,90.145 410.442,88.581 409.357 C 88.309 409.168,87.574 408.632,86.948 408.165 C 86.321 407.698,85.756 407.316,85.691 407.316 C 85.625 407.316,85.382 407.139,85.149 406.924 C 84.916 406.708,84.044 406.018,83.211 405.391 C 80.295 403.197,78.199 401.520,78.043 401.255 C 77.956 401.109,77.766 400.989,77.620 400.989 C 77.475 400.989,77.211 400.766,77.033 400.494 C 76.854 400.222,76.577 400.000,76.417 400.000 C 76.256 400.000,76.125 399.922,76.125 399.826 C 76.125 399.731,75.613 399.233,74.988 398.719 C 70.798 395.279,61.785 386.237,58.036 381.713 C 57.317 380.844,56.599 380.061,56.441 379.973 C 56.283 379.884,56.154 379.686,56.154 379.532 C 56.154 379.379,55.976 379.157,55.759 379.041 C 55.541 378.925,55.363 378.753,55.363 378.659 C 55.363 378.565,55.149 378.235,54.887 377.924 C 53.896 376.751,51.862 374.155,51.113 373.109 C 50.685 372.511,50.221 371.951,50.081 371.864 C 49.941 371.777,49.827 371.625,49.827 371.527 C 49.827 371.428,49.404 370.774,48.888 370.072 C 47.142 367.699,44.428 363.598,42.720 360.751 C 42.133 359.773,41.512 358.750,41.340 358.479 C 40.908 357.798,39.636 355.576,39.132 354.622 C 38.902 354.187,38.462 353.386,38.155 352.842 C 36.879 350.587,33.589 343.821,32.338 340.880 C 29.936 335.235,29.067 333.061,29.065 332.697 C 29.064 332.576,28.934 332.228,28.775 331.924 C 28.306 331.024,25.958 323.845,24.946 320.217 C 22.492 311.420,20.551 301.228,19.765 293.030 C 19.051 285.571,18.993 284.327,18.993 276.421 C 18.993 268.489,19.035 267.587,19.772 259.713 C 20.410 252.889,22.323 242.023,24.020 235.591 C 24.278 234.612,24.679 233.055,24.910 232.130 C 25.141 231.206,25.514 229.916,25.738 229.263 C 25.963 228.611,26.211 227.766,26.291 227.385 C 26.371 227.004,26.588 226.337,26.775 225.902 C 26.962 225.467,27.190 224.755,27.283 224.320 C 27.446 223.552,27.780 222.570,29.065 219.081 C 29.405 218.156,29.753 217.133,29.838 216.807 C 29.923 216.480,30.185 215.839,30.419 215.381 C 30.653 214.923,30.845 214.428,30.845 214.281 C 30.845 214.134,31.068 213.553,31.340 212.989 C 31.611 212.425,31.834 211.877,31.834 211.771 C 31.834 211.665,32.003 211.197,32.211 210.732 C 32.418 210.267,32.867 209.219,33.208 208.403 C 33.549 207.588,33.957 206.669,34.116 206.361 C 34.275 206.053,34.404 205.713,34.404 205.605 C 34.404 205.120,38.605 196.979,39.949 194.859 C 40.156 194.533,40.499 193.949,40.712 193.561 C 40.924 193.173,41.238 192.739,41.409 192.597 C 41.580 192.455,41.720 192.253,41.720 192.147 C 41.720 192.041,42.121 191.428,42.610 190.785 C 43.099 190.141,43.500 189.559,43.500 189.490 C 43.500 189.421,43.683 189.177,43.907 188.948 C 44.130 188.719,44.822 187.909,45.443 187.148 C 47.079 185.143,47.794 184.411,47.876 184.658 C 47.955 184.894,47.881 155.548,47.793 151.359 C 47.763 149.946,47.719 153.483,47.695 159.220 M178.201 155.709 C 178.203 156.144,178.244 156.299,178.291 156.053 C 178.338 155.807,178.337 155.451,178.287 155.262 C 178.238 155.073,178.199 155.274,178.201 155.709 M202.715 155.610 C 202.715 155.991,202.756 156.147,202.806 155.957 C 202.855 155.766,202.855 155.455,202.806 155.264 C 202.756 155.074,202.715 155.230,202.715 155.610 M202.525 158.576 C 202.525 159.066,202.564 159.266,202.611 159.021 C 202.658 158.777,202.658 158.376,202.611 158.131 C 202.564 157.887,202.525 158.087,202.525 158.576 M178.414 159.466 C 178.415 160.227,178.450 160.515,178.493 160.104 C 178.536 159.694,178.535 159.071,178.492 158.720 C 178.448 158.369,178.413 158.705,178.414 159.466 M202.330 162.630 C 202.332 163.174,202.370 163.372,202.416 163.072 C 202.461 162.771,202.460 162.326,202.413 162.083 C 202.366 161.840,202.329 162.086,202.330 162.630 M188.888 169.203 C 189.845 169.240,191.357 169.239,192.249 169.203 C 193.141 169.166,192.358 169.137,190.509 169.137 C 188.660 169.137,187.931 169.167,188.888 169.203 M182.056 169.397 C 182.410 169.440,182.988 169.440,183.342 169.397 C 183.695 169.353,183.406 169.317,182.699 169.317 C 181.992 169.317,181.703 169.353,182.056 169.397 M196.490 169.393 C 196.735 169.440,197.135 169.440,197.380 169.393 C 197.625 169.346,197.425 169.307,196.935 169.307 C 196.446 169.307,196.246 169.346,196.490 169.393 M347.391 170.592 C 346.848 171.078,346.756 171.321,346.587 172.718 C 346.481 173.586,346.221 175.096,346.007 176.075 C 345.794 177.054,345.621 178.033,345.624 178.250 C 345.627 178.468,345.412 179.624,345.147 180.821 C 344.311 184.590,343.843 186.936,343.846 187.346 C 343.848 187.563,343.634 188.720,343.371 189.916 C 343.108 191.112,342.791 192.625,342.666 193.277 C 341.417 199.808,340.279 205.554,339.690 208.304 C 339.156 210.799,338.697 213.179,338.599 213.965 C 338.501 214.741,338.477 214.883,337.911 217.894 C 337.676 219.145,337.268 221.147,337.005 222.343 C 336.742 223.539,336.527 224.743,336.528 225.017 C 336.529 225.291,336.219 227.027,335.838 228.873 C 335.457 230.719,335.051 232.719,334.934 233.317 C 334.818 233.915,334.513 235.428,334.258 236.678 C 334.002 237.929,333.689 239.530,333.562 240.237 C 333.139 242.597,332.590 245.466,332.369 246.466 C 332.250 247.009,332.108 247.721,332.054 248.047 C 330.665 256.521,330.358 258.138,329.011 264.091 C 327.969 268.694,328.313 269.711,330.960 269.861 L 332.357 269.940 332.432 270.758 L 332.506 271.577 332.541 270.764 C 332.575 269.964,332.596 269.941,333.811 269.412 C 334.491 269.116,335.447 268.688,335.937 268.460 C 336.426 268.232,337.093 267.933,337.420 267.795 C 339.374 266.971,340.868 266.364,341.473 266.147 C 343.054 265.582,343.779 265.304,344.340 265.047 C 349.822 262.542,350.700 262.974,350.985 268.314 C 351.075 270.000,351.242 272.402,351.356 273.653 C 351.871 279.294,351.953 281.609,351.953 290.559 C 351.953 299.833,351.882 301.642,351.259 308.453 C 350.368 318.181,348.926 326.941,346.881 335.047 C 346.606 336.134,346.202 337.736,345.982 338.606 C 345.763 339.476,345.368 340.900,345.106 341.770 C 344.844 342.640,344.441 343.974,344.211 344.736 C 343.982 345.497,343.620 346.609,343.406 347.207 C 343.193 347.805,342.903 348.695,342.763 349.184 C 342.623 349.674,342.228 350.830,341.886 351.755 C 341.544 352.679,341.133 353.804,340.973 354.254 C 340.812 354.704,340.548 355.327,340.386 355.638 C 340.224 355.949,340.091 356.312,340.090 356.446 C 340.090 356.579,339.919 357.068,339.712 357.533 C 339.505 357.998,339.052 359.046,338.706 359.862 C 337.899 361.764,337.676 362.272,337.019 363.717 C 335.802 366.392,335.416 367.217,334.933 368.166 C 334.851 368.329,334.432 369.174,334.003 370.044 C 333.251 371.569,331.963 374.004,331.108 375.516 C 329.723 377.963,327.924 381.046,327.434 381.809 C 327.120 382.299,326.576 383.188,326.225 383.786 C 325.873 384.385,325.401 385.107,325.176 385.391 C 324.825 385.833,324.270 386.673,323.036 388.629 C 322.900 388.846,322.410 389.536,321.948 390.164 C 321.485 390.791,321.107 391.344,321.107 391.392 C 321.107 391.467,319.850 393.213,318.825 394.563 C 317.359 396.491,316.837 397.142,316.709 397.199 C 316.627 397.235,316.560 397.365,316.560 397.489 C 316.560 397.612,316.383 397.893,316.168 398.115 C 315.952 398.336,314.710 399.826,313.408 401.425 C 312.106 403.024,310.855 404.537,310.627 404.786 C 309.733 405.767,309.441 406.096,307.853 407.909 C 306.008 410.015,304.210 411.901,300.911 415.188 C 297.226 418.858,296.210 419.828,293.722 422.049 C 292.417 423.215,291.320 424.247,291.284 424.343 C 291.247 424.439,291.097 424.518,290.949 424.518 C 290.801 424.518,290.564 424.682,290.421 424.883 C 290.144 425.275,289.207 426.071,284.726 429.720 C 283.149 431.005,281.658 432.228,281.412 432.439 C 281.167 432.650,280.897 432.823,280.814 432.823 C 280.730 432.823,280.519 432.978,280.346 433.169 C 280.172 433.359,279.388 433.959,278.603 434.503 C 277.818 435.047,277.023 435.630,276.838 435.798 C 276.653 435.966,275.321 436.901,273.879 437.874 C 270.372 440.242,269.680 440.688,269.150 440.922 C 268.902 441.032,268.507 441.300,268.272 441.520 C 268.037 441.739,267.774 441.918,267.688 441.918 C 267.602 441.918,267.048 442.227,266.457 442.605 C 265.866 442.983,264.686 443.662,263.833 444.115 C 262.981 444.568,262.195 445.007,262.086 445.091 C 261.610 445.461,253.827 449.415,251.607 450.416 C 250.843 450.760,249.526 451.356,247.454 452.294 C 246.911 452.540,246.021 452.922,245.477 453.143 C 244.933 453.364,243.943 453.776,243.277 454.059 C 242.611 454.341,241.975 454.572,241.862 454.572 C 241.750 454.572,241.317 454.741,240.899 454.946 C 240.480 455.152,239.493 455.552,238.705 455.836 C 234.994 457.172,234.340 457.411,233.439 457.759 C 232.908 457.964,232.376 458.131,232.257 458.131 C 232.139 458.131,231.461 458.348,230.751 458.613 C 230.042 458.878,228.527 459.376,227.385 459.720 C 226.243 460.065,224.953 460.460,224.518 460.600 C 223.729 460.853,221.121 461.603,218.685 462.278 C 214.605 463.407,214.093 463.522,213.970 463.329 C 213.543 462.664,211.529 463.233,211.307 464.082 C 211.202 464.484,208.050 464.799,207.433 464.469 C 206.829 464.145,206.126 464.223,205.734 464.656 C 205.461 464.958,205.125 465.052,204.322 465.052 C 203.237 465.052,201.929 465.306,200.660 465.763 C 200.043 465.985,199.900 465.981,199.696 465.735 C 199.326 465.289,198.198 465.371,197.848 465.870 C 197.583 466.248,197.432 466.279,196.403 466.165 C 195.127 466.023,190.705 466.443,188.470 466.919 C 186.627 467.311,185.092 467.308,182.387 466.906 C 179.411 466.463,172.525 466.459,169.451 466.899 C 166.463 467.326,165.273 467.311,163.073 466.817 C 161.881 466.549,160.249 466.374,158.382 466.314 C 155.889 466.233,155.466 466.171,155.107 465.834 C 154.661 465.415,152.700 465.274,152.338 465.635 C 152.220 465.753,151.602 465.636,150.667 465.318 C 149.495 464.920,148.928 464.835,147.960 464.910 C 146.995 464.984,146.661 464.934,146.379 464.672 C 145.796 464.131,145.341 464.047,144.725 464.365 C 143.586 464.954,141.249 464.568,140.217 463.621 C 139.372 462.846,138.061 462.634,137.859 463.241 C 137.792 463.442,133.776 462.619,133.410 462.329 C 133.277 462.224,132.813 462.025,132.378 461.888 C 131.943 461.751,131.498 461.570,131.389 461.487 C 130.882 461.096,125.430 459.492,121.700 458.636 C 120.395 458.336,118.705 457.930,117.944 457.733 C 116.001 457.230,115.147 457.095,115.379 457.327 C 115.574 457.521,116.130 457.828,119.379 459.539 C 120.385 460.069,121.364 460.588,121.554 460.692 C 124.543 462.339,130.682 464.446,132.517 464.455 C 133.268 464.459,134.256 464.804,134.256 465.063 C 134.256 465.289,136.055 466.172,136.826 466.325 C 137.207 466.400,138.141 466.629,138.903 466.832 C 142.201 467.715,146.372 468.737,149.679 469.471 C 150.929 469.749,152.753 470.153,153.732 470.370 C 154.711 470.588,155.868 470.821,156.303 470.888 C 156.738 470.956,157.983 471.179,159.071 471.383 C 173.988 474.189,193.243 475.344,204.053 474.081 C 205.739 473.884,208.230 473.643,209.590 473.545 C 210.949 473.447,212.595 473.275,213.248 473.162 C 213.900 473.049,215.235 472.872,216.214 472.769 C 218.016 472.579,221.151 472.087,225.111 471.372 C 226.307 471.157,227.553 470.939,227.879 470.888 C 229.161 470.690,235.925 469.160,237.996 468.599 C 238.775 468.388,239.531 468.217,239.676 468.218 C 239.822 468.219,240.741 467.991,241.720 467.710 C 245.731 466.560,246.339 466.383,247.949 465.896 C 249.498 465.427,250.546 465.081,253.188 464.166 C 253.732 463.978,254.444 463.758,254.770 463.679 C 255.096 463.599,255.797 463.341,256.328 463.106 C 256.858 462.871,257.393 462.679,257.515 462.679 C 257.638 462.679,258.717 462.280,259.912 461.791 C 261.108 461.303,262.150 460.902,262.229 460.901 C 262.307 460.900,262.841 460.690,263.415 460.434 C 263.989 460.178,264.948 459.766,265.546 459.519 C 266.144 459.272,267.123 458.849,267.721 458.579 C 268.319 458.310,268.987 458.017,269.204 457.930 C 270.040 457.592,280.134 452.570,281.167 451.978 C 281.765 451.634,282.654 451.139,283.144 450.876 C 283.633 450.614,284.364 450.203,284.767 449.965 C 285.171 449.726,286.149 449.148,286.942 448.680 C 289.712 447.045,289.967 446.890,290.163 446.717 C 290.272 446.621,290.919 446.215,291.601 445.816 C 292.283 445.416,292.951 444.991,293.084 444.871 C 293.218 444.751,293.827 444.327,294.439 443.928 C 295.050 443.530,296.200 442.758,296.994 442.215 C 297.787 441.671,298.603 441.127,298.806 441.006 C 299.009 440.885,299.371 440.616,299.612 440.407 C 299.853 440.199,300.494 439.723,301.038 439.350 C 301.582 438.976,302.116 438.571,302.224 438.449 C 302.333 438.328,302.912 437.881,303.510 437.457 C 304.108 437.033,304.706 436.596,304.839 436.485 C 304.973 436.374,305.284 436.131,305.531 435.946 C 306.373 435.316,310.725 431.766,311.160 431.354 C 311.399 431.129,311.755 430.804,311.951 430.632 C 312.148 430.460,313.109 429.621,314.088 428.767 C 316.459 426.699,317.256 425.957,319.558 423.678 C 320.629 422.617,321.553 421.750,321.612 421.750 C 321.670 421.750,322.181 421.252,322.747 420.644 C 323.313 420.036,324.603 418.679,325.614 417.629 C 328.333 414.803,328.600 414.513,330.487 412.358 C 331.439 411.270,332.566 410.003,332.990 409.542 C 333.415 409.081,333.762 408.618,333.762 408.514 C 333.762 408.410,333.889 408.253,334.045 408.166 C 334.201 408.078,334.923 407.251,335.649 406.327 C 336.375 405.403,337.048 404.617,337.145 404.581 C 337.242 404.544,337.321 404.405,337.321 404.270 C 337.321 404.136,337.521 403.838,337.766 403.608 C 338.010 403.379,338.300 403.073,338.408 402.928 C 338.517 402.783,338.921 402.266,339.305 401.777 C 339.690 401.289,340.154 400.667,340.336 400.395 C 340.518 400.124,341.360 398.992,342.207 397.881 C 344.333 395.091,345.326 393.687,346.713 391.508 C 347.148 390.825,347.596 390.165,347.709 390.041 C 348.077 389.638,349.184 387.923,349.184 387.755 C 349.184 387.665,349.303 387.493,349.448 387.373 C 349.594 387.252,349.919 386.752,350.172 386.261 C 350.424 385.770,350.706 385.368,350.797 385.368 C 350.889 385.368,350.964 385.190,350.964 384.973 C 350.964 384.755,351.039 384.577,351.130 384.577 C 351.222 384.577,351.555 384.121,351.872 383.563 C 352.625 382.235,353.165 381.296,353.732 380.326 C 354.820 378.467,355.188 377.811,356.450 375.482 C 357.294 373.924,360.524 367.475,361.104 366.189 C 361.374 365.591,361.872 364.501,362.211 363.766 C 362.550 363.032,362.827 362.339,362.827 362.227 C 362.827 362.115,362.965 361.812,363.134 361.555 C 363.302 361.298,363.614 360.634,363.826 360.079 C 364.038 359.524,364.382 358.648,364.589 358.131 C 364.797 357.615,365.158 356.703,365.390 356.105 C 365.623 355.507,365.942 354.737,366.100 354.394 C 366.257 354.052,366.387 353.602,366.387 353.396 C 366.387 353.189,366.467 352.936,366.565 352.832 C 366.761 352.626,367.909 349.470,368.166 348.431 C 368.255 348.071,368.502 347.315,368.716 346.750 C 369.280 345.259,370.366 341.657,371.409 337.815 C 372.363 334.301,372.575 333.452,372.719 332.575 C 372.799 332.086,373.051 330.929,373.278 330.005 C 374.091 326.702,375.317 320.186,375.566 317.845 C 375.624 317.301,375.799 316.144,375.955 315.274 C 376.111 314.404,376.294 313.114,376.361 312.407 C 376.428 311.700,376.652 309.476,376.858 307.464 C 378.052 295.789,378.054 278.360,376.860 272.763 C 374.381 261.132,376.404 258.628,386.789 260.479 C 388.237 260.737,390.133 261.044,391.003 261.161 C 391.873 261.278,393.672 261.522,395.000 261.704 C 397.916 262.103,398.580 262.009,399.392 261.084 C 400.197 260.167,400.243 258.841,399.506 257.755 C 399.234 257.354,399.011 256.955,399.011 256.868 C 399.011 256.781,398.833 256.549,398.616 256.352 C 398.398 256.155,398.220 255.905,398.220 255.796 C 398.220 255.687,397.998 255.307,397.726 254.950 C 397.454 254.594,397.232 254.211,397.232 254.100 C 397.232 253.989,397.009 253.570,396.738 253.170 C 396.466 252.769,396.243 252.327,396.243 252.189 C 396.243 252.050,396.171 251.906,396.084 251.870 C 395.996 251.834,395.491 251.003,394.963 250.025 C 394.435 249.046,393.928 248.216,393.837 248.179 C 393.747 248.143,393.673 247.973,393.673 247.802 C 393.673 247.631,393.450 247.200,393.178 246.844 C 392.907 246.487,392.684 246.146,392.684 246.085 C 392.684 246.025,392.173 245.079,391.547 243.983 C 390.922 242.888,390.209 241.619,389.962 241.164 C 389.715 240.709,389.307 239.980,389.055 239.545 C 388.803 239.110,388.214 238.043,387.747 237.173 C 387.280 236.303,386.793 235.457,386.665 235.294 C 386.538 235.131,386.328 234.775,386.199 234.503 C 386.070 234.231,385.874 233.875,385.763 233.712 C 385.583 233.446,384.571 231.634,383.555 229.758 C 383.349 229.377,382.975 228.710,382.724 228.275 C 382.473 227.840,381.975 226.950,381.617 226.298 C 381.259 225.645,380.778 224.800,380.548 224.419 C 380.136 223.735,379.831 223.197,379.092 221.849 C 378.883 221.468,378.533 220.845,378.314 220.465 C 377.450 218.965,376.311 216.939,375.532 215.522 C 375.323 215.141,374.901 214.385,374.593 213.841 C 374.285 213.297,373.860 212.541,373.650 212.160 C 373.439 211.780,373.142 211.328,372.990 211.156 C 372.838 210.984,372.714 210.700,372.714 210.525 C 372.714 210.350,372.624 210.151,372.515 210.083 C 372.405 210.015,372.151 209.632,371.950 209.231 C 371.453 208.241,370.489 206.548,370.353 206.426 C 370.292 206.372,370.087 206.016,369.897 205.635 C 369.708 205.255,369.465 204.810,369.359 204.647 C 369.252 204.483,368.656 203.416,368.034 202.274 C 367.412 201.132,366.846 200.153,366.777 200.099 C 366.709 200.044,366.521 199.733,366.360 199.407 C 366.075 198.827,364.428 195.842,363.961 195.057 C 362.906 193.286,362.549 192.653,361.003 189.817 C 360.796 189.436,360.423 188.769,360.174 188.334 C 359.925 187.899,359.473 187.098,359.168 186.555 C 358.864 186.011,358.562 185.522,358.497 185.467 C 358.432 185.413,358.223 185.057,358.034 184.676 C 357.844 184.296,357.606 183.851,357.504 183.688 C 357.403 183.524,357.266 183.258,357.200 183.094 C 357.135 182.931,356.777 182.308,356.406 181.710 C 356.034 181.112,355.589 180.315,355.416 179.938 C 355.242 179.561,355.038 179.205,354.960 179.147 C 354.883 179.088,354.652 178.729,354.448 178.349 C 354.244 177.968,353.854 177.257,353.582 176.767 C 353.310 176.278,352.949 175.610,352.778 175.284 C 352.608 174.958,352.396 174.602,352.308 174.493 C 351.983 174.092,350.964 171.972,350.964 171.698 C 350.964 170.351,348.511 169.591,347.391 170.592 M293.874 175.465 C 293.305 176.148,291.857 178.333,290.657 180.319 C 289.456 182.305,288.176 184.387,287.812 184.946 C 287.448 185.504,286.193 187.430,285.022 189.224 C 273.791 206.437,260.040 222.215,246.076 233.910 C 242.146 237.202,241.423 238.077,240.601 240.534 L 240.138 241.918 240.040 321.107 L 239.941 400.297 239.498 401.468 C 237.159 407.668,229.318 407.390,227.694 401.050 C 227.410 399.943,227.381 392.759,227.387 325.936 C 227.394 258.505,227.367 252.003,227.078 251.562 C 226.135 250.124,224.646 250.277,222.265 252.059 C 218.899 254.579,210.264 259.853,203.658 263.426 C 196.074 267.527,187.614 271.286,180.264 273.821 C 174.302 275.877,172.651 277.155,171.635 280.500 L 171.213 281.890 171.172 344.751 L 171.132 407.612 170.651 408.973 C 168.427 415.260,159.521 414.177,158.575 407.505 C 158.436 406.526,158.373 386.230,158.379 344.946 C 158.389 283.011,158.388 282.931,157.662 282.128 C 155.964 280.252,139.425 287.776,130.400 294.531 C 114.573 306.377,104.102 326.001,102.505 346.812 C 102.434 347.736,102.364 354.276,102.350 361.345 L 102.323 374.197 101.810 375.414 C 100.652 378.160,98.638 379.382,95.557 379.208 C 93.255 379.078,92.319 378.485,88.779 374.911 C 70.023 355.974,56.923 332.433,51.524 307.958 C 48.105 292.463,47.508 280.125,47.732 229.659 L 47.861 200.791 47.276 201.780 C 44.356 206.716,40.306 214.928,37.623 221.354 C 37.351 222.007,36.960 222.921,36.755 223.386 C 36.549 223.852,36.382 224.352,36.382 224.498 C 36.382 224.645,36.185 225.198,35.944 225.729 C 35.703 226.259,35.399 227.049,35.268 227.484 C 35.137 227.919,34.713 229.209,34.325 230.351 C 31.394 238.997,28.731 250.690,28.083 257.764 C 27.985 258.836,27.754 260.959,27.570 262.481 C 27.027 266.959,27.071 283.494,27.638 288.581 C 27.869 290.648,28.106 292.872,28.165 293.524 C 28.292 294.918,28.911 298.949,29.470 302.027 C 29.688 303.223,29.864 304.373,29.861 304.583 C 29.859 304.793,30.078 305.950,30.349 307.154 C 30.620 308.358,31.072 310.366,31.354 311.616 C 32.545 316.905,33.744 321.274,35.291 325.952 C 35.794 327.474,36.282 328.987,36.375 329.313 C 36.467 329.639,36.826 330.662,37.172 331.587 C 37.518 332.511,37.964 333.712,38.165 334.256 C 39.080 336.740,40.335 339.746,40.555 339.980 C 40.652 340.084,40.732 340.282,40.732 340.422 C 40.732 340.942,45.793 351.229,46.891 352.941 C 47.065 353.213,47.494 353.969,47.843 354.622 C 48.193 355.274,48.604 355.949,48.757 356.120 C 48.911 356.292,49.036 356.510,49.036 356.604 C 49.036 356.698,49.245 357.092,49.500 357.478 C 49.756 357.865,50.275 358.670,50.655 359.268 C 51.694 360.906,54.038 364.481,54.220 364.706 C 54.926 365.577,56.352 367.626,56.352 367.770 C 56.352 367.868,56.465 368.020,56.603 368.107 C 56.740 368.194,56.985 368.454,57.146 368.685 C 57.889 369.747,59.218 371.462,59.547 371.782 C 59.747 371.977,59.911 372.199,59.912 372.277 C 59.912 372.354,60.157 372.684,60.456 373.010 C 60.754 373.337,61.488 374.182,62.086 374.889 C 62.684 375.596,63.262 376.273,63.371 376.394 C 63.480 376.515,64.147 377.266,64.854 378.064 C 68.758 382.470,74.968 388.343,80.336 392.705 C 82.315 394.314,84.090 395.768,84.281 395.936 C 84.471 396.105,84.670 396.243,84.723 396.243 C 84.775 396.243,85.465 396.733,86.255 397.331 C 88.135 398.755,87.908 398.590,89.373 399.598 C 90.080 400.084,90.746 400.558,90.855 400.651 C 91.348 401.072,98.051 405.307,98.684 405.598 C 98.837 405.668,99.318 405.948,99.753 406.220 C 100.188 406.492,100.960 406.937,101.469 407.209 C 101.978 407.481,102.450 407.794,102.519 407.905 C 102.587 408.016,102.785 408.107,102.959 408.107 C 103.133 408.107,103.566 408.329,103.923 408.601 C 104.279 408.873,104.667 409.095,104.786 409.095 C 104.904 409.095,105.332 409.301,105.738 409.552 C 106.574 410.071,112.788 413.154,115.769 414.530 C 116.856 415.032,118.102 415.612,118.537 415.818 C 119.530 416.290,123.022 417.743,124.073 418.121 C 124.508 418.278,125.164 418.545,125.531 418.715 C 125.897 418.884,126.431 419.098,126.717 419.190 C 127.003 419.282,127.860 419.590,128.621 419.874 C 130.708 420.654,133.258 421.540,134.256 421.833 C 134.745 421.976,135.546 422.234,136.036 422.405 C 137.888 423.052,141.758 424.156,145.032 424.970 C 146.120 425.241,147.632 425.619,148.393 425.810 C 149.155 426.001,150.222 426.226,150.766 426.310 C 151.310 426.394,152.378 426.613,153.139 426.796 C 153.900 426.980,155.057 427.202,155.709 427.289 C 156.362 427.377,158.008 427.630,159.367 427.852 C 171.823 429.886,188.115 429.883,200.494 427.847 C 201.854 427.623,203.515 427.365,204.186 427.274 C 204.857 427.182,206.236 426.923,207.251 426.698 C 211.658 425.718,213.535 425.278,214.879 424.910 C 215.667 424.695,217.002 424.330,217.845 424.101 C 218.688 423.872,219.911 423.502,220.564 423.280 C 221.216 423.057,222.017 422.807,222.343 422.724 C 223.204 422.505,228.121 420.820,229.165 420.387 C 229.654 420.184,230.588 419.823,231.241 419.585 C 232.357 419.177,232.873 418.966,235.937 417.666 C 239.474 416.166,245.380 413.344,248.641 411.598 C 249.293 411.248,250.717 410.486,251.804 409.904 C 252.892 409.322,253.915 408.737,254.078 408.604 C 254.241 408.471,254.642 408.228,254.968 408.064 C 255.961 407.564,256.528 407.236,257.146 406.804 C 257.470 406.577,257.870 406.333,258.033 406.262 C 258.196 406.190,258.894 405.775,259.585 405.340 C 260.275 404.904,260.921 404.548,261.018 404.548 C 261.116 404.548,261.196 404.479,261.196 404.395 C 261.196 404.311,261.523 404.066,261.923 403.851 C 262.323 403.636,262.748 403.371,262.867 403.262 C 263.155 403.000,264.944 401.780,265.040 401.780 C 265.142 401.780,270.698 397.982,271.181 397.582 C 271.290 397.492,272.046 396.936,272.862 396.346 C 273.678 395.757,274.523 395.137,274.740 394.969 C 274.958 394.801,275.803 394.179,276.619 393.587 C 277.435 392.994,278.191 392.437,278.300 392.349 C 278.408 392.260,279.563 391.388,280.866 390.410 C 288.521 384.662,297.871 375.746,297.077 374.953 C 296.123 373.999,296.184 380.575,296.138 274.444 C 296.095 176.312,296.093 175.874,295.699 175.097 C 295.157 174.027,295.053 174.048,293.874 175.465 M332.646 275.334 C 332.645 276.312,332.678 276.738,332.720 276.279 C 332.761 275.820,332.762 275.019,332.721 274.499 C 332.680 273.979,332.646 274.355,332.646 275.334 M332.629 282.946 C 332.629 283.435,332.668 283.636,332.715 283.391 C 332.762 283.146,332.762 282.746,332.715 282.501 C 332.668 282.257,332.629 282.457,332.629 282.946 M332.625 284.627 C 332.627 285.062,332.668 285.216,332.715 284.971 C 332.763 284.725,332.761 284.369,332.711 284.180 C 332.662 283.991,332.623 284.192,332.625 284.627 M332.432 288.285 C 332.432 288.774,332.470 288.974,332.517 288.730 C 332.564 288.485,332.564 288.085,332.517 287.840 C 332.470 287.595,332.432 287.795,332.432 288.285 M332.226 290.855 C 332.226 291.236,332.266 291.391,332.316 291.201 C 332.366 291.011,332.366 290.699,332.316 290.509 C 332.266 290.319,332.226 290.475,332.226 290.855 " stroke="none" fill="#53bbcb" fill-rule="evenodd"></path><path id="path1" d="M187.642 0.265 C 187.642 0.362,187.064 0.405,186.357 0.360 C 185.639 0.314,185.072 0.359,185.072 0.461 C 185.072 0.562,184.750 0.593,184.356 0.529 C 183.956 0.464,182.624 0.595,181.341 0.827 C 180.076 1.054,178.819 1.270,178.547 1.307 C 177.478 1.450,177.031 1.537,176.219 1.761 C 175.754 1.890,175.295 1.946,175.198 1.886 C 175.101 1.826,174.991 1.868,174.954 1.979 C 174.917 2.090,174.559 2.223,174.158 2.274 C 173.757 2.325,172.846 2.587,172.132 2.855 C 171.419 3.124,170.835 3.302,170.835 3.251 C 170.835 3.200,170.515 3.292,170.122 3.456 C 169.730 3.620,169.330 3.705,169.233 3.645 C 169.135 3.585,169.056 3.635,169.056 3.757 C 169.056 3.878,168.967 3.923,168.858 3.856 C 168.749 3.788,168.660 3.806,168.660 3.894 C 168.660 4.069,167.393 4.562,166.831 4.606 C 166.641 4.620,166.485 4.686,166.485 4.751 C 166.485 4.873,164.449 5.766,164.169 5.767 C 164.084 5.767,163.925 5.840,163.816 5.929 C 163.707 6.018,162.862 6.489,161.938 6.977 C 158.827 8.617,158.322 8.896,158.053 9.119 C 157.906 9.241,157.784 9.264,157.782 9.169 C 157.781 9.074,157.714 9.086,157.634 9.195 C 157.428 9.478,156.006 10.522,156.006 10.391 C 156.006 10.331,155.825 10.463,155.603 10.684 C 155.382 10.906,155.101 11.026,154.980 10.950 C 154.845 10.867,154.814 10.903,154.900 11.042 C 154.977 11.168,154.958 11.270,154.858 11.270 C 154.757 11.270,153.974 11.842,153.118 12.541 C 152.262 13.241,151.535 13.786,151.503 13.754 C 151.057 13.308,143.475 21.661,141.058 25.262 C 140.418 26.216,139.872 26.841,139.748 26.764 C 139.625 26.689,139.590 26.724,139.665 26.845 C 139.738 26.963,139.485 27.592,139.103 28.244 C 138.721 28.896,138.408 29.570,138.408 29.742 C 138.408 29.914,138.314 30.054,138.199 30.054 C 138.084 30.054,138.045 30.143,138.112 30.252 C 138.179 30.361,138.167 30.559,138.084 30.692 C 137.913 30.969,137.865 31.883,138.013 32.032 C 138.166 32.185,138.849 33.702,138.806 33.793 C 138.785 33.838,138.912 33.955,139.087 34.053 C 139.262 34.151,139.352 34.317,139.288 34.421 C 139.223 34.526,139.256 34.587,139.362 34.558 C 139.542 34.507,142.212 36.577,143.747 37.957 C 147.757 41.565,153.691 47.265,153.566 47.389 C 153.531 47.425,154.044 48.010,154.707 48.690 C 157.128 51.170,158.580 52.865,157.953 52.477 C 157.810 52.389,157.778 52.423,157.867 52.568 C 157.946 52.695,158.087 52.752,158.180 52.695 C 158.580 52.447,167.216 63.496,167.151 64.172 C 167.137 64.321,167.223 64.424,167.343 64.402 C 167.535 64.365,168.807 66.088,170.377 68.512 C 170.659 68.947,171.238 69.837,171.663 70.489 C 172.088 71.142,172.424 71.755,172.410 71.851 C 172.395 71.948,172.462 72.081,172.558 72.148 C 172.904 72.388,173.589 73.503,173.466 73.626 C 173.397 73.695,173.423 73.752,173.526 73.752 C 173.628 73.752,173.886 74.086,174.100 74.493 C 174.314 74.901,174.541 75.279,174.605 75.334 C 174.769 75.474,175.056 76.195,175.019 76.372 C 175.002 76.453,175.081 76.520,175.195 76.520 C 175.404 76.520,176.082 77.873,176.013 78.151 C 175.993 78.233,176.053 78.300,176.147 78.300 C 176.347 78.300,179.799 85.149,179.799 85.545 C 179.799 85.693,179.855 85.813,179.924 85.813 C 180.070 85.813,180.624 87.225,180.564 87.444 C 180.542 87.526,180.597 87.593,180.685 87.593 C 180.812 87.593,181.733 89.521,181.819 89.965 C 181.830 90.020,181.988 90.420,182.171 90.855 C 182.355 91.290,182.496 91.725,182.486 91.822 C 182.476 91.918,182.547 92.052,182.645 92.118 C 182.784 92.213,183.698 94.259,183.804 94.711 C 183.816 94.765,183.948 95.121,184.097 95.502 C 184.245 95.882,184.347 96.261,184.324 96.342 C 184.300 96.424,184.370 96.490,184.478 96.490 C 184.587 96.490,184.676 96.613,184.676 96.762 C 184.676 96.911,184.860 97.449,185.085 97.957 C 185.309 98.464,185.524 99.032,185.563 99.218 C 185.601 99.403,185.861 100.067,186.140 100.692 C 186.420 101.317,186.603 101.829,186.547 101.829 C 186.491 101.829,186.590 102.108,186.766 102.449 C 187.176 103.241,187.867 105.184,187.900 105.635 C 187.913 105.826,188.000 105.981,188.092 105.981 C 188.183 105.981,188.204 106.070,188.136 106.179 C 188.069 106.288,188.123 106.377,188.257 106.377 C 188.390 106.377,188.446 106.429,188.382 106.494 C 188.318 106.558,188.443 107.025,188.660 107.532 C 189.167 108.715,189.868 110.753,189.876 111.073 C 189.880 111.209,189.962 111.320,190.059 111.320 C 190.156 111.320,190.180 111.431,190.111 111.567 C 190.042 111.703,190.133 111.636,190.313 111.419 C 190.792 110.840,191.764 108.875,191.875 108.261 C 192.025 107.434,192.404 106.377,192.551 106.376 C 192.624 106.376,192.696 106.046,192.710 105.643 C 192.723 105.240,192.835 104.876,192.958 104.835 C 193.081 104.795,193.136 104.688,193.080 104.598 C 193.025 104.508,193.155 104.026,193.370 103.525 C 193.584 103.024,193.762 102.571,193.766 102.518 C 193.769 102.465,193.772 102.283,193.772 102.114 C 193.772 101.931,193.865 101.863,194.000 101.947 C 194.133 102.029,194.175 102.001,194.100 101.881 C 194.030 101.767,194.113 101.335,194.286 100.922 C 194.459 100.508,194.629 100.032,194.665 99.863 C 194.760 99.411,195.436 97.594,195.551 97.479 C 195.606 97.425,195.681 97.203,195.719 96.986 C 195.757 96.770,195.920 96.338,196.080 96.028 C 196.241 95.717,196.404 95.316,196.443 95.136 C 196.483 94.957,196.839 94.053,197.235 93.129 C 197.631 92.205,198.046 91.204,198.157 90.905 C 198.267 90.606,198.438 90.361,198.536 90.361 C 198.635 90.361,198.697 90.294,198.675 90.213 C 198.608 89.965,199.179 88.581,199.348 88.581 C 199.435 88.581,199.487 88.515,199.463 88.433 C 199.383 88.153,200.153 86.406,200.356 86.406 C 200.469 86.406,200.509 86.355,200.447 86.293 C 200.306 86.152,201.842 83.001,202.149 82.801 C 202.272 82.721,202.301 82.654,202.213 82.653 C 202.031 82.649,202.666 81.439,202.966 81.219 C 203.075 81.139,203.096 81.072,203.013 81.071 C 202.931 81.069,203.116 80.601,203.425 80.030 C 204.989 77.144,205.303 76.607,205.510 76.474 C 205.633 76.394,205.673 76.327,205.598 76.325 C 205.523 76.324,205.807 75.766,206.230 75.087 C 206.652 74.407,207.224 73.432,207.501 72.920 C 207.957 72.073,209.545 69.587,209.935 69.105 C 210.024 68.997,210.394 68.418,210.758 67.820 C 211.123 67.222,211.483 66.688,211.558 66.634 C 211.633 66.579,211.756 66.401,211.830 66.238 C 211.904 66.075,212.455 65.274,213.053 64.459 C 213.652 63.643,214.501 62.462,214.941 61.834 C 215.381 61.206,215.815 60.738,215.905 60.794 C 215.996 60.850,216.058 60.770,216.043 60.617 C 216.011 60.288,219.885 55.368,221.463 53.732 C 222.066 53.107,222.524 52.595,222.481 52.595 C 222.437 52.595,222.953 51.973,223.628 51.212 C 224.302 50.451,224.948 49.886,225.063 49.957 C 225.177 50.028,225.219 50.001,225.155 49.898 C 224.982 49.618,225.116 49.457,227.719 46.817 C 232.298 42.172,233.885 40.693,234.129 40.844 C 234.273 40.933,234.315 40.907,234.235 40.778 C 234.162 40.660,234.870 39.893,235.836 39.044 C 236.789 38.207,237.907 37.219,238.321 36.848 C 238.735 36.478,239.172 36.235,239.291 36.309 C 239.414 36.385,239.452 36.352,239.378 36.234 C 239.307 36.119,239.768 35.575,240.402 35.026 C 242.372 33.319,243.228 31.412,242.530 30.282 C 242.452 30.157,242.440 30.054,242.503 30.054 C 242.566 30.054,242.425 29.676,242.189 29.214 C 241.954 28.752,241.781 28.339,241.807 28.297 C 241.832 28.255,241.766 28.166,241.660 28.099 C 241.554 28.033,241.213 27.562,240.902 27.054 C 239.405 24.609,237.190 21.759,234.744 19.131 C 234.121 18.462,233.745 17.902,233.829 17.766 C 233.910 17.635,233.885 17.589,233.771 17.660 C 233.661 17.728,232.887 17.138,232.051 16.349 C 231.214 15.560,230.501 14.943,230.465 14.979 C 230.429 15.015,230.167 14.766,229.881 14.427 C 229.596 14.088,229.362 13.865,229.362 13.932 C 229.362 14.070,226.425 11.796,225.465 10.914 C 225.116 10.594,224.789 10.373,224.739 10.423 C 224.646 10.517,223.428 9.721,223.211 9.425 C 223.144 9.334,223.032 9.268,222.961 9.279 C 222.836 9.299,222.486 9.101,221.013 8.175 C 220.607 7.920,220.217 7.711,220.146 7.711 C 220.075 7.711,219.695 7.512,219.302 7.268 C 218.908 7.024,218.542 6.821,218.487 6.818 C 218.433 6.815,217.677 6.468,216.807 6.048 C 215.085 5.216,213.503 4.567,212.803 4.406 C 212.558 4.350,212.358 4.220,212.358 4.118 C 212.358 4.015,212.287 3.975,212.201 4.028 C 212.114 4.082,211.660 3.953,211.191 3.743 C 210.721 3.533,210.169 3.361,209.964 3.361 C 209.758 3.361,209.590 3.267,209.590 3.152 C 209.590 3.037,209.511 2.991,209.415 3.050 C 209.319 3.110,208.719 2.973,208.081 2.747 C 206.969 2.353,206.559 2.256,205.772 2.200 C 205.555 2.185,205.470 2.085,205.555 1.947 C 205.638 1.812,205.610 1.772,205.486 1.848 C 205.189 2.032,203.263 1.558,203.259 1.301 C 203.258 1.183,203.179 1.210,203.084 1.360 C 202.975 1.532,202.812 1.570,202.642 1.464 C 202.494 1.371,202.217 1.321,202.027 1.352 C 201.836 1.383,201.681 1.309,201.681 1.187 C 201.681 1.065,201.600 1.015,201.502 1.076 C 201.404 1.136,200.314 1.017,199.080 0.810 C 197.846 0.603,196.547 0.480,196.194 0.536 C 195.837 0.593,195.551 0.552,195.551 0.444 C 195.551 0.327,195.007 0.289,194.167 0.350 C 193.395 0.405,192.783 0.369,192.783 0.269 C 192.783 0.170,191.626 0.089,190.213 0.089 C 188.799 0.089,187.642 0.168,187.642 0.265 M51.112 30.252 C 51.045 30.361,50.772 30.450,50.504 30.450 C 49.809 30.450,48.591 31.622,48.591 32.290 C 48.591 32.583,48.522 32.823,48.437 32.823 C 48.352 32.823,48.331 33.178,48.389 33.613 C 48.447 34.048,48.417 34.404,48.321 34.404 C 48.221 34.404,48.145 43.045,48.143 54.523 C 48.141 65.588,48.100 119.219,48.051 173.702 C 47.960 274.277,47.964 274.887,48.651 286.604 C 49.435 299.959,52.389 313.619,57.246 326.347 C 58.477 329.573,58.814 330.405,59.333 331.501 C 59.542 331.943,59.713 332.366,59.713 332.440 C 59.713 332.921,64.677 342.595,66.732 346.120 C 74.400 359.271,89.225 377.062,93.977 378.816 C 96.561 379.770,99.705 378.768,101.122 376.538 C 102.275 374.724,102.328 373.998,102.263 360.943 C 102.186 345.674,102.429 342.456,104.198 335.344 C 109.816 312.762,122.524 296.802,142.853 286.798 C 144.704 285.887,146.686 284.959,147.257 284.736 C 147.827 284.513,148.762 284.141,149.333 283.911 C 155.280 281.508,157.270 281.185,158.121 282.484 C 158.462 283.004,158.482 285.746,158.576 345.720 L 158.675 408.412 159.310 409.693 C 161.467 414.048,168.317 413.988,170.260 409.596 C 171.046 407.818,171.044 408.009,171.031 344.182 C 171.018 283.856,171.028 282.217,171.395 280.832 C 172.349 277.237,174.033 275.854,180.017 273.748 C 188.306 270.833,195.304 267.730,203.658 263.267 C 209.581 260.102,220.260 253.559,222.442 251.758 C 224.390 250.150,225.474 249.984,226.801 251.092 L 227.484 251.662 227.583 326.375 L 227.682 401.087 228.196 402.184 C 230.450 406.989,236.612 406.994,239.045 402.193 C 240.115 400.080,240.066 404.310,240.013 320.119 C 239.967 246.271,239.982 242.249,240.314 241.040 C 241.083 238.235,241.554 237.638,246.022 233.801 C 258.610 222.994,268.277 212.426,279.023 197.726 C 281.457 194.396,287.138 185.889,288.860 182.996 C 292.449 176.965,294.485 174.048,295.131 174.011 C 295.254 174.005,295.565 174.466,295.823 175.037 L 296.293 176.075 296.337 274.623 C 296.368 344.348,296.444 373.360,296.594 373.817 C 296.987 375.005,297.221 374.995,298.389 373.741 C 299.793 372.231,300.905 370.934,300.794 370.934 C 300.745 370.934,301.077 370.489,301.533 369.945 C 301.988 369.402,302.455 369.015,302.570 369.086 C 302.693 369.162,302.722 369.122,302.639 368.989 C 302.458 368.695,303.488 367.338,303.763 367.508 C 303.890 367.587,303.927 367.519,303.856 367.335 C 303.749 367.056,304.989 365.323,305.558 364.956 C 305.682 364.876,305.712 364.809,305.626 364.808 C 305.539 364.806,305.761 364.393,306.120 363.890 C 306.864 362.846,307.136 362.448,307.939 361.228 C 308.254 360.748,308.588 360.326,308.680 360.290 C 308.773 360.254,308.848 360.137,308.848 360.030 C 308.848 359.811,309.854 358.415,310.085 358.312 C 310.168 358.276,310.191 358.175,310.137 358.088 C 310.083 358.000,310.171 357.819,310.333 357.685 C 310.495 357.550,310.628 357.359,310.628 357.259 C 310.628 357.059,311.419 355.880,311.683 355.687 C 311.774 355.621,311.853 355.487,311.859 355.391 C 311.865 355.294,311.980 355.037,312.114 354.820 C 312.359 354.425,313.806 351.935,314.379 350.925 C 315.060 349.723,315.866 348.214,316.550 346.857 C 316.949 346.066,317.322 345.465,317.379 345.522 C 317.436 345.579,317.482 345.510,317.482 345.369 C 317.482 345.228,317.970 344.094,318.567 342.848 C 319.163 341.602,319.866 340.094,320.130 339.496 C 320.393 338.898,320.654 338.364,320.710 338.309 C 320.765 338.255,320.828 338.122,320.850 338.013 C 320.872 337.904,321.213 337.059,321.608 336.134 C 322.003 335.210,322.396 334.226,322.483 333.948 C 322.569 333.670,322.792 333.147,322.978 332.787 C 323.165 332.427,323.353 331.933,323.398 331.689 C 323.442 331.445,323.700 330.744,323.971 330.131 C 324.242 329.518,324.423 329.016,324.374 329.016 C 324.325 329.016,324.460 328.609,324.673 328.110 C 324.887 327.612,325.062 327.033,325.062 326.825 C 325.062 326.616,325.166 326.446,325.292 326.446 C 325.419 326.446,325.471 326.394,325.408 326.330 C 325.344 326.267,325.469 325.711,325.685 325.095 C 325.901 324.478,326.114 323.804,326.158 323.596 C 326.202 323.388,326.376 322.802,326.545 322.294 C 326.713 321.786,326.886 321.190,326.928 320.970 C 326.971 320.751,327.199 319.919,327.437 319.123 C 327.674 318.327,327.898 317.447,327.935 317.167 C 327.972 316.887,328.181 316.087,328.400 315.388 C 328.620 314.689,328.757 314.050,328.707 313.968 C 328.656 313.886,328.696 313.768,328.797 313.706 C 328.897 313.644,328.933 313.415,328.876 313.198 C 328.816 312.968,328.870 312.803,329.005 312.803 C 329.133 312.803,329.192 312.730,329.137 312.641 C 329.082 312.552,329.204 311.831,329.408 311.038 C 329.612 310.245,329.735 309.482,329.681 309.341 C 329.627 309.201,329.679 309.026,329.797 308.953 C 329.915 308.881,329.968 308.751,329.916 308.666 C 329.863 308.581,330.031 307.517,330.288 306.301 C 330.545 305.086,330.710 303.916,330.654 303.702 C 330.595 303.477,330.650 303.312,330.784 303.312 C 330.912 303.312,330.966 303.229,330.904 303.128 C 330.841 303.028,330.960 301.886,331.168 300.593 C 331.375 299.299,331.500 298.002,331.444 297.711 C 331.388 297.420,331.433 297.182,331.543 297.182 C 331.652 297.182,331.795 297.044,331.860 296.876 C 331.927 296.700,331.894 296.620,331.782 296.689 C 331.670 296.759,331.587 296.554,331.587 296.205 C 331.587 295.873,331.682 295.601,331.798 295.601 C 331.914 295.601,331.957 295.437,331.894 295.238 C 331.831 295.039,331.919 293.415,332.091 291.630 C 332.364 288.790,332.515 278.865,332.399 271.429 L 332.378 270.094 331.513 270.094 C 329.478 270.094,328.531 269.487,328.323 268.050 C 328.196 267.170,328.355 266.244,329.571 260.801 C 329.996 258.898,330.547 256.184,330.795 254.770 C 331.042 253.356,331.370 251.577,331.523 250.816 C 331.675 250.054,331.889 247.785,331.997 245.774 C 332.106 243.762,332.274 241.359,332.372 240.435 C 332.476 239.457,332.535 195.873,332.513 136.134 L 332.477 33.515 331.932 32.482 C 331.447 31.561,330.484 30.592,329.988 30.524 C 329.889 30.510,329.740 30.478,329.659 30.452 C 329.577 30.426,329.355 30.420,329.165 30.439 C 328.974 30.459,328.819 30.402,328.819 30.314 C 328.819 30.226,328.240 30.153,327.533 30.153 C 326.826 30.153,326.248 30.232,326.248 30.328 C 326.248 30.423,325.892 30.454,325.457 30.396 C 325.022 30.337,324.612 30.378,324.544 30.487 C 324.477 30.596,324.192 30.641,323.910 30.587 C 323.628 30.533,322.292 30.661,320.940 30.871 C 319.589 31.081,318.437 31.207,318.380 31.150 C 318.323 31.093,318.158 31.145,318.014 31.265 C 317.869 31.385,317.628 31.435,317.477 31.378 C 317.326 31.320,316.191 31.488,314.953 31.751 C 313.716 32.014,312.593 32.188,312.457 32.137 C 312.321 32.086,312.210 32.140,312.210 32.257 C 312.210 32.374,312.086 32.422,311.935 32.364 C 311.784 32.306,310.979 32.433,310.147 32.646 C 309.315 32.859,308.549 32.981,308.445 32.916 C 308.340 32.852,308.255 32.892,308.255 33.006 C 308.255 33.120,308.055 33.199,307.810 33.182 C 307.565 33.164,306.851 33.302,306.222 33.488 C 305.593 33.674,304.992 33.773,304.887 33.708 C 304.782 33.643,304.696 33.694,304.696 33.821 C 304.696 33.947,304.563 34.000,304.399 33.937 C 304.236 33.875,304.103 33.904,304.103 34.003 C 304.103 34.101,303.947 34.174,303.757 34.164 C 303.566 34.154,302.933 34.291,302.348 34.469 C 301.764 34.647,301.215 34.749,301.129 34.696 C 301.043 34.643,300.943 34.684,300.907 34.788 C 300.870 34.892,300.556 35.026,300.208 35.087 C 299.860 35.148,299.341 35.286,299.054 35.395 C 298.768 35.504,298.452 35.543,298.352 35.482 C 298.253 35.420,298.171 35.457,298.171 35.563 C 298.171 35.729,296.947 36.111,295.996 36.242 C 295.833 36.264,295.653 36.344,295.596 36.419 C 295.540 36.494,295.273 36.596,295.003 36.647 C 294.734 36.697,294.024 36.934,293.426 37.174 C 292.827 37.413,291.982 37.726,291.547 37.868 C 291.112 38.011,290.067 38.393,289.224 38.718 C 288.381 39.042,287.690 39.250,287.689 39.179 C 287.687 39.109,287.614 39.164,287.526 39.303 C 287.438 39.441,287.178 39.591,286.948 39.635 C 286.719 39.679,286.347 39.814,286.123 39.934 C 285.898 40.054,285.713 40.082,285.711 39.997 C 285.710 39.912,285.634 39.959,285.543 40.102 C 285.452 40.245,285.254 40.384,285.101 40.410 C 284.949 40.436,284.457 40.649,284.009 40.883 C 283.560 41.117,283.137 41.252,283.069 41.184 C 283.002 41.117,282.946 41.147,282.946 41.252 C 282.946 41.433,281.717 41.972,281.440 41.912 C 281.368 41.897,281.255 41.959,281.189 42.049 C 281.027 42.270,275.968 44.771,275.779 44.723 C 275.697 44.703,275.630 44.775,275.630 44.884 C 275.630 44.993,275.533 45.082,275.414 45.082 C 275.294 45.082,274.946 45.260,274.640 45.478 C 274.229 45.771,274.056 45.810,273.982 45.627 C 273.922 45.477,273.876 45.515,273.866 45.724 C 273.858 45.914,273.779 46.070,273.691 46.070 C 273.603 46.070,272.380 46.764,270.972 47.613 C 269.565 48.462,268.191 49.285,267.919 49.442 C 267.647 49.599,267.269 49.853,267.079 50.006 C 266.888 50.159,266.731 50.203,266.730 50.105 C 266.728 50.006,266.661 50.015,266.581 50.125 C 266.348 50.443,264.998 51.409,264.785 51.409 C 264.678 51.409,264.561 51.479,264.525 51.565 C 264.386 51.894,262.541 52.990,262.338 52.864 C 262.219 52.791,262.180 52.823,262.250 52.936 C 262.319 53.048,261.999 53.391,261.539 53.698 C 261.079 54.005,260.502 54.431,260.258 54.646 C 260.014 54.860,259.766 54.988,259.707 54.929 C 259.649 54.871,259.314 55.100,258.964 55.439 C 258.409 55.975,257.040 57.017,256.076 57.637 C 255.906 57.746,255.677 57.931,255.566 58.048 C 254.991 58.652,253.748 59.446,253.507 59.362 C 253.354 59.309,253.287 59.356,253.357 59.468 C 253.425 59.579,253.148 59.920,252.742 60.227 C 252.335 60.534,251.913 60.893,251.804 61.025 C 251.696 61.157,250.761 61.948,249.728 62.781 C 245.021 66.578,236.520 75.011,232.836 79.536 C 231.973 80.596,231.194 81.463,231.106 81.463 C 231.017 81.463,230.944 81.581,230.944 81.725 C 230.944 82.090,230.062 82.884,229.860 82.701 C 229.769 82.618,229.751 82.649,229.820 82.770 C 229.888 82.891,229.391 83.727,228.714 84.628 C 228.038 85.530,227.350 86.457,227.187 86.689 C 227.024 86.922,226.320 87.932,225.622 88.934 C 224.924 89.936,224.274 90.756,224.177 90.756 C 224.080 90.756,224.047 90.832,224.104 90.924 C 224.161 91.016,224.011 91.303,223.770 91.562 C 223.529 91.821,223.345 92.079,223.361 92.136 C 223.378 92.193,223.311 92.217,223.213 92.190 C 223.115 92.163,223.053 92.207,223.076 92.289 C 223.138 92.515,222.448 93.764,221.974 94.282 C 221.742 94.535,221.591 94.758,221.639 94.776 C 221.686 94.795,221.561 95.077,221.361 95.403 C 221.160 95.729,220.804 96.307,220.568 96.688 C 220.333 97.069,220.083 97.536,220.012 97.726 C 219.942 97.916,219.807 98.072,219.713 98.072 C 219.619 98.072,219.540 98.183,219.537 98.319 C 219.535 98.455,218.853 99.803,218.021 101.313 C 217.190 102.824,216.510 104.137,216.510 104.230 C 216.510 104.323,216.421 104.399,216.312 104.399 C 216.204 104.399,216.137 104.475,216.164 104.567 C 216.224 104.768,214.702 108.006,214.467 108.178 C 214.376 108.245,214.316 108.359,214.334 108.432 C 214.387 108.642,213.486 110.727,213.343 110.727 C 213.272 110.727,213.208 110.838,213.200 110.974 C 213.178 111.352,212.676 112.590,212.489 112.726 C 212.398 112.793,212.339 112.906,212.358 112.979 C 212.377 113.052,212.284 113.398,212.150 113.748 C 212.017 114.098,211.881 114.516,211.847 114.678 C 211.814 114.839,211.692 115.002,211.577 115.040 C 211.461 115.079,211.413 115.186,211.470 115.278 C 211.527 115.370,211.448 115.740,211.296 116.101 C 211.143 116.462,210.777 117.380,210.483 118.141 C 210.189 118.902,209.845 119.591,209.719 119.671 C 209.552 119.777,209.557 119.817,209.737 119.819 C 209.915 119.821,209.874 120.109,209.589 120.860 C 209.372 121.431,209.194 122.054,209.194 122.244 C 209.194 122.435,209.100 122.590,208.985 122.590 C 208.870 122.590,208.825 122.670,208.885 122.767 C 208.945 122.864,208.864 123.254,208.705 123.634 C 208.547 124.014,208.372 124.579,208.317 124.891 C 208.262 125.202,207.993 126.113,207.720 126.915 C 207.447 127.717,207.272 128.451,207.331 128.546 C 207.390 128.642,207.339 128.720,207.217 128.720 C 207.095 128.720,207.044 128.797,207.102 128.892 C 207.161 128.987,207.004 129.769,206.754 130.629 C 206.504 131.490,206.335 132.302,206.379 132.434 C 206.423 132.566,206.357 132.674,206.233 132.674 C 206.109 132.674,206.060 132.760,206.125 132.865 C 206.190 132.970,206.096 133.615,205.917 134.298 C 205.738 134.982,205.591 135.743,205.589 135.990 C 205.587 136.236,205.506 136.487,205.410 136.547 C 205.313 136.607,205.277 136.727,205.331 136.814 C 205.385 136.901,205.216 137.915,204.955 139.067 C 204.695 140.219,204.529 141.343,204.587 141.564 C 204.645 141.786,204.606 141.967,204.499 141.967 C 204.393 141.967,204.348 142.190,204.400 142.462 C 204.454 142.743,204.403 142.956,204.280 142.956 C 204.162 142.956,204.113 143.080,204.171 143.231 C 204.229 143.382,204.174 144.070,204.049 144.761 C 203.770 146.301,203.639 147.564,203.659 148.542 C 203.667 148.950,203.584 149.283,203.474 149.283 C 203.365 149.283,203.321 149.404,203.378 149.551 C 203.434 149.699,203.330 151.145,203.146 152.764 C 202.963 154.384,202.816 156.755,202.820 158.033 C 202.825 159.311,202.759 160.400,202.673 160.452 C 202.587 160.505,202.564 161.706,202.622 163.122 C 202.698 165.005,202.665 165.695,202.496 165.695 C 202.353 165.695,202.311 165.872,202.385 166.165 C 202.560 166.865,201.781 168.516,201.079 168.930 C 200.758 169.120,200.493 169.204,200.491 169.116 C 200.490 169.029,200.416 169.071,200.328 169.210 C 200.148 169.493,195.156 169.782,195.156 169.509 C 195.156 169.423,192.976 169.352,190.311 169.352 C 187.647 169.352,185.467 169.420,185.467 169.503 C 185.467 169.720,181.338 169.649,181.203 169.430 C 181.141 169.329,181.007 169.299,180.905 169.361 C 180.275 169.751,178.238 167.541,178.634 166.899 C 178.708 166.780,178.674 166.683,178.558 166.683 C 178.443 166.683,178.349 166.322,178.349 165.881 C 178.349 165.439,178.416 165.119,178.497 165.170 C 178.697 165.294,178.553 162.881,178.345 162.628 C 178.255 162.518,178.184 160.827,178.187 158.871 C 178.190 156.875,178.051 154.029,177.870 152.387 C 177.693 150.777,177.600 149.375,177.664 149.272 C 177.727 149.170,177.673 149.086,177.544 149.086 C 177.386 149.086,177.345 148.860,177.420 148.397 C 177.482 148.018,177.443 147.654,177.334 147.586 C 177.225 147.519,177.177 147.357,177.226 147.227 C 177.276 147.097,177.198 146.302,177.051 145.460 C 176.905 144.619,176.835 143.800,176.896 143.641 C 176.957 143.482,176.899 143.351,176.767 143.351 C 176.609 143.351,176.569 143.181,176.651 142.857 C 176.719 142.585,176.693 142.363,176.593 142.363 C 176.493 142.363,176.411 142.074,176.411 141.720 C 176.410 141.367,176.264 140.518,176.087 139.835 C 175.909 139.151,175.817 138.506,175.882 138.401 C 175.947 138.296,175.895 138.211,175.767 138.211 C 175.632 138.211,175.578 138.045,175.638 137.815 C 175.695 137.598,175.666 137.374,175.575 137.317 C 175.483 137.260,175.416 137.060,175.424 136.872 C 175.440 136.537,174.846 133.999,174.268 131.931 C 174.109 131.359,174.032 130.803,174.099 130.695 C 174.166 130.587,174.116 130.499,173.990 130.499 C 173.863 130.499,173.810 130.366,173.873 130.203 C 173.935 130.040,173.900 129.906,173.795 129.906 C 173.690 129.906,173.604 129.695,173.604 129.436 C 173.604 129.177,173.467 128.640,173.301 128.241 C 173.134 127.842,173.050 127.431,173.115 127.327 C 173.179 127.223,173.128 127.138,173.001 127.138 C 172.874 127.138,172.822 127.004,172.884 126.841 C 172.947 126.678,172.897 126.545,172.773 126.545 C 172.650 126.545,172.602 126.492,172.666 126.428 C 172.730 126.364,172.656 125.954,172.502 125.517 C 172.348 125.080,172.267 124.651,172.321 124.563 C 172.375 124.475,172.331 124.374,172.222 124.337 C 172.114 124.301,171.900 123.826,171.748 123.282 C 171.301 121.687,169.782 117.545,168.666 114.879 C 167.537 112.182,166.886 110.541,166.823 110.232 C 166.800 110.124,166.738 109.990,166.683 109.936 C 166.629 109.881,166.394 109.436,166.162 108.947 C 165.929 108.458,165.553 107.679,165.325 107.217 C 165.097 106.755,164.975 106.375,165.055 106.374 C 165.135 106.372,165.111 106.305,165.002 106.225 C 164.717 106.016,163.095 102.818,163.272 102.815 C 163.354 102.813,163.322 102.746,163.202 102.666 C 163.081 102.586,162.649 101.898,162.241 101.137 C 161.834 100.376,161.410 99.642,161.299 99.506 C 161.189 99.370,161.157 99.259,161.229 99.259 C 161.301 99.259,161.263 99.147,161.145 99.011 C 160.966 98.807,158.637 94.967,157.576 93.129 C 157.420 92.857,157.234 92.590,157.165 92.536 C 157.096 92.481,156.784 92.024,156.473 91.519 C 155.993 90.739,155.274 89.668,153.633 87.286 C 152.276 85.316,151.652 84.474,151.380 84.249 C 151.206 84.104,151.063 83.913,151.063 83.824 C 151.063 83.735,150.795 83.369,150.467 83.010 C 150.139 82.651,149.915 82.240,149.970 82.098 C 150.025 81.955,149.997 81.883,149.908 81.938 C 149.820 81.992,148.998 81.130,148.082 80.021 C 147.166 78.912,145.816 77.306,145.081 76.453 C 144.347 75.600,143.798 74.818,143.860 74.717 C 143.923 74.616,143.887 74.557,143.781 74.587 C 143.496 74.668,139.392 70.361,139.534 70.131 C 139.601 70.023,139.565 69.990,139.454 70.059 C 139.258 70.180,138.699 69.702,138.571 69.303 C 138.536 69.194,138.445 69.126,138.369 69.151 C 138.235 69.196,135.062 66.124,135.118 66.003 C 135.133 65.969,135.111 65.962,135.068 65.986 C 135.025 66.011,134.313 65.427,133.486 64.688 C 131.474 62.891,127.140 59.287,126.156 58.592 C 125.720 58.284,125.312 57.876,125.248 57.684 C 125.184 57.492,125.055 57.383,124.960 57.441 C 124.866 57.500,124.044 56.989,123.134 56.307 C 122.225 55.625,121.345 54.978,121.180 54.869 C 121.015 54.760,120.232 54.226,119.440 53.683 C 118.648 53.139,117.587 52.431,117.082 52.109 C 116.577 51.787,116.134 51.453,116.098 51.367 C 116.062 51.281,115.947 51.211,115.843 51.211 C 115.739 51.211,115.413 51.047,115.118 50.847 C 114.823 50.646,114.226 50.260,113.791 49.988 C 113.356 49.717,112.734 49.327,112.407 49.122 C 112.081 48.917,111.770 48.747,111.715 48.743 C 111.522 48.731,110.032 47.768,109.889 47.564 C 109.809 47.449,109.743 47.433,109.741 47.528 C 109.739 47.623,109.627 47.609,109.491 47.498 C 109.355 47.386,108.843 47.080,108.354 46.819 C 106.907 46.045,106.484 45.785,106.330 45.576 C 106.250 45.467,106.184 45.441,106.182 45.517 C 106.178 45.700,100.983 43.103,100.794 42.824 C 100.714 42.706,100.647 42.673,100.646 42.751 C 100.642 42.933,97.426 41.502,97.235 41.233 C 97.155 41.120,97.088 41.096,97.087 41.180 C 97.085 41.263,96.639 41.106,96.095 40.830 C 95.551 40.555,95.106 40.377,95.106 40.435 C 95.106 40.493,94.662 40.315,94.119 40.040 C 93.576 39.765,93.106 39.563,93.075 39.592 C 93.043 39.621,92.664 39.493,92.233 39.308 C 91.049 38.800,88.311 37.731,88.087 37.689 C 87.351 37.551,85.421 36.847,85.419 36.716 C 85.418 36.628,85.340 36.604,85.246 36.662 C 85.152 36.720,84.535 36.557,83.875 36.298 C 83.215 36.040,82.637 35.867,82.589 35.914 C 82.542 35.962,82.039 35.818,81.472 35.594 C 80.905 35.371,80.136 35.139,79.763 35.080 C 79.391 35.021,78.471 34.763,77.720 34.508 C 76.969 34.252,76.318 34.079,76.274 34.123 C 76.229 34.168,75.449 33.987,74.539 33.723 C 73.629 33.458,72.819 33.282,72.739 33.332 C 72.658 33.382,72.539 33.336,72.474 33.230 C 72.409 33.124,72.224 33.088,72.065 33.149 C 71.905 33.210,71.775 33.157,71.775 33.030 C 71.775 32.903,71.689 32.852,71.584 32.917 C 71.479 32.982,70.841 32.892,70.166 32.717 C 69.491 32.542,68.684 32.391,68.372 32.383 C 68.061 32.374,67.765 32.300,67.714 32.218 C 67.663 32.136,67.444 32.115,67.227 32.172 C 67.009 32.229,66.831 32.179,66.831 32.061 C 66.831 31.943,66.718 31.890,66.579 31.943 C 66.440 31.996,65.499 31.870,64.488 31.663 C 63.476 31.455,62.478 31.330,62.269 31.385 C 62.059 31.440,61.888 31.387,61.888 31.269 C 61.888 31.136,61.668 31.097,61.319 31.167 C 61.006 31.229,60.692 31.187,60.621 31.072 C 60.550 30.957,60.379 30.906,60.241 30.959 C 60.102 31.012,59.103 30.922,58.018 30.759 C 56.934 30.596,55.859 30.512,55.629 30.573 C 55.399 30.633,55.158 30.598,55.095 30.496 C 55.032 30.393,54.532 30.352,53.985 30.405 C 53.323 30.468,52.991 30.426,52.991 30.277 C 52.991 29.999,51.283 29.976,51.112 30.252 " stroke="none" fill="#24546c" fill-rule="evenodd"></path><path id="path2" d="M47.933 179.634 C 47.934 181.918,47.962 182.825,47.997 181.650 C 48.032 180.475,48.032 178.607,47.997 177.498 C 47.962 176.389,47.933 177.350,47.933 179.634 M296.259 178.448 C 296.260 179.209,296.295 179.496,296.338 179.086 C 296.381 178.676,296.380 178.053,296.336 177.702 C 296.293 177.351,296.258 177.687,296.259 178.448 M47.937 207.217 C 47.937 210.425,47.964 211.738,47.998 210.133 C 48.031 208.529,48.031 205.905,47.998 204.301 C 47.964 202.696,47.937 204.009,47.937 207.217 M262.074 218.537 L 261.493 219.179 262.135 218.599 C 262.734 218.057,262.869 217.894,262.716 217.894 C 262.682 217.894,262.393 218.183,262.074 218.537 M257.336 223.480 L 255.561 225.309 257.390 223.534 C 258.396 222.557,259.219 221.734,259.219 221.705 C 259.219 221.561,258.985 221.781,257.336 223.480 M47.747 245.082 C 47.747 255.413,47.771 259.668,47.800 254.538 C 47.830 249.408,47.830 240.955,47.800 235.754 C 47.771 230.553,47.747 234.750,47.747 245.082 M252.190 228.423 L 251.409 229.263 252.249 228.482 C 253.031 227.755,253.180 227.583,253.031 227.583 C 252.998 227.583,252.620 227.961,252.190 228.423 M242.797 236.629 L 242.116 237.370 242.857 236.689 C 243.547 236.055,243.690 235.887,243.539 235.887 C 243.505 235.887,243.172 236.221,242.797 236.629 M47.922 270.588 C 47.922 271.676,47.956 272.095,47.996 271.521 C 48.036 270.946,48.035 270.056,47.995 269.544 C 47.954 269.031,47.921 269.501,47.922 270.588 M330.746 270.036 C 330.991 270.083,331.391 270.083,331.636 270.036 C 331.881 269.989,331.681 269.950,331.191 269.950 C 330.702 269.950,330.502 269.989,330.746 270.036 M173.295 277.261 L 172.714 277.904 173.356 277.323 C 173.710 277.004,173.999 276.715,173.999 276.681 C 173.999 276.528,173.836 276.662,173.295 277.261 M48.111 278.003 C 48.111 278.710,48.147 278.999,48.190 278.646 C 48.234 278.292,48.234 277.714,48.190 277.360 C 48.147 277.007,48.111 277.296,48.111 278.003 M48.304 282.551 C 48.304 283.149,48.341 283.393,48.387 283.094 C 48.432 282.795,48.432 282.306,48.387 282.007 C 48.341 281.708,48.304 281.953,48.304 282.551 M171.090 283.243 C 171.091 283.786,171.130 283.985,171.175 283.685 C 171.220 283.384,171.219 282.939,171.172 282.696 C 171.125 282.453,171.088 282.699,171.090 283.243 M158.452 286.307 C 158.452 287.449,158.484 287.916,158.524 287.346 C 158.564 286.775,158.564 285.840,158.524 285.269 C 158.484 284.698,158.452 285.166,158.452 286.307 M48.499 286.802 C 48.501 287.346,48.539 287.545,48.585 287.244 C 48.630 286.943,48.629 286.499,48.582 286.255 C 48.535 286.012,48.498 286.258,48.499 286.802 M171.127 303.213 C 171.127 311.804,171.152 315.290,171.181 310.959 C 171.211 306.628,171.211 299.599,171.181 295.339 C 171.152 291.078,171.127 294.622,171.127 303.213 M158.476 349.086 C 158.476 380.840,158.499 393.802,158.527 377.888 C 158.555 361.975,158.555 335.994,158.527 320.152 C 158.499 304.311,158.476 317.331,158.476 349.086 M123.081 300.791 L 121.107 302.818 123.134 300.844 C 124.249 299.759,125.161 298.847,125.161 298.817 C 125.161 298.674,124.914 298.909,123.081 300.791 M296.287 354.424 C 296.287 362.037,296.312 365.122,296.342 361.281 C 296.372 357.439,296.372 351.211,296.342 347.440 C 296.312 343.669,296.287 346.812,296.287 354.424 M102.294 350.371 C 102.294 351.295,102.328 351.673,102.369 351.211 C 102.411 350.749,102.411 349.993,102.369 349.530 C 102.328 349.068,102.294 349.446,102.294 350.371 M102.301 357.291 C 102.301 358.651,102.332 359.207,102.371 358.527 C 102.409 357.847,102.409 356.735,102.371 356.055 C 102.332 355.376,102.301 355.932,102.301 357.291 M296.063 370.934 C 296.063 371.750,296.097 372.084,296.140 371.676 C 296.183 371.268,296.183 370.601,296.140 370.193 C 296.097 369.785,296.063 370.119,296.063 370.934 M85.022 371.033 C 85.391 371.414,85.737 371.725,85.792 371.725 C 85.846 371.725,85.589 371.414,85.220 371.033 C 84.851 370.652,84.505 370.341,84.450 370.341 C 84.396 370.341,84.653 370.652,85.022 371.033 M102.270 372.318 C 102.270 372.699,102.311 372.855,102.361 372.664 C 102.410 372.474,102.410 372.163,102.361 371.972 C 102.311 371.782,102.270 371.938,102.270 372.318 M89.076 375.284 C 90.377 376.589,91.487 377.657,91.541 377.657 C 91.595 377.657,90.575 376.589,89.273 375.284 C 87.972 373.979,86.862 372.912,86.808 372.912 C 86.754 372.912,87.774 373.979,89.076 375.284 M171.126 390.707 C 171.126 397.504,171.151 400.284,171.181 396.886 C 171.212 393.487,171.212 387.926,171.181 384.528 C 171.151 381.130,171.126 383.910,171.126 390.707 M229.362 404.251 C 229.731 404.632,230.078 404.943,230.132 404.943 C 230.186 404.943,229.929 404.632,229.560 404.251 C 229.191 403.870,228.845 403.559,228.790 403.559 C 228.736 403.559,228.993 403.870,229.362 404.251 M171.092 405.536 C 171.092 406.134,171.129 406.379,171.175 406.080 C 171.220 405.781,171.220 405.292,171.175 404.993 C 171.129 404.694,171.092 404.938,171.092 405.536 M233.073 405.877 C 233.429 405.921,233.962 405.920,234.260 405.875 C 234.557 405.830,234.266 405.794,233.613 405.795 C 232.961 405.796,232.718 405.833,233.073 405.877 " stroke="none" fill="#3d8197" fill-rule="evenodd"></path><path id="path3" d="M186.357 0.198 L 185.961 0.368 186.357 0.362 C 186.574 0.359,186.975 0.285,187.247 0.198 L 187.741 0.039 187.247 0.034 C 186.975 0.030,186.574 0.104,186.357 0.198 M189.570 0.143 C 189.923 0.187,190.502 0.187,190.855 0.143 C 191.209 0.099,190.919 0.063,190.213 0.063 C 189.506 0.063,189.217 0.099,189.570 0.143 M193.376 0.198 C 194.138 0.442,194.545 0.442,194.167 0.198 C 194.004 0.092,193.648 0.014,193.376 0.023 L 192.882 0.039 193.376 0.198 M231.042 15.422 C 231.109 15.530,231.359 15.721,231.598 15.846 C 232.029 16.072,232.029 16.070,231.655 15.649 C 231.278 15.224,230.814 15.052,231.042 15.422 M327.286 30.191 C 327.477 30.240,327.788 30.240,327.978 30.191 C 328.169 30.141,328.013 30.100,327.632 30.100 C 327.252 30.100,327.096 30.141,327.286 30.191 M330.684 30.824 C 330.758 30.944,331.002 31.139,331.226 31.259 C 331.519 31.416,331.597 31.417,331.501 31.262 C 331.427 31.143,331.183 30.947,330.959 30.827 C 330.666 30.670,330.588 30.669,330.684 30.824 M48.061 33.861 C 48.073 34.399,48.103 34.439,48.245 34.108 C 48.480 33.562,48.480 33.218,48.245 33.218 C 48.136 33.218,48.054 33.507,48.061 33.861 M48.143 54.968 C 48.143 65.680,48.166 70.062,48.196 64.706 C 48.225 59.350,48.225 50.586,48.196 45.230 C 48.166 39.874,48.143 44.256,48.143 54.968 M146.517 40.761 C 147.388 41.577,147.852 41.865,147.306 41.251 C 147.034 40.945,146.634 40.605,146.416 40.495 C 146.115 40.343,146.139 40.405,146.517 40.761 M150.582 44.698 C 151.336 45.465,152.130 46.190,152.348 46.309 C 152.565 46.428,152.014 45.800,151.123 44.913 C 150.231 44.027,149.437 43.302,149.356 43.302 C 149.276 43.302,149.828 43.930,150.582 44.698 M226.198 48.492 C 225.907 48.890,225.859 49.028,226.073 48.855 C 226.397 48.591,226.887 47.850,226.737 47.850 C 226.699 47.850,226.457 48.139,226.198 48.492 M154.622 48.739 C 154.991 49.120,155.337 49.432,155.391 49.432 C 155.446 49.432,155.188 49.120,154.820 48.739 C 154.451 48.359,154.104 48.047,154.050 48.047 C 153.996 48.047,154.253 48.359,154.622 48.739 M224.318 50.422 C 224.007 50.747,223.800 51.013,223.859 51.013 C 224.042 51.013,225.061 50.008,224.971 49.917 C 224.923 49.870,224.630 50.097,224.318 50.422 M221.636 53.513 L 221.157 54.036 221.700 53.688 C 222.000 53.497,222.244 53.262,222.244 53.166 C 222.244 52.897,222.154 52.948,221.636 53.513 M159.565 54.298 C 159.565 54.408,159.854 54.760,160.207 55.079 L 160.849 55.660 160.358 55.067 C 160.088 54.740,159.799 54.389,159.716 54.286 C 159.622 54.169,159.565 54.174,159.565 54.298 M125.962 58.280 C 125.969 58.361,126.258 58.645,126.605 58.910 L 127.237 59.391 126.656 58.761 C 126.052 58.106,125.944 58.031,125.962 58.280 M164.508 60.603 C 164.764 60.875,165.006 61.097,165.046 61.097 C 165.210 61.097,164.396 60.121,164.227 60.115 C 164.126 60.112,164.253 60.331,164.508 60.603 M134.155 65.248 C 134.467 65.573,134.756 65.805,134.797 65.763 C 134.889 65.672,133.896 64.656,133.716 64.656 C 133.646 64.656,133.844 64.922,134.155 65.248 M168.671 66.337 C 168.674 66.599,169.225 67.321,169.337 67.210 C 169.385 67.161,169.254 66.901,169.047 66.631 C 168.839 66.361,168.670 66.228,168.671 66.337 M136.629 67.486 C 136.629 67.521,136.918 67.810,137.271 68.129 L 137.914 68.710 137.333 68.067 C 136.792 67.468,136.629 67.334,136.629 67.486 M140.583 71.478 C 140.952 71.859,141.299 72.170,141.353 72.170 C 141.407 72.170,141.150 71.859,140.781 71.478 C 140.412 71.097,140.066 70.786,140.011 70.786 C 139.957 70.786,140.214 71.097,140.583 71.478 M144.736 76.026 C 144.991 76.298,145.231 76.520,145.269 76.520 C 145.307 76.520,145.192 76.298,145.014 76.026 C 144.836 75.754,144.596 75.531,144.481 75.531 C 144.365 75.531,144.480 75.754,144.736 76.026 M219.791 97.578 C 219.613 97.850,219.544 98.072,219.637 98.072 C 219.731 98.072,219.909 97.850,220.033 97.578 C 220.157 97.306,220.226 97.084,220.187 97.084 C 220.147 97.084,219.969 97.306,219.791 97.578 M47.939 126.644 C 47.939 130.776,47.966 132.495,47.998 130.463 C 48.030 128.431,48.030 125.050,47.998 122.949 C 47.966 120.849,47.939 122.511,47.939 126.644 M178.406 161.641 C 178.407 162.185,178.445 162.384,178.491 162.083 C 178.536 161.783,178.535 161.338,178.488 161.095 C 178.441 160.851,178.404 161.097,178.406 161.641 M202.422 163.435 C 202.341 163.518,202.277 164.038,202.280 164.591 C 202.285 165.374,202.331 165.519,202.489 165.247 C 202.716 164.857,202.655 163.199,202.422 163.435 M184.231 169.393 C 184.476 169.440,184.876 169.440,185.121 169.393 C 185.366 169.346,185.166 169.307,184.676 169.307 C 184.187 169.307,183.987 169.346,184.231 169.393 M47.936 189.817 C 47.936 192.590,47.963 193.725,47.997 192.338 C 48.031 190.952,48.031 188.683,47.997 187.296 C 47.963 185.910,47.936 187.044,47.936 189.817 M332.424 272.071 C 332.424 272.452,332.464 272.608,332.514 272.417 C 332.564 272.227,332.564 271.915,332.514 271.725 C 332.464 271.535,332.424 271.691,332.424 272.071 M332.653 279.585 C 332.653 281.053,332.684 281.653,332.722 280.919 C 332.760 280.185,332.760 278.984,332.722 278.250 C 332.684 277.516,332.653 278.117,332.653 279.585 M331.830 294.612 C 331.830 294.993,331.871 295.148,331.921 294.958 C 331.971 294.768,331.971 294.456,331.921 294.266 C 331.871 294.076,331.830 294.231,331.830 294.612 M298.159 374.047 C 297.568 374.666,297.303 374.997,297.570 374.783 C 298.233 374.254,299.377 373.063,299.299 372.985 C 299.264 372.950,298.751 373.428,298.159 374.047 " stroke="none" fill="#5f7f8f" fill-rule="evenodd"></path><path id="path4" d="M192.783 0.225 C 192.783 0.319,193.005 0.395,193.277 0.395 C 193.549 0.395,193.772 0.361,193.772 0.320 C 193.772 0.278,193.549 0.201,193.277 0.149 C 193.005 0.097,192.783 0.131,192.783 0.225 M184.478 0.395 L 183.984 0.554 184.528 0.573 C 184.827 0.584,185.072 0.504,185.072 0.395 C 185.072 0.287,185.049 0.207,185.022 0.217 C 184.995 0.228,184.750 0.308,184.478 0.395 M227.583 12.515 C 227.583 12.566,228.001 12.950,228.513 13.369 C 229.024 13.788,229.379 14.028,229.301 13.901 C 229.135 13.633,227.583 12.380,227.583 12.515 M231.932 16.312 C 232.187 16.583,232.439 16.762,232.493 16.708 C 232.589 16.612,231.768 15.818,231.571 15.818 C 231.515 15.818,231.677 16.040,231.932 16.312 M146.931 17.807 C 146.452 18.239,146.102 18.634,146.152 18.685 C 146.202 18.735,146.634 18.377,147.112 17.890 C 148.185 16.797,148.094 16.755,146.931 17.807 M234.207 18.586 C 234.403 18.804,234.656 18.982,234.769 18.982 C 234.881 18.982,234.782 18.804,234.549 18.586 C 234.315 18.369,234.062 18.191,233.987 18.191 C 233.911 18.191,234.010 18.369,234.207 18.586 M236.838 21.470 C 237.056 21.888,237.667 22.484,237.667 22.279 C 237.667 22.217,237.432 21.916,237.145 21.612 C 236.771 21.215,236.684 21.175,236.838 21.470 M142.928 22.491 C 142.360 23.178,142.119 23.529,142.216 23.529 C 142.271 23.529,142.553 23.218,142.844 22.837 C 143.382 22.131,143.448 21.864,142.928 22.491 M239.761 25.408 C 239.939 25.680,240.163 25.902,240.259 25.902 C 240.354 25.902,240.239 25.680,240.003 25.408 C 239.766 25.136,239.542 24.913,239.505 24.913 C 239.468 24.913,239.583 25.136,239.761 25.408 M329.115 30.263 L 328.720 30.443 329.115 30.402 C 329.333 30.379,329.644 30.442,329.807 30.542 C 330.063 30.699,330.067 30.678,329.832 30.389 C 329.683 30.205,329.550 30.061,329.536 30.068 C 329.522 30.076,329.333 30.163,329.115 30.263 M53.337 30.392 C 53.581 30.439,53.982 30.439,54.226 30.392 C 54.471 30.345,54.271 30.306,53.782 30.306 C 53.292 30.306,53.092 30.345,53.337 30.392 M325.309 30.388 C 325.499 30.438,325.811 30.438,326.001 30.388 C 326.191 30.339,326.036 30.298,325.655 30.298 C 325.274 30.298,325.119 30.339,325.309 30.388 M49.271 30.853 C 48.642 31.439,48.740 31.594,49.382 31.028 C 49.681 30.764,49.963 30.526,50.008 30.499 C 50.054 30.472,50.004 30.450,49.897 30.450 C 49.791 30.450,49.509 30.631,49.271 30.853 M242.660 31.340 C 242.662 31.775,242.703 31.929,242.750 31.683 C 242.797 31.437,242.795 31.081,242.746 30.892 C 242.696 30.703,242.658 30.905,242.660 31.340 M239.888 35.511 L 239.150 36.221 239.990 35.576 C 240.452 35.222,240.830 34.902,240.830 34.866 C 240.830 34.680,240.557 34.868,239.888 35.511 M332.468 43.401 C 332.468 48.077,332.494 49.962,332.526 47.589 C 332.557 45.217,332.557 41.391,332.526 39.087 C 332.494 36.783,332.468 38.725,332.468 43.401 M142.066 36.706 C 143.073 37.600,143.444 37.860,143.056 37.401 C 142.840 37.147,142.485 36.847,142.266 36.735 C 142.047 36.623,141.957 36.610,142.066 36.706 M89.965 38.340 C 89.965 38.504,90.776 38.800,90.897 38.680 C 90.929 38.647,90.733 38.519,90.461 38.395 C 90.188 38.271,89.965 38.246,89.965 38.340 M289.471 38.482 L 288.977 38.771 289.471 38.639 C 290.022 38.492,290.170 38.399,290.047 38.276 C 290.002 38.231,289.742 38.323,289.471 38.482 M233.317 41.226 C 233.180 41.391,233.158 41.522,233.268 41.522 C 233.377 41.522,233.577 41.389,233.712 41.226 C 233.850 41.060,233.871 40.929,233.761 40.929 C 233.652 40.929,233.452 41.063,233.317 41.226 M148.591 42.677 C 148.917 43.015,149.265 43.294,149.363 43.297 C 149.616 43.304,148.874 42.516,148.396 42.268 C 148.125 42.128,148.187 42.258,148.591 42.677 M230.486 44.017 C 229.745 44.733,229.172 45.352,229.212 45.393 C 229.252 45.433,229.901 44.845,230.653 44.087 C 232.385 42.342,232.270 42.294,230.486 44.017 M227.774 46.812 L 226.693 47.949 227.830 46.868 C 228.886 45.864,229.057 45.675,228.911 45.675 C 228.880 45.675,228.368 46.186,227.774 46.812 M152.654 46.773 C 152.794 46.942,153.094 47.177,153.320 47.294 C 153.688 47.485,153.680 47.452,153.253 46.987 C 152.746 46.436,152.217 46.248,152.654 46.773 M225.704 48.838 C 225.392 49.165,225.225 49.432,225.334 49.432 C 225.442 49.432,225.729 49.165,225.970 48.838 C 226.211 48.512,226.378 48.245,226.340 48.245 C 226.303 48.245,226.017 48.512,225.704 48.838 M158.766 53.337 C 159.133 53.799,159.469 54.177,159.513 54.177 C 159.652 54.177,158.805 53.064,158.445 52.775 C 158.254 52.622,158.398 52.874,158.766 53.337 M220.133 55.215 C 219.913 55.460,219.662 55.793,219.575 55.957 C 219.408 56.271,219.454 56.228,220.255 55.314 C 220.517 55.015,220.687 54.770,220.632 54.770 C 220.578 54.770,220.353 54.970,220.133 55.215 M162.954 58.437 C 163.309 58.931,163.732 59.443,163.895 59.574 C 164.057 59.705,163.806 59.301,163.337 58.675 C 162.327 57.330,162.023 57.140,162.954 58.437 M216.693 59.466 C 216.224 60.091,215.973 60.496,216.135 60.365 C 216.468 60.096,217.769 58.329,217.634 58.329 C 217.586 58.329,217.162 58.841,216.693 59.466 M129.511 61.279 C 130.000 61.727,130.578 62.188,130.796 62.301 C 131.273 62.551,130.897 62.214,129.483 61.126 L 128.621 60.462 129.511 61.279 M250.914 61.610 C 249.841 62.464,249.703 62.604,250.222 62.315 C 250.679 62.062,252.051 60.912,251.903 60.907 C 251.849 60.905,251.404 61.222,250.914 61.610 M243.104 68.538 L 240.732 70.829 243.154 68.610 C 245.292 66.651,245.720 66.224,245.526 66.243 C 245.499 66.246,244.409 67.279,243.104 68.538 M137.559 68.364 C 137.514 68.445,138.065 69.037,138.783 69.678 L 140.089 70.845 138.880 69.635 C 138.214 68.970,137.718 68.379,137.776 68.321 C 137.834 68.263,137.827 68.216,137.761 68.216 C 137.695 68.216,137.604 68.282,137.559 68.364 M238.351 73.183 C 237.812 73.740,237.463 74.162,237.576 74.122 C 237.791 74.045,239.557 72.170,239.415 72.170 C 239.370 72.170,238.891 72.626,238.351 73.183 M236.480 75.235 C 236.000 75.724,235.652 76.125,235.706 76.125 C 235.760 76.125,236.198 75.724,236.678 75.235 C 237.158 74.745,237.507 74.345,237.453 74.345 C 237.398 74.345,236.961 74.745,236.480 75.235 M228.346 84.973 C 227.777 85.660,227.536 86.011,227.634 86.011 C 227.689 86.011,227.971 85.699,228.261 85.319 C 228.800 84.612,228.865 84.346,228.346 84.973 M225.533 88.828 L 225.177 89.471 225.585 88.977 C 225.946 88.538,226.107 88.186,225.945 88.186 C 225.914 88.186,225.728 88.475,225.533 88.828 M218.037 100.843 C 217.659 101.284,217.615 101.434,217.862 101.434 C 217.954 101.434,218.130 101.211,218.254 100.939 C 218.526 100.341,218.483 100.322,218.037 100.843 M215.243 106.278 C 215.065 106.550,214.996 106.772,215.090 106.772 C 215.184 106.772,215.362 106.550,215.486 106.278 C 215.609 106.006,215.678 105.783,215.639 105.783 C 215.599 105.783,215.421 106.006,215.243 106.278 M174.606 133.404 C 174.598 133.642,174.681 133.892,174.790 133.959 C 175.024 134.104,175.024 133.911,174.790 133.366 C 174.626 132.985,174.619 132.986,174.606 133.404 M205.337 136.373 C 205.095 136.946,205.050 137.636,205.262 137.505 C 205.369 137.439,205.432 137.237,205.402 137.056 C 205.373 136.875,205.422 136.610,205.512 136.467 C 205.601 136.324,205.632 136.165,205.581 136.113 C 205.529 136.061,205.419 136.178,205.337 136.373 M177.360 148.591 C 177.360 148.863,177.437 149.086,177.531 149.086 C 177.624 149.086,177.658 148.863,177.606 148.591 C 177.555 148.319,177.478 148.097,177.436 148.097 C 177.394 148.097,177.360 148.319,177.360 148.591 M203.418 148.690 C 203.370 149.016,203.405 149.283,203.494 149.283 C 203.584 149.283,203.658 149.016,203.658 148.690 C 203.658 148.364,203.624 148.097,203.582 148.097 C 203.539 148.097,203.466 148.364,203.418 148.690 M202.666 159.407 C 202.614 160.028,202.643 160.463,202.731 160.374 C 202.819 160.286,202.862 159.778,202.826 159.247 L 202.762 158.280 202.666 159.407 M178.183 160.789 C 178.166 161.734,178.218 162.549,178.300 162.600 C 178.381 162.650,178.423 162.144,178.393 161.475 C 178.294 159.294,178.215 159.036,178.183 160.789 M202.525 162.531 C 202.525 163.020,202.564 163.220,202.611 162.976 C 202.658 162.731,202.658 162.331,202.611 162.086 C 202.564 161.841,202.525 162.042,202.525 162.531 M181.286 169.501 C 181.385 169.601,181.677 169.649,181.935 169.609 C 182.330 169.547,182.303 169.519,181.754 169.428 C 181.361 169.363,181.176 169.392,181.286 169.501 M188.888 169.401 C 189.845 169.437,191.357 169.437,192.249 169.401 C 193.141 169.364,192.358 169.334,190.509 169.334 C 188.660 169.335,187.931 169.365,188.888 169.401 M183.248 169.596 C 183.713 169.638,184.425 169.638,184.830 169.595 C 185.235 169.553,184.854 169.518,183.984 169.519 C 183.114 169.520,182.783 169.555,183.248 169.596 M195.699 169.594 C 196.053 169.638,196.631 169.638,196.985 169.594 C 197.338 169.550,197.049 169.515,196.342 169.515 C 195.635 169.515,195.346 169.550,195.699 169.594 M47.928 172.813 C 47.928 174.390,47.959 175.035,47.997 174.246 C 48.034 173.458,48.034 172.168,47.997 171.379 C 47.959 170.591,47.928 171.236,47.928 172.813 M296.292 260.208 C 296.292 304.523,296.314 322.652,296.342 300.494 C 296.370 278.337,296.370 242.079,296.342 219.921 C 296.314 197.763,296.292 215.892,296.292 260.208 M47.938 219.575 C 47.939 223.272,47.965 224.757,47.998 222.874 C 48.030 220.991,48.030 217.966,47.998 216.151 C 47.965 214.337,47.938 215.877,47.938 219.575 M254.165 226.446 L 253.584 227.088 254.226 226.508 C 254.825 225.966,254.960 225.803,254.807 225.803 C 254.773 225.803,254.484 226.092,254.165 226.446 M239.935 256.550 C 239.935 263.618,239.960 266.481,239.990 262.912 C 240.020 259.343,240.020 253.559,239.990 250.060 C 239.960 246.561,239.935 249.481,239.935 256.550 M227.483 327.138 C 227.483 366.831,227.506 383.099,227.533 363.288 C 227.561 343.478,227.561 311.001,227.533 291.118 C 227.506 271.236,227.483 287.444,227.483 327.138 M47.926 266.337 C 47.926 267.696,47.958 268.253,47.996 267.573 C 48.035 266.893,48.035 265.781,47.996 265.101 C 47.958 264.422,47.926 264.978,47.926 266.337 M328.275 267.425 C 328.277 267.860,328.318 268.014,328.365 267.768 C 328.413 267.522,328.411 267.166,328.361 266.977 C 328.312 266.788,328.273 266.990,328.275 267.425 M332.463 279.585 C 332.463 282.140,332.491 283.186,332.525 281.908 C 332.560 280.630,332.560 278.539,332.525 277.261 C 332.491 275.984,332.463 277.029,332.463 279.585 M48.097 276.125 C 48.100 276.560,48.140 276.714,48.187 276.468 C 48.235 276.222,48.233 275.866,48.183 275.677 C 48.134 275.488,48.095 275.690,48.097 276.125 M48.291 280.969 C 48.291 281.349,48.332 281.505,48.381 281.315 C 48.431 281.125,48.431 280.813,48.381 280.623 C 48.332 280.433,48.291 280.588,48.291 280.969 M170.907 285.912 C 170.907 286.945,170.940 287.368,170.981 286.851 C 171.021 286.335,171.021 285.489,170.981 284.973 C 170.940 284.456,170.907 284.879,170.907 285.912 M48.690 288.384 C 48.693 288.819,48.733 288.973,48.780 288.727 C 48.828 288.481,48.826 288.125,48.776 287.936 C 48.727 287.747,48.688 287.949,48.690 288.384 M171.129 348.591 C 171.129 365.067,171.153 371.807,171.181 363.569 C 171.210 355.331,171.210 341.851,171.181 333.613 C 171.153 325.376,171.129 332.116,171.129 348.591 M102.286 360.751 C 102.287 361.404,102.324 361.647,102.368 361.292 C 102.412 360.936,102.411 360.402,102.366 360.105 C 102.321 359.808,102.285 360.099,102.286 360.751 M296.244 368.858 C 296.246 369.293,296.286 369.448,296.334 369.202 C 296.381 368.956,296.379 368.600,296.330 368.411 C 296.280 368.222,296.241 368.423,296.244 368.858 M301.326 370.193 C 300.959 370.655,300.815 370.908,301.006 370.754 C 301.366 370.465,302.213 369.352,302.073 369.352 C 302.030 369.352,301.693 369.731,301.326 370.193 M85.813 371.787 C 85.813 371.821,86.102 372.110,86.456 372.430 L 87.098 373.010 86.518 372.368 C 85.976 371.769,85.813 371.634,85.813 371.787 M171.087 403.757 C 171.087 404.246,171.126 404.446,171.173 404.202 C 171.220 403.957,171.220 403.557,171.173 403.312 C 171.126 403.067,171.087 403.267,171.087 403.757 " stroke="none" fill="#346c84" fill-rule="evenodd"></path></g></svg>